%TF.GenerationSoftware,KiCad,Pcbnew,6.0.2+dfsg-1*%
%TF.CreationDate,2022-07-25T18:36:23+02:00*%
%TF.ProjectId,dragonwings_backplate,64726167-6f6e-4776-996e-67735f626163,rev?*%
%TF.SameCoordinates,Original*%
%TF.FileFunction,Legend,Top*%
%TF.FilePolarity,Positive*%
%FSLAX46Y46*%
G04 Gerber Fmt 4.6, Leading zero omitted, Abs format (unit mm)*
G04 Created by KiCad (PCBNEW 6.0.2+dfsg-1) date 2022-07-25 18:36:23*
%MOMM*%
%LPD*%
G01*
G04 APERTURE LIST*
%ADD10C,0.150000*%
%ADD11C,5.000000*%
%ADD12C,2.200000*%
G04 APERTURE END LIST*
D10*
X128190476Y-107819047D02*
X128190476Y-99819047D01*
X128190476Y-107438095D02*
X127428571Y-107819047D01*
X125904761Y-107819047D01*
X125142857Y-107438095D01*
X124761904Y-107057142D01*
X124380952Y-106295238D01*
X124380952Y-104009523D01*
X124761904Y-103247619D01*
X125142857Y-102866666D01*
X125904761Y-102485714D01*
X127428571Y-102485714D01*
X128190476Y-102866666D01*
X132000000Y-107819047D02*
X132000000Y-102485714D01*
X132000000Y-104009523D02*
X132380952Y-103247619D01*
X132761904Y-102866666D01*
X133523809Y-102485714D01*
X134285714Y-102485714D01*
X140380952Y-107819047D02*
X140380952Y-103628571D01*
X140000000Y-102866666D01*
X139238095Y-102485714D01*
X137714285Y-102485714D01*
X136952380Y-102866666D01*
X140380952Y-107438095D02*
X139619047Y-107819047D01*
X137714285Y-107819047D01*
X136952380Y-107438095D01*
X136571428Y-106676190D01*
X136571428Y-105914285D01*
X136952380Y-105152380D01*
X137714285Y-104771428D01*
X139619047Y-104771428D01*
X140380952Y-104390476D01*
X147619047Y-102485714D02*
X147619047Y-108961904D01*
X147238095Y-109723809D01*
X146857142Y-110104761D01*
X146095238Y-110485714D01*
X144952380Y-110485714D01*
X144190476Y-110104761D01*
X147619047Y-107438095D02*
X146857142Y-107819047D01*
X145333333Y-107819047D01*
X144571428Y-107438095D01*
X144190476Y-107057142D01*
X143809523Y-106295238D01*
X143809523Y-104009523D01*
X144190476Y-103247619D01*
X144571428Y-102866666D01*
X145333333Y-102485714D01*
X146857142Y-102485714D01*
X147619047Y-102866666D01*
X152571428Y-107819047D02*
X151809523Y-107438095D01*
X151428571Y-107057142D01*
X151047619Y-106295238D01*
X151047619Y-104009523D01*
X151428571Y-103247619D01*
X151809523Y-102866666D01*
X152571428Y-102485714D01*
X153714285Y-102485714D01*
X154476190Y-102866666D01*
X154857142Y-103247619D01*
X155238095Y-104009523D01*
X155238095Y-106295238D01*
X154857142Y-107057142D01*
X154476190Y-107438095D01*
X153714285Y-107819047D01*
X152571428Y-107819047D01*
X158666666Y-102485714D02*
X158666666Y-107819047D01*
X158666666Y-103247619D02*
X159047619Y-102866666D01*
X159809523Y-102485714D01*
X160952380Y-102485714D01*
X161714285Y-102866666D01*
X162095238Y-103628571D01*
X162095238Y-107819047D01*
X165142857Y-102485714D02*
X166666666Y-107819047D01*
X168190476Y-104009523D01*
X169714285Y-107819047D01*
X171238095Y-102485714D01*
X174285714Y-107819047D02*
X174285714Y-102485714D01*
X174285714Y-99819047D02*
X173904761Y-100200000D01*
X174285714Y-100580952D01*
X174666666Y-100200000D01*
X174285714Y-99819047D01*
X174285714Y-100580952D01*
X178095238Y-102485714D02*
X178095238Y-107819047D01*
X178095238Y-103247619D02*
X178476190Y-102866666D01*
X179238095Y-102485714D01*
X180380952Y-102485714D01*
X181142857Y-102866666D01*
X181523809Y-103628571D01*
X181523809Y-107819047D01*
X188761904Y-102485714D02*
X188761904Y-108961904D01*
X188380952Y-109723809D01*
X188000000Y-110104761D01*
X187238095Y-110485714D01*
X186095238Y-110485714D01*
X185333333Y-110104761D01*
X188761904Y-107438095D02*
X188000000Y-107819047D01*
X186476190Y-107819047D01*
X185714285Y-107438095D01*
X185333333Y-107057142D01*
X184952380Y-106295238D01*
X184952380Y-104009523D01*
X185333333Y-103247619D01*
X185714285Y-102866666D01*
X186476190Y-102485714D01*
X188000000Y-102485714D01*
X188761904Y-102866666D01*
X192190476Y-107438095D02*
X192952380Y-107819047D01*
X194476190Y-107819047D01*
X195238095Y-107438095D01*
X195619047Y-106676190D01*
X195619047Y-106295238D01*
X195238095Y-105533333D01*
X194476190Y-105152380D01*
X193333333Y-105152380D01*
X192571428Y-104771428D01*
X192190476Y-104009523D01*
X192190476Y-103628571D01*
X192571428Y-102866666D01*
X193333333Y-102485714D01*
X194476190Y-102485714D01*
X195238095Y-102866666D01*
%LPC*%
D11*
X245000000Y-30000000D03*
X65000000Y-75000000D03*
D12*
X25000000Y-39000000D03*
D11*
X160000000Y-114000000D03*
D12*
X221000000Y-36000000D03*
D11*
X75000000Y-30000000D03*
X255000000Y-75000000D03*
D12*
X295000000Y-39000000D03*
X245000000Y-84000000D03*
X99000000Y-36000000D03*
X75000000Y-84000000D03*
X160000000Y-120000000D03*
M02*
