%TF.GenerationSoftware,KiCad,Pcbnew,6.0.2+dfsg-1*%
%TF.CreationDate,2022-06-30T23:37:17+02:00*%
%TF.ProjectId,dragonwings_test,64726167-6f6e-4776-996e-67735f746573,v1.0.0*%
%TF.SameCoordinates,Original*%
%TF.FileFunction,Paste,Bot*%
%TF.FilePolarity,Positive*%
%FSLAX46Y46*%
G04 Gerber Fmt 4.6, Leading zero omitted, Abs format (unit mm)*
G04 Created by KiCad (PCBNEW 6.0.2+dfsg-1) date 2022-06-30 23:37:17*
%MOMM*%
%LPD*%
G01*
G04 APERTURE LIST*
G04 Aperture macros list*
%AMRotRect*
0 Rectangle, with rotation*
0 The origin of the aperture is its center*
0 $1 length*
0 $2 width*
0 $3 Rotation angle, in degrees counterclockwise*
0 Add horizontal line*
21,1,$1,$2,0,0,$3*%
G04 Aperture macros list end*
%ADD10RotRect,0.900000X1.200000X150.000000*%
%ADD11RotRect,0.900000X1.200000X210.000000*%
%ADD12R,1.800000X1.100000*%
G04 APERTURE END LIST*
D10*
%TO.C,D1*%
X91986655Y-131011533D03*
X89128771Y-129361533D03*
%TD*%
%TO.C,D10*%
X170840484Y-138432695D03*
X167982600Y-136782695D03*
%TD*%
D11*
%TO.C,D16*%
X330871228Y-129361533D03*
X328013344Y-131011533D03*
%TD*%
%TO.C,D18*%
X315282771Y-138361533D03*
X312424887Y-140011533D03*
%TD*%
%TO.C,D24*%
X260517399Y-151505127D03*
X257659515Y-153155127D03*
%TD*%
%TO.C,D25*%
X252017399Y-136782695D03*
X249159515Y-138432695D03*
%TD*%
D10*
%TO.C,D11*%
X177928942Y-162155127D03*
X175071058Y-160505127D03*
%TD*%
D11*
%TO.C,D17*%
X322371228Y-114639101D03*
X319513344Y-116289101D03*
%TD*%
D10*
%TO.C,D14*%
X155134713Y-183635889D03*
X152276829Y-181985889D03*
%TD*%
D11*
%TO.C,D26*%
X244928942Y-160505127D03*
X242071058Y-162155127D03*
%TD*%
%TO.C,D30*%
X252134713Y-190985889D03*
X249276829Y-192635889D03*
%TD*%
D10*
%TO.C,D6*%
X136663570Y-125628847D03*
X133805686Y-123978847D03*
%TD*%
%TO.C,D4*%
X116075113Y-125289101D03*
X113217229Y-123639101D03*
%TD*%
%TO.C,D2*%
X100486655Y-116289101D03*
X97628771Y-114639101D03*
%TD*%
%TO.C,D3*%
X107575113Y-140011533D03*
X104717229Y-138361533D03*
%TD*%
%TO.C,D15*%
X170723170Y-192635889D03*
X167865286Y-190985889D03*
%TD*%
%TO.C,D7*%
X147752027Y-142423076D03*
X144894143Y-140773076D03*
%TD*%
D11*
%TO.C,D29*%
X267723170Y-181985889D03*
X264865286Y-183635889D03*
%TD*%
D10*
%TO.C,D5*%
X128163570Y-140351279D03*
X125305686Y-138701279D03*
%TD*%
D11*
%TO.C,D22*%
X275105856Y-140773076D03*
X272247972Y-142423076D03*
%TD*%
%TO.C,D28*%
X283311627Y-172985889D03*
X280453743Y-174635889D03*
%TD*%
D10*
%TO.C,D9*%
X162340484Y-153155127D03*
X159482600Y-151505127D03*
%TD*%
D11*
%TO.C,D21*%
X286194313Y-123978847D03*
X283336429Y-125628847D03*
%TD*%
%TO.C,D23*%
X266605856Y-126050644D03*
X263747972Y-127700644D03*
%TD*%
%TO.C,D20*%
X294694313Y-138701279D03*
X291836429Y-140351279D03*
%TD*%
D10*
%TO.C,D8*%
X156252027Y-127700644D03*
X153394143Y-126050644D03*
%TD*%
%TO.C,D12*%
X186428942Y-147432695D03*
X183571058Y-145782695D03*
%TD*%
D11*
%TO.C,D27*%
X236428942Y-145782695D03*
X233571058Y-147432695D03*
%TD*%
%TO.C,D19*%
X306782771Y-123639101D03*
X303924887Y-125289101D03*
%TD*%
D10*
%TO.C,D13*%
X139546256Y-174635889D03*
X136688372Y-172985889D03*
%TD*%
D12*
%TO.C,B1*%
X213100000Y-148400000D03*
X206900000Y-148400000D03*
X213100000Y-152100000D03*
X206900000Y-152100000D03*
%TD*%
M02*
