%FSLAX45Y45*%
G04 Gerber Fmt 4.5, Leading zero omitted, Abs format (unit mm)*
G04 Created by KiCad (PCBNEW 6.0.2+dfsg-1) date 2022-06-30 23:38:22*
%MOMM*%
%LPD*%
G01*
G04 APERTURE LIST*
%TA.AperFunction,Profile*%
%ADD10C,0.120385*%
%TD*%
%ADD11C,0.200000*%
%ADD12C,0.170180*%
%ADD13C,0.220000*%
%ADD14C,0.342900*%
G04 APERTURE END LIST*
D10*
X20610984Y-14110124D02*
X20455127Y-14061435D01*
X11007000Y-15792000D02*
X10967000Y-15791000D01*
X8269553Y-13628342D02*
X8269553Y-13628342D01*
X18913030Y-19267454D02*
X19004947Y-19252224D01*
X28705766Y-9788421D02*
X28569298Y-9838299D01*
X28914390Y-17704325D02*
X28982254Y-17685919D01*
X34491765Y-12550667D02*
X34583760Y-12479255D01*
X24271695Y-19847684D02*
X24369433Y-19934825D01*
X29245642Y-17247847D02*
X29260803Y-17196796D01*
X29342961Y-16993208D02*
X29378116Y-16918891D01*
X16978138Y-11160731D02*
X16945462Y-11149548D01*
X6767098Y-10750818D02*
X6646113Y-10809324D01*
X24857708Y-11238089D02*
X24849968Y-11248243D01*
X6583700Y-11972055D02*
X6693833Y-12026447D01*
X12193592Y-16320994D02*
X12238563Y-16365008D01*
X21112046Y-20135645D02*
X21141576Y-20127137D01*
X12003222Y-9631781D02*
X11874913Y-9633523D01*
X14055582Y-18055436D02*
X14125726Y-18101284D01*
X15515520Y-19028483D02*
X15575123Y-19043739D01*
X20014116Y-19483958D02*
X20044230Y-19510649D01*
X25756198Y-19351090D02*
X25802053Y-19322288D01*
X10873281Y-15450072D02*
X10880801Y-15497549D01*
X14667082Y-18703876D02*
X14691679Y-18758369D01*
X10707346Y-14938687D02*
X10707346Y-14938687D01*
X24167278Y-11992766D02*
X24096380Y-12052127D01*
X12476230Y-16654867D02*
X12476230Y-16654867D01*
X5375000Y-11592000D02*
X5367500Y-11604000D01*
X6318852Y-10985111D02*
X6318852Y-10985111D01*
X35683089Y-10984837D02*
X35683089Y-10984837D01*
X5689429Y-11349011D02*
X5689429Y-11349011D01*
X27532892Y-18401932D02*
X27574436Y-18355703D01*
X16945462Y-11149548D02*
X16905240Y-11135084D01*
X24718749Y-20258402D02*
X24735967Y-20274246D01*
X8269553Y-13628342D02*
X8479999Y-13659762D01*
X29356835Y-9654927D02*
X29356835Y-9654927D01*
X7342128Y-10502342D02*
X7342128Y-10502342D01*
X19095672Y-19241522D02*
X19184965Y-19235370D01*
X6423174Y-10925912D02*
X6318852Y-10985111D01*
X20235406Y-19696151D02*
X20235406Y-19696151D01*
X24994515Y-11170436D02*
X24980468Y-11175477D01*
X20975389Y-20149825D02*
X20946016Y-20146989D01*
X5689429Y-11349011D02*
X5637859Y-11382583D01*
X15694075Y-19080775D02*
X15754098Y-19102715D01*
X31544947Y-14647394D02*
X31615038Y-14576426D01*
X17254602Y-11395693D02*
X17235370Y-11370199D01*
X16652788Y-19677694D02*
X16750827Y-19773332D01*
X20610984Y-14110124D02*
X20610984Y-14110124D01*
X11128845Y-15806345D02*
X11171218Y-15813700D01*
X29230244Y-17308417D02*
X29245642Y-17247847D01*
X16593748Y-11013270D02*
X16593748Y-11013270D01*
X5775136Y-11715660D02*
X5939279Y-11755564D01*
X18349750Y-19452671D02*
X18443845Y-19410741D01*
X10992880Y-9693249D02*
X10387361Y-9758299D01*
X24915998Y-20149946D02*
X24915998Y-20149946D01*
X29356835Y-9654927D02*
X29356835Y-9654927D01*
X12691047Y-17066204D02*
X12718831Y-17134882D01*
X20076542Y-19540418D02*
X20111435Y-19573558D01*
X13646334Y-17872630D02*
X13749644Y-17908706D01*
X16700430Y-11056515D02*
X16593748Y-11013270D01*
X5367500Y-11604000D02*
X5363000Y-11613000D01*
X25711011Y-19380976D02*
X25756198Y-19351090D01*
X5391608Y-11572848D02*
X5381958Y-11583096D01*
X10387361Y-9758299D02*
X9814321Y-9839296D01*
X25021156Y-20019070D02*
X25061151Y-19973248D01*
X33521941Y-13659488D02*
X33732387Y-13628068D01*
X16199887Y-19322562D02*
X16245743Y-19351364D01*
X17864888Y-19738773D02*
X17900465Y-19712678D01*
X10317482Y-14509372D02*
X10386902Y-14576700D01*
X30296693Y-15981691D02*
X30335787Y-15964149D01*
X7510176Y-12550942D02*
X7598093Y-12623114D01*
X28832511Y-17727474D02*
X28914390Y-17704325D01*
X36634440Y-11603726D02*
X36626940Y-11591726D01*
X30913610Y-15800191D02*
X30951941Y-15795883D01*
X16978138Y-11160731D02*
X16978138Y-11160731D01*
X25666290Y-19412099D02*
X25711011Y-19380976D01*
X7342128Y-10502342D02*
X7182338Y-10567746D01*
X24863483Y-11231109D02*
X24857708Y-11238089D01*
X10891758Y-15590404D02*
X10895040Y-15635202D01*
X8192841Y-13384206D02*
X8203443Y-13414888D01*
X19858255Y-19371959D02*
X19883183Y-19386365D01*
X22254582Y-13689544D02*
X22138754Y-13775516D01*
X10724795Y-14970818D02*
X10741845Y-15005821D01*
X25408192Y-11012995D02*
X25408192Y-11012995D01*
X8479999Y-13659762D02*
X8479999Y-13659762D01*
X31845951Y-14366179D02*
X31941823Y-14288891D01*
X31170524Y-15259647D02*
X31183546Y-15213497D01*
X17721206Y-11895201D02*
X17658756Y-11836753D01*
X25996240Y-19214877D02*
X25996240Y-19214877D01*
X14390695Y-10184801D02*
X13868420Y-9996979D01*
X20397536Y-19855116D02*
X20430253Y-19885083D01*
X35578766Y-10925638D02*
X35470074Y-10867228D01*
X29736333Y-9634513D02*
X29606056Y-9639219D01*
X5939279Y-11755564D02*
X6080787Y-11792443D01*
X19004947Y-19252224D02*
X19095672Y-19241522D01*
X18090891Y-19588746D02*
X18131631Y-19565176D01*
X8148425Y-13273507D02*
X8159971Y-13299668D01*
X16980784Y-20019344D02*
X17018176Y-20063920D01*
X16559409Y-19591887D02*
X16605618Y-19633638D01*
X12001755Y-16160210D02*
X12051324Y-16197952D01*
X10903000Y-15792000D02*
X10935000Y-15791000D01*
X24983764Y-20063646D02*
X25021156Y-20019070D01*
X33984510Y-13054816D02*
X33984510Y-13054816D01*
X12324278Y-16457045D02*
X12364838Y-16504905D01*
X31034940Y-15790726D02*
X30994940Y-15791726D01*
X21639741Y-19821345D02*
X21678203Y-19783938D01*
X35593900Y-11896254D02*
X35690628Y-11861491D01*
X30509645Y-15898131D02*
X30602473Y-15868962D01*
X19387147Y-13395552D02*
X19249721Y-13273945D01*
X20939060Y-14197274D02*
X20968897Y-14199439D01*
X30127027Y-9633249D02*
X29998719Y-9631507D01*
X33521941Y-13659488D02*
X33521941Y-13659488D01*
X16513958Y-19552289D02*
X16559409Y-19591887D01*
X24271695Y-19847684D02*
X24271695Y-19847684D01*
X23181785Y-19286915D02*
X23275377Y-19311134D01*
X12511784Y-16711102D02*
X12549032Y-16775528D01*
X15455383Y-19015294D02*
X15515520Y-19028483D01*
X16005700Y-19215151D02*
X16005700Y-19215151D01*
X31243520Y-15043132D02*
X31260095Y-15005547D01*
X24027876Y-19661562D02*
X24065091Y-19686763D01*
X24766571Y-11369925D02*
X24747338Y-11395419D01*
X21923586Y-13916703D02*
X21889091Y-13934374D01*
X31750060Y-14448795D02*
X31750060Y-14448795D01*
X22059767Y-13831825D02*
X21990325Y-13877867D01*
X11666153Y-15964423D02*
X11705248Y-15981965D01*
X31121140Y-15497275D02*
X31128659Y-15449798D01*
X24280734Y-11894927D02*
X24280734Y-11894927D01*
X31277146Y-14970544D02*
X31294595Y-14938413D01*
X23786008Y-19518870D02*
X23828636Y-19541705D01*
X33865475Y-13247839D02*
X33877918Y-13223065D01*
X6896008Y-10691426D02*
X6767098Y-10750818D01*
X12799631Y-17439536D02*
X12810381Y-17500386D01*
X20690643Y-20058544D02*
X20762514Y-20090268D01*
X29191560Y-17500112D02*
X29202309Y-17439262D01*
X12364838Y-16504905D02*
X12403744Y-16553883D01*
X17658756Y-11836753D02*
X17588041Y-11766512D01*
X20600000Y-20012000D02*
X20572333Y-19995245D01*
X23652190Y-19452397D02*
X23742405Y-19496382D01*
X28569298Y-9838299D02*
X28569298Y-9838299D01*
X26187005Y-19126768D02*
X26247842Y-19102441D01*
X27611246Y-10184527D02*
X27611246Y-10184527D01*
X24876327Y-11221370D02*
X24890416Y-11213488D01*
X23463770Y-19372932D02*
X23558095Y-19410467D01*
X21000000Y-14200000D02*
X21000000Y-14200000D01*
X22904880Y-13134603D02*
X22752219Y-13273671D01*
X9271069Y-9936779D02*
X8754914Y-10051287D01*
X8620583Y-13682486D02*
X8755190Y-13707868D01*
X29525710Y-16654593D02*
X29561035Y-16603623D01*
X18820156Y-19287189D02*
X18913030Y-19267454D01*
X14610736Y-18598573D02*
X14640105Y-18650617D01*
X29271196Y-17166666D02*
X29283109Y-17134608D01*
X10251880Y-14449069D02*
X10251880Y-14449069D01*
X32993757Y-13767093D02*
X33117693Y-13735824D01*
X17796075Y-19792378D02*
X17830098Y-19765335D01*
X20600000Y-20012000D02*
X20628602Y-20027882D01*
X23950876Y-19612430D02*
X23989812Y-19636789D01*
X30994940Y-15791726D02*
X30951941Y-15795883D01*
X20610984Y-14110124D02*
X20610984Y-14110124D01*
X12964933Y-17672291D02*
X13019686Y-17686193D01*
X21456848Y-19976962D02*
X21484168Y-19957322D01*
X10586599Y-14786991D02*
X10639817Y-14848579D01*
X36417438Y-11671298D02*
X36417438Y-11671298D01*
X31158446Y-15306642D02*
X31170524Y-15259647D01*
X23885171Y-12230011D02*
X23692722Y-12401202D01*
X34659812Y-10502067D02*
X34208807Y-10333255D01*
X18730299Y-12790676D02*
X18523335Y-12596936D01*
X12134086Y-9632209D02*
X12003222Y-9631781D01*
X34984472Y-12207281D02*
X35090821Y-12144227D01*
X13838127Y-17943313D02*
X13878089Y-17960600D01*
X24231503Y-11938024D02*
X24167278Y-11992766D01*
X11633566Y-9643608D02*
X10992880Y-9693249D01*
X17060499Y-11190754D02*
X17083315Y-11200390D01*
X19863186Y-13775791D02*
X19863186Y-13775791D01*
X32187619Y-9839022D02*
X31614579Y-9758024D01*
X27819597Y-18140847D02*
X27876214Y-18101010D01*
X25996240Y-19214877D02*
X25996240Y-19214877D01*
X12147334Y-16278425D02*
X12193592Y-16320994D01*
X12768171Y-9665752D02*
X12645106Y-9655201D01*
X26299169Y-10662744D02*
X25823744Y-10845329D01*
X10696311Y-14921351D02*
X10707346Y-14938687D01*
X35105933Y-10691152D02*
X34967914Y-10630314D01*
X17237664Y-20299760D02*
X17250654Y-20288342D01*
X23870309Y-19564902D02*
X23911049Y-19588472D01*
X19942173Y-13832099D02*
X19863186Y-13775791D01*
X28859332Y-9735207D02*
X28813470Y-9750412D01*
X21546814Y-14061161D02*
X21390956Y-14109850D01*
X23076709Y-12974653D02*
X22904880Y-13134603D01*
X28133521Y-9996704D02*
X27611246Y-10184527D01*
X15064476Y-18975096D02*
X15134893Y-18977560D01*
X5584502Y-11671573D02*
X5584502Y-11671573D01*
X24587915Y-20135049D02*
X24680331Y-20222178D01*
X14469049Y-18402206D02*
X14508130Y-18449563D01*
X32135226Y-14149537D02*
X32233613Y-14087089D01*
X7182338Y-10567746D02*
X7034026Y-10630588D01*
X30206748Y-16027515D02*
X30260002Y-15999455D01*
X36417438Y-11671298D02*
X36417438Y-11671298D01*
X28163813Y-17943039D02*
X28252296Y-17908432D01*
X9353550Y-13881315D02*
X9461285Y-13926647D01*
X15332159Y-18994798D02*
X15394375Y-19004092D01*
X35308108Y-12026172D02*
X35418241Y-11971781D01*
X29415164Y-16845424D02*
X29452909Y-16775254D01*
X11088330Y-15800465D02*
X11128845Y-15806345D01*
X34659812Y-10502067D02*
X34659812Y-10502067D01*
X14766994Y-18973455D02*
X14991165Y-18974138D01*
X6080787Y-11792443D02*
X6203513Y-11827457D01*
X16750827Y-19773332D02*
X16750827Y-19773332D01*
X27334859Y-18703602D02*
X27361835Y-18650343D01*
X5438779Y-11530757D02*
X5404523Y-11560530D01*
X17111525Y-11213762D02*
X17125613Y-11221644D01*
X23558095Y-19410467D02*
X23652190Y-19452397D01*
X8224541Y-13480881D02*
X8224541Y-13480881D01*
X18259535Y-19496656D02*
X18349750Y-19452671D01*
X34583760Y-12479255D02*
X34679431Y-12408905D01*
X17085942Y-20150220D02*
X17085942Y-20150220D01*
X25823744Y-10845329D02*
X25408192Y-11012995D01*
X17304881Y-11457494D02*
X17254602Y-11395693D01*
X30830722Y-15813426D02*
X30873095Y-15806071D01*
X17048070Y-11185799D02*
X17035040Y-11180789D01*
X7223566Y-12340198D02*
X7322510Y-12409180D01*
X30602473Y-15868962D02*
X30695739Y-15843381D01*
X8224541Y-13480881D02*
X8269553Y-13628342D01*
X31614579Y-9758024D02*
X31009061Y-9692975D01*
X16897994Y-19926232D02*
X16940789Y-19973522D01*
X27288030Y-18813839D02*
X27310262Y-18758095D01*
X20044230Y-19510649D02*
X20076542Y-19540418D01*
X8754914Y-10051287D02*
X8263165Y-10183357D01*
X33798498Y-13414614D02*
X33809100Y-13383931D01*
X16593748Y-11013270D02*
X16593748Y-11013270D01*
X14236414Y-18181980D02*
X14287951Y-18223877D01*
X6408041Y-11896528D02*
X6497551Y-11932905D01*
X21889091Y-13934374D02*
X21852707Y-13951391D01*
X22195336Y-19345633D02*
X22222820Y-19333398D01*
X13915880Y-17978162D02*
X13952013Y-17996213D01*
X20984095Y-14199875D02*
X20968897Y-14199439D01*
X27361835Y-18650343D02*
X27391204Y-18598299D01*
X13087550Y-17704599D02*
X13169429Y-17727748D01*
X22143686Y-19371685D02*
X22169085Y-19358297D01*
X16940789Y-19973522D02*
X16980784Y-20019344D01*
X24271695Y-19847684D02*
X24271695Y-19847684D01*
X25023803Y-11160457D02*
X25008980Y-11165421D01*
X25056479Y-11149274D02*
X25023803Y-11160457D01*
X21957711Y-19510375D02*
X21987824Y-19483684D01*
X21239427Y-20089994D02*
X21239427Y-20089994D01*
X35470074Y-10867228D02*
X35355828Y-10809050D01*
X31294595Y-14938413D02*
X31294595Y-14938413D01*
X5584502Y-11671573D02*
X5584502Y-11671573D01*
X36619982Y-11582822D02*
X36610333Y-11572574D01*
X28049928Y-17995939D02*
X28086060Y-17977888D01*
X12586777Y-16845698D02*
X12623824Y-16919165D01*
X30376957Y-15946925D02*
X30419875Y-15930117D01*
X11751061Y-9637459D02*
X11633566Y-9643608D01*
X16803210Y-19826359D02*
X16852200Y-19877251D01*
X21852707Y-13951391D02*
X21813577Y-13968136D01*
X19985820Y-19460050D02*
X20014116Y-19483958D01*
X12819970Y-17572690D02*
X12822615Y-17607142D01*
X24863483Y-11231109D02*
X24876327Y-11221370D01*
X19958960Y-19438631D02*
X19985820Y-19460050D01*
X19863186Y-13775791D02*
X19863186Y-13775791D01*
X32435899Y-13975698D02*
X32540655Y-13926373D01*
X36449370Y-11664001D02*
X36478001Y-11657334D01*
X10901000Y-15744000D02*
X10902000Y-15770000D01*
X31066940Y-15790726D02*
X31098940Y-15791726D01*
X14390695Y-10184801D02*
X14390695Y-10184801D01*
X11899948Y-16090128D02*
X11951266Y-16124242D01*
X34101004Y-12913052D02*
X34168586Y-12840879D01*
X19908023Y-19402083D02*
X19933155Y-19419406D01*
X24781179Y-11348785D02*
X24781179Y-11348785D01*
X21390956Y-14109850D02*
X21390956Y-14109850D01*
X21925398Y-19540143D02*
X21957711Y-19510375D01*
X29606056Y-9639219D02*
X29478923Y-9646031D01*
X31009061Y-9692975D02*
X30368374Y-9643334D01*
X17730246Y-19847958D02*
X17730246Y-19847958D01*
X5895475Y-11226865D02*
X5817872Y-11271888D01*
X33732387Y-13628068D02*
X33732387Y-13628068D01*
X8083082Y-13151290D02*
X8067996Y-13127545D01*
X12822615Y-17607142D02*
X12822615Y-17638142D01*
X30154047Y-16057675D02*
X30206748Y-16027515D01*
X29452909Y-16775254D02*
X29490156Y-16710828D01*
X19513273Y-13503119D02*
X19387147Y-13395552D01*
X14733791Y-18871127D02*
X14733791Y-18871127D01*
X36610333Y-11572574D02*
X36597417Y-11560255D01*
X28735715Y-17755602D02*
X28832511Y-17727474D01*
X30873095Y-15806071D02*
X30913610Y-15800191D01*
X26307865Y-19080501D02*
X26367411Y-19060869D01*
X19750022Y-19321573D02*
X19750022Y-19321573D01*
X19883183Y-19386365D02*
X19908023Y-19402083D01*
X23742405Y-19496382D02*
X23786008Y-19518870D01*
X27611246Y-10184527D02*
X26879870Y-10448168D01*
X12099881Y-16237384D02*
X12147334Y-16278425D01*
X26061541Y-19182906D02*
X26125017Y-19153563D01*
X20796991Y-20104448D02*
X20829544Y-20116738D01*
X18730299Y-12790676D02*
X18730299Y-12790676D01*
X21541080Y-19911624D02*
X21571687Y-19884809D01*
X24915998Y-20149946D02*
X24948777Y-20107197D01*
X17021472Y-11175751D02*
X17007425Y-11170711D01*
X29998719Y-9631507D02*
X29867854Y-9631935D01*
X12756298Y-17248121D02*
X12771697Y-17308691D01*
X24027132Y-12109080D02*
X23964264Y-12161639D01*
X27422980Y-18547454D02*
X27457178Y-18497790D01*
X31098940Y-15791726D02*
X31099940Y-15769726D01*
X16469060Y-19514691D02*
X16513958Y-19552289D01*
X21766534Y-19695876D02*
X21766534Y-19695876D01*
X24280734Y-11894927D02*
X24280734Y-11894927D01*
X29283109Y-17134608D02*
X29310893Y-17065930D01*
X11049999Y-15796157D02*
X11088330Y-15800465D01*
X20628602Y-20027882D02*
X20658647Y-20043270D01*
X29015619Y-9693644D02*
X28978384Y-9701667D01*
X24784940Y-20318726D02*
X24764277Y-20299485D01*
X7342128Y-10502342D02*
X7342128Y-10502342D01*
X10789828Y-15125162D02*
X10804505Y-15168755D01*
X33521941Y-13659488D02*
X33521941Y-13659488D01*
X17265973Y-20274520D02*
X17283192Y-20258676D01*
X10741845Y-15005821D02*
X10758420Y-15043406D01*
X21204949Y-20104174D02*
X21239427Y-20089994D01*
X22996993Y-19251950D02*
X23088911Y-19267180D01*
X20918410Y-20142262D02*
X20946016Y-20146989D01*
X12395884Y-9639493D02*
X12265607Y-9634787D01*
X20330777Y-14020835D02*
X20455127Y-14061435D01*
X25487983Y-19552015D02*
X25532881Y-19514417D01*
X25996240Y-19214877D02*
X26061541Y-19182906D01*
X31320825Y-14899998D02*
X31339787Y-14875599D01*
X31362123Y-14848305D02*
X31415341Y-14786717D01*
X8224541Y-13480881D02*
X8224541Y-13480881D01*
X16005700Y-19215151D02*
X16005700Y-19215151D01*
X33738775Y-10183083D02*
X33247027Y-10051012D01*
X5363000Y-11613000D02*
X5391000Y-11623000D01*
X18116769Y-12230286D02*
X18037676Y-12161913D01*
X27876214Y-18101010D02*
X27946358Y-18055162D01*
X10681116Y-14900272D02*
X10696311Y-14921351D01*
X18012129Y-19637064D02*
X18051064Y-19612705D01*
X24867347Y-20214221D02*
X24915998Y-20149946D01*
X18443845Y-19410741D02*
X18538170Y-19373206D01*
X20923636Y-14195363D02*
X20907353Y-14192779D01*
X20044895Y-13898269D02*
X20011616Y-13878142D01*
X28901359Y-9722188D02*
X28859332Y-9735207D01*
X29135639Y-9675395D02*
X29093127Y-9680768D01*
X25251114Y-19773058D02*
X25251114Y-19773058D01*
X10897748Y-15687828D02*
X10898985Y-15708683D01*
X14427504Y-18355977D02*
X14469049Y-18402206D01*
X10864505Y-15402281D02*
X10873281Y-15450072D01*
X15940399Y-19183180D02*
X16005700Y-19215151D01*
X25193475Y-11098458D02*
X25096701Y-11134810D01*
X14991165Y-18974138D02*
X15064476Y-18975096D01*
X10895040Y-15635202D02*
X10897748Y-15687828D01*
X24479561Y-20034939D02*
X24587915Y-20135049D01*
X8136465Y-13248113D02*
X8148425Y-13273507D01*
X36470548Y-11457916D02*
X36417675Y-11419418D01*
X36226805Y-11715386D02*
X36417438Y-11671298D01*
X17191728Y-20287383D02*
X17204400Y-20302691D01*
X24747338Y-11395419D02*
X24697059Y-11457220D01*
X17974808Y-12109355D02*
X17974808Y-12109355D01*
X16153159Y-19294693D02*
X16199887Y-19322562D01*
X12476230Y-16654867D02*
X12476230Y-16654867D01*
X22251918Y-19321298D02*
X22324551Y-19294978D01*
X19933155Y-19419406D02*
X19958960Y-19438631D01*
X16750827Y-19773332D02*
X16750827Y-19773332D01*
X16005700Y-19215151D02*
X16056269Y-19241140D01*
X17632507Y-19935099D02*
X17730246Y-19847958D01*
X27611246Y-10184527D02*
X27611246Y-10184527D01*
X29202309Y-17439262D02*
X29215502Y-17373793D01*
X27234946Y-18973181D02*
X27268149Y-18870853D01*
X19097061Y-13134877D02*
X18925231Y-12974928D01*
X13023556Y-9701941D02*
X12986322Y-9693918D01*
X17900465Y-19712678D02*
X17936850Y-19687037D01*
X20149289Y-19610364D02*
X20235406Y-19696151D01*
X10895040Y-15635202D02*
X10895040Y-15635202D01*
X33777400Y-13480607D02*
X33787955Y-13446790D01*
X24027132Y-12109080D02*
X24027132Y-12109080D01*
X31128659Y-15449798D02*
X31137436Y-15402007D01*
X14691679Y-18758369D02*
X14713910Y-18814113D01*
X20658647Y-20043270D02*
X20690643Y-20058544D01*
X16056269Y-19241140D02*
X16105354Y-19267603D01*
X25149740Y-19876977D02*
X25198730Y-19826084D01*
X25442531Y-19591613D02*
X25487983Y-19552015D01*
X29179325Y-17637868D02*
X29179325Y-17606868D01*
X15394375Y-19004092D02*
X15455383Y-19015294D01*
X14578960Y-18547729D02*
X14610736Y-18598573D01*
X7760085Y-12768524D02*
X7833354Y-12841153D01*
X29719785Y-16410111D02*
X29763377Y-16364733D01*
X14544763Y-18498064D02*
X14578960Y-18547729D01*
X10456994Y-14647668D02*
X10524609Y-14718893D01*
X17730246Y-19847958D02*
X17762798Y-19819914D01*
X27010776Y-18973864D02*
X27010776Y-18973864D01*
X29637103Y-16504631D02*
X29677663Y-16456771D01*
X5523939Y-11657608D02*
X5498438Y-11651512D01*
X8017430Y-13055090D02*
X8035241Y-13079591D01*
X8171176Y-13326741D02*
X8182108Y-13354872D01*
X35198834Y-12083756D02*
X35308108Y-12026172D01*
X10060117Y-14289165D02*
X10155990Y-14366453D01*
X34659812Y-10502067D02*
X34659812Y-10502067D01*
X33853516Y-13273233D02*
X33865475Y-13247839D01*
X13868420Y-9996979D02*
X13432642Y-9838573D01*
X26879870Y-10448168D02*
X26299169Y-10662744D01*
X24908359Y-11204744D02*
X24890416Y-11213488D01*
X35690628Y-11861491D02*
X35798428Y-11827182D01*
X33830765Y-13326467D02*
X33841969Y-13299394D01*
X18131631Y-19565176D02*
X18173304Y-19541980D01*
X31750060Y-14448795D02*
X31750060Y-14448795D01*
X21202968Y-14166583D02*
X21232396Y-14157952D01*
X6911119Y-12144501D02*
X7017468Y-12207555D01*
X31099940Y-15769726D02*
X31100940Y-15743726D01*
X26125017Y-19153563D02*
X26187005Y-19126768D01*
X11215120Y-15822435D02*
X11306201Y-15843656D01*
X23478605Y-12596662D02*
X23271642Y-12790401D01*
X6497551Y-11932905D02*
X6583700Y-11972055D01*
X15575123Y-19043739D02*
X15634529Y-19061143D01*
X29260803Y-17196796D02*
X29260803Y-17196796D01*
X9127427Y-13801866D02*
X9242406Y-13839784D01*
X22016121Y-19459776D02*
X22042981Y-19438357D01*
X24280734Y-11894927D02*
X24231503Y-11938024D01*
X17321609Y-20222453D02*
X17321609Y-20222453D01*
X8097401Y-13175073D02*
X8111024Y-13199041D01*
X19750022Y-19321573D02*
X19750022Y-19321573D01*
X5531393Y-11458190D02*
X5481983Y-11495928D01*
X21311298Y-20058270D02*
X21343293Y-20042996D01*
X18730299Y-12790676D02*
X18730299Y-12790676D01*
X31339787Y-14875599D02*
X31362123Y-14848305D01*
X12741138Y-17197071D02*
X12756298Y-17248121D01*
X17974808Y-12109355D02*
X17974808Y-12109355D01*
X31137436Y-15402007D02*
X31147390Y-15354192D01*
X5746124Y-11314400D02*
X5689429Y-11349011D01*
X22729350Y-19233516D02*
X22816975Y-19235096D01*
X15134893Y-18977560D02*
X15202755Y-18981612D01*
X18349750Y-19452671D02*
X18349750Y-19452671D01*
X20762514Y-20090268D02*
X20796991Y-20104448D01*
X17367482Y-11529970D02*
X17304881Y-11457494D01*
X10880801Y-15497549D02*
X10886986Y-15544423D01*
X24137053Y-19738499D02*
X24171842Y-19765061D01*
X19779120Y-19333672D02*
X19806605Y-19345907D01*
X24735967Y-20274246D02*
X24751286Y-20288068D01*
X36106465Y-11226591D02*
X36032206Y-11184448D01*
X16803210Y-19826359D02*
X16750827Y-19773332D01*
X17283192Y-20258676D02*
X17301880Y-20241192D01*
X31684459Y-14509098D02*
X31750060Y-14448795D01*
X12051324Y-16197952D02*
X12099881Y-16237384D01*
X26937465Y-18974821D02*
X27010776Y-18973864D01*
X26367411Y-19060869D02*
X26426817Y-19043465D01*
X20829544Y-20116738D02*
X20860449Y-20127137D01*
X10804505Y-15168755D02*
X10818394Y-15213771D01*
X25408192Y-11012995D02*
X25408192Y-11012995D01*
X24563653Y-11608353D02*
X24488761Y-11688699D01*
X31102955Y-15708409D02*
X31104193Y-15687554D01*
X33777400Y-13480607D02*
X33777400Y-13480607D01*
X12282156Y-16410385D02*
X12324278Y-16457045D01*
X33117693Y-13735824D02*
X33246751Y-13707594D01*
X33904539Y-13174799D02*
X33918858Y-13151016D01*
X22324551Y-19294978D02*
X22400276Y-19273363D01*
X11847893Y-16057950D02*
X11899948Y-16090128D01*
X17085942Y-20150220D02*
X17134593Y-20214495D01*
X8755190Y-13707868D02*
X8884247Y-13736098D01*
X36503502Y-11651237D02*
X36526045Y-11645650D01*
X28569298Y-9838299D02*
X28133521Y-9996704D01*
X13061270Y-9711369D02*
X13023556Y-9701941D01*
X36032206Y-11184448D02*
X36032206Y-11184448D01*
X18215932Y-19519144D02*
X18259535Y-19496656D01*
X22222820Y-19333398D02*
X22251918Y-19321298D01*
X35921154Y-11792168D02*
X36062661Y-11755289D01*
X34403847Y-12622840D02*
X34491765Y-12550667D01*
X20149234Y-13951665D02*
X20112849Y-13934649D01*
X24784940Y-20318726D02*
X24797541Y-20302417D01*
X35798428Y-11827182D02*
X35921154Y-11792168D01*
X34241856Y-12768250D02*
X34320410Y-12695469D01*
X28940670Y-9711095D02*
X28901359Y-9722188D01*
X17513179Y-11688973D02*
X17438287Y-11608628D01*
X36364082Y-11382309D02*
X36312511Y-11348737D01*
X28813470Y-9750412D02*
X28705766Y-9788421D01*
X24488761Y-11688699D02*
X24413899Y-11766238D01*
X8124022Y-13223339D02*
X8136465Y-13248113D01*
X14336969Y-18266830D02*
X14383482Y-18310858D01*
X9814321Y-9839296D02*
X9271069Y-9936779D01*
X11741939Y-15999730D02*
X11795193Y-16027790D01*
X24797541Y-20302417D02*
X24810212Y-20287109D01*
X18632489Y-19340088D02*
X18726563Y-19311408D01*
X19632032Y-13600068D02*
X19513273Y-13503119D01*
X16605618Y-19633638D02*
X16652788Y-19677694D01*
X36626940Y-11591726D02*
X36619982Y-11582822D01*
X12658980Y-16993483D02*
X12691047Y-17066204D01*
X23989812Y-19636789D02*
X24027876Y-19661562D01*
X13019686Y-17686193D02*
X13087550Y-17704599D01*
X23088911Y-19267180D02*
X23181785Y-19286915D01*
X12265607Y-9634787D02*
X12134086Y-9632209D01*
X29677663Y-16456771D02*
X29719785Y-16410111D01*
X16178197Y-10845604D02*
X15702771Y-10663019D01*
X21202968Y-14166583D02*
X21176517Y-14173894D01*
X30951941Y-15795883D02*
X30951941Y-15795883D01*
X29356835Y-9654927D02*
X29233769Y-9665478D01*
X25096701Y-11134810D02*
X25056479Y-11149274D01*
X31415341Y-14786717D02*
X31477332Y-14718619D01*
X33933944Y-13127271D02*
X33949867Y-13103420D01*
X23964264Y-12161639D02*
X23885171Y-12230011D01*
X8884247Y-13736098D02*
X9008183Y-13767367D01*
X12238563Y-16365008D02*
X12282156Y-16410385D01*
X20889673Y-14189602D02*
X20907353Y-14192779D01*
X7962429Y-12984740D02*
X8017430Y-13055090D01*
X26733542Y-18987057D02*
X26799185Y-18981338D01*
X5475895Y-11645924D02*
X5498438Y-11651512D01*
X17204400Y-20302691D02*
X17217000Y-20319000D01*
X29260803Y-17196796D02*
X29260803Y-17196796D01*
X33841969Y-13299394D02*
X33853516Y-13273233D01*
X12476230Y-16654867D02*
X12511784Y-16711102D01*
X23911049Y-19588472D02*
X23950876Y-19612430D01*
X12645106Y-9655201D02*
X12523017Y-9646305D01*
X19806605Y-19345907D02*
X19832855Y-19358572D01*
X29867854Y-9631935D02*
X29736333Y-9634513D01*
X16992960Y-11165695D02*
X16978138Y-11160731D01*
X16593748Y-11013270D02*
X16178197Y-10845604D01*
X13188470Y-9750686D02*
X13142608Y-9735481D01*
X32540655Y-13926373D02*
X32648391Y-13881040D01*
X25301510Y-11056241D02*
X25193475Y-11098458D01*
X20330777Y-14020835D02*
X20231094Y-13985265D01*
X20999854Y-20150770D02*
X20975389Y-20149825D01*
X26426817Y-19043465D02*
X26486420Y-19028208D01*
X18523335Y-12596936D02*
X18309218Y-12401476D01*
X33247027Y-10051012D02*
X32730872Y-9936505D01*
X10707346Y-14938687D02*
X10724795Y-14970818D01*
X12817794Y-17551904D02*
X12810381Y-17500386D01*
X29378116Y-16918891D02*
X29415164Y-16845424D01*
X16808466Y-11098733D02*
X16700430Y-11056515D01*
X25848781Y-19294419D02*
X25896586Y-19267329D01*
X10524609Y-14718893D02*
X10586599Y-14786991D01*
X22138754Y-13775516D02*
X22138754Y-13775516D01*
X29490156Y-16710828D02*
X29525710Y-16654593D01*
X21031103Y-14199439D02*
X21060940Y-14197274D01*
X13952013Y-17996213D02*
X13986999Y-18014966D01*
X7322510Y-12409180D02*
X7418180Y-12479529D01*
X9668246Y-14029480D02*
X9768328Y-14087363D01*
X24239142Y-19819640D02*
X24271695Y-19847684D01*
X24700060Y-20240918D02*
X24718749Y-20258402D01*
X22369909Y-13599793D02*
X22254582Y-13689544D01*
X27618458Y-18310583D02*
X27664971Y-18266556D01*
X5391000Y-11623000D02*
X5424306Y-11631603D01*
X27946358Y-18055162D02*
X28014941Y-18014692D01*
X20762514Y-20090268D02*
X20762514Y-20090268D01*
X9242406Y-13839784D02*
X9353550Y-13881315D01*
X19677389Y-19295252D02*
X19750022Y-19321573D01*
X17834663Y-11993041D02*
X17770437Y-11938298D01*
X34039511Y-12984466D02*
X34101004Y-12913052D01*
X8111024Y-13199041D02*
X8124022Y-13223339D01*
X31305630Y-14921077D02*
X31320825Y-14899998D01*
X32038105Y-14216741D02*
X32135226Y-14149537D01*
X31750060Y-14448795D02*
X31845951Y-14366179D01*
X21112046Y-20135645D02*
X21083616Y-20142262D01*
X14182343Y-18141122D02*
X14236414Y-18181980D01*
X17007425Y-11170711D02*
X16992960Y-11165695D01*
X31183546Y-15213497D02*
X31197435Y-15168481D01*
X36563162Y-11530483D02*
X36519957Y-11495654D01*
X28355607Y-17872356D02*
X28477841Y-17833098D01*
X8083082Y-13151290D02*
X8097401Y-13175073D01*
X25532881Y-19514417D02*
X25577429Y-19478667D01*
X31941823Y-14288891D02*
X32038105Y-14216741D01*
X18538170Y-19373206D02*
X18632489Y-19340088D01*
X33777400Y-13480607D02*
X33777400Y-13480607D01*
X16905240Y-11135084D02*
X16808466Y-11098733D01*
X24849968Y-11248243D02*
X24840600Y-11261089D01*
X17111525Y-11213762D02*
X17093581Y-11205018D01*
X35234842Y-10750544D02*
X35105933Y-10691152D01*
X19184965Y-19235370D02*
X19272591Y-19233790D01*
X31110182Y-15590129D02*
X31114954Y-15544149D01*
X5424306Y-11631603D02*
X5447254Y-11638363D01*
X5447254Y-11638363D02*
X5456140Y-11640784D01*
X21456848Y-19976962D02*
X21429608Y-19994971D01*
X21890506Y-19573284D02*
X21852652Y-19610090D01*
X10774440Y-15083283D02*
X10758420Y-15043406D01*
X15702771Y-10663019D02*
X15122071Y-10448442D01*
X19832855Y-19358572D02*
X19858255Y-19371959D01*
X24413899Y-11766238D02*
X24343184Y-11836479D01*
X35683089Y-10984837D02*
X35683089Y-10984837D01*
X10831417Y-15259921D02*
X10843495Y-15306916D01*
X26247842Y-19102441D02*
X26307865Y-19080501D01*
X31147390Y-15354192D02*
X31158446Y-15306642D01*
X24171842Y-19765061D02*
X24205865Y-19792104D01*
X13296174Y-9788695D02*
X13188470Y-9750686D01*
X31243520Y-15043132D02*
X31227500Y-15083008D01*
X21957045Y-13897995D02*
X21923586Y-13916703D01*
X30368374Y-9643334D02*
X30250879Y-9637184D01*
X21766534Y-19695876D02*
X21766534Y-19695876D01*
X28123852Y-17960326D02*
X28163813Y-17943039D01*
X25023803Y-11160457D02*
X25023803Y-11160457D01*
X25103947Y-19925958D02*
X25149740Y-19876977D01*
X24829943Y-11276143D02*
X24806112Y-11310944D01*
X33877918Y-13223065D02*
X33890916Y-13198767D01*
X27391204Y-18598299D02*
X27422980Y-18547454D01*
X24806112Y-11310944D02*
X24781179Y-11348785D01*
X27664971Y-18266556D02*
X27713989Y-18223603D01*
X31294595Y-14938413D02*
X31294595Y-14938413D01*
X17220762Y-11349060D02*
X17195829Y-11311218D01*
X29902059Y-16237110D02*
X29950616Y-16197678D01*
X29478923Y-9646031D02*
X29356835Y-9654927D01*
X31197435Y-15168481D02*
X31212113Y-15124888D01*
X10895040Y-15635202D02*
X10895040Y-15635202D01*
X17175512Y-20267129D02*
X17191728Y-20287383D01*
X24751286Y-20288068D02*
X24764277Y-20299485D01*
X21172481Y-20116738D02*
X21204949Y-20104174D01*
X5969734Y-11184722D02*
X5895475Y-11226865D01*
X13266225Y-17755876D02*
X13378843Y-17789222D01*
X11399467Y-15869236D02*
X11492296Y-15898405D01*
X5481983Y-11495928D02*
X5438779Y-11530757D01*
X10854550Y-15354466D02*
X10864505Y-15402281D01*
X12645106Y-9655201D02*
X12645106Y-9655201D01*
X8269553Y-13628342D02*
X8269553Y-13628342D01*
X24101476Y-19712404D02*
X24137053Y-19738499D01*
X8159971Y-13299668D02*
X8171176Y-13326741D01*
X32233613Y-14087089D02*
X32333695Y-14029206D01*
X21092647Y-14192779D02*
X21131674Y-14185227D01*
X12948447Y-9687038D02*
X12908813Y-9681042D01*
X12623824Y-16919165D02*
X12658980Y-16993483D01*
X28086060Y-17977888D02*
X28123852Y-17960326D01*
X27268149Y-18870853D02*
X27268149Y-18870853D01*
X11049999Y-15796157D02*
X11007000Y-15792000D01*
X11049999Y-15796157D02*
X11049999Y-15796157D01*
X21987824Y-19483684D02*
X22016121Y-19459776D01*
X21571687Y-19884809D02*
X21604405Y-19854842D01*
X36032206Y-11184448D02*
X36032206Y-11184448D01*
X18037676Y-12161913D02*
X17974808Y-12109355D01*
X33984510Y-13054816D02*
X33984510Y-13054816D01*
X31260095Y-15005547D02*
X31277146Y-14970544D01*
X25396322Y-19633363D02*
X25442531Y-19591613D01*
X5637859Y-11382583D02*
X5584266Y-11419692D01*
X36526045Y-11645650D02*
X36545800Y-11640510D01*
X30101992Y-16089853D02*
X30154047Y-16057675D01*
X26546557Y-19015020D02*
X26607565Y-19003818D01*
X36503502Y-11651237D02*
X36478001Y-11657334D01*
X10639817Y-14848579D02*
X10662153Y-14875874D01*
X11705248Y-15981965D02*
X11741939Y-15999730D01*
X19441888Y-19244436D02*
X19523085Y-19256706D01*
X25023803Y-11160457D02*
X25023803Y-11160457D01*
X29854606Y-16278151D02*
X29902059Y-16237110D01*
X14733791Y-18871127D02*
X14733791Y-18871127D01*
X18173304Y-19541980D02*
X18215932Y-19519144D01*
X23652190Y-19452397D02*
X23652190Y-19452397D01*
X20235406Y-19696151D02*
X20235406Y-19696151D01*
X22488668Y-13502845D02*
X22369909Y-13599793D01*
X6141810Y-11087174D02*
X5969734Y-11184722D01*
X19249721Y-13273945D02*
X19097061Y-13134877D01*
X15634529Y-19061143D02*
X15694075Y-19080775D01*
X8479999Y-13659762D02*
X8479999Y-13659762D01*
X12440906Y-16603897D02*
X12476230Y-16654867D01*
X8052073Y-13103694D02*
X8067996Y-13127545D01*
X14991165Y-18974138D02*
X14991165Y-18974138D01*
X29525710Y-16654593D02*
X29525710Y-16654593D01*
X31615038Y-14576426D02*
X31684459Y-14509098D01*
X10386902Y-14576700D02*
X10456994Y-14647668D01*
X17195829Y-11311218D02*
X17171998Y-11276417D01*
X8203443Y-13414888D02*
X8213986Y-13447065D01*
X15876923Y-19153837D02*
X15940399Y-19183180D01*
X12819970Y-17572690D02*
X12817794Y-17551904D01*
X30786820Y-15822161D02*
X30830722Y-15813426D01*
X33966699Y-13079317D02*
X33984510Y-13054816D01*
X7598093Y-12623114D02*
X7681530Y-12695743D01*
X20699032Y-14137154D02*
X20610984Y-14110124D01*
X5381958Y-11583096D02*
X5375000Y-11592000D01*
X17171998Y-11276417D02*
X17161341Y-11261363D01*
X6531866Y-10867502D02*
X6423174Y-10925912D01*
X14713910Y-18814113D02*
X14733791Y-18871127D01*
X22138754Y-13775516D02*
X22138754Y-13775516D01*
X18726563Y-19311408D02*
X18820156Y-19287189D01*
X31212113Y-15124888D02*
X31227500Y-15083008D01*
X20517772Y-19957596D02*
X20545092Y-19977236D01*
X20545092Y-19977236D02*
X20572333Y-19995245D01*
X17175512Y-20267129D02*
X17134593Y-20214495D01*
X18051064Y-19612705D02*
X18090891Y-19588746D01*
X29260803Y-17196796D02*
X29271196Y-17166666D01*
X12866302Y-9675670D02*
X12768171Y-9665752D01*
X10818394Y-15213771D02*
X10831417Y-15259921D01*
X25802053Y-19322288D02*
X25848781Y-19294419D01*
X24680331Y-20222178D02*
X24680331Y-20222178D01*
X9866714Y-14149811D02*
X9963835Y-14217015D01*
X20323738Y-19784212D02*
X20362200Y-19821619D01*
X24966900Y-11180515D02*
X24953871Y-11185525D01*
X25577429Y-19478667D02*
X25621831Y-19444612D01*
X33787955Y-13446790D02*
X33798498Y-13414614D01*
X24065091Y-19686763D02*
X24101476Y-19712404D01*
X21131674Y-14185227D02*
X21152883Y-14180079D01*
X8035241Y-13079591D02*
X8052073Y-13103694D01*
X10843495Y-15306916D02*
X10854550Y-15354466D01*
X12986322Y-9693918D02*
X12948447Y-9687038D01*
X35504389Y-11932630D02*
X35593900Y-11896254D01*
X30419875Y-15930117D02*
X30509645Y-15898131D01*
X13432642Y-9838573D02*
X13432642Y-9838573D01*
X27765526Y-18181706D02*
X27819597Y-18140847D01*
X34679431Y-12408905D02*
X34778375Y-12339924D01*
X8017430Y-13055090D02*
X8017430Y-13055090D01*
X18309218Y-12401476D02*
X18116769Y-12230286D01*
X35355828Y-10809050D02*
X35234842Y-10750544D01*
X21484168Y-19957322D02*
X21512077Y-19935669D01*
X33732387Y-13628068D02*
X33732387Y-13628068D01*
X24096380Y-12052127D02*
X24027132Y-12109080D01*
X9461285Y-13926647D02*
X9566041Y-13975972D01*
X13878089Y-17960600D02*
X13915880Y-17978162D01*
X13169429Y-17727748D02*
X13266225Y-17755876D01*
X22042981Y-19438357D02*
X22068786Y-19419132D01*
X13432642Y-9838573D02*
X13432642Y-9838573D01*
X17730246Y-19847958D02*
X17730246Y-19847958D01*
X15202755Y-18981612D02*
X15268398Y-18987332D01*
X17085942Y-20150220D02*
X17085942Y-20150220D01*
X36312511Y-11348737D02*
X36312511Y-11348737D01*
X33890916Y-13198767D02*
X33904539Y-13174799D01*
X36638940Y-11612726D02*
X36634440Y-11603726D01*
X17125613Y-11221644D02*
X17138457Y-11231383D01*
X22643630Y-19236531D02*
X22729350Y-19233516D01*
X31294595Y-14938413D02*
X31305630Y-14921077D01*
X17151973Y-11248518D02*
X17144232Y-11238363D01*
X19750022Y-19321573D02*
X19779120Y-19333672D01*
X33381357Y-13682212D02*
X33521941Y-13659488D01*
X22478856Y-19256432D02*
X22560053Y-19244162D01*
X9963835Y-14217015D02*
X10060117Y-14289165D01*
X30250879Y-9637184D02*
X30127027Y-9633249D01*
X29215502Y-17373793D02*
X29230244Y-17308417D01*
X22138754Y-13775516D02*
X22059767Y-13831825D01*
X12549032Y-16775528D02*
X12586777Y-16845698D01*
X28978384Y-9701667D02*
X28940670Y-9711095D01*
X36554686Y-11638089D02*
X36577634Y-11631329D01*
X35090821Y-12144227D02*
X35198834Y-12083756D01*
X7681530Y-12695743D02*
X7760085Y-12768524D01*
X20078355Y-13916977D02*
X20044895Y-13898269D01*
X36545800Y-11640510D02*
X36554686Y-11638089D01*
X21390956Y-14109850D02*
X21390956Y-14109850D01*
X10967000Y-15791000D02*
X10935000Y-15791000D01*
X24680331Y-20222178D02*
X24700060Y-20240918D01*
X24918625Y-11200116D02*
X24941441Y-11190480D01*
X16105354Y-19267603D02*
X16153159Y-19294693D01*
X25061151Y-19973248D02*
X25103947Y-19925958D01*
X31106900Y-15634928D02*
X31110182Y-15590129D01*
X36184068Y-11271613D02*
X36106465Y-11226591D01*
X21343293Y-20042996D02*
X21373338Y-20027608D01*
X22560053Y-19244162D02*
X22643630Y-19236531D01*
X12645106Y-9655201D02*
X12645106Y-9655201D01*
X8182108Y-13354872D02*
X8192841Y-13384206D01*
X14383482Y-18310858D02*
X14427504Y-18355977D01*
X14733791Y-18871127D02*
X14766994Y-18973455D01*
X16290929Y-19381250D02*
X16335650Y-19412373D01*
X31066940Y-15790726D02*
X31034940Y-15790726D01*
X10774440Y-15083283D02*
X10789828Y-15125162D01*
X13378843Y-17789222D02*
X13378843Y-17789222D01*
X13100581Y-9722463D02*
X13061270Y-9711369D01*
X10251880Y-14449069D02*
X10251880Y-14449069D01*
X20799204Y-14166755D02*
X20769544Y-14158227D01*
X12730744Y-17166940D02*
X12741138Y-17197071D01*
X20860449Y-20127137D02*
X20889979Y-20135645D01*
X14125726Y-18101284D02*
X14182343Y-18141122D01*
X31106900Y-15634928D02*
X31106900Y-15634928D01*
X36255816Y-11314126D02*
X36184068Y-11271613D01*
X23275377Y-19311134D02*
X23369452Y-19339813D01*
X20011616Y-13878142D02*
X19942173Y-13832099D01*
X11582065Y-15930391D02*
X11624983Y-15947200D01*
X28477841Y-17833098D02*
X28623097Y-17788948D01*
X12771697Y-17308691D02*
X12786439Y-17374067D01*
X28252296Y-17908432D02*
X28355607Y-17872356D01*
X34778375Y-12339924D02*
X34880189Y-12272615D01*
X36519957Y-11495654D02*
X36470548Y-11457916D01*
X16852200Y-19877251D02*
X16897994Y-19926232D01*
X16424512Y-19478941D02*
X16469060Y-19514691D01*
X33819832Y-13354598D02*
X33830765Y-13326467D01*
X18349750Y-19452671D02*
X18349750Y-19452671D01*
X30260002Y-15999455D02*
X30296693Y-15981691D01*
X9566041Y-13975972D02*
X9668246Y-14029480D01*
X19747358Y-13689818D02*
X19632032Y-13600068D01*
X29179325Y-17637868D02*
X29037008Y-17672017D01*
X12786439Y-17374067D02*
X12799631Y-17439536D01*
X36417675Y-11419418D02*
X36364082Y-11382309D01*
X22093918Y-19401808D02*
X22118757Y-19386091D01*
X24634459Y-11529696D02*
X24563653Y-11608353D01*
X8479999Y-13659762D02*
X8620583Y-13682486D01*
X22251918Y-19321298D02*
X22251918Y-19321298D01*
X17762798Y-19819914D02*
X17796075Y-19792378D01*
X27457178Y-18497790D02*
X27493810Y-18449288D01*
X13142608Y-9735481D02*
X13100581Y-9722463D01*
X25945671Y-19240866D02*
X25996240Y-19214877D01*
X27493810Y-18449288D02*
X27532892Y-18401932D01*
X6318852Y-10985111D02*
X6141810Y-11087174D01*
X15754098Y-19102715D02*
X15814935Y-19127042D01*
X20918410Y-20142262D02*
X20889979Y-20135645D01*
X5404523Y-11560530D02*
X5391608Y-11572848D01*
X25349152Y-19677419D02*
X25396322Y-19633363D01*
X12741138Y-17197071D02*
X12741138Y-17197071D01*
X24027132Y-12109080D02*
X24027132Y-12109080D01*
X20762514Y-20090268D02*
X20762514Y-20090268D01*
X21239427Y-20089994D02*
X21239427Y-20089994D01*
X17053163Y-20107471D02*
X17085942Y-20150220D01*
X21546814Y-14061161D02*
X21671163Y-14020561D01*
X14508130Y-18449563D02*
X14544763Y-18498064D01*
X33933944Y-13127271D02*
X33918858Y-13151016D01*
X12718831Y-17134882D02*
X12730744Y-17166940D01*
X24781179Y-11348785D02*
X24766571Y-11369925D01*
X11795193Y-16027790D02*
X11847893Y-16057950D01*
X27010776Y-18973864D02*
X27234946Y-18973181D01*
X7900937Y-12913327D02*
X7962429Y-12984740D01*
X32648391Y-13881040D02*
X32759534Y-13839510D01*
X10902000Y-15770000D02*
X10903000Y-15792000D01*
X20460860Y-19911898D02*
X20430253Y-19885083D01*
X35683089Y-10984837D02*
X35578766Y-10925638D01*
X21541080Y-19911624D02*
X21512077Y-19935669D01*
X17974064Y-19661837D02*
X18012129Y-19637064D01*
X34819602Y-10567472D02*
X34659812Y-10502067D01*
X6203513Y-11827457D02*
X6311313Y-11861765D01*
X21990325Y-13877867D02*
X21957045Y-13897995D01*
X11951266Y-16124242D02*
X12001755Y-16160210D01*
X14640105Y-18650617D02*
X14667082Y-18703876D01*
X21031103Y-14199439D02*
X21000000Y-14200000D01*
X21766534Y-19695876D02*
X21678203Y-19783938D01*
X13524099Y-17833372D02*
X13646334Y-17872630D01*
X20231094Y-13985265D02*
X20188363Y-13968410D01*
X35860130Y-11086900D02*
X35683089Y-10984837D01*
X25251114Y-19773058D02*
X25349152Y-19677419D01*
X20870498Y-14185399D02*
X20849290Y-14180251D01*
X10155990Y-14366453D02*
X10251880Y-14449069D01*
X17522380Y-20035214D02*
X17632507Y-19935099D01*
X36032206Y-11184448D02*
X35860130Y-11086900D01*
X22068786Y-19419132D02*
X22093918Y-19401808D01*
X22118757Y-19386091D02*
X22143686Y-19371685D01*
X21373338Y-20027608D02*
X21401940Y-20011726D01*
X5817872Y-11271888D02*
X5746124Y-11314400D01*
X29525710Y-16654593D02*
X29525710Y-16654593D01*
X34880189Y-12272615D02*
X34984472Y-12207281D01*
X29053494Y-9686764D02*
X29015619Y-9693644D01*
X5552570Y-11664275D02*
X5584502Y-11671573D01*
X17721206Y-11895201D02*
X17721206Y-11895201D01*
X25008980Y-11165421D02*
X24994515Y-11170436D01*
X21083616Y-20142262D02*
X21056009Y-20146989D01*
X25408192Y-11012995D02*
X25301510Y-11056241D01*
X16245743Y-19351364D02*
X16290929Y-19381250D01*
X6693833Y-12026447D02*
X6803107Y-12084030D01*
X17321609Y-20222453D02*
X17414026Y-20135324D01*
X15814935Y-19127042D02*
X15876923Y-19153837D01*
X13432642Y-9838573D02*
X13296174Y-9788695D01*
X32874513Y-13801591D02*
X32993757Y-13767093D01*
X21239427Y-20089994D02*
X21311298Y-20058270D01*
X21172481Y-20116738D02*
X21141576Y-20127137D01*
X31104193Y-15687554D02*
X31106900Y-15634928D01*
X29310893Y-17065930D02*
X29342961Y-16993208D01*
X26669781Y-18994524D02*
X26733542Y-18987057D01*
X5969734Y-11184722D02*
X5969734Y-11184722D01*
X21390956Y-14109850D02*
X21302909Y-14136880D01*
X24867347Y-20214221D02*
X24826429Y-20266855D01*
X32333695Y-14029206D02*
X32435899Y-13975698D01*
X24781179Y-11348785D02*
X24781179Y-11348785D01*
X13749644Y-17908706D02*
X13838127Y-17943313D01*
X26607565Y-19003818D02*
X26669781Y-18994524D01*
X25621831Y-19444612D02*
X25666290Y-19412099D01*
X17438287Y-11608628D02*
X17367482Y-11529970D01*
X16335650Y-19412373D02*
X16380110Y-19444886D01*
X27268149Y-18870853D02*
X27268149Y-18870853D01*
X11171218Y-15813700D02*
X11215120Y-15822435D01*
X17161341Y-11261363D02*
X17151973Y-11248518D01*
X35418241Y-11971781D02*
X35504389Y-11932630D01*
X19358311Y-19236805D02*
X19441888Y-19244436D01*
X5584266Y-11419692D02*
X5531393Y-11458190D01*
X23652190Y-19452397D02*
X23652190Y-19452397D01*
X7418180Y-12479529D02*
X7510176Y-12550942D01*
X16380110Y-19444886D02*
X16424512Y-19478941D01*
X5969734Y-11184722D02*
X5969734Y-11184722D01*
X14991165Y-18974138D02*
X14991165Y-18974138D01*
X24205865Y-19792104D02*
X24239142Y-19819640D01*
X29808348Y-16320719D02*
X29854606Y-16278151D01*
X7017468Y-12207555D02*
X7121751Y-12272889D01*
X33949867Y-13103420D02*
X33966699Y-13079317D01*
X20323738Y-19784212D02*
X20235406Y-19696151D01*
X11306201Y-15843656D02*
X11399467Y-15869236D01*
X17235370Y-11370199D02*
X17220762Y-11349060D01*
X11492296Y-15898405D02*
X11582065Y-15930391D01*
X8017430Y-13055090D02*
X8017430Y-13055090D01*
X34967914Y-10630314D02*
X34819602Y-10567472D01*
X21429608Y-19994971D02*
X21401940Y-20011726D01*
X31477332Y-14718619D02*
X31544947Y-14647394D01*
X33732387Y-13628068D02*
X33777400Y-13480607D01*
X22906269Y-19241248D02*
X22996993Y-19251950D01*
X19272591Y-19233790D02*
X19358311Y-19236805D01*
X17018176Y-20063920D02*
X17053163Y-20107471D01*
X5584502Y-11671573D02*
X5775136Y-11715660D01*
X34168586Y-12840879D02*
X34241856Y-12768250D01*
X20489864Y-19935943D02*
X20517772Y-19957596D01*
X36597417Y-11560255D02*
X36563162Y-11530483D01*
X17048070Y-11185799D02*
X17060499Y-11190754D01*
X31114954Y-15544149D02*
X31121140Y-15497275D01*
X24918625Y-11200116D02*
X24908359Y-11204744D01*
X29233769Y-9665478D02*
X29135639Y-9675395D01*
X17237664Y-20299760D02*
X17217000Y-20319000D01*
X17905561Y-12052402D02*
X17834663Y-11993041D01*
X17588041Y-11766512D02*
X17513179Y-11688973D01*
X23828636Y-19541705D02*
X23870309Y-19564902D01*
X36312511Y-11348737D02*
X36312511Y-11348737D01*
X10707346Y-14938687D02*
X10707346Y-14938687D01*
X24980468Y-11175477D02*
X24966900Y-11180515D01*
X12908813Y-9681042D02*
X12866302Y-9675670D01*
X25251114Y-19773058D02*
X25251114Y-19773058D01*
X10886986Y-15544423D02*
X10891758Y-15590404D01*
X36312511Y-11348737D02*
X36255816Y-11314126D01*
X34208807Y-10333255D02*
X33738775Y-10183083D01*
X10898985Y-15708683D02*
X10901000Y-15744000D01*
X17144232Y-11238363D02*
X17138457Y-11231383D01*
X20362200Y-19821619D02*
X20397536Y-19855116D01*
X27010776Y-18973864D02*
X27010776Y-18973864D01*
X34320410Y-12695469D02*
X34403847Y-12622840D01*
X30335787Y-15964149D02*
X30376957Y-15946925D01*
X7121751Y-12272889D02*
X7223566Y-12340198D01*
X22816975Y-19235096D02*
X22906269Y-19241248D01*
X22614793Y-13395278D02*
X22488668Y-13502845D01*
X36062661Y-11755289D02*
X36226805Y-11715386D01*
X17830098Y-19765335D02*
X17864888Y-19738773D01*
X6803107Y-12084030D02*
X6911119Y-12144501D01*
X29598196Y-16553609D02*
X29637103Y-16504631D01*
X29763377Y-16364733D02*
X29808348Y-16320719D01*
X24810212Y-20287109D02*
X24826429Y-20266855D01*
X26486420Y-19028208D02*
X26546557Y-19015020D01*
X14287951Y-18223877D02*
X14336969Y-18266830D01*
X9008183Y-13767367D02*
X9127427Y-13801866D01*
X24941441Y-11190480D02*
X24953871Y-11185525D01*
X5689429Y-11349011D02*
X5689429Y-11349011D01*
X27574436Y-18355703D02*
X27618458Y-18310583D01*
X24369433Y-19934825D02*
X24479561Y-20034939D01*
X17414026Y-20135324D02*
X17522380Y-20035214D01*
X24840600Y-11261089D02*
X24829943Y-11276143D01*
X8263165Y-10183357D02*
X7793134Y-10333529D01*
X20984095Y-14199875D02*
X21000000Y-14200000D01*
X17035040Y-11180789D02*
X17021472Y-11175751D01*
X28982254Y-17685919D02*
X29037008Y-17672017D01*
X28014941Y-18014692D02*
X28049928Y-17995939D01*
X21302909Y-14136880D02*
X21232396Y-14157952D01*
X12741138Y-17197071D02*
X12741138Y-17197071D01*
X22251918Y-19321298D02*
X22251918Y-19321298D01*
X17936850Y-19687037D02*
X17974064Y-19661837D01*
X30951941Y-15795883D02*
X30951941Y-15795883D01*
X5456140Y-11640784D02*
X5475895Y-11645924D01*
X33984510Y-13054816D02*
X34039511Y-12984466D01*
X16978138Y-11160731D02*
X16978138Y-11160731D01*
X20939060Y-14197274D02*
X20923636Y-14195363D01*
X22752219Y-13273671D02*
X22614793Y-13395278D01*
X27713989Y-18223603D02*
X27765526Y-18181706D01*
X9768328Y-14087363D02*
X9866714Y-14149811D01*
X26867047Y-18977286D02*
X26937465Y-18974821D01*
X29950616Y-16197678D02*
X30000185Y-16159936D01*
X6646113Y-10809324D02*
X6531866Y-10867502D01*
X25251114Y-19773058D02*
X25198730Y-19826084D01*
X23271642Y-12790401D02*
X23076709Y-12974653D01*
X20489864Y-19935943D02*
X20460860Y-19911898D01*
X13378843Y-17789222D02*
X13524099Y-17833372D01*
X21770847Y-13984991D02*
X21671163Y-14020561D01*
X21604405Y-19854842D02*
X21639741Y-19821345D01*
X21766534Y-19695876D02*
X21852652Y-19610090D01*
X23271642Y-12790401D02*
X23271642Y-12790401D01*
X24697059Y-11457220D02*
X24634459Y-11529696D01*
X17220762Y-11349060D02*
X17220762Y-11349060D01*
X8213986Y-13447065D02*
X8224541Y-13480881D01*
X15122071Y-10448442D02*
X14390695Y-10184801D01*
X20849290Y-14180251D02*
X20799204Y-14166755D01*
X12964933Y-17672291D02*
X12822615Y-17638142D01*
X30050674Y-16123968D02*
X30101992Y-16089853D01*
X20870498Y-14185399D02*
X20889673Y-14189602D01*
X22169085Y-19358297D02*
X22195336Y-19345633D01*
X21890506Y-19573284D02*
X21925398Y-19540143D01*
X10662153Y-14875874D02*
X10681116Y-14900272D01*
X24343184Y-11836479D02*
X24280734Y-11894927D01*
X13986999Y-18014966D02*
X14055582Y-18055436D01*
X29093127Y-9680768D02*
X29053494Y-9686764D01*
X7034026Y-10630588D02*
X6896008Y-10691426D01*
X23692722Y-12401202D02*
X23478605Y-12596662D01*
X32730872Y-9936505D02*
X32187619Y-9839022D01*
X15268398Y-18987332D02*
X15332159Y-18994798D01*
X32759534Y-13839510D02*
X32874513Y-13801591D01*
X36417438Y-11671298D02*
X36449370Y-11664001D01*
X6318852Y-10985111D02*
X6318852Y-10985111D01*
X17721206Y-11895201D02*
X17721206Y-11895201D01*
X29561035Y-16603623D02*
X29598196Y-16553609D01*
X24915998Y-20149946D02*
X24915998Y-20149946D01*
X7833354Y-12841153D02*
X7900937Y-12913327D01*
X30695739Y-15843381D02*
X30786820Y-15822161D01*
X26799185Y-18981338D02*
X26867047Y-18977286D01*
X21028953Y-20149825D02*
X20999854Y-20150770D01*
X12523017Y-9646305D02*
X12395884Y-9639493D01*
X25896586Y-19267329D02*
X25945671Y-19240866D01*
X20769544Y-14158227D02*
X20699032Y-14137154D01*
X17093581Y-11205018D02*
X17083315Y-11200390D01*
X17974808Y-12109355D02*
X17905561Y-12052402D01*
X11049999Y-15796157D02*
X11049999Y-15796157D01*
X14390695Y-10184801D02*
X14390695Y-10184801D01*
X11874913Y-9633523D02*
X11751061Y-9637459D01*
X18925231Y-12974928D02*
X18730299Y-12790676D01*
X19863186Y-13775791D02*
X19747358Y-13689818D01*
X7793134Y-10333529D02*
X7342128Y-10502342D01*
X22400276Y-19273363D02*
X22478856Y-19256432D01*
X27268149Y-18870853D02*
X27288030Y-18813839D01*
X31106900Y-15634928D02*
X31106900Y-15634928D01*
X20112849Y-13934649D02*
X20078355Y-13916977D01*
X28569298Y-9838299D02*
X28569298Y-9838299D01*
X20149289Y-19610364D02*
X20111435Y-19573558D01*
X28623097Y-17788948D02*
X28735715Y-17755602D01*
X28623097Y-17788948D02*
X28623097Y-17788948D01*
X36577634Y-11631329D02*
X36610940Y-11622726D01*
X6311313Y-11861765D02*
X6408041Y-11896528D01*
X17770437Y-11938298D02*
X17721206Y-11895201D01*
X21028953Y-20149825D02*
X21056009Y-20146989D01*
X30000185Y-16159936D02*
X30050674Y-16123968D01*
X19601664Y-19273638D02*
X19677389Y-19295252D01*
X10251880Y-14449069D02*
X10317482Y-14509372D01*
X17301880Y-20241192D02*
X17321609Y-20222453D01*
X23271642Y-12790401D02*
X23271642Y-12790401D01*
X20188363Y-13968410D02*
X20149234Y-13951665D01*
X27310262Y-18758095D02*
X27334859Y-18703602D01*
X29184146Y-17551630D02*
X29181970Y-17572416D01*
X21092647Y-14192779D02*
X21060940Y-14197274D01*
X33246751Y-13707594D02*
X33381357Y-13682212D01*
X11624983Y-15947200D02*
X11666153Y-15964423D01*
X28623097Y-17788948D02*
X28623097Y-17788948D01*
X5523939Y-11657608D02*
X5552570Y-11664275D01*
X29191560Y-17500112D02*
X29184146Y-17551630D01*
X24948777Y-20107197D02*
X24983764Y-20063646D01*
X13378843Y-17789222D02*
X13378843Y-17789222D01*
X17220762Y-11349060D02*
X17220762Y-11349060D01*
X17250654Y-20288342D02*
X17265973Y-20274520D01*
X29179325Y-17606868D02*
X29181970Y-17572416D01*
X12403744Y-16553883D02*
X12440906Y-16603897D01*
X31100940Y-15743726D02*
X31102955Y-15708409D01*
X23369452Y-19339813D02*
X23463770Y-19372932D01*
X21176517Y-14173894D02*
X21152883Y-14180079D01*
X19523085Y-19256706D02*
X19601664Y-19273638D01*
X36610940Y-11622726D02*
X36638940Y-11612726D01*
X33809100Y-13383931D02*
X33819832Y-13354598D01*
X21813577Y-13968136D02*
X21770847Y-13984991D01*
D11*
D12*
X8744367Y-12225551D02*
X8914547Y-12395731D01*
X8914547Y-12225551D02*
X8744367Y-12395731D01*
X9594367Y-10753307D02*
X9764547Y-10923487D01*
X9764547Y-10753307D02*
X9594367Y-10923487D01*
X9696995Y-12775551D02*
X9867175Y-12945731D01*
X9867175Y-12775551D02*
X9696995Y-12945731D01*
X10303213Y-13125551D02*
X10473393Y-13295731D01*
X10473393Y-13125551D02*
X10303213Y-13295731D01*
X10546995Y-11303307D02*
X10717175Y-11473487D01*
X10717175Y-11303307D02*
X10546995Y-11473487D01*
X11153213Y-11653307D02*
X11323393Y-11823487D01*
X11323393Y-11653307D02*
X11153213Y-11823487D01*
X11255841Y-13675551D02*
X11426021Y-13845731D01*
X11426021Y-13675551D02*
X11255841Y-13845731D01*
X12105841Y-12203307D02*
X12276021Y-12373487D01*
X12276021Y-12203307D02*
X12105841Y-12373487D01*
X12362059Y-13159525D02*
X12532239Y-13329705D01*
X12532239Y-13159525D02*
X12362059Y-13329705D01*
X13212059Y-11687282D02*
X13382239Y-11857462D01*
X13382239Y-11687282D02*
X13212059Y-11857462D01*
X13314687Y-13709525D02*
X13484867Y-13879705D01*
X13484867Y-13709525D02*
X13314687Y-13879705D01*
X13500327Y-16587986D02*
X13670507Y-16758166D01*
X13670507Y-16587986D02*
X13500327Y-16758166D01*
X14164687Y-12237282D02*
X14334867Y-12407462D01*
X14334867Y-12237282D02*
X14164687Y-12407462D01*
X14320904Y-13366705D02*
X14491084Y-13536885D01*
X14491084Y-13366705D02*
X14320904Y-13536885D01*
X14452955Y-17137986D02*
X14623135Y-17308166D01*
X14623135Y-17137986D02*
X14452955Y-17308166D01*
X15059173Y-17487986D02*
X15229353Y-17658166D01*
X15229353Y-17487986D02*
X15059173Y-17658166D01*
X15170904Y-11894462D02*
X15341084Y-12064642D01*
X15341084Y-11894462D02*
X15170904Y-12064642D01*
X15273532Y-13916705D02*
X15443712Y-14086885D01*
X15443712Y-13916705D02*
X15273532Y-14086885D01*
X15779750Y-14439910D02*
X15949930Y-14610090D01*
X15949930Y-14439910D02*
X15779750Y-14610090D01*
X16011801Y-18037986D02*
X16181981Y-18208166D01*
X16181981Y-18037986D02*
X16011801Y-18208166D01*
X16123532Y-12444462D02*
X16293712Y-12614642D01*
X16293712Y-12444462D02*
X16123532Y-12614642D01*
X16618019Y-18387986D02*
X16788199Y-18558166D01*
X16788199Y-18387986D02*
X16618019Y-18558166D01*
X16629750Y-12967667D02*
X16799930Y-13137847D01*
X16799930Y-12967667D02*
X16629750Y-13137847D01*
X16732378Y-14989910D02*
X16902558Y-15160090D01*
X16902558Y-14989910D02*
X16732378Y-15160090D01*
X17338596Y-15339910D02*
X17508776Y-15510090D01*
X17508776Y-15339910D02*
X17338596Y-15510090D01*
X17570647Y-18937986D02*
X17740827Y-19108166D01*
X17740827Y-18937986D02*
X17570647Y-19108166D01*
X17582378Y-13517667D02*
X17752558Y-13687847D01*
X17752558Y-13517667D02*
X17582378Y-13687847D01*
X18188596Y-13867667D02*
X18358776Y-14037847D01*
X18358776Y-13867667D02*
X18188596Y-14037847D01*
X18291224Y-15889910D02*
X18461404Y-16060090D01*
X18461404Y-15889910D02*
X18291224Y-16060090D01*
X19141224Y-14417667D02*
X19311404Y-14587847D01*
X19311404Y-14417667D02*
X19141224Y-14587847D01*
X22688596Y-14417667D02*
X22858776Y-14587847D01*
X22858776Y-14417667D02*
X22688596Y-14587847D01*
X23538596Y-15889910D02*
X23708776Y-16060090D01*
X23708776Y-15889910D02*
X23538596Y-16060090D01*
X23641224Y-13867667D02*
X23811404Y-14037847D01*
X23811404Y-13867667D02*
X23641224Y-14037847D01*
X24247442Y-13517667D02*
X24417622Y-13687847D01*
X24417622Y-13517667D02*
X24247442Y-13687847D01*
X24259173Y-18937986D02*
X24429353Y-19108166D01*
X24429353Y-18937986D02*
X24259173Y-19108166D01*
X24491224Y-15339910D02*
X24661404Y-15510090D01*
X24661404Y-15339910D02*
X24491224Y-15510090D01*
X25097442Y-14989910D02*
X25267622Y-15160090D01*
X25267622Y-14989910D02*
X25097442Y-15160090D01*
X25200070Y-12967667D02*
X25370250Y-13137847D01*
X25370250Y-12967667D02*
X25200070Y-13137847D01*
X25211801Y-18387986D02*
X25381981Y-18558166D01*
X25381981Y-18387986D02*
X25211801Y-18558166D01*
X25706287Y-12444462D02*
X25876467Y-12614642D01*
X25876467Y-12444462D02*
X25706287Y-12614642D01*
X25818019Y-18037986D02*
X25988199Y-18208166D01*
X25988199Y-18037986D02*
X25818019Y-18208166D01*
X26050070Y-14439910D02*
X26220250Y-14610090D01*
X26220250Y-14439910D02*
X26050070Y-14610090D01*
X26556287Y-13916705D02*
X26726467Y-14086885D01*
X26726467Y-13916705D02*
X26556287Y-14086885D01*
X26658915Y-11894462D02*
X26829095Y-12064642D01*
X26829095Y-11894462D02*
X26658915Y-12064642D01*
X26770647Y-17487986D02*
X26940827Y-17658166D01*
X26940827Y-17487986D02*
X26770647Y-17658166D01*
X27376864Y-17137986D02*
X27547044Y-17308166D01*
X27547044Y-17137986D02*
X27376864Y-17308166D01*
X27508915Y-13366705D02*
X27679095Y-13536885D01*
X27679095Y-13366705D02*
X27508915Y-13536885D01*
X27665133Y-12237282D02*
X27835313Y-12407462D01*
X27835313Y-12237282D02*
X27665133Y-12407462D01*
X28329492Y-16587986D02*
X28499672Y-16758166D01*
X28499672Y-16587986D02*
X28329492Y-16758166D01*
X28515133Y-13709525D02*
X28685313Y-13879705D01*
X28685313Y-13709525D02*
X28515133Y-13879705D01*
X28617761Y-11687282D02*
X28787941Y-11857462D01*
X28787941Y-11687282D02*
X28617761Y-11857462D01*
X29467761Y-13159525D02*
X29637941Y-13329705D01*
X29637941Y-13159525D02*
X29467761Y-13329705D01*
X29723979Y-12203307D02*
X29894159Y-12373487D01*
X29894159Y-12203307D02*
X29723979Y-12373487D01*
X30573979Y-13675551D02*
X30744159Y-13845731D01*
X30744159Y-13675551D02*
X30573979Y-13845731D01*
X30676607Y-11653307D02*
X30846787Y-11823487D01*
X30846787Y-11653307D02*
X30676607Y-11823487D01*
X31282825Y-11303307D02*
X31453005Y-11473487D01*
X31453005Y-11303307D02*
X31282825Y-11473487D01*
X31526607Y-13125551D02*
X31696787Y-13295731D01*
X31696787Y-13125551D02*
X31526607Y-13295731D01*
X32132825Y-12775551D02*
X32303005Y-12945731D01*
X32303005Y-12775551D02*
X32132825Y-12945731D01*
X32235453Y-10753307D02*
X32405633Y-10923487D01*
X32405633Y-10753307D02*
X32235453Y-10923487D01*
X33085453Y-12225551D02*
X33255633Y-12395731D01*
X33255633Y-12225551D02*
X33085453Y-12395731D01*
D13*
X7610000Y-11300000D02*
G75*
G03*
X7610000Y-11300000I-110000J0D01*
G01*
X12610000Y-15800000D02*
G75*
G03*
X12610000Y-15800000I-110000J0D01*
G01*
X15010000Y-11000000D02*
G75*
G03*
X15010000Y-11000000I-110000J0D01*
G01*
X21110000Y-19400000D02*
G75*
G03*
X21110000Y-19400000I-110000J0D01*
G01*
X27210000Y-11000000D02*
G75*
G03*
X27210000Y-11000000I-110000J0D01*
G01*
X29610000Y-15800000D02*
G75*
G03*
X29610000Y-15800000I-110000J0D01*
G01*
X34610000Y-11300000D02*
G75*
G03*
X34610000Y-11300000I-110000J0D01*
G01*
D14*
X9305771Y-12414191D02*
X9305771Y-12757091D01*
X9134321Y-12585641D02*
X9477221Y-12585641D01*
X10155771Y-10941947D02*
X10155771Y-11284847D01*
X9984321Y-11113397D02*
X10327221Y-11113397D01*
X10864617Y-13314191D02*
X10864617Y-13657091D01*
X10693167Y-13485641D02*
X11036067Y-13485641D01*
X11714617Y-11841947D02*
X11714617Y-12184847D01*
X11543167Y-12013397D02*
X11886067Y-12013397D01*
X12923463Y-13348165D02*
X12923463Y-13691065D01*
X12752013Y-13519615D02*
X13094913Y-13519615D01*
X13773463Y-11875922D02*
X13773463Y-12218822D01*
X13602013Y-12047372D02*
X13944913Y-12047372D01*
X14061731Y-16776626D02*
X14061731Y-17119526D01*
X13890281Y-16948076D02*
X14233181Y-16948076D01*
X14882308Y-13555345D02*
X14882308Y-13898245D01*
X14710858Y-13726795D02*
X15053758Y-13726795D01*
X15620577Y-17676626D02*
X15620577Y-18019526D01*
X15449127Y-17848076D02*
X15792027Y-17848076D01*
X15732308Y-12083102D02*
X15732308Y-12426002D01*
X15560858Y-12254552D02*
X15903758Y-12254552D01*
X16341154Y-14628550D02*
X16341154Y-14971450D01*
X16169704Y-14800000D02*
X16512604Y-14800000D01*
X17179423Y-18576626D02*
X17179423Y-18919526D01*
X17007973Y-18748076D02*
X17350873Y-18748076D01*
X17191154Y-13156307D02*
X17191154Y-13499207D01*
X17019704Y-13327757D02*
X17362604Y-13327757D01*
X17900000Y-15528550D02*
X17900000Y-15871450D01*
X17728550Y-15700000D02*
X18071450Y-15700000D01*
X18750000Y-14056307D02*
X18750000Y-14399207D01*
X18578550Y-14227757D02*
X18921450Y-14227757D01*
X23250000Y-14056307D02*
X23250000Y-14399207D01*
X23078550Y-14227757D02*
X23421450Y-14227757D01*
X24100000Y-15528550D02*
X24100000Y-15871450D01*
X23928550Y-15700000D02*
X24271450Y-15700000D01*
X24808846Y-13156307D02*
X24808846Y-13499207D01*
X24637396Y-13327757D02*
X24980296Y-13327757D01*
X24820577Y-18576626D02*
X24820577Y-18919526D01*
X24649127Y-18748076D02*
X24992027Y-18748076D01*
X25658846Y-14628550D02*
X25658846Y-14971450D01*
X25487396Y-14800000D02*
X25830296Y-14800000D01*
X26267691Y-12083102D02*
X26267691Y-12426002D01*
X26096241Y-12254552D02*
X26439141Y-12254552D01*
X26379423Y-17676626D02*
X26379423Y-18019526D01*
X26207973Y-17848076D02*
X26550873Y-17848076D01*
X27117691Y-13555345D02*
X27117691Y-13898245D01*
X26946241Y-13726795D02*
X27289141Y-13726795D01*
X27938268Y-16776626D02*
X27938268Y-17119526D01*
X27766818Y-16948076D02*
X28109718Y-16948076D01*
X28226537Y-11875922D02*
X28226537Y-12218822D01*
X28055087Y-12047372D02*
X28397987Y-12047372D01*
X29076537Y-13348165D02*
X29076537Y-13691065D01*
X28905087Y-13519615D02*
X29247987Y-13519615D01*
X30285383Y-11841947D02*
X30285383Y-12184847D01*
X30113933Y-12013397D02*
X30456833Y-12013397D01*
X31135383Y-13314191D02*
X31135383Y-13657091D01*
X30963933Y-13485641D02*
X31306833Y-13485641D01*
X31844229Y-10941947D02*
X31844229Y-11284847D01*
X31672779Y-11113397D02*
X32015679Y-11113397D01*
X32694229Y-12414191D02*
X32694229Y-12757091D01*
X32522779Y-12585641D02*
X32865679Y-12585641D01*
D11*
X5614600Y-20635495D02*
X5614600Y-20435495D01*
X5662219Y-20435495D01*
X5690790Y-20445019D01*
X5709838Y-20464067D01*
X5719362Y-20483114D01*
X5728885Y-20521210D01*
X5728885Y-20549781D01*
X5719362Y-20587876D01*
X5709838Y-20606924D01*
X5690790Y-20625972D01*
X5662219Y-20635495D01*
X5614600Y-20635495D01*
X5814600Y-20635495D02*
X5814600Y-20502162D01*
X5814600Y-20540257D02*
X5824124Y-20521210D01*
X5833647Y-20511686D01*
X5852695Y-20502162D01*
X5871743Y-20502162D01*
X5938409Y-20635495D02*
X5938409Y-20502162D01*
X5938409Y-20435495D02*
X5928885Y-20445019D01*
X5938409Y-20454543D01*
X5947933Y-20445019D01*
X5938409Y-20435495D01*
X5938409Y-20454543D01*
X6062219Y-20635495D02*
X6043171Y-20625972D01*
X6033647Y-20606924D01*
X6033647Y-20435495D01*
X6166981Y-20635495D02*
X6147933Y-20625972D01*
X6138409Y-20606924D01*
X6138409Y-20435495D01*
X6395552Y-20635495D02*
X6395552Y-20435495D01*
X6462219Y-20578353D01*
X6528885Y-20435495D01*
X6528885Y-20635495D01*
X6709838Y-20635495D02*
X6709838Y-20530733D01*
X6700314Y-20511686D01*
X6681266Y-20502162D01*
X6643171Y-20502162D01*
X6624124Y-20511686D01*
X6709838Y-20625972D02*
X6690790Y-20635495D01*
X6643171Y-20635495D01*
X6624124Y-20625972D01*
X6614600Y-20606924D01*
X6614600Y-20587876D01*
X6624124Y-20568829D01*
X6643171Y-20559305D01*
X6690790Y-20559305D01*
X6709838Y-20549781D01*
X6805076Y-20502162D02*
X6805076Y-20702162D01*
X6805076Y-20511686D02*
X6824124Y-20502162D01*
X6862219Y-20502162D01*
X6881266Y-20511686D01*
X6890790Y-20521210D01*
X6900314Y-20540257D01*
X6900314Y-20597400D01*
X6890790Y-20616448D01*
X6881266Y-20625972D01*
X6862219Y-20635495D01*
X6824124Y-20635495D01*
X6805076Y-20625972D01*
X6986028Y-20616448D02*
X6995552Y-20625972D01*
X6986028Y-20635495D01*
X6976505Y-20625972D01*
X6986028Y-20616448D01*
X6986028Y-20635495D01*
X6986028Y-20511686D02*
X6995552Y-20521210D01*
X6986028Y-20530733D01*
X6976505Y-20521210D01*
X6986028Y-20511686D01*
X6986028Y-20530733D01*
D12*
X5186801Y-20879929D02*
X5356981Y-21050109D01*
X5356981Y-20879929D02*
X5186801Y-21050109D01*
D11*
X5719362Y-21055495D02*
X5605076Y-21055495D01*
X5662219Y-21055495D02*
X5662219Y-20855495D01*
X5643171Y-20884067D01*
X5624124Y-20903114D01*
X5605076Y-20912638D01*
X5805076Y-21036448D02*
X5814600Y-21045972D01*
X5805076Y-21055495D01*
X5795552Y-21045972D01*
X5805076Y-21036448D01*
X5805076Y-21055495D01*
X5881266Y-20855495D02*
X6014600Y-20855495D01*
X5928885Y-21055495D01*
X6128885Y-20855495D02*
X6147933Y-20855495D01*
X6166981Y-20865019D01*
X6176505Y-20874543D01*
X6186028Y-20893591D01*
X6195552Y-20931686D01*
X6195552Y-20979305D01*
X6186028Y-21017400D01*
X6176505Y-21036448D01*
X6166981Y-21045972D01*
X6147933Y-21055495D01*
X6128885Y-21055495D01*
X6109838Y-21045972D01*
X6100314Y-21036448D01*
X6090790Y-21017400D01*
X6081266Y-20979305D01*
X6081266Y-20931686D01*
X6090790Y-20893591D01*
X6100314Y-20874543D01*
X6109838Y-20865019D01*
X6128885Y-20855495D01*
X6271743Y-20874543D02*
X6281266Y-20865019D01*
X6300314Y-20855495D01*
X6347933Y-20855495D01*
X6366981Y-20865019D01*
X6376505Y-20874543D01*
X6386028Y-20893591D01*
X6386028Y-20912638D01*
X6376505Y-20941210D01*
X6262219Y-21055495D01*
X6386028Y-21055495D01*
X6471743Y-21055495D02*
X6471743Y-20922162D01*
X6471743Y-20941210D02*
X6481266Y-20931686D01*
X6500314Y-20922162D01*
X6528885Y-20922162D01*
X6547933Y-20931686D01*
X6557457Y-20950733D01*
X6557457Y-21055495D01*
X6557457Y-20950733D02*
X6566981Y-20931686D01*
X6586028Y-20922162D01*
X6614600Y-20922162D01*
X6633647Y-20931686D01*
X6643171Y-20950733D01*
X6643171Y-21055495D01*
X6738409Y-21055495D02*
X6738409Y-20922162D01*
X6738409Y-20941210D02*
X6747933Y-20931686D01*
X6766981Y-20922162D01*
X6795552Y-20922162D01*
X6814600Y-20931686D01*
X6824124Y-20950733D01*
X6824124Y-21055495D01*
X6824124Y-20950733D02*
X6833647Y-20931686D01*
X6852695Y-20922162D01*
X6881266Y-20922162D01*
X6900314Y-20931686D01*
X6909838Y-20950733D01*
X6909838Y-21055495D01*
X7300314Y-20845972D02*
X7128885Y-21103114D01*
X7557457Y-20855495D02*
X7576505Y-20855495D01*
X7595552Y-20865019D01*
X7605076Y-20874543D01*
X7614600Y-20893591D01*
X7624124Y-20931686D01*
X7624124Y-20979305D01*
X7614600Y-21017400D01*
X7605076Y-21036448D01*
X7595552Y-21045972D01*
X7576505Y-21055495D01*
X7557457Y-21055495D01*
X7538409Y-21045972D01*
X7528885Y-21036448D01*
X7519362Y-21017400D01*
X7509838Y-20979305D01*
X7509838Y-20931686D01*
X7519362Y-20893591D01*
X7528885Y-20874543D01*
X7538409Y-20865019D01*
X7557457Y-20855495D01*
X7709838Y-21036448D02*
X7719362Y-21045972D01*
X7709838Y-21055495D01*
X7700314Y-21045972D01*
X7709838Y-21036448D01*
X7709838Y-21055495D01*
X7843171Y-20855495D02*
X7862219Y-20855495D01*
X7881266Y-20865019D01*
X7890790Y-20874543D01*
X7900314Y-20893591D01*
X7909838Y-20931686D01*
X7909838Y-20979305D01*
X7900314Y-21017400D01*
X7890790Y-21036448D01*
X7881266Y-21045972D01*
X7862219Y-21055495D01*
X7843171Y-21055495D01*
X7824124Y-21045972D01*
X7814600Y-21036448D01*
X7805076Y-21017400D01*
X7795552Y-20979305D01*
X7795552Y-20931686D01*
X7805076Y-20893591D01*
X7814600Y-20874543D01*
X7824124Y-20865019D01*
X7843171Y-20855495D01*
X8081266Y-20855495D02*
X8043171Y-20855495D01*
X8024124Y-20865019D01*
X8014600Y-20874543D01*
X7995552Y-20903114D01*
X7986028Y-20941210D01*
X7986028Y-21017400D01*
X7995552Y-21036448D01*
X8005076Y-21045972D01*
X8024124Y-21055495D01*
X8062219Y-21055495D01*
X8081266Y-21045972D01*
X8090790Y-21036448D01*
X8100314Y-21017400D01*
X8100314Y-20969781D01*
X8090790Y-20950733D01*
X8081266Y-20941210D01*
X8062219Y-20931686D01*
X8024124Y-20931686D01*
X8005076Y-20941210D01*
X7995552Y-20950733D01*
X7986028Y-20969781D01*
X8166981Y-20855495D02*
X8300314Y-20855495D01*
X8214600Y-21055495D01*
X8414600Y-20855495D02*
X8433647Y-20855495D01*
X8452695Y-20865019D01*
X8462219Y-20874543D01*
X8471743Y-20893591D01*
X8481267Y-20931686D01*
X8481267Y-20979305D01*
X8471743Y-21017400D01*
X8462219Y-21036448D01*
X8452695Y-21045972D01*
X8433647Y-21055495D01*
X8414600Y-21055495D01*
X8395552Y-21045972D01*
X8386028Y-21036448D01*
X8376505Y-21017400D01*
X8366981Y-20979305D01*
X8366981Y-20931686D01*
X8376505Y-20893591D01*
X8386028Y-20874543D01*
X8395552Y-20865019D01*
X8414600Y-20855495D01*
X8557457Y-20855495D02*
X8557457Y-20893591D01*
X8633647Y-20855495D02*
X8633647Y-20893591D01*
X8928886Y-21131686D02*
X8919362Y-21122162D01*
X8900314Y-21093591D01*
X8890790Y-21074543D01*
X8881267Y-21045972D01*
X8871743Y-20998353D01*
X8871743Y-20960257D01*
X8881267Y-20912638D01*
X8890790Y-20884067D01*
X8900314Y-20865019D01*
X8919362Y-20836448D01*
X8928886Y-20826924D01*
X9090790Y-20855495D02*
X9052695Y-20855495D01*
X9033647Y-20865019D01*
X9024124Y-20874543D01*
X9005076Y-20903114D01*
X8995552Y-20941210D01*
X8995552Y-21017400D01*
X9005076Y-21036448D01*
X9014600Y-21045972D01*
X9033647Y-21055495D01*
X9071743Y-21055495D01*
X9090790Y-21045972D01*
X9100314Y-21036448D01*
X9109838Y-21017400D01*
X9109838Y-20969781D01*
X9100314Y-20950733D01*
X9090790Y-20941210D01*
X9071743Y-20931686D01*
X9033647Y-20931686D01*
X9014600Y-20941210D01*
X9005076Y-20950733D01*
X8995552Y-20969781D01*
X9233647Y-20855495D02*
X9252695Y-20855495D01*
X9271743Y-20865019D01*
X9281267Y-20874543D01*
X9290790Y-20893591D01*
X9300314Y-20931686D01*
X9300314Y-20979305D01*
X9290790Y-21017400D01*
X9281267Y-21036448D01*
X9271743Y-21045972D01*
X9252695Y-21055495D01*
X9233647Y-21055495D01*
X9214600Y-21045972D01*
X9205076Y-21036448D01*
X9195552Y-21017400D01*
X9186028Y-20979305D01*
X9186028Y-20931686D01*
X9195552Y-20893591D01*
X9205076Y-20874543D01*
X9214600Y-20865019D01*
X9233647Y-20855495D01*
X9538409Y-21055495D02*
X9538409Y-20855495D01*
X9624124Y-21055495D02*
X9624124Y-20950733D01*
X9614600Y-20931686D01*
X9595552Y-20922162D01*
X9566981Y-20922162D01*
X9547933Y-20931686D01*
X9538409Y-20941210D01*
X9747933Y-21055495D02*
X9728886Y-21045972D01*
X9719362Y-21036448D01*
X9709838Y-21017400D01*
X9709838Y-20960257D01*
X9719362Y-20941210D01*
X9728886Y-20931686D01*
X9747933Y-20922162D01*
X9776505Y-20922162D01*
X9795552Y-20931686D01*
X9805076Y-20941210D01*
X9814600Y-20960257D01*
X9814600Y-21017400D01*
X9805076Y-21036448D01*
X9795552Y-21045972D01*
X9776505Y-21055495D01*
X9747933Y-21055495D01*
X9928886Y-21055495D02*
X9909838Y-21045972D01*
X9900314Y-21026924D01*
X9900314Y-20855495D01*
X10081267Y-21045972D02*
X10062219Y-21055495D01*
X10024124Y-21055495D01*
X10005076Y-21045972D01*
X9995552Y-21026924D01*
X9995552Y-20950733D01*
X10005076Y-20931686D01*
X10024124Y-20922162D01*
X10062219Y-20922162D01*
X10081267Y-20931686D01*
X10090790Y-20950733D01*
X10090790Y-20969781D01*
X9995552Y-20988829D01*
X10166981Y-21045972D02*
X10186028Y-21055495D01*
X10224124Y-21055495D01*
X10243171Y-21045972D01*
X10252695Y-21026924D01*
X10252695Y-21017400D01*
X10243171Y-20998353D01*
X10224124Y-20988829D01*
X10195552Y-20988829D01*
X10176505Y-20979305D01*
X10166981Y-20960257D01*
X10166981Y-20950733D01*
X10176505Y-20931686D01*
X10195552Y-20922162D01*
X10224124Y-20922162D01*
X10243171Y-20931686D01*
X10319362Y-21131686D02*
X10328886Y-21122162D01*
X10347933Y-21093591D01*
X10357457Y-21074543D01*
X10366981Y-21045972D01*
X10376505Y-20998353D01*
X10376505Y-20960257D01*
X10366981Y-20912638D01*
X10357457Y-20884067D01*
X10347933Y-20865019D01*
X10328886Y-20836448D01*
X10319362Y-20826924D01*
X10681267Y-21131686D02*
X10671743Y-21122162D01*
X10652695Y-21093591D01*
X10643171Y-21074543D01*
X10633647Y-21045972D01*
X10624124Y-20998353D01*
X10624124Y-20960257D01*
X10633647Y-20912638D01*
X10643171Y-20884067D01*
X10652695Y-20865019D01*
X10671743Y-20836448D01*
X10681267Y-20826924D01*
X10757457Y-20922162D02*
X10757457Y-21055495D01*
X10757457Y-20941210D02*
X10766981Y-20931686D01*
X10786028Y-20922162D01*
X10814600Y-20922162D01*
X10833647Y-20931686D01*
X10843171Y-20950733D01*
X10843171Y-21055495D01*
X10966981Y-21055495D02*
X10947933Y-21045972D01*
X10938409Y-21036448D01*
X10928886Y-21017400D01*
X10928886Y-20960257D01*
X10938409Y-20941210D01*
X10947933Y-20931686D01*
X10966981Y-20922162D01*
X10995552Y-20922162D01*
X11014600Y-20931686D01*
X11024124Y-20941210D01*
X11033647Y-20960257D01*
X11033647Y-21017400D01*
X11024124Y-21036448D01*
X11014600Y-21045972D01*
X10995552Y-21055495D01*
X10966981Y-21055495D01*
X11090790Y-20922162D02*
X11166981Y-20922162D01*
X11119362Y-20855495D02*
X11119362Y-21026924D01*
X11128886Y-21045972D01*
X11147933Y-21055495D01*
X11166981Y-21055495D01*
X11386028Y-20922162D02*
X11386028Y-21122162D01*
X11386028Y-20931686D02*
X11405076Y-20922162D01*
X11443171Y-20922162D01*
X11462219Y-20931686D01*
X11471743Y-20941210D01*
X11481266Y-20960257D01*
X11481266Y-21017400D01*
X11471743Y-21036448D01*
X11462219Y-21045972D01*
X11443171Y-21055495D01*
X11405076Y-21055495D01*
X11386028Y-21045972D01*
X11595552Y-21055495D02*
X11576505Y-21045972D01*
X11566981Y-21026924D01*
X11566981Y-20855495D01*
X11757457Y-21055495D02*
X11757457Y-20950733D01*
X11747933Y-20931686D01*
X11728885Y-20922162D01*
X11690790Y-20922162D01*
X11671743Y-20931686D01*
X11757457Y-21045972D02*
X11738409Y-21055495D01*
X11690790Y-21055495D01*
X11671743Y-21045972D01*
X11662219Y-21026924D01*
X11662219Y-21007876D01*
X11671743Y-20988829D01*
X11690790Y-20979305D01*
X11738409Y-20979305D01*
X11757457Y-20969781D01*
X11824124Y-20922162D02*
X11900314Y-20922162D01*
X11852695Y-20855495D02*
X11852695Y-21026924D01*
X11862219Y-21045972D01*
X11881266Y-21055495D01*
X11900314Y-21055495D01*
X12043171Y-21045972D02*
X12024124Y-21055495D01*
X11986028Y-21055495D01*
X11966981Y-21045972D01*
X11957457Y-21026924D01*
X11957457Y-20950733D01*
X11966981Y-20931686D01*
X11986028Y-20922162D01*
X12024124Y-20922162D01*
X12043171Y-20931686D01*
X12052695Y-20950733D01*
X12052695Y-20969781D01*
X11957457Y-20988829D01*
X12224124Y-21055495D02*
X12224124Y-20855495D01*
X12224124Y-21045972D02*
X12205076Y-21055495D01*
X12166981Y-21055495D01*
X12147933Y-21045972D01*
X12138409Y-21036448D01*
X12128885Y-21017400D01*
X12128885Y-20960257D01*
X12138409Y-20941210D01*
X12147933Y-20931686D01*
X12166981Y-20922162D01*
X12205076Y-20922162D01*
X12224124Y-20931686D01*
X12300314Y-21131686D02*
X12309838Y-21122162D01*
X12328885Y-21093591D01*
X12338409Y-21074543D01*
X12347933Y-21045972D01*
X12357457Y-20998353D01*
X12357457Y-20960257D01*
X12347933Y-20912638D01*
X12338409Y-20884067D01*
X12328885Y-20865019D01*
X12309838Y-20836448D01*
X12300314Y-20826924D01*
X5356981Y-21255199D02*
G75*
G03*
X5356981Y-21255199I-100000J0D01*
G01*
X5605076Y-21164723D02*
X5614600Y-21155199D01*
X5633647Y-21145675D01*
X5681266Y-21145675D01*
X5700314Y-21155199D01*
X5709838Y-21164723D01*
X5719362Y-21183771D01*
X5719362Y-21202818D01*
X5709838Y-21231390D01*
X5595552Y-21345675D01*
X5719362Y-21345675D01*
X5805076Y-21326628D02*
X5814600Y-21336152D01*
X5805076Y-21345675D01*
X5795552Y-21336152D01*
X5805076Y-21326628D01*
X5805076Y-21345675D01*
X5890790Y-21164723D02*
X5900314Y-21155199D01*
X5919362Y-21145675D01*
X5966981Y-21145675D01*
X5986028Y-21155199D01*
X5995552Y-21164723D01*
X6005076Y-21183771D01*
X6005076Y-21202818D01*
X5995552Y-21231390D01*
X5881266Y-21345675D01*
X6005076Y-21345675D01*
X6128885Y-21145675D02*
X6147933Y-21145675D01*
X6166981Y-21155199D01*
X6176505Y-21164723D01*
X6186028Y-21183771D01*
X6195552Y-21221866D01*
X6195552Y-21269485D01*
X6186028Y-21307580D01*
X6176505Y-21326628D01*
X6166981Y-21336152D01*
X6147933Y-21345675D01*
X6128885Y-21345675D01*
X6109838Y-21336152D01*
X6100314Y-21326628D01*
X6090790Y-21307580D01*
X6081266Y-21269485D01*
X6081266Y-21221866D01*
X6090790Y-21183771D01*
X6100314Y-21164723D01*
X6109838Y-21155199D01*
X6128885Y-21145675D01*
X6319362Y-21145675D02*
X6338409Y-21145675D01*
X6357457Y-21155199D01*
X6366981Y-21164723D01*
X6376505Y-21183771D01*
X6386028Y-21221866D01*
X6386028Y-21269485D01*
X6376505Y-21307580D01*
X6366981Y-21326628D01*
X6357457Y-21336152D01*
X6338409Y-21345675D01*
X6319362Y-21345675D01*
X6300314Y-21336152D01*
X6290790Y-21326628D01*
X6281266Y-21307580D01*
X6271743Y-21269485D01*
X6271743Y-21221866D01*
X6281266Y-21183771D01*
X6290790Y-21164723D01*
X6300314Y-21155199D01*
X6319362Y-21145675D01*
X6471743Y-21345675D02*
X6471743Y-21212342D01*
X6471743Y-21231390D02*
X6481266Y-21221866D01*
X6500314Y-21212342D01*
X6528885Y-21212342D01*
X6547933Y-21221866D01*
X6557457Y-21240913D01*
X6557457Y-21345675D01*
X6557457Y-21240913D02*
X6566981Y-21221866D01*
X6586028Y-21212342D01*
X6614600Y-21212342D01*
X6633647Y-21221866D01*
X6643171Y-21240913D01*
X6643171Y-21345675D01*
X6738409Y-21345675D02*
X6738409Y-21212342D01*
X6738409Y-21231390D02*
X6747933Y-21221866D01*
X6766981Y-21212342D01*
X6795552Y-21212342D01*
X6814600Y-21221866D01*
X6824124Y-21240913D01*
X6824124Y-21345675D01*
X6824124Y-21240913D02*
X6833647Y-21221866D01*
X6852695Y-21212342D01*
X6881266Y-21212342D01*
X6900314Y-21221866D01*
X6909838Y-21240913D01*
X6909838Y-21345675D01*
X7300314Y-21136152D02*
X7128885Y-21393294D01*
X7557457Y-21145675D02*
X7576505Y-21145675D01*
X7595552Y-21155199D01*
X7605076Y-21164723D01*
X7614600Y-21183771D01*
X7624124Y-21221866D01*
X7624124Y-21269485D01*
X7614600Y-21307580D01*
X7605076Y-21326628D01*
X7595552Y-21336152D01*
X7576505Y-21345675D01*
X7557457Y-21345675D01*
X7538409Y-21336152D01*
X7528885Y-21326628D01*
X7519362Y-21307580D01*
X7509838Y-21269485D01*
X7509838Y-21221866D01*
X7519362Y-21183771D01*
X7528885Y-21164723D01*
X7538409Y-21155199D01*
X7557457Y-21145675D01*
X7709838Y-21326628D02*
X7719362Y-21336152D01*
X7709838Y-21345675D01*
X7700314Y-21336152D01*
X7709838Y-21326628D01*
X7709838Y-21345675D01*
X7843171Y-21145675D02*
X7862219Y-21145675D01*
X7881266Y-21155199D01*
X7890790Y-21164723D01*
X7900314Y-21183771D01*
X7909838Y-21221866D01*
X7909838Y-21269485D01*
X7900314Y-21307580D01*
X7890790Y-21326628D01*
X7881266Y-21336152D01*
X7862219Y-21345675D01*
X7843171Y-21345675D01*
X7824124Y-21336152D01*
X7814600Y-21326628D01*
X7805076Y-21307580D01*
X7795552Y-21269485D01*
X7795552Y-21221866D01*
X7805076Y-21183771D01*
X7814600Y-21164723D01*
X7824124Y-21155199D01*
X7843171Y-21145675D01*
X8024124Y-21231390D02*
X8005076Y-21221866D01*
X7995552Y-21212342D01*
X7986028Y-21193294D01*
X7986028Y-21183771D01*
X7995552Y-21164723D01*
X8005076Y-21155199D01*
X8024124Y-21145675D01*
X8062219Y-21145675D01*
X8081266Y-21155199D01*
X8090790Y-21164723D01*
X8100314Y-21183771D01*
X8100314Y-21193294D01*
X8090790Y-21212342D01*
X8081266Y-21221866D01*
X8062219Y-21231390D01*
X8024124Y-21231390D01*
X8005076Y-21240913D01*
X7995552Y-21250437D01*
X7986028Y-21269485D01*
X7986028Y-21307580D01*
X7995552Y-21326628D01*
X8005076Y-21336152D01*
X8024124Y-21345675D01*
X8062219Y-21345675D01*
X8081266Y-21336152D01*
X8090790Y-21326628D01*
X8100314Y-21307580D01*
X8100314Y-21269485D01*
X8090790Y-21250437D01*
X8081266Y-21240913D01*
X8062219Y-21231390D01*
X8271743Y-21145675D02*
X8233647Y-21145675D01*
X8214600Y-21155199D01*
X8205076Y-21164723D01*
X8186028Y-21193294D01*
X8176505Y-21231390D01*
X8176505Y-21307580D01*
X8186028Y-21326628D01*
X8195552Y-21336152D01*
X8214600Y-21345675D01*
X8252695Y-21345675D01*
X8271743Y-21336152D01*
X8281266Y-21326628D01*
X8290790Y-21307580D01*
X8290790Y-21259961D01*
X8281266Y-21240913D01*
X8271743Y-21231390D01*
X8252695Y-21221866D01*
X8214600Y-21221866D01*
X8195552Y-21231390D01*
X8186028Y-21240913D01*
X8176505Y-21259961D01*
X8462219Y-21145675D02*
X8424124Y-21145675D01*
X8405076Y-21155199D01*
X8395552Y-21164723D01*
X8376505Y-21193294D01*
X8366981Y-21231390D01*
X8366981Y-21307580D01*
X8376505Y-21326628D01*
X8386028Y-21336152D01*
X8405076Y-21345675D01*
X8443171Y-21345675D01*
X8462219Y-21336152D01*
X8471743Y-21326628D01*
X8481267Y-21307580D01*
X8481267Y-21259961D01*
X8471743Y-21240913D01*
X8462219Y-21231390D01*
X8443171Y-21221866D01*
X8405076Y-21221866D01*
X8386028Y-21231390D01*
X8376505Y-21240913D01*
X8366981Y-21259961D01*
X8557457Y-21145675D02*
X8557457Y-21183771D01*
X8633647Y-21145675D02*
X8633647Y-21183771D01*
X8928886Y-21421866D02*
X8919362Y-21412342D01*
X8900314Y-21383771D01*
X8890790Y-21364723D01*
X8881267Y-21336152D01*
X8871743Y-21288533D01*
X8871743Y-21250437D01*
X8881267Y-21202818D01*
X8890790Y-21174247D01*
X8900314Y-21155199D01*
X8919362Y-21126628D01*
X8928886Y-21117104D01*
X8986028Y-21145675D02*
X9119362Y-21145675D01*
X9033647Y-21345675D01*
X9347933Y-21345675D02*
X9347933Y-21145675D01*
X9433647Y-21345675D02*
X9433647Y-21240913D01*
X9424124Y-21221866D01*
X9405076Y-21212342D01*
X9376505Y-21212342D01*
X9357457Y-21221866D01*
X9347933Y-21231390D01*
X9557457Y-21345675D02*
X9538409Y-21336152D01*
X9528886Y-21326628D01*
X9519362Y-21307580D01*
X9519362Y-21250437D01*
X9528886Y-21231390D01*
X9538409Y-21221866D01*
X9557457Y-21212342D01*
X9586028Y-21212342D01*
X9605076Y-21221866D01*
X9614600Y-21231390D01*
X9624124Y-21250437D01*
X9624124Y-21307580D01*
X9614600Y-21326628D01*
X9605076Y-21336152D01*
X9586028Y-21345675D01*
X9557457Y-21345675D01*
X9738409Y-21345675D02*
X9719362Y-21336152D01*
X9709838Y-21317104D01*
X9709838Y-21145675D01*
X9890790Y-21336152D02*
X9871743Y-21345675D01*
X9833647Y-21345675D01*
X9814600Y-21336152D01*
X9805076Y-21317104D01*
X9805076Y-21240913D01*
X9814600Y-21221866D01*
X9833647Y-21212342D01*
X9871743Y-21212342D01*
X9890790Y-21221866D01*
X9900314Y-21240913D01*
X9900314Y-21259961D01*
X9805076Y-21279009D01*
X9976505Y-21336152D02*
X9995552Y-21345675D01*
X10033647Y-21345675D01*
X10052695Y-21336152D01*
X10062219Y-21317104D01*
X10062219Y-21307580D01*
X10052695Y-21288533D01*
X10033647Y-21279009D01*
X10005076Y-21279009D01*
X9986028Y-21269485D01*
X9976505Y-21250437D01*
X9976505Y-21240913D01*
X9986028Y-21221866D01*
X10005076Y-21212342D01*
X10033647Y-21212342D01*
X10052695Y-21221866D01*
X10128886Y-21421866D02*
X10138409Y-21412342D01*
X10157457Y-21383771D01*
X10166981Y-21364723D01*
X10176505Y-21336152D01*
X10186028Y-21288533D01*
X10186028Y-21250437D01*
X10176505Y-21202818D01*
X10166981Y-21174247D01*
X10157457Y-21155199D01*
X10138409Y-21126628D01*
X10128886Y-21117104D01*
X10490790Y-21421866D02*
X10481267Y-21412342D01*
X10462219Y-21383771D01*
X10452695Y-21364723D01*
X10443171Y-21336152D01*
X10433647Y-21288533D01*
X10433647Y-21250437D01*
X10443171Y-21202818D01*
X10452695Y-21174247D01*
X10462219Y-21155199D01*
X10481267Y-21126628D01*
X10490790Y-21117104D01*
X10566981Y-21212342D02*
X10566981Y-21345675D01*
X10566981Y-21231390D02*
X10576505Y-21221866D01*
X10595552Y-21212342D01*
X10624124Y-21212342D01*
X10643171Y-21221866D01*
X10652695Y-21240913D01*
X10652695Y-21345675D01*
X10776505Y-21345675D02*
X10757457Y-21336152D01*
X10747933Y-21326628D01*
X10738409Y-21307580D01*
X10738409Y-21250437D01*
X10747933Y-21231390D01*
X10757457Y-21221866D01*
X10776505Y-21212342D01*
X10805076Y-21212342D01*
X10824124Y-21221866D01*
X10833647Y-21231390D01*
X10843171Y-21250437D01*
X10843171Y-21307580D01*
X10833647Y-21326628D01*
X10824124Y-21336152D01*
X10805076Y-21345675D01*
X10776505Y-21345675D01*
X10900314Y-21212342D02*
X10976505Y-21212342D01*
X10928886Y-21145675D02*
X10928886Y-21317104D01*
X10938409Y-21336152D01*
X10957457Y-21345675D01*
X10976505Y-21345675D01*
X11195552Y-21212342D02*
X11195552Y-21412342D01*
X11195552Y-21221866D02*
X11214600Y-21212342D01*
X11252695Y-21212342D01*
X11271743Y-21221866D01*
X11281266Y-21231390D01*
X11290790Y-21250437D01*
X11290790Y-21307580D01*
X11281266Y-21326628D01*
X11271743Y-21336152D01*
X11252695Y-21345675D01*
X11214600Y-21345675D01*
X11195552Y-21336152D01*
X11405076Y-21345675D02*
X11386028Y-21336152D01*
X11376505Y-21317104D01*
X11376505Y-21145675D01*
X11566981Y-21345675D02*
X11566981Y-21240913D01*
X11557457Y-21221866D01*
X11538409Y-21212342D01*
X11500314Y-21212342D01*
X11481266Y-21221866D01*
X11566981Y-21336152D02*
X11547933Y-21345675D01*
X11500314Y-21345675D01*
X11481266Y-21336152D01*
X11471743Y-21317104D01*
X11471743Y-21298056D01*
X11481266Y-21279009D01*
X11500314Y-21269485D01*
X11547933Y-21269485D01*
X11566981Y-21259961D01*
X11633647Y-21212342D02*
X11709838Y-21212342D01*
X11662219Y-21145675D02*
X11662219Y-21317104D01*
X11671743Y-21336152D01*
X11690790Y-21345675D01*
X11709838Y-21345675D01*
X11852695Y-21336152D02*
X11833647Y-21345675D01*
X11795552Y-21345675D01*
X11776505Y-21336152D01*
X11766981Y-21317104D01*
X11766981Y-21240913D01*
X11776505Y-21221866D01*
X11795552Y-21212342D01*
X11833647Y-21212342D01*
X11852695Y-21221866D01*
X11862219Y-21240913D01*
X11862219Y-21259961D01*
X11766981Y-21279009D01*
X12033647Y-21345675D02*
X12033647Y-21145675D01*
X12033647Y-21336152D02*
X12014600Y-21345675D01*
X11976505Y-21345675D01*
X11957457Y-21336152D01*
X11947933Y-21326628D01*
X11938409Y-21307580D01*
X11938409Y-21250437D01*
X11947933Y-21231390D01*
X11957457Y-21221866D01*
X11976505Y-21212342D01*
X12014600Y-21212342D01*
X12033647Y-21221866D01*
X12109838Y-21421866D02*
X12119362Y-21412342D01*
X12138409Y-21383771D01*
X12147933Y-21364723D01*
X12157457Y-21336152D01*
X12166981Y-21288533D01*
X12166981Y-21250437D01*
X12157457Y-21202818D01*
X12147933Y-21174247D01*
X12138409Y-21155199D01*
X12119362Y-21126628D01*
X12109838Y-21117104D01*
X5256981Y-21475199D02*
X5256981Y-21675199D01*
X5156981Y-21575199D02*
X5356981Y-21575199D01*
X5595552Y-21465675D02*
X5719362Y-21465675D01*
X5652695Y-21541866D01*
X5681266Y-21541866D01*
X5700314Y-21551390D01*
X5709838Y-21560913D01*
X5719362Y-21579961D01*
X5719362Y-21627580D01*
X5709838Y-21646628D01*
X5700314Y-21656152D01*
X5681266Y-21665675D01*
X5624124Y-21665675D01*
X5605076Y-21656152D01*
X5595552Y-21646628D01*
X5805076Y-21646628D02*
X5814600Y-21656152D01*
X5805076Y-21665675D01*
X5795552Y-21656152D01*
X5805076Y-21646628D01*
X5805076Y-21665675D01*
X5986028Y-21532342D02*
X5986028Y-21665675D01*
X5938409Y-21456152D02*
X5890790Y-21599009D01*
X6014600Y-21599009D01*
X6081266Y-21484723D02*
X6090790Y-21475199D01*
X6109838Y-21465675D01*
X6157457Y-21465675D01*
X6176505Y-21475199D01*
X6186028Y-21484723D01*
X6195552Y-21503771D01*
X6195552Y-21522818D01*
X6186028Y-21551390D01*
X6071743Y-21665675D01*
X6195552Y-21665675D01*
X6290790Y-21665675D02*
X6328885Y-21665675D01*
X6347933Y-21656152D01*
X6357457Y-21646628D01*
X6376505Y-21618056D01*
X6386028Y-21579961D01*
X6386028Y-21503771D01*
X6376505Y-21484723D01*
X6366981Y-21475199D01*
X6347933Y-21465675D01*
X6309838Y-21465675D01*
X6290790Y-21475199D01*
X6281266Y-21484723D01*
X6271743Y-21503771D01*
X6271743Y-21551390D01*
X6281266Y-21570437D01*
X6290790Y-21579961D01*
X6309838Y-21589485D01*
X6347933Y-21589485D01*
X6366981Y-21579961D01*
X6376505Y-21570437D01*
X6386028Y-21551390D01*
X6471743Y-21665675D02*
X6471743Y-21532342D01*
X6471743Y-21551390D02*
X6481266Y-21541866D01*
X6500314Y-21532342D01*
X6528885Y-21532342D01*
X6547933Y-21541866D01*
X6557457Y-21560913D01*
X6557457Y-21665675D01*
X6557457Y-21560913D02*
X6566981Y-21541866D01*
X6586028Y-21532342D01*
X6614600Y-21532342D01*
X6633647Y-21541866D01*
X6643171Y-21560913D01*
X6643171Y-21665675D01*
X6738409Y-21665675D02*
X6738409Y-21532342D01*
X6738409Y-21551390D02*
X6747933Y-21541866D01*
X6766981Y-21532342D01*
X6795552Y-21532342D01*
X6814600Y-21541866D01*
X6824124Y-21560913D01*
X6824124Y-21665675D01*
X6824124Y-21560913D02*
X6833647Y-21541866D01*
X6852695Y-21532342D01*
X6881266Y-21532342D01*
X6900314Y-21541866D01*
X6909838Y-21560913D01*
X6909838Y-21665675D01*
X7300314Y-21456152D02*
X7128885Y-21713294D01*
X7557457Y-21465675D02*
X7576505Y-21465675D01*
X7595552Y-21475199D01*
X7605076Y-21484723D01*
X7614600Y-21503771D01*
X7624124Y-21541866D01*
X7624124Y-21589485D01*
X7614600Y-21627580D01*
X7605076Y-21646628D01*
X7595552Y-21656152D01*
X7576505Y-21665675D01*
X7557457Y-21665675D01*
X7538409Y-21656152D01*
X7528885Y-21646628D01*
X7519362Y-21627580D01*
X7509838Y-21589485D01*
X7509838Y-21541866D01*
X7519362Y-21503771D01*
X7528885Y-21484723D01*
X7538409Y-21475199D01*
X7557457Y-21465675D01*
X7709838Y-21646628D02*
X7719362Y-21656152D01*
X7709838Y-21665675D01*
X7700314Y-21656152D01*
X7709838Y-21646628D01*
X7709838Y-21665675D01*
X7909838Y-21665675D02*
X7795552Y-21665675D01*
X7852695Y-21665675D02*
X7852695Y-21465675D01*
X7833647Y-21494247D01*
X7814600Y-21513294D01*
X7795552Y-21522818D01*
X7976505Y-21465675D02*
X8100314Y-21465675D01*
X8033647Y-21541866D01*
X8062219Y-21541866D01*
X8081266Y-21551390D01*
X8090790Y-21560913D01*
X8100314Y-21579961D01*
X8100314Y-21627580D01*
X8090790Y-21646628D01*
X8081266Y-21656152D01*
X8062219Y-21665675D01*
X8005076Y-21665675D01*
X7986028Y-21656152D01*
X7976505Y-21646628D01*
X8281266Y-21465675D02*
X8186028Y-21465675D01*
X8176505Y-21560913D01*
X8186028Y-21551390D01*
X8205076Y-21541866D01*
X8252695Y-21541866D01*
X8271743Y-21551390D01*
X8281266Y-21560913D01*
X8290790Y-21579961D01*
X8290790Y-21627580D01*
X8281266Y-21646628D01*
X8271743Y-21656152D01*
X8252695Y-21665675D01*
X8205076Y-21665675D01*
X8186028Y-21656152D01*
X8176505Y-21646628D01*
X8414600Y-21465675D02*
X8433647Y-21465675D01*
X8452695Y-21475199D01*
X8462219Y-21484723D01*
X8471743Y-21503771D01*
X8481267Y-21541866D01*
X8481267Y-21589485D01*
X8471743Y-21627580D01*
X8462219Y-21646628D01*
X8452695Y-21656152D01*
X8433647Y-21665675D01*
X8414600Y-21665675D01*
X8395552Y-21656152D01*
X8386028Y-21646628D01*
X8376505Y-21627580D01*
X8366981Y-21589485D01*
X8366981Y-21541866D01*
X8376505Y-21503771D01*
X8386028Y-21484723D01*
X8395552Y-21475199D01*
X8414600Y-21465675D01*
X8557457Y-21465675D02*
X8557457Y-21503771D01*
X8633647Y-21465675D02*
X8633647Y-21503771D01*
X8928886Y-21741866D02*
X8919362Y-21732342D01*
X8900314Y-21703771D01*
X8890790Y-21684723D01*
X8881267Y-21656152D01*
X8871743Y-21608533D01*
X8871743Y-21570437D01*
X8881267Y-21522818D01*
X8890790Y-21494247D01*
X8900314Y-21475199D01*
X8919362Y-21446628D01*
X8928886Y-21437104D01*
X8986028Y-21465675D02*
X9109838Y-21465675D01*
X9043171Y-21541866D01*
X9071743Y-21541866D01*
X9090790Y-21551390D01*
X9100314Y-21560913D01*
X9109838Y-21579961D01*
X9109838Y-21627580D01*
X9100314Y-21646628D01*
X9090790Y-21656152D01*
X9071743Y-21665675D01*
X9014600Y-21665675D01*
X8995552Y-21656152D01*
X8986028Y-21646628D01*
X9233647Y-21465675D02*
X9252695Y-21465675D01*
X9271743Y-21475199D01*
X9281267Y-21484723D01*
X9290790Y-21503771D01*
X9300314Y-21541866D01*
X9300314Y-21589485D01*
X9290790Y-21627580D01*
X9281267Y-21646628D01*
X9271743Y-21656152D01*
X9252695Y-21665675D01*
X9233647Y-21665675D01*
X9214600Y-21656152D01*
X9205076Y-21646628D01*
X9195552Y-21627580D01*
X9186028Y-21589485D01*
X9186028Y-21541866D01*
X9195552Y-21503771D01*
X9205076Y-21484723D01*
X9214600Y-21475199D01*
X9233647Y-21465675D01*
X9538409Y-21665675D02*
X9538409Y-21465675D01*
X9624124Y-21665675D02*
X9624124Y-21560913D01*
X9614600Y-21541866D01*
X9595552Y-21532342D01*
X9566981Y-21532342D01*
X9547933Y-21541866D01*
X9538409Y-21551390D01*
X9747933Y-21665675D02*
X9728886Y-21656152D01*
X9719362Y-21646628D01*
X9709838Y-21627580D01*
X9709838Y-21570437D01*
X9719362Y-21551390D01*
X9728886Y-21541866D01*
X9747933Y-21532342D01*
X9776505Y-21532342D01*
X9795552Y-21541866D01*
X9805076Y-21551390D01*
X9814600Y-21570437D01*
X9814600Y-21627580D01*
X9805076Y-21646628D01*
X9795552Y-21656152D01*
X9776505Y-21665675D01*
X9747933Y-21665675D01*
X9928886Y-21665675D02*
X9909838Y-21656152D01*
X9900314Y-21637104D01*
X9900314Y-21465675D01*
X10081267Y-21656152D02*
X10062219Y-21665675D01*
X10024124Y-21665675D01*
X10005076Y-21656152D01*
X9995552Y-21637104D01*
X9995552Y-21560913D01*
X10005076Y-21541866D01*
X10024124Y-21532342D01*
X10062219Y-21532342D01*
X10081267Y-21541866D01*
X10090790Y-21560913D01*
X10090790Y-21579961D01*
X9995552Y-21599009D01*
X10166981Y-21656152D02*
X10186028Y-21665675D01*
X10224124Y-21665675D01*
X10243171Y-21656152D01*
X10252695Y-21637104D01*
X10252695Y-21627580D01*
X10243171Y-21608533D01*
X10224124Y-21599009D01*
X10195552Y-21599009D01*
X10176505Y-21589485D01*
X10166981Y-21570437D01*
X10166981Y-21560913D01*
X10176505Y-21541866D01*
X10195552Y-21532342D01*
X10224124Y-21532342D01*
X10243171Y-21541866D01*
X10319362Y-21741866D02*
X10328886Y-21732342D01*
X10347933Y-21703771D01*
X10357457Y-21684723D01*
X10366981Y-21656152D01*
X10376505Y-21608533D01*
X10376505Y-21570437D01*
X10366981Y-21522818D01*
X10357457Y-21494247D01*
X10347933Y-21475199D01*
X10328886Y-21446628D01*
X10319362Y-21437104D01*
X10681267Y-21741866D02*
X10671743Y-21732342D01*
X10652695Y-21703771D01*
X10643171Y-21684723D01*
X10633647Y-21656152D01*
X10624124Y-21608533D01*
X10624124Y-21570437D01*
X10633647Y-21522818D01*
X10643171Y-21494247D01*
X10652695Y-21475199D01*
X10671743Y-21446628D01*
X10681267Y-21437104D01*
X10757457Y-21532342D02*
X10757457Y-21665675D01*
X10757457Y-21551390D02*
X10766981Y-21541866D01*
X10786028Y-21532342D01*
X10814600Y-21532342D01*
X10833647Y-21541866D01*
X10843171Y-21560913D01*
X10843171Y-21665675D01*
X10966981Y-21665675D02*
X10947933Y-21656152D01*
X10938409Y-21646628D01*
X10928886Y-21627580D01*
X10928886Y-21570437D01*
X10938409Y-21551390D01*
X10947933Y-21541866D01*
X10966981Y-21532342D01*
X10995552Y-21532342D01*
X11014600Y-21541866D01*
X11024124Y-21551390D01*
X11033647Y-21570437D01*
X11033647Y-21627580D01*
X11024124Y-21646628D01*
X11014600Y-21656152D01*
X10995552Y-21665675D01*
X10966981Y-21665675D01*
X11090790Y-21532342D02*
X11166981Y-21532342D01*
X11119362Y-21465675D02*
X11119362Y-21637104D01*
X11128886Y-21656152D01*
X11147933Y-21665675D01*
X11166981Y-21665675D01*
X11386028Y-21532342D02*
X11386028Y-21732342D01*
X11386028Y-21541866D02*
X11405076Y-21532342D01*
X11443171Y-21532342D01*
X11462219Y-21541866D01*
X11471743Y-21551390D01*
X11481266Y-21570437D01*
X11481266Y-21627580D01*
X11471743Y-21646628D01*
X11462219Y-21656152D01*
X11443171Y-21665675D01*
X11405076Y-21665675D01*
X11386028Y-21656152D01*
X11595552Y-21665675D02*
X11576505Y-21656152D01*
X11566981Y-21637104D01*
X11566981Y-21465675D01*
X11757457Y-21665675D02*
X11757457Y-21560913D01*
X11747933Y-21541866D01*
X11728885Y-21532342D01*
X11690790Y-21532342D01*
X11671743Y-21541866D01*
X11757457Y-21656152D02*
X11738409Y-21665675D01*
X11690790Y-21665675D01*
X11671743Y-21656152D01*
X11662219Y-21637104D01*
X11662219Y-21618056D01*
X11671743Y-21599009D01*
X11690790Y-21589485D01*
X11738409Y-21589485D01*
X11757457Y-21579961D01*
X11824124Y-21532342D02*
X11900314Y-21532342D01*
X11852695Y-21465675D02*
X11852695Y-21637104D01*
X11862219Y-21656152D01*
X11881266Y-21665675D01*
X11900314Y-21665675D01*
X12043171Y-21656152D02*
X12024124Y-21665675D01*
X11986028Y-21665675D01*
X11966981Y-21656152D01*
X11957457Y-21637104D01*
X11957457Y-21560913D01*
X11966981Y-21541866D01*
X11986028Y-21532342D01*
X12024124Y-21532342D01*
X12043171Y-21541866D01*
X12052695Y-21560913D01*
X12052695Y-21579961D01*
X11957457Y-21599009D01*
X12224124Y-21665675D02*
X12224124Y-21465675D01*
X12224124Y-21656152D02*
X12205076Y-21665675D01*
X12166981Y-21665675D01*
X12147933Y-21656152D01*
X12138409Y-21646628D01*
X12128885Y-21627580D01*
X12128885Y-21570437D01*
X12138409Y-21551390D01*
X12147933Y-21541866D01*
X12166981Y-21532342D01*
X12205076Y-21532342D01*
X12224124Y-21541866D01*
X12300314Y-21741866D02*
X12309838Y-21732342D01*
X12328885Y-21703771D01*
X12338409Y-21684723D01*
X12347933Y-21656152D01*
X12357457Y-21608533D01*
X12357457Y-21570437D01*
X12347933Y-21522818D01*
X12338409Y-21494247D01*
X12328885Y-21475199D01*
X12309838Y-21446628D01*
X12300314Y-21437104D01*
M02*
