%TF.GenerationSoftware,KiCad,Pcbnew,6.0.2+dfsg-1*%
%TF.CreationDate,2022-06-30T23:37:17+02:00*%
%TF.ProjectId,dragonwings_test,64726167-6f6e-4776-996e-67735f746573,v1.0.0*%
%TF.SameCoordinates,Original*%
%TF.FileFunction,Legend,Bot*%
%TF.FilePolarity,Positive*%
%FSLAX46Y46*%
G04 Gerber Fmt 4.6, Leading zero omitted, Abs format (unit mm)*
G04 Created by KiCad (PCBNEW 6.0.2+dfsg-1) date 2022-06-30 23:37:17*
%MOMM*%
%LPD*%
G01*
G04 APERTURE LIST*
G04 Aperture macros list*
%AMRoundRect*
0 Rectangle with rounded corners*
0 $1 Rounding radius*
0 $2 $3 $4 $5 $6 $7 $8 $9 X,Y pos of 4 corners*
0 Add a 4 corners polygon primitive as box body*
4,1,4,$2,$3,$4,$5,$6,$7,$8,$9,$2,$3,0*
0 Add four circle primitives for the rounded corners*
1,1,$1+$1,$2,$3*
1,1,$1+$1,$4,$5*
1,1,$1+$1,$6,$7*
1,1,$1+$1,$8,$9*
0 Add four rect primitives between the rounded corners*
20,1,$1+$1,$2,$3,$4,$5,0*
20,1,$1+$1,$4,$5,$6,$7,0*
20,1,$1+$1,$6,$7,$8,$9,0*
20,1,$1+$1,$8,$9,$2,$3,0*%
G04 Aperture macros list end*
%ADD10C,0.100000*%
%ADD11C,0.150000*%
%ADD12R,1.752600X1.752600*%
%ADD13C,1.752600*%
%ADD14C,1.801800*%
%ADD15C,3.529000*%
%ADD16C,2.132000*%
%ADD17RoundRect,0.050000X0.689711X0.294615X-0.089711X0.744615X-0.689711X-0.294615X0.089711X-0.744615X0*%
%ADD18RoundRect,0.050000X0.089711X0.744615X-0.689711X0.294615X-0.089711X-0.744615X0.689711X-0.294615X0*%
%ADD19C,2.300000*%
%ADD20RoundRect,0.050000X-0.876300X0.876300X-0.876300X-0.876300X0.876300X-0.876300X0.876300X0.876300X0*%
%ADD21C,1.852600*%
%ADD22RoundRect,0.050000X0.900000X0.550000X-0.900000X0.550000X-0.900000X-0.550000X0.900000X-0.550000X0*%
G04 APERTURE END LIST*
D10*
%TO.C,D1*%
X91207232Y-130561533D02*
X90860822Y-130361533D01*
X90860822Y-130361533D02*
X90141207Y-130407943D01*
X90541207Y-129715123D02*
X90860822Y-130361533D01*
X90860822Y-130361533D02*
X90585822Y-130837847D01*
X90341207Y-130061533D02*
X89908194Y-129811533D01*
X90860822Y-130361533D02*
X91135822Y-129885219D01*
X90141207Y-130407943D02*
X90541207Y-129715123D01*
%TO.C,D10*%
X169714651Y-137782695D02*
X169989651Y-137306381D01*
X169395036Y-137136285D02*
X169714651Y-137782695D01*
X170061061Y-137982695D02*
X169714651Y-137782695D01*
X169195036Y-137482695D02*
X168762023Y-137232695D01*
X168995036Y-137829105D02*
X169395036Y-137136285D01*
X169714651Y-137782695D02*
X168995036Y-137829105D01*
X169714651Y-137782695D02*
X169439651Y-138259009D01*
%TO.C,D16*%
X330091805Y-129811533D02*
X329745395Y-130011533D01*
X329745395Y-130011533D02*
X330020395Y-130487847D01*
X329425780Y-130657943D02*
X329025780Y-129965123D01*
X329745395Y-130011533D02*
X329470395Y-129535219D01*
X329225780Y-130311533D02*
X328792767Y-130561533D01*
X329745395Y-130011533D02*
X329425780Y-130657943D01*
X329025780Y-129965123D02*
X329745395Y-130011533D01*
%TO.C,D18*%
X314503348Y-138811533D02*
X314156938Y-139011533D01*
X313637323Y-139311533D02*
X313204310Y-139561533D01*
X313837323Y-139657943D02*
X313437323Y-138965123D01*
X313437323Y-138965123D02*
X314156938Y-139011533D01*
X314156938Y-139011533D02*
X313837323Y-139657943D01*
X314156938Y-139011533D02*
X314431938Y-139487847D01*
X314156938Y-139011533D02*
X313881938Y-138535219D01*
%TO.C,D24*%
X259737976Y-151955127D02*
X259391566Y-152155127D01*
X259071951Y-152801537D02*
X258671951Y-152108717D01*
X259391566Y-152155127D02*
X259071951Y-152801537D01*
X258871951Y-152455127D02*
X258438938Y-152705127D01*
X258671951Y-152108717D02*
X259391566Y-152155127D01*
X259391566Y-152155127D02*
X259666566Y-152631441D01*
X259391566Y-152155127D02*
X259116566Y-151678813D01*
%TO.C,D25*%
X250891566Y-137432695D02*
X251166566Y-137909009D01*
X250571951Y-138079105D02*
X250171951Y-137386285D01*
X250171951Y-137386285D02*
X250891566Y-137432695D01*
X250891566Y-137432695D02*
X250571951Y-138079105D01*
X250371951Y-137732695D02*
X249938938Y-137982695D01*
X250891566Y-137432695D02*
X250616566Y-136956381D01*
X251237976Y-137232695D02*
X250891566Y-137432695D01*
%TO.C,D11*%
X177149519Y-161705127D02*
X176803109Y-161505127D01*
X176803109Y-161505127D02*
X177078109Y-161028813D01*
X176803109Y-161505127D02*
X176083494Y-161551537D01*
X176803109Y-161505127D02*
X176528109Y-161981441D01*
X176483494Y-160858717D02*
X176803109Y-161505127D01*
X176083494Y-161551537D02*
X176483494Y-160858717D01*
X176283494Y-161205127D02*
X175850481Y-160955127D01*
%TO.C,D17*%
X321245395Y-115289101D02*
X320970395Y-114812787D01*
X320525780Y-115242691D02*
X321245395Y-115289101D01*
X321245395Y-115289101D02*
X320925780Y-115935511D01*
X321591805Y-115089101D02*
X321245395Y-115289101D01*
X321245395Y-115289101D02*
X321520395Y-115765415D01*
X320925780Y-115935511D02*
X320525780Y-115242691D01*
X320725780Y-115589101D02*
X320292767Y-115839101D01*
%TO.C,D14*%
X154355290Y-183185889D02*
X154008880Y-182985889D01*
X153489265Y-182685889D02*
X153056252Y-182435889D01*
X154008880Y-182985889D02*
X153733880Y-183462203D01*
X154008880Y-182985889D02*
X153289265Y-183032299D01*
X153289265Y-183032299D02*
X153689265Y-182339479D01*
X153689265Y-182339479D02*
X154008880Y-182985889D01*
X154008880Y-182985889D02*
X154283880Y-182509575D01*
%TO.C,D26*%
X243803109Y-161155127D02*
X244078109Y-161631441D01*
X244149519Y-160955127D02*
X243803109Y-161155127D01*
X243283494Y-161455127D02*
X242850481Y-161705127D01*
X243803109Y-161155127D02*
X243528109Y-160678813D01*
X243083494Y-161108717D02*
X243803109Y-161155127D01*
X243483494Y-161801537D02*
X243083494Y-161108717D01*
X243803109Y-161155127D02*
X243483494Y-161801537D01*
%TO.C,D30*%
X251355290Y-191435889D02*
X251008880Y-191635889D01*
X250489265Y-191935889D02*
X250056252Y-192185889D01*
X251008880Y-191635889D02*
X250689265Y-192282299D01*
X251008880Y-191635889D02*
X250733880Y-191159575D01*
X251008880Y-191635889D02*
X251283880Y-192112203D01*
X250689265Y-192282299D02*
X250289265Y-191589479D01*
X250289265Y-191589479D02*
X251008880Y-191635889D01*
%TO.C,D6*%
X135018122Y-124678847D02*
X134585109Y-124428847D01*
X135537737Y-124978847D02*
X135262737Y-125455161D01*
X134818122Y-125025257D02*
X135218122Y-124332437D01*
X135884147Y-125178847D02*
X135537737Y-124978847D01*
X135537737Y-124978847D02*
X135812737Y-124502533D01*
X135537737Y-124978847D02*
X134818122Y-125025257D01*
X135218122Y-124332437D02*
X135537737Y-124978847D01*
%TO.C,D4*%
X114949280Y-124639101D02*
X115224280Y-124162787D01*
X114429665Y-124339101D02*
X113996652Y-124089101D01*
X114949280Y-124639101D02*
X114674280Y-125115415D01*
X114949280Y-124639101D02*
X114229665Y-124685511D01*
X114229665Y-124685511D02*
X114629665Y-123992691D01*
X114629665Y-123992691D02*
X114949280Y-124639101D01*
X115295690Y-124839101D02*
X114949280Y-124639101D01*
%TO.C,D2*%
X99041207Y-114992691D02*
X99360822Y-115639101D01*
X98841207Y-115339101D02*
X98408194Y-115089101D01*
X99360822Y-115639101D02*
X99635822Y-115162787D01*
X98641207Y-115685511D02*
X99041207Y-114992691D01*
X99707232Y-115839101D02*
X99360822Y-115639101D01*
X99360822Y-115639101D02*
X99085822Y-116115415D01*
X99360822Y-115639101D02*
X98641207Y-115685511D01*
%TO.C,D3*%
X106449280Y-139361533D02*
X105729665Y-139407943D01*
X106449280Y-139361533D02*
X106724280Y-138885219D01*
X105929665Y-139061533D02*
X105496652Y-138811533D01*
X105729665Y-139407943D02*
X106129665Y-138715123D01*
X106129665Y-138715123D02*
X106449280Y-139361533D01*
X106449280Y-139361533D02*
X106174280Y-139837847D01*
X106795690Y-139561533D02*
X106449280Y-139361533D01*
%TO.C,D15*%
X169597337Y-191985889D02*
X169322337Y-192462203D01*
X168877722Y-192032299D02*
X169277722Y-191339479D01*
X169597337Y-191985889D02*
X169872337Y-191509575D01*
X169943747Y-192185889D02*
X169597337Y-191985889D01*
X169077722Y-191685889D02*
X168644709Y-191435889D01*
X169597337Y-191985889D02*
X168877722Y-192032299D01*
X169277722Y-191339479D02*
X169597337Y-191985889D01*
%TO.C,D7*%
X145906579Y-141819486D02*
X146306579Y-141126666D01*
X146626194Y-141773076D02*
X146351194Y-142249390D01*
X146626194Y-141773076D02*
X146901194Y-141296762D01*
X146106579Y-141473076D02*
X145673566Y-141223076D01*
X146306579Y-141126666D02*
X146626194Y-141773076D01*
X146626194Y-141773076D02*
X145906579Y-141819486D01*
X146972604Y-141973076D02*
X146626194Y-141773076D01*
%TO.C,D29*%
X266943747Y-182435889D02*
X266597337Y-182635889D01*
X266277722Y-183282299D02*
X265877722Y-182589479D01*
X265877722Y-182589479D02*
X266597337Y-182635889D01*
X266597337Y-182635889D02*
X266322337Y-182159575D01*
X266597337Y-182635889D02*
X266277722Y-183282299D01*
X266597337Y-182635889D02*
X266872337Y-183112203D01*
X266077722Y-182935889D02*
X265644709Y-183185889D01*
%TO.C,D5*%
X126518122Y-139401279D02*
X126085109Y-139151279D01*
X126718122Y-139054869D02*
X127037737Y-139701279D01*
X127037737Y-139701279D02*
X126762737Y-140177593D01*
X127037737Y-139701279D02*
X126318122Y-139747689D01*
X126318122Y-139747689D02*
X126718122Y-139054869D01*
X127037737Y-139701279D02*
X127312737Y-139224965D01*
X127384147Y-139901279D02*
X127037737Y-139701279D01*
%TO.C,D22*%
X273260408Y-141376666D02*
X273980023Y-141423076D01*
X273460408Y-141723076D02*
X273027395Y-141973076D01*
X273660408Y-142069486D02*
X273260408Y-141376666D01*
X274326433Y-141223076D02*
X273980023Y-141423076D01*
X273980023Y-141423076D02*
X273660408Y-142069486D01*
X273980023Y-141423076D02*
X274255023Y-141899390D01*
X273980023Y-141423076D02*
X273705023Y-140946762D01*
%TO.C,D28*%
X282185794Y-173635889D02*
X282460794Y-174112203D01*
X281866179Y-174282299D02*
X281466179Y-173589479D01*
X282185794Y-173635889D02*
X281910794Y-173159575D01*
X282532204Y-173435889D02*
X282185794Y-173635889D01*
X282185794Y-173635889D02*
X281866179Y-174282299D01*
X281466179Y-173589479D02*
X282185794Y-173635889D01*
X281666179Y-173935889D02*
X281233166Y-174185889D01*
%TO.C,D9*%
X161561061Y-152705127D02*
X161214651Y-152505127D01*
X161214651Y-152505127D02*
X160939651Y-152981441D01*
X160695036Y-152205127D02*
X160262023Y-151955127D01*
X161214651Y-152505127D02*
X160495036Y-152551537D01*
X161214651Y-152505127D02*
X161489651Y-152028813D01*
X160495036Y-152551537D02*
X160895036Y-151858717D01*
X160895036Y-151858717D02*
X161214651Y-152505127D01*
%TO.C,D21*%
X284348865Y-124582437D02*
X285068480Y-124628847D01*
X285414890Y-124428847D02*
X285068480Y-124628847D01*
X284548865Y-124928847D02*
X284115852Y-125178847D01*
X285068480Y-124628847D02*
X285343480Y-125105161D01*
X285068480Y-124628847D02*
X284793480Y-124152533D01*
X284748865Y-125275257D02*
X284348865Y-124582437D01*
X285068480Y-124628847D02*
X284748865Y-125275257D01*
%TO.C,D23*%
X264760408Y-126654234D02*
X265480023Y-126700644D01*
X265826433Y-126500644D02*
X265480023Y-126700644D01*
X265480023Y-126700644D02*
X265160408Y-127347054D01*
X264960408Y-127000644D02*
X264527395Y-127250644D01*
X265480023Y-126700644D02*
X265755023Y-127176958D01*
X265480023Y-126700644D02*
X265205023Y-126224330D01*
X265160408Y-127347054D02*
X264760408Y-126654234D01*
%TO.C,D20*%
X293568480Y-139351279D02*
X293843480Y-139827593D01*
X293568480Y-139351279D02*
X293293480Y-138874965D01*
X292848865Y-139304869D02*
X293568480Y-139351279D01*
X293048865Y-139651279D02*
X292615852Y-139901279D01*
X293914890Y-139151279D02*
X293568480Y-139351279D01*
X293248865Y-139997689D02*
X292848865Y-139304869D01*
X293568480Y-139351279D02*
X293248865Y-139997689D01*
%TO.C,D8*%
X155126194Y-127050644D02*
X155401194Y-126574330D01*
X154606579Y-126750644D02*
X154173566Y-126500644D01*
X154806579Y-126404234D02*
X155126194Y-127050644D01*
X155126194Y-127050644D02*
X154406579Y-127097054D01*
X155472604Y-127250644D02*
X155126194Y-127050644D01*
X154406579Y-127097054D02*
X154806579Y-126404234D01*
X155126194Y-127050644D02*
X154851194Y-127526958D01*
%TO.C,D12*%
X185303109Y-146782695D02*
X184583494Y-146829105D01*
X185303109Y-146782695D02*
X185028109Y-147259009D01*
X185303109Y-146782695D02*
X185578109Y-146306381D01*
X184783494Y-146482695D02*
X184350481Y-146232695D01*
X185649519Y-146982695D02*
X185303109Y-146782695D01*
X184983494Y-146136285D02*
X185303109Y-146782695D01*
X184583494Y-146829105D02*
X184983494Y-146136285D01*
%TO.C,D27*%
X235303109Y-146432695D02*
X234983494Y-147079105D01*
X235649519Y-146232695D02*
X235303109Y-146432695D01*
X235303109Y-146432695D02*
X235028109Y-145956381D01*
X235303109Y-146432695D02*
X235578109Y-146909009D01*
X234783494Y-146732695D02*
X234350481Y-146982695D01*
X234583494Y-146386285D02*
X235303109Y-146432695D01*
X234983494Y-147079105D02*
X234583494Y-146386285D01*
%TO.C,D19*%
X305656938Y-124289101D02*
X305337323Y-124935511D01*
X304937323Y-124242691D02*
X305656938Y-124289101D01*
X305137323Y-124589101D02*
X304704310Y-124839101D01*
X306003348Y-124089101D02*
X305656938Y-124289101D01*
X305337323Y-124935511D02*
X304937323Y-124242691D01*
X305656938Y-124289101D02*
X305931938Y-124765415D01*
X305656938Y-124289101D02*
X305381938Y-123812787D01*
%TO.C,D13*%
X138766833Y-174185889D02*
X138420423Y-173985889D01*
X138100808Y-173339479D02*
X138420423Y-173985889D01*
X138420423Y-173985889D02*
X137700808Y-174032299D01*
X138420423Y-173985889D02*
X138695423Y-173509575D01*
X137700808Y-174032299D02*
X138100808Y-173339479D01*
X138420423Y-173985889D02*
X138145423Y-174462203D01*
X137900808Y-173685889D02*
X137467795Y-173435889D01*
D11*
%TO.C,B1*%
X212750000Y-149000000D02*
X211250000Y-147500000D01*
X207250000Y-149000000D02*
X207250000Y-151500000D01*
X211250000Y-153000000D02*
X208750000Y-153000000D01*
X211250000Y-147500000D02*
X208750000Y-147500000D01*
X207250000Y-151500000D02*
X208750000Y-153000000D01*
X207250000Y-149000000D02*
X208750000Y-147500000D01*
X212750000Y-149000000D02*
X212750000Y-151500000D01*
X212750000Y-151500000D02*
X211250000Y-153000000D01*
%TD*%
D12*
%TO.C,MCU1*%
X202380000Y-146030000D03*
D13*
X202380000Y-148570000D03*
X202380000Y-151110000D03*
X202380000Y-153650000D03*
X202380000Y-156190000D03*
X202380000Y-158730000D03*
X202380000Y-161270000D03*
X202380000Y-163810000D03*
X202380000Y-166350000D03*
X202380000Y-168890000D03*
X202380000Y-171430000D03*
X202380000Y-173970000D03*
X217620000Y-146030000D03*
X217620000Y-148570000D03*
X217620000Y-151110000D03*
X217620000Y-153650000D03*
X217620000Y-156190000D03*
X217620000Y-158730000D03*
X217620000Y-161270000D03*
X217620000Y-163810000D03*
X217620000Y-166350000D03*
X217620000Y-168890000D03*
X217620000Y-171430000D03*
X217620000Y-173970000D03*
%TD*%
%LPC*%
D14*
%TO.C,S2*%
X106320853Y-113883974D03*
D15*
X101557713Y-111133974D03*
D14*
X96794573Y-108383974D03*
D16*
X107787840Y-110343077D03*
X104507713Y-106024424D03*
%TD*%
D14*
%TO.C,S4*%
X121909311Y-122883974D03*
X112383031Y-117383974D03*
D15*
X117146171Y-120133974D03*
D16*
X123376298Y-119343077D03*
X120096171Y-115024424D03*
%TD*%
D14*
%TO.C,S3*%
X113409311Y-137606406D03*
D15*
X108646171Y-134856406D03*
D14*
X103883031Y-132106406D03*
D16*
X114876298Y-134065509D03*
X111596171Y-129746856D03*
%TD*%
D17*
%TO.C,D1*%
X91986655Y-131011533D03*
X89128771Y-129361533D03*
%TD*%
D14*
%TO.C,S6*%
X132971488Y-117723720D03*
D15*
X137734628Y-120473720D03*
D14*
X142497768Y-123223720D03*
D16*
X143964755Y-119682823D03*
X140684628Y-115364170D03*
%TD*%
D14*
%TO.C,S15*%
X176557368Y-190230762D03*
D15*
X171794228Y-187480762D03*
D14*
X167031088Y-184730762D03*
D16*
X178024355Y-186689865D03*
X174744228Y-182371212D03*
%TD*%
D17*
%TO.C,D10*%
X170840484Y-138432695D03*
X167982600Y-136782695D03*
%TD*%
D18*
%TO.C,D16*%
X330871228Y-129361533D03*
X328013344Y-131011533D03*
%TD*%
%TO.C,D18*%
X315282771Y-138361533D03*
X312424887Y-140011533D03*
%TD*%
%TO.C,D24*%
X260517399Y-151505127D03*
X257659515Y-153155127D03*
%TD*%
%TO.C,D25*%
X252017399Y-136782695D03*
X249159515Y-138432695D03*
%TD*%
D19*
%TO.C,REF03*%
X345000000Y-113000000D03*
%TD*%
D17*
%TO.C,D11*%
X177928942Y-162155127D03*
X175071058Y-160505127D03*
%TD*%
D14*
%TO.C,S8*%
X162086225Y-125295517D03*
X152559945Y-119795517D03*
D15*
X157323085Y-122545517D03*
D16*
X163553212Y-121754620D03*
X160273085Y-117435967D03*
%TD*%
D14*
%TO.C,S25*%
X252851597Y-130527568D03*
D15*
X248088457Y-133277568D03*
D14*
X243325317Y-136027568D03*
D16*
X250518584Y-127486671D03*
X245138457Y-128168018D03*
%TD*%
D15*
%TO.C,S5*%
X129234628Y-135196152D03*
D14*
X124471488Y-132446152D03*
X133997768Y-137946152D03*
D16*
X135464755Y-134405255D03*
X132184628Y-130086602D03*
%TD*%
D14*
%TO.C,S14*%
X160968911Y-181230762D03*
X151442631Y-175730762D03*
D15*
X156205771Y-178480762D03*
D16*
X162435898Y-177689865D03*
X159155771Y-173371212D03*
%TD*%
D19*
%TO.C,REF04*%
X75000000Y-113000000D03*
%TD*%
D14*
%TO.C,S29*%
X259031088Y-181230762D03*
D15*
X263794228Y-178480762D03*
D14*
X268557368Y-175730762D03*
D16*
X266224355Y-172689865D03*
X260844228Y-173371212D03*
%TD*%
D14*
%TO.C,S27*%
X227736860Y-145027568D03*
D15*
X232500000Y-142277568D03*
D14*
X237263140Y-139527568D03*
D16*
X234930127Y-136486671D03*
X229550000Y-137168018D03*
%TD*%
D14*
%TO.C,S18*%
X306590689Y-137606406D03*
X316116969Y-132106406D03*
D15*
X311353829Y-134856406D03*
D16*
X313783956Y-129065509D03*
X308403829Y-129746856D03*
%TD*%
D18*
%TO.C,D17*%
X322371228Y-114639101D03*
X319513344Y-116289101D03*
%TD*%
D14*
%TO.C,S16*%
X322179146Y-128606406D03*
X331705426Y-123106406D03*
D15*
X326942286Y-125856406D03*
D16*
X329372413Y-120065509D03*
X323992286Y-120746856D03*
%TD*%
D14*
%TO.C,S7*%
X153586225Y-140017949D03*
D15*
X148823085Y-137267949D03*
D14*
X144059945Y-134517949D03*
D16*
X155053212Y-136477052D03*
X151773085Y-132158399D03*
%TD*%
D20*
%TO.C,MCU1*%
X202380000Y-146030000D03*
D21*
X202380000Y-148570000D03*
X202380000Y-151110000D03*
X202380000Y-153650000D03*
X202380000Y-156190000D03*
X202380000Y-158730000D03*
X202380000Y-161270000D03*
X202380000Y-163810000D03*
X202380000Y-166350000D03*
X202380000Y-168890000D03*
X202380000Y-171430000D03*
X202380000Y-173970000D03*
X217620000Y-146030000D03*
X217620000Y-148570000D03*
X217620000Y-151110000D03*
X217620000Y-153650000D03*
X217620000Y-156190000D03*
X217620000Y-158730000D03*
X217620000Y-161270000D03*
X217620000Y-163810000D03*
X217620000Y-166350000D03*
X217620000Y-168890000D03*
X217620000Y-171430000D03*
X217620000Y-173970000D03*
%TD*%
D17*
%TO.C,D14*%
X155134713Y-183635889D03*
X152276829Y-181985889D03*
%TD*%
D14*
%TO.C,S26*%
X245763140Y-154250000D03*
D15*
X241000000Y-157000000D03*
D14*
X236236860Y-159750000D03*
D16*
X243430127Y-151209103D03*
X238050000Y-151890450D03*
%TD*%
D14*
%TO.C,S30*%
X252968911Y-184730762D03*
D15*
X248205771Y-187480762D03*
D14*
X243442631Y-190230762D03*
D16*
X250635898Y-181689865D03*
X245255771Y-182371212D03*
%TD*%
D18*
%TO.C,D26*%
X244928942Y-160505127D03*
X242071058Y-162155127D03*
%TD*%
D14*
%TO.C,S11*%
X183763140Y-159750000D03*
D15*
X179000000Y-157000000D03*
D14*
X174236860Y-154250000D03*
D16*
X185230127Y-156209103D03*
X181950000Y-151890450D03*
%TD*%
D18*
%TO.C,D30*%
X252134713Y-190985889D03*
X249276829Y-192635889D03*
%TD*%
D17*
%TO.C,D6*%
X136663570Y-125628847D03*
X133805686Y-123978847D03*
%TD*%
D15*
%TO.C,S17*%
X318442286Y-111133974D03*
D14*
X323205426Y-108383974D03*
X313679146Y-113883974D03*
D16*
X320872413Y-105343077D03*
X315492286Y-106024424D03*
%TD*%
D17*
%TO.C,D4*%
X116075113Y-125289101D03*
X113217229Y-123639101D03*
%TD*%
D14*
%TO.C,S10*%
X167148402Y-130527568D03*
D15*
X171911542Y-133277568D03*
D14*
X176674682Y-136027568D03*
D16*
X178141669Y-132486671D03*
X174861542Y-128168018D03*
%TD*%
D17*
%TO.C,D2*%
X100486655Y-116289101D03*
X97628771Y-114639101D03*
%TD*%
D15*
%TO.C,S19*%
X302853829Y-120133974D03*
D14*
X307616969Y-117383974D03*
X298090689Y-122883974D03*
D16*
X305283956Y-114343077D03*
X299903829Y-115024424D03*
%TD*%
D19*
%TO.C,REF06*%
X149000000Y-110000000D03*
%TD*%
D14*
%TO.C,S21*%
X277502231Y-123223720D03*
D15*
X282265371Y-120473720D03*
D14*
X287028511Y-117723720D03*
D16*
X284695498Y-114682823D03*
X279315371Y-115364170D03*
%TD*%
D15*
%TO.C,S9*%
X163411542Y-148000000D03*
D14*
X158648402Y-145250000D03*
X168174682Y-150750000D03*
D16*
X169641669Y-147209103D03*
X166361542Y-142890450D03*
%TD*%
D14*
%TO.C,S24*%
X251825317Y-150750000D03*
D15*
X256588457Y-148000000D03*
D14*
X261351597Y-145250000D03*
D16*
X259018584Y-142209103D03*
X253638457Y-142890450D03*
%TD*%
D17*
%TO.C,D3*%
X107575113Y-140011533D03*
X104717229Y-138361533D03*
%TD*%
D19*
%TO.C,REF05*%
X271000000Y-110000000D03*
%TD*%
D15*
%TO.C,S28*%
X279382685Y-169480762D03*
D14*
X274619545Y-172230762D03*
X284145825Y-166730762D03*
D16*
X281812812Y-163689865D03*
X276432685Y-164371212D03*
%TD*%
D17*
%TO.C,D15*%
X170723170Y-192635889D03*
X167865286Y-190985889D03*
%TD*%
%TO.C,D7*%
X147752027Y-142423076D03*
X144894143Y-140773076D03*
%TD*%
D14*
%TO.C,S13*%
X135854174Y-166730762D03*
X145380454Y-172230762D03*
D15*
X140617314Y-169480762D03*
D16*
X146847441Y-168689865D03*
X143567314Y-164371212D03*
%TD*%
D18*
%TO.C,D29*%
X267723170Y-181985889D03*
X264865286Y-183635889D03*
%TD*%
D15*
%TO.C,S20*%
X290765371Y-135196152D03*
D14*
X295528511Y-132446152D03*
X286002231Y-137946152D03*
D16*
X293195498Y-129405255D03*
X287815371Y-130086602D03*
%TD*%
D17*
%TO.C,D5*%
X128163570Y-140351279D03*
X125305686Y-138701279D03*
%TD*%
D18*
%TO.C,D22*%
X275105856Y-140773076D03*
X272247972Y-142423076D03*
%TD*%
%TO.C,D28*%
X283311627Y-172985889D03*
X280453743Y-174635889D03*
%TD*%
D17*
%TO.C,D9*%
X162340484Y-153155127D03*
X159482600Y-151505127D03*
%TD*%
D18*
%TO.C,D21*%
X286194313Y-123978847D03*
X283336429Y-125628847D03*
%TD*%
D14*
%TO.C,S1*%
X88294573Y-123106406D03*
X97820853Y-128606406D03*
D15*
X93057713Y-125856406D03*
D16*
X99287840Y-125065509D03*
X96007713Y-120746856D03*
%TD*%
D19*
%TO.C,REF00*%
X210000000Y-194000000D03*
%TD*%
D18*
%TO.C,D23*%
X266605856Y-126050644D03*
X263747972Y-127700644D03*
%TD*%
D14*
%TO.C,S22*%
X275940054Y-134517949D03*
X266413774Y-140017949D03*
D15*
X271176914Y-137267949D03*
D16*
X273607041Y-131477052D03*
X268226914Y-132158399D03*
%TD*%
D18*
%TO.C,D20*%
X294694313Y-138701279D03*
X291836429Y-140351279D03*
%TD*%
D17*
%TO.C,D8*%
X156252027Y-127700644D03*
X153394143Y-126050644D03*
%TD*%
%TO.C,D12*%
X186428942Y-147432695D03*
X183571058Y-145782695D03*
%TD*%
D18*
%TO.C,D27*%
X236428942Y-145782695D03*
X233571058Y-147432695D03*
%TD*%
D14*
%TO.C,S12*%
X182736860Y-139527568D03*
X192263140Y-145027568D03*
D15*
X187500000Y-142277568D03*
D16*
X193730127Y-141486671D03*
X190450000Y-137168018D03*
%TD*%
D18*
%TO.C,D19*%
X306782771Y-123639101D03*
X303924887Y-125289101D03*
%TD*%
D15*
%TO.C,S23*%
X262676914Y-122545517D03*
D14*
X257913774Y-125295517D03*
X267440054Y-119795517D03*
D16*
X265107041Y-116754620D03*
X259726914Y-117435967D03*
%TD*%
D19*
%TO.C,REF01*%
X295000000Y-158000000D03*
%TD*%
%TO.C,REF02*%
X125000000Y-158000000D03*
%TD*%
D17*
%TO.C,D13*%
X139546256Y-174635889D03*
X136688372Y-172985889D03*
%TD*%
D22*
%TO.C,B1*%
X213100000Y-148400000D03*
X206900000Y-148400000D03*
X213100000Y-152100000D03*
X206900000Y-152100000D03*
%TD*%
M02*
