%TF.GenerationSoftware,KiCad,Pcbnew,6.0.2+dfsg-1*%
%TF.CreationDate,2022-06-30T23:37:17+02:00*%
%TF.ProjectId,dragonwings_test,64726167-6f6e-4776-996e-67735f746573,v1.0.0*%
%TF.SameCoordinates,Original*%
%TF.FileFunction,Profile,NP*%
%FSLAX46Y46*%
G04 Gerber Fmt 4.6, Leading zero omitted, Abs format (unit mm)*
G04 Created by KiCad (PCBNEW 6.0.2+dfsg-1) date 2022-06-30 23:37:17*
%MOMM*%
%LPD*%
G01*
G04 APERTURE LIST*
%TA.AperFunction,Profile*%
%ADD10C,0.120385*%
%TD*%
G04 APERTURE END LIST*
D10*
X206109840Y-141101243D02*
X204551267Y-140614351D01*
X110070000Y-157920000D02*
X109670000Y-157910000D01*
X82695533Y-136283420D02*
X82695533Y-136283420D01*
X189130296Y-192674538D02*
X190049474Y-192522240D01*
X287057665Y-97884205D02*
X285692979Y-98382988D01*
X289143899Y-177043252D02*
X289822540Y-176859189D01*
X344917647Y-125506675D02*
X345837599Y-124792546D01*
X242716946Y-198476837D02*
X243694331Y-199348251D01*
X292456419Y-172478471D02*
X292608027Y-171967963D01*
X293429607Y-169932084D02*
X293781159Y-169188909D01*
X169781378Y-111607307D02*
X169454617Y-111495477D01*
X67670983Y-107508183D02*
X66461128Y-108093241D01*
X248577081Y-112380891D02*
X248499676Y-112482434D01*
X65836997Y-119720548D02*
X66938326Y-120264467D01*
X121935924Y-163209937D02*
X122385633Y-163650077D01*
X211120463Y-201356446D02*
X211415764Y-201271365D01*
X120032216Y-96317808D02*
X118749132Y-96335234D01*
X140555823Y-180554363D02*
X141257260Y-181012844D01*
X155155199Y-190284826D02*
X155751229Y-190437392D01*
X200141161Y-194839578D02*
X200442298Y-195106490D01*
X257561977Y-193510896D02*
X258020531Y-193222882D01*
X108732811Y-154500720D02*
X108808008Y-154975490D01*
X146670816Y-187038759D02*
X146916786Y-187583689D01*
X107073455Y-149386873D02*
X107073455Y-149386873D01*
X241672778Y-119927664D02*
X240963799Y-120521274D01*
X124762302Y-166548668D02*
X124762302Y-166548668D01*
X53750000Y-115920000D02*
X53675000Y-116040000D01*
X63188519Y-109851111D02*
X63188519Y-109851111D01*
X356830885Y-109848369D02*
X356830885Y-109848369D01*
X56894292Y-113490111D02*
X56894292Y-113490111D01*
X275328918Y-184019319D02*
X275744365Y-183557028D01*
X169454617Y-111495477D02*
X169052398Y-111350839D01*
X247187489Y-202584015D02*
X247359675Y-202742458D01*
X82695533Y-136283420D02*
X84799991Y-136597621D01*
X293568348Y-96549269D02*
X293568348Y-96549269D01*
X73421284Y-105023415D02*
X73421284Y-105023415D01*
X190956717Y-192415219D02*
X191849652Y-192353699D01*
X64231744Y-109259117D02*
X63188519Y-109851111D01*
X202354062Y-196961505D02*
X202354062Y-196961505D01*
X249945154Y-111704363D02*
X249804684Y-111754767D01*
X209753892Y-201498247D02*
X209460160Y-201469887D01*
X56894292Y-113490111D02*
X56378586Y-113825831D01*
X156940749Y-190807752D02*
X157540979Y-191027147D01*
X315449467Y-146473938D02*
X316150383Y-145764257D01*
X172546020Y-113956928D02*
X172353697Y-113701994D01*
X166527880Y-196776936D02*
X167508266Y-197733317D01*
X206109840Y-141101243D02*
X206109840Y-141101243D01*
X111288454Y-158063448D02*
X111712180Y-158137002D01*
X292302438Y-173084168D02*
X292456419Y-172478471D01*
X165937483Y-110132695D02*
X165937483Y-110132695D01*
X57751358Y-117156602D02*
X59392791Y-117555637D01*
X183497500Y-194526711D02*
X184438449Y-194107414D01*
X109928795Y-96932488D02*
X103873611Y-97582986D01*
X249159984Y-201499460D02*
X249159984Y-201499460D01*
X293568348Y-96549269D02*
X293568348Y-96549269D01*
X126910471Y-170662038D02*
X127188315Y-171348821D01*
X200765422Y-195404175D02*
X201114348Y-195735577D01*
X136463337Y-178726297D02*
X137496441Y-179087060D01*
X167004302Y-110565151D02*
X165937483Y-110132695D01*
X53675000Y-116040000D02*
X53630000Y-116130000D01*
X257110113Y-193809755D02*
X257561977Y-193510896D01*
X53916078Y-115728479D02*
X53819582Y-115830964D01*
X103873611Y-97582986D02*
X98143210Y-98392957D01*
X250211562Y-200190698D02*
X250611512Y-199732478D01*
X335219413Y-136594879D02*
X337323871Y-136280678D01*
X161998873Y-193225624D02*
X162457427Y-193513638D01*
X178648876Y-197387731D02*
X179004645Y-197126781D01*
X103174817Y-145093724D02*
X103869021Y-145766999D01*
X302966926Y-159816910D02*
X303357870Y-159641489D01*
X75101757Y-125509417D02*
X75980931Y-126231145D01*
X288325115Y-177274735D02*
X289143899Y-177043252D01*
X366344404Y-116037258D02*
X366269404Y-115917258D01*
X309136105Y-158001907D02*
X309519411Y-157958828D01*
X169781378Y-111607307D02*
X169781378Y-111607307D01*
X256662902Y-194120987D02*
X257110113Y-193809755D01*
X73421284Y-105023415D02*
X71823380Y-105677464D01*
X248634835Y-112311087D02*
X248577081Y-112380891D01*
X108917582Y-155904036D02*
X108950399Y-156352019D01*
X81928406Y-133842057D02*
X82034428Y-134148881D01*
X198582546Y-193719594D02*
X198831833Y-193863649D01*
X222545823Y-136895436D02*
X221387544Y-137755165D01*
X107247946Y-149708185D02*
X107418454Y-150058212D01*
X254081921Y-110129953D02*
X254081921Y-110129953D01*
X84799991Y-136597621D02*
X84799991Y-136597621D01*
X318459508Y-143661791D02*
X319418232Y-142888912D01*
X311705238Y-152596473D02*
X311835463Y-152134970D01*
X177212063Y-118952013D02*
X176587561Y-118367531D01*
X259962402Y-192148771D02*
X259962402Y-192148771D01*
X143906946Y-101848010D02*
X138684197Y-99969786D01*
X203975356Y-198551162D02*
X204302531Y-198850827D01*
X355787660Y-109256375D02*
X354700739Y-108672281D01*
X297363331Y-96345130D02*
X296060561Y-96392187D01*
X59392791Y-117555637D02*
X60807866Y-117924426D01*
X190049474Y-192522240D02*
X190956717Y-192415219D01*
X180908912Y-195887464D02*
X181316310Y-195651758D01*
X81484249Y-132735073D02*
X81599714Y-132996683D01*
X169807842Y-200193440D02*
X170181762Y-200639197D01*
X165594092Y-195918870D02*
X166056180Y-196336376D01*
X120017554Y-161602105D02*
X120513243Y-161979518D01*
X109030000Y-157920000D02*
X109350000Y-157910000D01*
X249837642Y-200636455D02*
X250211562Y-200190698D01*
X339845103Y-130548161D02*
X339845103Y-130548161D01*
X123242777Y-164570450D02*
X123648378Y-165049048D01*
X310349404Y-157907258D02*
X309949404Y-157917258D01*
X216397407Y-198213451D02*
X216782025Y-197839382D01*
X355938998Y-118962538D02*
X356906278Y-118614910D01*
X305096447Y-158981310D02*
X306024733Y-158689620D01*
X193871474Y-133955521D02*
X192497213Y-132739450D01*
X209390596Y-141972742D02*
X209688973Y-141994395D01*
X301270272Y-96332492D02*
X299987188Y-96315066D01*
X335219413Y-136594879D02*
X335219413Y-136594879D01*
X165139577Y-195522891D02*
X165594092Y-195918870D01*
X242716946Y-198476837D02*
X242716946Y-198476837D01*
X231817847Y-192869150D02*
X232753775Y-193111336D01*
X125117844Y-167111021D02*
X125490317Y-167755281D01*
X154553830Y-190152937D02*
X155155199Y-190284826D01*
X160057002Y-192151513D02*
X160057002Y-192151513D01*
X312435205Y-150431316D02*
X312600950Y-150055470D01*
X240278762Y-196615624D02*
X240650906Y-196867628D01*
X247665707Y-113699252D02*
X247473384Y-113954186D01*
X219235855Y-139167031D02*
X218890913Y-139343744D01*
X317500601Y-144487951D02*
X317500601Y-144487951D01*
X220597672Y-138318250D02*
X219903249Y-138778675D01*
X116661534Y-159644231D02*
X117052478Y-159819652D01*
X311211396Y-154972748D02*
X311286593Y-154497978D01*
X242807341Y-118949271D02*
X242807341Y-118949271D01*
X312771458Y-149705443D02*
X312945949Y-149384131D01*
X237860083Y-195188699D02*
X238286360Y-195417053D01*
X338654749Y-132478386D02*
X338779181Y-132230651D01*
X68960078Y-106914260D02*
X67670983Y-107508183D01*
X127996311Y-174395363D02*
X128103807Y-175003862D01*
X206906425Y-200585443D02*
X207625136Y-200902681D01*
X291915597Y-175001120D02*
X292023093Y-174392621D01*
X123648378Y-165049048D02*
X124037444Y-165538828D01*
X176587561Y-118367531D02*
X175880413Y-117665124D01*
X206000000Y-200120000D02*
X205723325Y-199952447D01*
X236521904Y-194523969D02*
X237424054Y-194963822D01*
X285692979Y-98382988D02*
X285692979Y-98382988D01*
X261870055Y-191267679D02*
X262478425Y-191024405D01*
X276112458Y-101845268D02*
X276112458Y-101845268D01*
X248763272Y-112213697D02*
X248904158Y-112134880D01*
X234637702Y-193729320D02*
X235580955Y-194104672D01*
X210000000Y-142000000D02*
X210000000Y-142000000D01*
X229048798Y-131346029D02*
X227522191Y-132736708D01*
X92710686Y-99367789D02*
X87549136Y-100512865D01*
X86205831Y-136824865D02*
X87551895Y-137078683D01*
X295257102Y-166545926D02*
X295610347Y-166036232D01*
X188201557Y-192871892D02*
X189130296Y-192674538D01*
X146107363Y-185985734D02*
X146401055Y-186506167D01*
X292711963Y-171666662D02*
X292831089Y-171346079D01*
X102518803Y-144490693D02*
X102518803Y-144490693D01*
X329937572Y-137670929D02*
X331176935Y-137358240D01*
X177960752Y-197923780D02*
X178300981Y-197653353D01*
X206000000Y-200120000D02*
X206286024Y-200278820D01*
X239508763Y-196124304D02*
X239898117Y-196367893D01*
X309949404Y-157917258D02*
X309519411Y-157958828D01*
X206109840Y-141101243D02*
X206109840Y-141101243D01*
X129649328Y-176722910D02*
X130196864Y-176861931D01*
X214568480Y-199769622D02*
X214841684Y-199573215D01*
X105865992Y-147869912D02*
X106398174Y-148485788D01*
X364174384Y-116712984D02*
X364174384Y-116712984D01*
X311584459Y-153066421D02*
X311705238Y-152596473D01*
X238851715Y-122300114D02*
X236927221Y-124012018D01*
X346598120Y-105020673D02*
X342088065Y-103332551D01*
X187302988Y-127906757D02*
X185233353Y-125969359D01*
X121340863Y-96322093D02*
X120032216Y-96317808D01*
X349844721Y-122072809D02*
X350908211Y-121442266D01*
X138381271Y-179433129D02*
X138780887Y-179606003D01*
X242315033Y-119380241D02*
X241672778Y-119927664D01*
X116335665Y-96436081D02*
X109928795Y-96932488D01*
X170604989Y-111907538D02*
X170833152Y-112003901D01*
X198631860Y-137757907D02*
X198631860Y-137757907D01*
X321876194Y-98390215D02*
X316145793Y-97580244D01*
X278195969Y-181408474D02*
X278762144Y-181010102D01*
X259962402Y-192148771D02*
X259962402Y-192148771D01*
X121473345Y-162784252D02*
X121935924Y-163209937D01*
X127681713Y-96657518D02*
X126451056Y-96552011D01*
X262991693Y-106627443D02*
X258237436Y-108453294D01*
X106963107Y-149213509D02*
X107073455Y-149386873D01*
X351059326Y-106911518D02*
X349679143Y-106303141D01*
X172376636Y-202997596D02*
X172506539Y-202883423D01*
X238703094Y-195649016D02*
X239110492Y-195884722D01*
X199421732Y-138320992D02*
X198631860Y-137757907D01*
X288593324Y-97352070D02*
X288134704Y-97504116D01*
X215468137Y-140611609D02*
X213909564Y-141098501D01*
X230767093Y-129746534D02*
X229048798Y-131346029D01*
X281335207Y-99967044D02*
X276112458Y-101845268D01*
X150644756Y-189750955D02*
X151348935Y-189775603D01*
X55845020Y-116715726D02*
X55845020Y-116715726D01*
X245879147Y-201350494D02*
X246803310Y-202221783D01*
X144690486Y-184022061D02*
X145081302Y-184495626D01*
X321352260Y-141495370D02*
X322336129Y-140870890D01*
X71823380Y-105677464D02*
X70340261Y-106305883D01*
X302067476Y-160275155D02*
X302600017Y-159994554D01*
X364174384Y-116712984D02*
X364174384Y-116712984D01*
X281638133Y-179430387D02*
X282522963Y-179084318D01*
X93535497Y-138813147D02*
X94612852Y-139266469D01*
X153321592Y-189947982D02*
X153943751Y-190040922D01*
X353081078Y-120261725D02*
X354182407Y-119717806D01*
X294151636Y-168454238D02*
X294529087Y-167752539D01*
X110883299Y-158004649D02*
X111288454Y-158063448D01*
X346598120Y-105020673D02*
X346598120Y-105020673D01*
X147669944Y-189734548D02*
X149911646Y-189741379D01*
X60807866Y-117924426D02*
X62035129Y-118274566D01*
X167508266Y-197733317D02*
X167508266Y-197733317D01*
X273348588Y-187036017D02*
X273618349Y-186503425D01*
X54387788Y-115307572D02*
X54045230Y-115605296D01*
X171115246Y-112137622D02*
X171256132Y-112216439D01*
X235580955Y-194104672D02*
X236521904Y-194523969D01*
X82245407Y-134808808D02*
X82245407Y-134808808D01*
X182595350Y-194966564D02*
X183497500Y-194526711D01*
X345837599Y-124792546D02*
X346794307Y-124089055D01*
X170859420Y-201502202D02*
X170859420Y-201502202D01*
X258237436Y-108453294D02*
X254081921Y-110129953D01*
X173048810Y-114574942D02*
X172546020Y-113956928D01*
X308307224Y-158134260D02*
X308730950Y-158060706D01*
X170480696Y-111857992D02*
X170350404Y-111807894D01*
X72235659Y-123401985D02*
X73225097Y-124091797D01*
X306024733Y-158689620D02*
X306957392Y-158433815D01*
X82245407Y-134808808D02*
X82695533Y-136283420D01*
X316145793Y-97580244D02*
X310090609Y-96929746D01*
X168979937Y-199262318D02*
X169407892Y-199735220D01*
X272880299Y-188138391D02*
X273102618Y-187580947D01*
X200442298Y-195106490D02*
X200765422Y-195404175D01*
X87549136Y-100512865D02*
X82631655Y-101833572D01*
X337984976Y-134146139D02*
X338090998Y-133839315D01*
X165937483Y-110132695D02*
X165937483Y-110132695D01*
X142364139Y-181819798D02*
X142879511Y-182238767D01*
X64080406Y-118965280D02*
X64975514Y-119329047D01*
X218890913Y-139343744D02*
X218527069Y-139513911D01*
X221953359Y-193456331D02*
X222228200Y-193333982D01*
X139158799Y-179781624D02*
X139520127Y-179962130D01*
X209840947Y-141998750D02*
X209688973Y-141994395D01*
X273618349Y-186503425D02*
X273912041Y-185982992D01*
X130875505Y-177045994D02*
X131694289Y-177277477D01*
X221436858Y-193716852D02*
X221690850Y-193582973D01*
X169407892Y-199735220D02*
X169807842Y-200193440D01*
X242716946Y-198476837D02*
X242716946Y-198476837D01*
X250238026Y-111604565D02*
X250089804Y-111654206D01*
X250564787Y-111492735D02*
X250238026Y-111604565D01*
X219577106Y-195103748D02*
X219878243Y-194836836D01*
X212394268Y-200899939D02*
X212394268Y-200899939D01*
X354700739Y-108672281D02*
X353558276Y-108090499D01*
X312945949Y-149384131D02*
X312945949Y-149384131D01*
X55845020Y-116715726D02*
X55845020Y-116715726D01*
X366199822Y-115828222D02*
X366103326Y-115725737D01*
X280499277Y-179959388D02*
X280860605Y-179778882D01*
X125867768Y-168456980D02*
X126238245Y-169191651D01*
X303769572Y-159469255D02*
X304198753Y-159301171D01*
X117510615Y-96374586D02*
X116335665Y-96436081D01*
X168032100Y-198263586D02*
X168521999Y-198772513D01*
X218527069Y-139513911D02*
X218135771Y-139681357D01*
X199858199Y-194600498D02*
X200141161Y-194839578D01*
X128199704Y-175726902D02*
X128226155Y-176071417D01*
X248634835Y-112311087D02*
X248763272Y-112213697D01*
X199589598Y-194386307D02*
X199858199Y-194600498D01*
X198631860Y-137757907D02*
X198631860Y-137757907D01*
X324358993Y-139756977D02*
X325406552Y-139263727D01*
X364493703Y-116640006D02*
X364780012Y-116573340D01*
X109010000Y-157440000D02*
X109020000Y-157700000D01*
X310669404Y-157907258D02*
X310989404Y-157917258D01*
X143906946Y-101848010D02*
X143906946Y-101848010D01*
X118999482Y-160901277D02*
X119512662Y-161242419D01*
X341010035Y-129130525D02*
X341685859Y-128408792D01*
X199080228Y-194020826D02*
X199331546Y-194194064D01*
X247811786Y-113487855D02*
X247811786Y-113487855D01*
X213909564Y-141098501D02*
X213909564Y-141098501D01*
X219253982Y-195401433D02*
X219577106Y-195103748D01*
X296060561Y-96392187D02*
X294789233Y-96460305D01*
X310090609Y-96929746D02*
X303683739Y-96433339D01*
X177302458Y-198479579D02*
X177302458Y-198479579D01*
X58954750Y-112268649D02*
X58178721Y-112718877D01*
X337323871Y-136280678D02*
X337323871Y-136280678D01*
X80830824Y-131512900D02*
X80679965Y-131275454D01*
X128226155Y-176071417D02*
X128226155Y-176381417D01*
X301540472Y-160576755D02*
X302067476Y-160275155D01*
X294529087Y-167752539D02*
X294901560Y-167108279D01*
X195132728Y-135031194D02*
X193871474Y-133955521D01*
X147337914Y-188711270D02*
X147337914Y-188711270D01*
X366103326Y-115725737D02*
X365974174Y-115602554D01*
X287357152Y-177556017D02*
X288325115Y-177274735D01*
X308730950Y-158060706D02*
X309136105Y-158001907D01*
X263078655Y-190805010D02*
X263674115Y-190608691D01*
X197500220Y-193215725D02*
X197500220Y-193215725D01*
X198831833Y-193863649D02*
X199080228Y-194020826D01*
X237424054Y-194963822D02*
X237860083Y-195188699D01*
X276112458Y-101845268D02*
X268798698Y-104481676D01*
X120998812Y-162373840D02*
X121473345Y-162784252D01*
X260615413Y-191829061D02*
X261250174Y-191535630D01*
X207969910Y-201044483D02*
X208295444Y-201167377D01*
X187302988Y-127906757D02*
X187302988Y-127906757D01*
X215410804Y-199116242D02*
X215716873Y-198848085D01*
X249159984Y-201499460D02*
X249487775Y-201071969D01*
X170214720Y-111757509D02*
X170074250Y-111707105D01*
X299987188Y-96315066D02*
X298678541Y-96319351D01*
X127562985Y-172481213D02*
X127716966Y-173086910D01*
X240271321Y-121090804D02*
X239642642Y-121616391D01*
X274229804Y-185474543D02*
X274571778Y-184977899D01*
X310989404Y-157917258D02*
X310999404Y-157697258D01*
X164690598Y-195146913D02*
X165139577Y-195522891D01*
X217665342Y-196958763D02*
X217665342Y-196958763D01*
X242807341Y-118949271D02*
X242807341Y-118949271D01*
X292831089Y-171346079D02*
X293108933Y-170659296D01*
X110499993Y-157961570D02*
X110883299Y-158004649D01*
X206286024Y-200278820D02*
X206586474Y-200432702D01*
X290156188Y-96936435D02*
X289783840Y-97016671D01*
X247849404Y-203187258D02*
X247642768Y-202994854D01*
X73421284Y-105023415D02*
X73421284Y-105023415D01*
X107898278Y-151251621D02*
X108045052Y-151687548D01*
X335219413Y-136594879D02*
X335219413Y-136594879D01*
X172659729Y-202745200D02*
X172831915Y-202586757D01*
X107418454Y-150058212D02*
X107584199Y-150434058D01*
X212049494Y-201041741D02*
X212394268Y-200899939D01*
X229969930Y-192519498D02*
X230889108Y-192671796D01*
X209184097Y-201422620D02*
X209460160Y-201469887D01*
X123958843Y-96394929D02*
X122656073Y-96347872D01*
X203307773Y-140208350D02*
X204551267Y-140614351D01*
X254879827Y-195520149D02*
X255328806Y-195144171D01*
X259962402Y-192148771D02*
X260615413Y-191829061D01*
X313208249Y-148999979D02*
X313397872Y-148755995D01*
X313621230Y-148483046D02*
X314153412Y-147867170D01*
X82245407Y-134808808D02*
X82245407Y-134808808D01*
X160057002Y-192151513D02*
X160057002Y-192151513D01*
X337387749Y-101830830D02*
X332470268Y-100510123D01*
X53630000Y-116130000D02*
X53910000Y-116230000D01*
X181167689Y-122302856D02*
X180376762Y-121619133D01*
X278762144Y-181010102D02*
X279463581Y-180551621D01*
X106811155Y-149002721D02*
X106963107Y-149213509D01*
X180121287Y-196370635D02*
X180510641Y-196127046D01*
X248673470Y-202142209D02*
X249159984Y-201499460D01*
X184438449Y-194107414D02*
X185381702Y-193732062D01*
X209236359Y-141953630D02*
X209073534Y-141927786D01*
X200448954Y-138982692D02*
X200116155Y-138781417D01*
X289013595Y-97221884D02*
X288593324Y-97352070D01*
X291356387Y-96753954D02*
X290931274Y-96807681D01*
X252511138Y-197730575D02*
X252511138Y-197730575D01*
X108977478Y-156878285D02*
X108989852Y-157086834D01*
X144275039Y-183559770D02*
X144690486Y-184022061D01*
X108645048Y-154022811D02*
X108732811Y-154500720D01*
X159403991Y-191831803D02*
X160057002Y-192151513D01*
X251934747Y-110984584D02*
X250967006Y-111348097D01*
X149911646Y-189741379D02*
X150644756Y-189750955D01*
X108950399Y-156352019D02*
X108977478Y-156878285D01*
X244795609Y-200349393D02*
X245879147Y-201350494D01*
X81364655Y-132481128D02*
X81484249Y-132735073D01*
X364705476Y-114579158D02*
X364176749Y-114194180D01*
X362268046Y-117153860D02*
X364174384Y-116712984D01*
X171917282Y-202873833D02*
X172043998Y-203026911D01*
X247473384Y-113954186D02*
X246970594Y-114572200D01*
X179748083Y-121093546D02*
X179748083Y-121093546D01*
X161531592Y-192946931D02*
X161998873Y-193225624D01*
X124762302Y-166548668D02*
X124762302Y-166548668D01*
X222519184Y-193212983D02*
X223245512Y-192949780D01*
X199331546Y-194194064D02*
X199589598Y-194386307D01*
X167508266Y-197733317D02*
X167508266Y-197733317D01*
X160057002Y-192151513D02*
X160562694Y-192411401D01*
X176325073Y-199350993D02*
X177302458Y-198479579D01*
X276112458Y-101845268D02*
X276112458Y-101845268D01*
X292023093Y-174392621D02*
X292155018Y-173737928D01*
X272349460Y-189731806D02*
X272681490Y-188708528D01*
X190970606Y-131348771D02*
X189252311Y-129749276D01*
X130235564Y-97019413D02*
X129863216Y-96939177D01*
X179004645Y-197126781D02*
X179368498Y-196870370D01*
X201492888Y-196103638D02*
X202354062Y-196961505D01*
X108950399Y-156352019D02*
X108950399Y-156352019D01*
X337773997Y-134806066D02*
X337879545Y-134467904D01*
X240271321Y-121090804D02*
X240271321Y-121090804D01*
X311286593Y-154497978D02*
X311374356Y-154020069D01*
X146916786Y-187583689D02*
X147139105Y-188141133D01*
X206586474Y-200432702D02*
X206906425Y-200585443D01*
X160562694Y-192411401D02*
X161053544Y-192676032D01*
X251497405Y-198769771D02*
X251987304Y-198260844D01*
X254425312Y-195916128D02*
X254879827Y-195520149D01*
X291793249Y-176378675D02*
X291793249Y-176068675D01*
X153943751Y-190040922D02*
X154553830Y-190152937D01*
X145789600Y-185477285D02*
X146107363Y-185985734D01*
X77600849Y-127685243D02*
X78333545Y-128411534D01*
X297197847Y-164101112D02*
X297633771Y-163647335D01*
X145447626Y-184980641D02*
X145789600Y-185477285D01*
X104569937Y-146476680D02*
X105246087Y-147188930D01*
X177302458Y-198479579D02*
X177627981Y-198199144D01*
X270107758Y-189738637D02*
X270107758Y-189738637D01*
X296371026Y-165046306D02*
X296776627Y-164567708D01*
X55239392Y-116576082D02*
X54984380Y-116515117D01*
X80174301Y-130550903D02*
X80352411Y-130795911D01*
X81711757Y-133267413D02*
X81821085Y-133548720D01*
X351988338Y-120837558D02*
X353081078Y-120261725D01*
X100601172Y-142891654D02*
X101559896Y-143664533D01*
X346598120Y-105020673D02*
X346598120Y-105020673D01*
X338535155Y-132732331D02*
X338654749Y-132478386D01*
X138684197Y-99969786D02*
X134326425Y-98385730D01*
X268798698Y-104481676D02*
X262991693Y-106627443D01*
X249083594Y-112047443D02*
X248904158Y-112134880D01*
X356906278Y-118614910D02*
X357984275Y-118271824D01*
X338307647Y-133264671D02*
X338419690Y-132993941D01*
X181316310Y-195651758D02*
X181733044Y-195419795D01*
X317500601Y-144487951D02*
X317500601Y-144487951D01*
X212029681Y-141665833D02*
X212323961Y-141579524D01*
X69111193Y-121445008D02*
X70174683Y-122075551D01*
X310999404Y-157697258D02*
X311009404Y-157437258D01*
X261250174Y-191535630D02*
X261870055Y-191267679D01*
X112151201Y-158224348D02*
X113062012Y-158436557D01*
X234786051Y-125966617D02*
X232716416Y-127904015D01*
X64975514Y-119329047D02*
X65836997Y-119720548D01*
X155751229Y-190437392D02*
X156345289Y-190611433D01*
X292608027Y-171967963D02*
X292608027Y-171967963D01*
X91274270Y-138018656D02*
X92424064Y-138397845D01*
X220161205Y-194597756D02*
X220429806Y-194383565D01*
X242807341Y-118949271D02*
X242315033Y-119380241D01*
X173216094Y-202224525D02*
X173216094Y-202224525D01*
X80974015Y-131750735D02*
X81110245Y-131990414D01*
X197500220Y-193215725D02*
X197500220Y-193215725D01*
X55313928Y-114581900D02*
X54819830Y-114959278D01*
X213112979Y-200582701D02*
X213432930Y-200429960D01*
X187302988Y-127906757D02*
X187302988Y-127906757D01*
X313397872Y-148755995D02*
X313621230Y-148483046D01*
X127411377Y-171970705D02*
X127562985Y-172481213D01*
X179748083Y-121093546D02*
X179748083Y-121093546D01*
X311374356Y-154020069D02*
X311473904Y-153541918D01*
X57461241Y-113144000D02*
X56894292Y-113490111D01*
X227293498Y-192335159D02*
X228169752Y-192350957D01*
X151348935Y-189775603D02*
X152027553Y-189816123D01*
X183497500Y-194526711D02*
X183497500Y-194526711D01*
X207625136Y-200902681D02*
X207969910Y-201044483D01*
X173674817Y-115299702D02*
X173048810Y-114574942D01*
X108808008Y-154975490D02*
X108869859Y-155444228D01*
X241370528Y-197384989D02*
X241718423Y-197650611D01*
X197791204Y-193336724D02*
X198066045Y-193459073D01*
X247359675Y-202742458D02*
X247512865Y-202880681D01*
X361064654Y-112265907D02*
X360322060Y-111844478D01*
X168032100Y-198263586D02*
X167508266Y-197733317D01*
X172831915Y-202586757D02*
X173018801Y-202411922D01*
X316844587Y-145090982D02*
X317500601Y-144487951D01*
X120513243Y-161979518D02*
X120998812Y-162373840D01*
X269374648Y-189748213D02*
X270107758Y-189738637D01*
X263674115Y-190608691D02*
X264268175Y-190434650D01*
X208295444Y-201167377D02*
X208604488Y-201271365D01*
X108045052Y-151687548D02*
X108183941Y-152137712D01*
X254081921Y-110129953D02*
X254081921Y-110129953D01*
X245636535Y-116083534D02*
X244887613Y-116886986D01*
X311029552Y-157084092D02*
X311041926Y-156875543D01*
X337773997Y-134806066D02*
X337773997Y-134806066D01*
X122821557Y-164103854D02*
X123242777Y-164570450D01*
X331176935Y-137358240D02*
X332467509Y-137075941D01*
X339045389Y-131747993D02*
X339188580Y-131510158D01*
X223245512Y-192949780D02*
X224002761Y-192733633D01*
X118478932Y-160579497D02*
X118999482Y-160901277D01*
X170859420Y-201502202D02*
X171345934Y-202144951D01*
X87551895Y-137078683D02*
X88842469Y-137360982D01*
X365035024Y-116512375D02*
X365260451Y-116456499D01*
X285692979Y-98382988D02*
X281335207Y-99967044D01*
X130612699Y-97113694D02*
X130235564Y-97019413D01*
X360322060Y-111844478D02*
X360322060Y-111844478D01*
X182159321Y-195191441D02*
X182595350Y-194966564D01*
X222228200Y-193333982D02*
X222519184Y-193212983D01*
X359211538Y-117921684D02*
X360626613Y-117552895D01*
X344038473Y-126228403D02*
X344917647Y-125506675D01*
X201492335Y-139516653D02*
X201128491Y-139346486D01*
X247849404Y-203187258D02*
X247975406Y-203024169D01*
X357984275Y-118271824D02*
X359211538Y-117921684D01*
X342418555Y-127682501D02*
X343204101Y-126954692D01*
X289406705Y-97110952D02*
X289013595Y-97221884D01*
X175131791Y-116889728D02*
X174382869Y-116086276D01*
X363640818Y-113823089D02*
X363125112Y-113487369D01*
X288134704Y-97504116D02*
X287057665Y-97884205D01*
X244887613Y-116886986D02*
X244138991Y-117662382D01*
X81240223Y-132233393D02*
X81364655Y-132481128D01*
X143369692Y-182668300D02*
X143834821Y-183108575D01*
X98143210Y-98392957D02*
X92710686Y-99367789D01*
X117419387Y-159997296D02*
X117951928Y-160277897D01*
X247975406Y-203024169D02*
X248102122Y-202871091D01*
X186324887Y-193400876D02*
X187265629Y-193114078D01*
X196320317Y-136000677D02*
X195132728Y-135031194D01*
X166056180Y-196336376D02*
X166527880Y-196776936D01*
X366269404Y-115917258D02*
X366199822Y-115828222D01*
X126589797Y-169934826D02*
X126910471Y-170662038D01*
X239898117Y-196367893D02*
X240278762Y-196615624D01*
X130196864Y-176861931D02*
X130875505Y-177045994D01*
X230889108Y-192671796D02*
X231817847Y-192869150D01*
X122656073Y-96347872D02*
X121340863Y-96322093D01*
X296776627Y-164567708D02*
X297197847Y-164101112D01*
X161781968Y-108456036D02*
X157027711Y-106630185D01*
X212029681Y-141665833D02*
X211765168Y-141738944D01*
X309519411Y-157958828D02*
X309519411Y-157958828D01*
X293568348Y-96549269D02*
X292337691Y-96654776D01*
X250967006Y-111348097D02*
X250564787Y-111492735D01*
X314153412Y-147867170D02*
X314773317Y-147186188D01*
X339339439Y-131272712D02*
X339498674Y-131034201D01*
X239642642Y-121616391D02*
X238851715Y-122300114D01*
X88842469Y-137360982D02*
X90081832Y-137673671D01*
X122385633Y-163650077D02*
X122821557Y-164103854D01*
X208896734Y-141896020D02*
X209073534Y-141927786D01*
X79624295Y-129847403D02*
X80174301Y-130550903D01*
X267335421Y-189870573D02*
X267991851Y-189813381D01*
X54758953Y-116459241D02*
X54984380Y-116515117D01*
X172043998Y-203026911D02*
X172170000Y-203190000D01*
X292608027Y-171967963D02*
X292608027Y-171967963D01*
X338419690Y-132993941D02*
X338535155Y-132732331D01*
X124762302Y-166548668D02*
X125117844Y-167111021D01*
X239110492Y-195884722D02*
X239508763Y-196124304D01*
X126451056Y-96552011D02*
X125230171Y-96463047D01*
X198066045Y-193459073D02*
X198328554Y-193585715D01*
X298678541Y-96319351D02*
X297363331Y-96345130D01*
X169929600Y-111656948D02*
X169781378Y-111607307D01*
X165937483Y-110132695D02*
X161781968Y-108456036D01*
X131884700Y-97506858D02*
X131426080Y-97354812D01*
X325406552Y-139263727D02*
X326483907Y-138810405D01*
X253015102Y-110562409D02*
X251934747Y-110984584D01*
X203307773Y-140208350D02*
X202310936Y-139852648D01*
X209998543Y-201507700D02*
X209753892Y-201498247D01*
X264268175Y-190434650D02*
X264864205Y-190282084D01*
X185233353Y-125969359D02*
X183092183Y-124014760D01*
X332470268Y-100510123D02*
X327308718Y-99365047D01*
X107073455Y-149386873D02*
X107247946Y-149708185D01*
X128177940Y-175519038D02*
X128103807Y-175003862D01*
X293781159Y-169188909D02*
X294151636Y-168454238D01*
X168084657Y-110987326D02*
X167004302Y-110565151D01*
X258487812Y-192944189D02*
X258965860Y-192673290D01*
X105246087Y-147188930D02*
X105865992Y-147869912D01*
X221387544Y-137755165D02*
X221387544Y-137755165D01*
X294901560Y-167108279D02*
X295257102Y-166545926D01*
X210311026Y-141994395D02*
X210609404Y-141972742D01*
X139520127Y-179962130D02*
X139869993Y-180149662D01*
X73225097Y-124091797D02*
X74181805Y-124795288D01*
X96682458Y-140294804D02*
X97683275Y-140873632D01*
X242391423Y-198196402D02*
X242716946Y-198476837D01*
X247000603Y-202409180D02*
X247187489Y-202584015D01*
X223699087Y-135997935D02*
X222545823Y-136895436D01*
X276184583Y-183105833D02*
X276649712Y-182665558D01*
X53910000Y-116230000D02*
X54243064Y-116316033D01*
X279463581Y-180551621D02*
X280149411Y-180146920D01*
X207625136Y-200902681D02*
X207625136Y-200902681D01*
X92424064Y-138397845D02*
X93535497Y-138813147D01*
X196773892Y-192952522D02*
X197500220Y-193215725D01*
X178346626Y-119930406D02*
X177704371Y-119382983D01*
X340395109Y-129844661D02*
X341010035Y-129130525D01*
X81110245Y-131990414D02*
X81240223Y-132233393D01*
X313056297Y-149210767D02*
X313208249Y-148999979D01*
X320381055Y-142167408D02*
X321352260Y-141495370D01*
X317500601Y-144487951D02*
X318459508Y-143661791D01*
X211120463Y-201356446D02*
X210836155Y-201422620D01*
X141823435Y-181411216D02*
X142364139Y-181819798D01*
X170074250Y-111707105D02*
X169929600Y-111656948D01*
X311835463Y-152134970D02*
X311974352Y-151684806D01*
X365631616Y-115304830D02*
X365199574Y-114956536D01*
X283556067Y-178723555D02*
X284778414Y-178330980D01*
X80830824Y-131512900D02*
X80974015Y-131750735D01*
X255328806Y-195144171D02*
X255774286Y-194786669D01*
X319418232Y-142888912D02*
X320381055Y-142167408D01*
X185381702Y-193732062D02*
X186324887Y-193400876D01*
X337773997Y-134806066D02*
X337773997Y-134806066D01*
X169052398Y-111350839D02*
X168084657Y-110987326D01*
X248499676Y-112482434D02*
X248405998Y-112610889D01*
X171115246Y-112137622D02*
X170935810Y-112050185D01*
X352348421Y-107505441D02*
X351059326Y-106911518D01*
X191849652Y-192353699D02*
X192725906Y-192337901D01*
X311101822Y-155901294D02*
X311149545Y-155441486D01*
X54243064Y-116316033D02*
X54472540Y-116383631D01*
X54472540Y-116383631D02*
X54561400Y-116407842D01*
X214568480Y-199769622D02*
X214296079Y-199949705D01*
X218905056Y-195732835D02*
X218526516Y-196100896D01*
X107744401Y-150832826D02*
X107584199Y-150434058D01*
X157027711Y-106630185D02*
X151220706Y-104484418D01*
X198328554Y-193585715D02*
X198582546Y-193719594D01*
X244138991Y-117662382D02*
X243431843Y-118364789D01*
X356830885Y-109848369D02*
X356830885Y-109848369D01*
X108314166Y-152599215D02*
X108434945Y-153069163D01*
X262478425Y-191024405D02*
X263078655Y-190805010D01*
X311473904Y-153541918D02*
X311584459Y-153066421D01*
X241718423Y-197650611D02*
X242058652Y-197921038D01*
X132961739Y-97886947D02*
X131884700Y-97506858D01*
X312435205Y-150431316D02*
X312275003Y-150830084D01*
X219570450Y-138979950D02*
X219235855Y-139167031D01*
X303683739Y-96433339D02*
X302508789Y-96371844D01*
X217665342Y-196958763D02*
X217665342Y-196958763D01*
X281238517Y-179603261D02*
X281638133Y-179430387D01*
X250238026Y-111604565D02*
X250238026Y-111604565D01*
X251039467Y-199259576D02*
X251497405Y-198769771D01*
X248299427Y-112761426D02*
X248061119Y-113109441D01*
X338779181Y-132230651D02*
X338909159Y-131987672D01*
X273912041Y-185982992D02*
X274229804Y-185474543D01*
X248061119Y-113109441D02*
X247811786Y-113487855D01*
X276649712Y-182665558D02*
X277139893Y-182236025D01*
X312945949Y-149384131D02*
X312945949Y-149384131D01*
X172207618Y-113490597D02*
X171958285Y-113112183D01*
X299020592Y-162371098D02*
X299506161Y-161976776D01*
X294789233Y-96460305D02*
X293568348Y-96549269D01*
X311974352Y-151684806D02*
X312121126Y-151248879D01*
X108950399Y-156352019D02*
X108950399Y-156352019D01*
X171755118Y-202671288D02*
X171917282Y-202873833D01*
X247512865Y-202880681D02*
X247642768Y-202994854D01*
X211724808Y-201167377D02*
X212049494Y-201041741D01*
X59697344Y-111847220D02*
X58954750Y-112268649D01*
X132662252Y-177558759D02*
X133788431Y-177892217D01*
X113994671Y-158692362D02*
X114922957Y-158984052D01*
X54819830Y-114959278D02*
X54387788Y-115307572D01*
X108545500Y-153544660D02*
X108645048Y-154022811D01*
X126451056Y-96552011D02*
X126451056Y-96552011D01*
X82695533Y-136283420D02*
X82695533Y-136283420D01*
X241014759Y-197124039D02*
X241370528Y-197384989D01*
X81599714Y-132996683D02*
X81711757Y-133267413D01*
X322336129Y-140870890D02*
X323336946Y-140292062D01*
X210926466Y-141927786D02*
X211316739Y-141852272D01*
X129484467Y-96870382D02*
X129088130Y-96810423D01*
X126238245Y-169191651D02*
X126589797Y-169934826D01*
X280860605Y-179778882D02*
X281238517Y-179603261D01*
X272681490Y-188708528D02*
X272681490Y-188708528D01*
X110499993Y-157961570D02*
X110070000Y-157920000D01*
X110499993Y-157961570D02*
X110499993Y-157961570D01*
X219878243Y-194836836D02*
X220161205Y-194597756D01*
X215716873Y-198848085D02*
X216044048Y-198548420D01*
X360322060Y-111844478D02*
X360322060Y-111844478D01*
X180376762Y-121619133D02*
X179748083Y-121093546D01*
X339845103Y-130548161D02*
X339845103Y-130548161D01*
X312600950Y-150055470D02*
X312771458Y-149705443D01*
X253963224Y-196333634D02*
X254425312Y-195916128D01*
X56378586Y-113825831D02*
X55842655Y-114196922D01*
X365260451Y-116456499D02*
X365458004Y-116405100D01*
X301019922Y-160898535D02*
X301540472Y-160576755D01*
X265465574Y-190150195D02*
X266075653Y-190038180D01*
X365035024Y-116512375D02*
X364780012Y-116573340D01*
X106398174Y-148485788D02*
X106621532Y-148758737D01*
X117052478Y-159819652D02*
X117419387Y-159997296D01*
X194418876Y-192444360D02*
X195230847Y-192567062D01*
X250238026Y-111604565D02*
X250238026Y-111604565D01*
X298546059Y-162781510D02*
X299020592Y-162371098D01*
X147337914Y-188711270D02*
X147337914Y-188711270D01*
X181733044Y-195419795D02*
X182159321Y-195191441D01*
X236521904Y-194523969D02*
X236521904Y-194523969D01*
X202354062Y-196961505D02*
X202354062Y-196961505D01*
X224886676Y-135028452D02*
X223699087Y-135997935D01*
X61418104Y-110871738D02*
X59697344Y-111847220D01*
X192497213Y-132739450D02*
X190970606Y-131348771D01*
X156345289Y-190611433D02*
X156940749Y-190807752D01*
X84799991Y-136597621D02*
X84799991Y-136597621D01*
X124409057Y-166038974D02*
X124762302Y-166548668D01*
X80520730Y-131036943D02*
X80679965Y-131275454D01*
X149911646Y-189741379D02*
X149911646Y-189741379D01*
X295257102Y-166545926D02*
X295257102Y-166545926D01*
X316150383Y-145764257D02*
X316844587Y-145090982D01*
X103869021Y-145766999D02*
X104569937Y-146476680D01*
X171958285Y-113112183D02*
X171719977Y-112764168D01*
X82034428Y-134148881D02*
X82139859Y-134470646D01*
X158769230Y-191538372D02*
X159403991Y-191831803D01*
X128199704Y-175726902D02*
X128177940Y-175519038D01*
X307868203Y-158221606D02*
X308307224Y-158134260D01*
X339666993Y-130793169D02*
X339845103Y-130548161D01*
X75980931Y-126231145D02*
X76815303Y-126957434D01*
X206990315Y-141371544D02*
X206109840Y-141101243D01*
X53819582Y-115830964D02*
X53750000Y-115920000D01*
X171719977Y-112764168D02*
X171613406Y-112613631D01*
X65318665Y-108675023D02*
X64231744Y-109259117D01*
X147139105Y-188141133D02*
X147337914Y-188711270D01*
X221387544Y-137755165D02*
X221387544Y-137755165D01*
X187265629Y-193114078D02*
X188201557Y-192871892D01*
X312121126Y-151248879D02*
X312275003Y-150830084D01*
X205177720Y-199575957D02*
X205450924Y-199772364D01*
X205450924Y-199772364D02*
X205723325Y-199952447D01*
X171755118Y-202671288D02*
X171345934Y-202144951D01*
X180510641Y-196127046D02*
X180908912Y-195887464D01*
X292608027Y-171967963D02*
X292711963Y-171666662D01*
X128663017Y-96756696D02*
X127681713Y-96657518D01*
X108183941Y-152137712D02*
X108314166Y-152599215D01*
X258020531Y-193222882D02*
X258487812Y-192944189D01*
X246803310Y-202221783D02*
X246803310Y-202221783D01*
X98667144Y-141498112D02*
X99638349Y-142170150D01*
X203237379Y-197842124D02*
X203621997Y-198216193D01*
X249669000Y-111805152D02*
X249538708Y-111855250D01*
X255774286Y-194786669D02*
X256218306Y-194446116D01*
X337879545Y-134467904D02*
X337984976Y-134146139D01*
X240650906Y-196867628D02*
X241014759Y-197124039D01*
X211316739Y-141852272D02*
X211528827Y-141800788D01*
X80352411Y-130795911D02*
X80520730Y-131036943D01*
X108434945Y-153069163D02*
X108545500Y-153544660D01*
X129863216Y-96939177D02*
X129484467Y-96870382D01*
X355043890Y-119326305D02*
X355938998Y-118962538D01*
X304198753Y-159301171D02*
X305096447Y-158981310D01*
X134326425Y-98385730D02*
X134326425Y-98385730D01*
X277655265Y-181817056D02*
X278195969Y-181408474D01*
X346794307Y-124089055D02*
X347783745Y-123399243D01*
X80174301Y-130550903D02*
X80174301Y-130550903D01*
X183092183Y-124014760D02*
X181167689Y-122302856D01*
X353558276Y-108090499D02*
X352348421Y-107505441D01*
X214841684Y-199573215D02*
X215120767Y-199356687D01*
X337323871Y-136280678D02*
X337323871Y-136280678D01*
X240963799Y-120521274D02*
X240271321Y-121090804D01*
X94612852Y-139266469D02*
X95660411Y-139759719D01*
X138780887Y-179606003D02*
X139158799Y-179781624D01*
X131694289Y-177277477D02*
X132662252Y-177558759D01*
X220429806Y-194383565D02*
X220687858Y-194191322D01*
X134326425Y-98385730D02*
X134326425Y-98385730D01*
X177302458Y-198479579D02*
X177302458Y-198479579D01*
X152027553Y-189816123D02*
X152683983Y-189873315D01*
X170859420Y-201502202D02*
X170859420Y-201502202D01*
X363125112Y-113487369D02*
X363125112Y-113487369D01*
X338909159Y-131987672D02*
X339045389Y-131747993D01*
X366389404Y-116127258D02*
X366344404Y-116037258D01*
X171256132Y-112216439D02*
X171384569Y-112313829D01*
X226436299Y-192365305D02*
X227293498Y-192335159D01*
X312945949Y-149384131D02*
X313056297Y-149210767D01*
X171519728Y-112485176D02*
X171442323Y-112383633D01*
X197500220Y-193215725D02*
X197791204Y-193336724D01*
X333813573Y-136822123D02*
X335219413Y-136594879D01*
X224788557Y-192564320D02*
X225600528Y-192441618D01*
X99638349Y-142170150D02*
X100601172Y-142891654D01*
X302508789Y-96371844D02*
X301270272Y-96332492D01*
X292155018Y-173737928D02*
X292302438Y-173084168D01*
X221387544Y-137755165D02*
X220597672Y-138318250D01*
X125490317Y-167755281D02*
X125867768Y-168456980D01*
X289783840Y-97016671D02*
X289406705Y-97110952D01*
X365546864Y-116380889D02*
X365776340Y-116313291D01*
X350908211Y-121442266D02*
X351988338Y-120837558D01*
X76815303Y-126957434D02*
X77600849Y-127685243D01*
X200783549Y-139169773D02*
X200448954Y-138982692D01*
X365458004Y-116405100D02*
X365546864Y-116380889D01*
X213909564Y-141098501D02*
X213909564Y-141098501D01*
X109670000Y-157910000D02*
X109350000Y-157910000D01*
X246803310Y-202221783D02*
X247000603Y-202409180D01*
X249186252Y-112001159D02*
X249414415Y-111904796D01*
X161053544Y-192676032D02*
X161531592Y-192946931D01*
X250611512Y-199732478D02*
X251039467Y-199259576D01*
X311069005Y-156349277D02*
X311101822Y-155901294D01*
X361840683Y-112716135D02*
X361064654Y-112265907D01*
X213432930Y-200429960D02*
X213733380Y-200276078D01*
X225600528Y-192441618D02*
X226436299Y-192365305D01*
X126451056Y-96552011D02*
X126451056Y-96552011D01*
X81821085Y-133548720D02*
X81928406Y-133842057D01*
X143834821Y-183108575D02*
X144275039Y-183559770D01*
X147337914Y-188711270D02*
X147669944Y-189734548D01*
X162909291Y-193812497D02*
X163356502Y-194123729D01*
X310669404Y-157907258D02*
X310349404Y-157907258D01*
X107744401Y-150832826D02*
X107898278Y-151251621D01*
X133788431Y-177892217D02*
X133788431Y-177892217D01*
X131005809Y-97224626D02*
X130612699Y-97113694D01*
X102518803Y-144490693D02*
X102518803Y-144490693D01*
X207992042Y-141667551D02*
X207695443Y-141582266D01*
X127307441Y-171669404D02*
X127411377Y-171970705D01*
X208604488Y-201271365D02*
X208899789Y-201356446D01*
X141257260Y-181012844D02*
X141823435Y-181411216D01*
X311069005Y-156349277D02*
X311069005Y-156349277D01*
X362558163Y-113141258D02*
X361840683Y-112716135D01*
X232753775Y-193111336D02*
X233694517Y-193398134D01*
X200116155Y-138781417D02*
X199421732Y-138320992D01*
X115820651Y-159303913D02*
X116249832Y-159471997D01*
X284778414Y-178330980D02*
X286230973Y-177889475D01*
X127716966Y-173086910D02*
X127864386Y-173740670D01*
X282522963Y-179084318D02*
X283556067Y-178723555D01*
X347783745Y-123399243D02*
X348801891Y-122726148D01*
X365199574Y-114956536D02*
X364705476Y-114579158D01*
X168521999Y-198772513D02*
X168979937Y-199262318D01*
X164245118Y-194789411D02*
X164690598Y-195146913D01*
X338198319Y-133545978D02*
X338307647Y-133264671D01*
X183497500Y-194526711D02*
X183497500Y-194526711D01*
X302600017Y-159994554D02*
X302966926Y-159816910D01*
X95660411Y-139759719D02*
X96682458Y-140294804D01*
X197473581Y-136898178D02*
X196320317Y-136000677D01*
X291793249Y-176378675D02*
X290370076Y-176720168D01*
X127864386Y-173740670D02*
X127996311Y-174395363D01*
X364176749Y-114194180D02*
X363640818Y-113823089D01*
X220939176Y-194018084D02*
X221187571Y-193860907D01*
X246344587Y-115296960D02*
X245636535Y-116083534D01*
X84799991Y-136597621D02*
X86205831Y-136824865D01*
X222519184Y-193212983D02*
X222519184Y-193212983D01*
X177627981Y-198199144D02*
X177960752Y-197923780D01*
X274571778Y-184977899D02*
X274938102Y-184492884D01*
X131426080Y-97354812D02*
X131005809Y-97224626D01*
X259456710Y-192408659D02*
X259962402Y-192148771D01*
X274938102Y-184492884D02*
X275328918Y-184019319D01*
X63188519Y-109851111D02*
X61418104Y-110871738D01*
X157540979Y-191027147D02*
X158149349Y-191270421D01*
X209184097Y-201422620D02*
X208899789Y-201356446D01*
X54045230Y-115605296D02*
X53916078Y-115728479D01*
X253491524Y-196774194D02*
X253963224Y-196333634D01*
X127411377Y-171970705D02*
X127411377Y-171970705D01*
X240271321Y-121090804D02*
X240271321Y-121090804D01*
X207625136Y-200902681D02*
X207625136Y-200902681D01*
X212394268Y-200899939D02*
X212394268Y-200899939D01*
X170531629Y-201074711D02*
X170859420Y-201502202D01*
X215468137Y-140611609D02*
X216711631Y-140205608D01*
X145081302Y-184495626D02*
X145447626Y-184980641D01*
X339339439Y-131272712D02*
X339188580Y-131510158D01*
X127188315Y-171348821D02*
X127307441Y-171669404D01*
X247811786Y-113487855D02*
X247665707Y-113699252D01*
X117951928Y-160277897D02*
X118478932Y-160579497D01*
X270107758Y-189738637D02*
X272349460Y-189731806D01*
X79009369Y-129133267D02*
X79624295Y-129847403D01*
X326483907Y-138810405D02*
X327595340Y-138395103D01*
X109020000Y-157700000D02*
X109030000Y-157920000D01*
X204608600Y-199118984D02*
X204302531Y-198850827D01*
X356830885Y-109848369D02*
X355787660Y-109256375D01*
X215410804Y-199116242D02*
X215120767Y-199356687D01*
X179740642Y-196618366D02*
X180121287Y-196370635D01*
X348196024Y-105674722D02*
X346598120Y-105020673D01*
X62035129Y-118274566D02*
X63113126Y-118617652D01*
X219903249Y-138778675D02*
X219570450Y-138979950D01*
X119512662Y-161242419D02*
X120017554Y-161602105D01*
X146401055Y-186506167D02*
X146670816Y-187038759D01*
X210311026Y-141994395D02*
X210000000Y-142000000D01*
X217665342Y-196958763D02*
X216782025Y-197839382D01*
X135240990Y-178333722D02*
X136463337Y-178726297D01*
X202310936Y-139852648D02*
X201883633Y-139684099D01*
X358601300Y-110868996D02*
X356830885Y-109848369D01*
X252511138Y-197730575D02*
X253491524Y-196774194D01*
X208704984Y-141853990D02*
X208492896Y-141802506D01*
X101559896Y-143664533D02*
X102518803Y-144490693D01*
X175223795Y-200352135D02*
X176325073Y-199350993D01*
X360322060Y-111844478D02*
X358601300Y-110868996D01*
X220687858Y-194191322D02*
X220939176Y-194018084D01*
X221187571Y-193860907D02*
X221436858Y-193716852D01*
X213733380Y-200276078D02*
X214019404Y-200117258D01*
X58178721Y-112718877D02*
X57461241Y-113144000D01*
X295257102Y-166545926D02*
X295257102Y-166545926D01*
X348801891Y-122726148D02*
X349844721Y-122072809D01*
X290534937Y-96867640D02*
X290156188Y-96936435D01*
X55525701Y-116642748D02*
X55845020Y-116715726D01*
X177212063Y-118952013D02*
X177212063Y-118952013D01*
X250089804Y-111654206D02*
X249945154Y-111704363D01*
X210836155Y-201422620D02*
X210560092Y-201469887D01*
X254081921Y-110129953D02*
X253015102Y-110562409D01*
X162457427Y-193513638D02*
X162909291Y-193812497D01*
X66938326Y-120264467D02*
X68031066Y-120840300D01*
X173216094Y-202224525D02*
X174140257Y-201353236D01*
X158149349Y-191270421D02*
X158769230Y-191538372D01*
X134326425Y-98385730D02*
X132961739Y-97886947D01*
X328745134Y-138015914D02*
X329937572Y-137670929D01*
X212394268Y-200899939D02*
X213112979Y-200582701D01*
X211724808Y-201167377D02*
X211415764Y-201271365D01*
X311041926Y-156875543D02*
X311069005Y-156349277D01*
X293108933Y-170659296D02*
X293429607Y-169932084D01*
X266697812Y-189945240D02*
X267335421Y-189870573D01*
X59697344Y-111847220D02*
X59697344Y-111847220D01*
X213909564Y-141098501D02*
X213029089Y-141368802D01*
X248673470Y-202142209D02*
X248264286Y-202668546D01*
X323336946Y-140292062D02*
X324358993Y-139756977D01*
X247811786Y-113487855D02*
X247811786Y-113487855D01*
X137496441Y-179087060D02*
X138381271Y-179433129D01*
X266075653Y-190038180D02*
X266697812Y-189945240D01*
X256218306Y-194446116D02*
X256662902Y-194120987D01*
X174382869Y-116086276D02*
X173674817Y-115299702D01*
X163356502Y-194123729D02*
X163801098Y-194448858D01*
X272681490Y-188708528D02*
X272681490Y-188708528D01*
X111712180Y-158137002D02*
X112151201Y-158224348D01*
X171613406Y-112613631D02*
X171519728Y-112485176D01*
X354182407Y-119717806D02*
X355043890Y-119326305D01*
X193583105Y-192368047D02*
X194418876Y-192444360D01*
X55842655Y-114196922D02*
X55313928Y-114581900D01*
X236521904Y-194523969D02*
X236521904Y-194523969D01*
X74181805Y-124795288D02*
X75101757Y-125509417D01*
X163801098Y-194448858D02*
X164245118Y-194789411D01*
X59697344Y-111847220D02*
X59697344Y-111847220D01*
X149911646Y-189741379D02*
X149911646Y-189741379D01*
X242058652Y-197921038D02*
X242391423Y-198196402D01*
X298083480Y-163207195D02*
X298546059Y-162781510D01*
X70174683Y-122075551D02*
X71217513Y-122728890D01*
X339498674Y-131034201D02*
X339666993Y-130793169D01*
X203237379Y-197842124D02*
X202354062Y-196961505D01*
X113062012Y-158436557D02*
X113994671Y-158692362D01*
X172353697Y-113701994D02*
X172207618Y-113490597D01*
X114922957Y-158984052D02*
X115820651Y-159303913D01*
X80174301Y-130550903D02*
X80174301Y-130550903D01*
X349679143Y-106303141D02*
X348196024Y-105674722D01*
X214296079Y-199949705D02*
X214019404Y-200117258D01*
X314773317Y-147186188D02*
X315449467Y-146473938D01*
X337323871Y-136280678D02*
X337773997Y-134806066D01*
X229062687Y-192412477D02*
X229969930Y-192519498D01*
X192725906Y-192337901D02*
X193583105Y-192368047D01*
X170181762Y-200639197D02*
X170531629Y-201074711D01*
X55845020Y-116715726D02*
X57751358Y-117156602D01*
X341685859Y-128408792D02*
X342418555Y-127682501D01*
X204898637Y-199359429D02*
X205177720Y-199575957D01*
X365974174Y-115602554D02*
X365631616Y-115304830D01*
X170480696Y-111857992D02*
X170604989Y-111907538D01*
X311149545Y-155441486D02*
X311211396Y-154972748D01*
X249186252Y-112001159D02*
X249083594Y-112047443D01*
X292337691Y-96654776D02*
X291356387Y-96753954D01*
X172376636Y-202997596D02*
X172170000Y-203190000D01*
X179055605Y-120524016D02*
X178346626Y-119930406D01*
X175880413Y-117665124D02*
X175131791Y-116889728D01*
X238286360Y-195417053D02*
X238703094Y-195649016D01*
X363125112Y-113487369D02*
X363125112Y-113487369D01*
X107073455Y-149386873D02*
X107073455Y-149386873D01*
X249804684Y-111754767D02*
X249669000Y-111805152D01*
X129088130Y-96810423D02*
X128663017Y-96756696D01*
X252511138Y-197730575D02*
X252511138Y-197730575D01*
X108869859Y-155444228D02*
X108917582Y-155904036D01*
X363125112Y-113487369D02*
X362558163Y-113141258D01*
X342088065Y-103332551D02*
X337387749Y-101830830D01*
X108989852Y-157086834D02*
X109010000Y-157440000D01*
X171442323Y-112383633D02*
X171384569Y-112313829D01*
X203621997Y-198216193D02*
X203975356Y-198551162D01*
X270107758Y-189738637D02*
X270107758Y-189738637D01*
X343204101Y-126954692D02*
X344038473Y-126228403D01*
X303357870Y-159641489D02*
X303769572Y-159469255D01*
X71217513Y-122728890D02*
X72235659Y-123401985D01*
X228169752Y-192350957D02*
X229062687Y-192412477D01*
X226147930Y-133952779D02*
X224886676Y-135028452D01*
X360626613Y-117552895D02*
X362268046Y-117153860D01*
X178300981Y-197653353D02*
X178648876Y-197387731D01*
X68031066Y-120840300D02*
X69111193Y-121445008D01*
X295981960Y-165536086D02*
X296371026Y-165046306D01*
X297633771Y-163647335D02*
X298083480Y-163207195D01*
X248102122Y-202871091D02*
X248264286Y-202668546D01*
X264864205Y-190282084D02*
X265465574Y-190150195D01*
X142879511Y-182238767D02*
X143369692Y-182668300D01*
X90081832Y-137673671D02*
X91274270Y-138018656D01*
X249414415Y-111904796D02*
X249538708Y-111855250D01*
X56894292Y-113490111D02*
X56894292Y-113490111D01*
X275744365Y-183557028D02*
X276184583Y-183105833D01*
X243694331Y-199348251D02*
X244795609Y-200349393D01*
X174140257Y-201353236D02*
X175223795Y-200352135D01*
X248405998Y-112610889D02*
X248299427Y-112761426D01*
X82631655Y-101833572D02*
X77931339Y-103335293D01*
X209840947Y-141998750D02*
X210000000Y-142000000D01*
X170350404Y-111807894D02*
X170214720Y-111757509D01*
X289822540Y-176859189D02*
X290370076Y-176720168D01*
X280149411Y-180146920D02*
X280499277Y-179959388D01*
X213029089Y-141368802D02*
X212323961Y-141579524D01*
X127411377Y-171970705D02*
X127411377Y-171970705D01*
X222519184Y-193212983D02*
X222519184Y-193212983D01*
X179368498Y-196870370D02*
X179740642Y-196618366D01*
X309519411Y-157958828D02*
X309519411Y-157958828D01*
X54561400Y-116407842D02*
X54758953Y-116459241D01*
X339845103Y-130548161D02*
X340395109Y-129844661D01*
X169781378Y-111607307D02*
X169781378Y-111607307D01*
X209390596Y-141972742D02*
X209236359Y-141953630D01*
X227522191Y-132736708D02*
X226147930Y-133952779D01*
X277139893Y-182236025D02*
X277655265Y-181817056D01*
X97683275Y-140873632D02*
X98667144Y-141498112D01*
X268670469Y-189772861D02*
X269374648Y-189748213D01*
X299506161Y-161976776D02*
X300001850Y-161599363D01*
X66461128Y-108093241D02*
X65318665Y-108675023D01*
X252511138Y-197730575D02*
X251987304Y-198260844D01*
X232716416Y-127904015D02*
X230767093Y-129746534D01*
X204898637Y-199359429D02*
X204608600Y-199118984D01*
X133788431Y-177892217D02*
X135240990Y-178333722D01*
X217708468Y-139849906D02*
X216711631Y-140205608D01*
X216044048Y-198548420D02*
X216397407Y-198213451D01*
X217665342Y-196958763D02*
X218526516Y-196100896D01*
X232716416Y-127904015D02*
X232716416Y-127904015D01*
X246970594Y-114572200D02*
X246344587Y-115296960D01*
X172207618Y-113490597D02*
X172207618Y-113490597D01*
X82139859Y-134470646D02*
X82245407Y-134808808D01*
X151220706Y-104484418D02*
X143906946Y-101848010D01*
X208492896Y-141802506D02*
X207992042Y-141667551D01*
X129649328Y-176722910D02*
X128226155Y-176381417D01*
X300506742Y-161239677D02*
X301019922Y-160898535D01*
X208704984Y-141853990D02*
X208896734Y-141896020D01*
X221690850Y-193582973D02*
X221953359Y-193456331D01*
X218905056Y-195732835D02*
X219253982Y-195401433D01*
X106621532Y-148758737D02*
X106811155Y-149002721D01*
X243431843Y-118364789D02*
X242807341Y-118949271D01*
X139869993Y-180149662D02*
X140555823Y-180554363D01*
X290931274Y-96807681D02*
X290534937Y-96867640D01*
X70340261Y-106305883D02*
X68960078Y-106914260D01*
X236927221Y-124012018D02*
X234786051Y-125966617D01*
X327308718Y-99365047D02*
X321876194Y-98390215D01*
X152683983Y-189873315D02*
X153321592Y-189947982D01*
X327595340Y-138395103D02*
X328745134Y-138015914D01*
X364174384Y-116712984D02*
X364493703Y-116640006D01*
X63188519Y-109851111D02*
X63188519Y-109851111D01*
X177212063Y-118952013D02*
X177212063Y-118952013D01*
X295610347Y-166036232D02*
X295981960Y-165536086D01*
X249159984Y-201499460D02*
X249159984Y-201499460D01*
X78333545Y-128411534D02*
X79009369Y-129133267D01*
X306957392Y-158433815D02*
X307868203Y-158221606D01*
X267991851Y-189813381D02*
X268670469Y-189772861D01*
X210289527Y-201498247D02*
X209998543Y-201507700D01*
X125230171Y-96463047D02*
X123958843Y-96394929D01*
X258965860Y-192673290D02*
X259456710Y-192408659D01*
X207695443Y-141582266D02*
X206990315Y-141371544D01*
X170935810Y-112050185D02*
X170833152Y-112003901D01*
X179748083Y-121093546D02*
X179055605Y-120524016D01*
X110499993Y-157961570D02*
X110499993Y-157961570D01*
X143906946Y-101848010D02*
X143906946Y-101848010D01*
X118749132Y-96335234D02*
X117510615Y-96374586D01*
X189252311Y-129749276D02*
X187302988Y-127906757D01*
X198631860Y-137757907D02*
X197473581Y-136898178D01*
X77931339Y-103335293D02*
X73421284Y-105023415D01*
X224002761Y-192733633D02*
X224788557Y-192564320D01*
X272681490Y-188708528D02*
X272880299Y-188138391D01*
X311069005Y-156349277D02*
X311069005Y-156349277D01*
X201128491Y-139346486D02*
X200783549Y-139169773D01*
X285692979Y-98382988D02*
X285692979Y-98382988D01*
X201492888Y-196103638D02*
X201114348Y-195735577D01*
X286230973Y-177889475D02*
X287357152Y-177556017D01*
X286230973Y-177889475D02*
X286230973Y-177889475D01*
X365776340Y-116313291D02*
X366109404Y-116227258D01*
X63113126Y-118617652D02*
X64080406Y-118965280D01*
X177704371Y-119382983D02*
X177212063Y-118952013D01*
X210289527Y-201498247D02*
X210560092Y-201469887D01*
X300001850Y-161599363D02*
X300506742Y-161239677D01*
X196016643Y-192736375D02*
X196773892Y-192952522D01*
X102518803Y-144490693D02*
X103174817Y-145093724D01*
X173018801Y-202411922D02*
X173216094Y-202224525D01*
X232716416Y-127904015D02*
X232716416Y-127904015D01*
X201883633Y-139684099D02*
X201492335Y-139516653D01*
X273102618Y-187580947D02*
X273348588Y-187036017D01*
X291841464Y-175516296D02*
X291819700Y-175724160D01*
X210926466Y-141927786D02*
X210609404Y-141972742D01*
X332467509Y-137075941D02*
X333813573Y-136822123D01*
X116249832Y-159471997D02*
X116661534Y-159644231D01*
X286230973Y-177889475D02*
X286230973Y-177889475D01*
X55239392Y-116576082D02*
X55525701Y-116642748D01*
X291915597Y-175001120D02*
X291841464Y-175516296D01*
X249487775Y-201071969D02*
X249837642Y-200636455D01*
X133788431Y-177892217D02*
X133788431Y-177892217D01*
X172207618Y-113490597D02*
X172207618Y-113490597D01*
X172506539Y-202883423D02*
X172659729Y-202745200D01*
X291793249Y-176068675D02*
X291819700Y-175724160D01*
X124037444Y-165538828D02*
X124409057Y-166038974D01*
X311009404Y-157437258D02*
X311029552Y-157084092D01*
X233694517Y-193398134D02*
X234637702Y-193729320D01*
X211765168Y-141738944D02*
X211528827Y-141800788D01*
X195230847Y-192567062D02*
X196016643Y-192736375D01*
X366109404Y-116227258D02*
X366389404Y-116127258D01*
X338090998Y-133839315D02*
X338198319Y-133545978D01*
X218135771Y-139681357D02*
X217708468Y-139849906D01*
M02*
