M48
; DRILL file {KiCad 6.0.2+dfsg-1} date Thu Jun 30 23:38:16 2022
; FORMAT={-:-/ absolute / metric / decimal}
; #@! TF.CreationDate,2022-06-30T23:38:16+02:00
; #@! TF.GenerationSoftware,Kicad,Pcbnew,6.0.2+dfsg-1
; #@! TF.FileFunction,Plated,1,2,PTH
FMAT,2
METRIC
; #@! TA.AperFunction,Plated,PTH,ComponentDrill
T1C1.092
; #@! TA.AperFunction,Plated,PTH,ComponentDrill
T2C1.270
%
G90
G05
T1
X202.38Y-146.03
X202.38Y-148.57
X202.38Y-151.11
X202.38Y-153.65
X202.38Y-156.19
X202.38Y-158.73
X202.38Y-161.27
X202.38Y-163.81
X202.38Y-166.35
X202.38Y-168.89
X202.38Y-171.43
X202.38Y-173.97
X217.62Y-146.03
X217.62Y-148.57
X217.62Y-151.11
X217.62Y-153.65
X217.62Y-156.19
X217.62Y-158.73
X217.62Y-161.27
X217.62Y-163.81
X217.62Y-166.35
X217.62Y-168.89
X217.62Y-171.43
X217.62Y-173.97
T2
X96.008Y-120.747
X99.288Y-125.066
X104.508Y-106.024
X107.788Y-110.343
X111.596Y-129.747
X114.876Y-134.066
X120.096Y-115.024
X123.376Y-119.343
X132.185Y-130.087
X135.465Y-134.405
X140.685Y-115.364
X143.567Y-164.371
X143.965Y-119.683
X146.847Y-168.69
X151.773Y-132.158
X155.053Y-136.477
X159.156Y-173.371
X160.273Y-117.436
X162.436Y-177.69
X163.553Y-121.755
X166.362Y-142.89
X169.642Y-147.209
X174.744Y-182.371
X174.862Y-128.168
X178.024Y-186.69
X178.142Y-132.487
X181.95Y-151.89
X185.23Y-156.209
X190.45Y-137.168
X193.73Y-141.487
X229.55Y-137.168
X234.93Y-136.487
X238.05Y-151.89
X243.43Y-151.209
X245.138Y-128.168
X245.256Y-182.371
X250.519Y-127.487
X250.636Y-181.69
X253.638Y-142.89
X259.019Y-142.209
X259.727Y-117.436
X260.844Y-173.371
X265.107Y-116.755
X266.224Y-172.69
X268.227Y-132.158
X273.607Y-131.477
X276.433Y-164.371
X279.315Y-115.364
X281.813Y-163.69
X284.695Y-114.683
X287.815Y-130.087
X293.195Y-129.405
X299.904Y-115.024
X305.284Y-114.343
X308.404Y-129.747
X313.784Y-129.066
X315.492Y-106.024
X320.872Y-105.343
X323.992Y-120.747
X329.372Y-120.066
T0
M30
