M48
; DRILL file {KiCad 6.0.2+dfsg-1} date Thu Jun 30 23:38:16 2022
; FORMAT={-:-/ absolute / metric / decimal}
; #@! TF.CreationDate,2022-06-30T23:38:16+02:00
; #@! TF.GenerationSoftware,Kicad,Pcbnew,6.0.2+dfsg-1
; #@! TF.FileFunction,NonPlated,1,2,NPTH
FMAT,2
METRIC
; #@! TA.AperFunction,NonPlated,NPTH,ComponentDrill
T1C1.702
; #@! TA.AperFunction,NonPlated,NPTH,ComponentDrill
T2C2.200
; #@! TA.AperFunction,NonPlated,NPTH,ComponentDrill
T3C3.429
%
G90
G05
T1
X88.295Y-123.106
X96.795Y-108.384
X97.821Y-128.606
X103.883Y-132.106
X106.321Y-113.884
X112.383Y-117.384
X113.409Y-137.606
X121.909Y-122.884
X124.471Y-132.446
X132.971Y-117.724
X133.998Y-137.946
X135.854Y-166.731
X142.498Y-123.224
X144.06Y-134.518
X145.38Y-172.231
X151.443Y-175.731
X152.56Y-119.796
X153.586Y-140.018
X158.648Y-145.25
X160.969Y-181.231
X162.086Y-125.296
X167.031Y-184.731
X167.148Y-130.528
X168.175Y-150.75
X174.237Y-154.25
X176.557Y-190.231
X176.675Y-136.028
X182.737Y-139.528
X183.763Y-159.75
X192.263Y-145.028
X227.737Y-145.028
X236.237Y-159.75
X237.263Y-139.528
X243.325Y-136.028
X243.443Y-190.231
X245.763Y-154.25
X251.825Y-150.75
X252.852Y-130.528
X252.969Y-184.731
X257.914Y-125.296
X259.031Y-181.231
X261.352Y-145.25
X266.414Y-140.018
X267.44Y-119.796
X268.557Y-175.731
X274.62Y-172.231
X275.94Y-134.518
X277.502Y-123.224
X284.146Y-166.731
X286.002Y-137.946
X287.029Y-117.724
X295.529Y-132.446
X298.091Y-122.884
X306.591Y-137.606
X307.617Y-117.384
X313.679Y-113.884
X316.117Y-132.106
X322.179Y-128.606
X323.205Y-108.384
X331.705Y-123.106
T2
X75.0Y-113.0
X125.0Y-158.0
X149.0Y-110.0
X210.0Y-194.0
X271.0Y-110.0
X295.0Y-158.0
X345.0Y-113.0
T3
X93.058Y-125.856
X101.558Y-111.134
X108.646Y-134.856
X117.146Y-120.134
X129.235Y-135.196
X137.735Y-120.474
X140.617Y-169.481
X148.823Y-137.268
X156.206Y-178.481
X157.323Y-122.546
X163.412Y-148.0
X171.794Y-187.481
X171.912Y-133.278
X179.0Y-157.0
X187.5Y-142.278
X232.5Y-142.278
X241.0Y-157.0
X248.088Y-133.278
X248.206Y-187.481
X256.588Y-148.0
X262.677Y-122.546
X263.794Y-178.481
X271.177Y-137.268
X279.383Y-169.481
X282.265Y-120.474
X290.765Y-135.196
X302.854Y-120.134
X311.354Y-134.856
X318.442Y-111.134
X326.942Y-125.856
T0
M30
