%TF.GenerationSoftware,KiCad,Pcbnew,6.0.2+dfsg-1*%
%TF.CreationDate,2022-06-30T23:37:17+02:00*%
%TF.ProjectId,dragonwings_test,64726167-6f6e-4776-996e-67735f746573,v1.0.0*%
%TF.SameCoordinates,Original*%
%TF.FileFunction,Soldermask,Bot*%
%TF.FilePolarity,Negative*%
%FSLAX46Y46*%
G04 Gerber Fmt 4.6, Leading zero omitted, Abs format (unit mm)*
G04 Created by KiCad (PCBNEW 6.0.2+dfsg-1) date 2022-06-30 23:37:17*
%MOMM*%
%LPD*%
G01*
G04 APERTURE LIST*
G04 Aperture macros list*
%AMRoundRect*
0 Rectangle with rounded corners*
0 $1 Rounding radius*
0 $2 $3 $4 $5 $6 $7 $8 $9 X,Y pos of 4 corners*
0 Add a 4 corners polygon primitive as box body*
4,1,4,$2,$3,$4,$5,$6,$7,$8,$9,$2,$3,0*
0 Add four circle primitives for the rounded corners*
1,1,$1+$1,$2,$3*
1,1,$1+$1,$4,$5*
1,1,$1+$1,$6,$7*
1,1,$1+$1,$8,$9*
0 Add four rect primitives between the rounded corners*
20,1,$1+$1,$2,$3,$4,$5,0*
20,1,$1+$1,$4,$5,$6,$7,0*
20,1,$1+$1,$6,$7,$8,$9,0*
20,1,$1+$1,$8,$9,$2,$3,0*%
G04 Aperture macros list end*
%ADD10C,1.801800*%
%ADD11C,3.529000*%
%ADD12C,2.132000*%
%ADD13RoundRect,0.050000X0.689711X0.294615X-0.089711X0.744615X-0.689711X-0.294615X0.089711X-0.744615X0*%
%ADD14RoundRect,0.050000X0.089711X0.744615X-0.689711X0.294615X-0.089711X-0.744615X0.689711X-0.294615X0*%
%ADD15C,2.300000*%
%ADD16RoundRect,0.050000X-0.876300X0.876300X-0.876300X-0.876300X0.876300X-0.876300X0.876300X0.876300X0*%
%ADD17C,1.852600*%
%ADD18RoundRect,0.050000X0.900000X0.550000X-0.900000X0.550000X-0.900000X-0.550000X0.900000X-0.550000X0*%
G04 APERTURE END LIST*
D10*
%TO.C,S2*%
X106320853Y-113883974D03*
D11*
X101557713Y-111133974D03*
D10*
X96794573Y-108383974D03*
D12*
X107787840Y-110343077D03*
X104507713Y-106024424D03*
%TD*%
D10*
%TO.C,S4*%
X121909311Y-122883974D03*
X112383031Y-117383974D03*
D11*
X117146171Y-120133974D03*
D12*
X123376298Y-119343077D03*
X120096171Y-115024424D03*
%TD*%
D10*
%TO.C,S3*%
X113409311Y-137606406D03*
D11*
X108646171Y-134856406D03*
D10*
X103883031Y-132106406D03*
D12*
X114876298Y-134065509D03*
X111596171Y-129746856D03*
%TD*%
D13*
%TO.C,D1*%
X91986655Y-131011533D03*
X89128771Y-129361533D03*
%TD*%
D10*
%TO.C,S6*%
X132971488Y-117723720D03*
D11*
X137734628Y-120473720D03*
D10*
X142497768Y-123223720D03*
D12*
X143964755Y-119682823D03*
X140684628Y-115364170D03*
%TD*%
D10*
%TO.C,S15*%
X176557368Y-190230762D03*
D11*
X171794228Y-187480762D03*
D10*
X167031088Y-184730762D03*
D12*
X178024355Y-186689865D03*
X174744228Y-182371212D03*
%TD*%
D13*
%TO.C,D10*%
X170840484Y-138432695D03*
X167982600Y-136782695D03*
%TD*%
D14*
%TO.C,D16*%
X330871228Y-129361533D03*
X328013344Y-131011533D03*
%TD*%
%TO.C,D18*%
X315282771Y-138361533D03*
X312424887Y-140011533D03*
%TD*%
%TO.C,D24*%
X260517399Y-151505127D03*
X257659515Y-153155127D03*
%TD*%
%TO.C,D25*%
X252017399Y-136782695D03*
X249159515Y-138432695D03*
%TD*%
D15*
%TO.C,REF03*%
X345000000Y-113000000D03*
%TD*%
D13*
%TO.C,D11*%
X177928942Y-162155127D03*
X175071058Y-160505127D03*
%TD*%
D10*
%TO.C,S8*%
X162086225Y-125295517D03*
X152559945Y-119795517D03*
D11*
X157323085Y-122545517D03*
D12*
X163553212Y-121754620D03*
X160273085Y-117435967D03*
%TD*%
D10*
%TO.C,S25*%
X252851597Y-130527568D03*
D11*
X248088457Y-133277568D03*
D10*
X243325317Y-136027568D03*
D12*
X250518584Y-127486671D03*
X245138457Y-128168018D03*
%TD*%
D11*
%TO.C,S5*%
X129234628Y-135196152D03*
D10*
X124471488Y-132446152D03*
X133997768Y-137946152D03*
D12*
X135464755Y-134405255D03*
X132184628Y-130086602D03*
%TD*%
D10*
%TO.C,S14*%
X160968911Y-181230762D03*
X151442631Y-175730762D03*
D11*
X156205771Y-178480762D03*
D12*
X162435898Y-177689865D03*
X159155771Y-173371212D03*
%TD*%
D15*
%TO.C,REF04*%
X75000000Y-113000000D03*
%TD*%
D10*
%TO.C,S29*%
X259031088Y-181230762D03*
D11*
X263794228Y-178480762D03*
D10*
X268557368Y-175730762D03*
D12*
X266224355Y-172689865D03*
X260844228Y-173371212D03*
%TD*%
D10*
%TO.C,S27*%
X227736860Y-145027568D03*
D11*
X232500000Y-142277568D03*
D10*
X237263140Y-139527568D03*
D12*
X234930127Y-136486671D03*
X229550000Y-137168018D03*
%TD*%
D10*
%TO.C,S18*%
X306590689Y-137606406D03*
X316116969Y-132106406D03*
D11*
X311353829Y-134856406D03*
D12*
X313783956Y-129065509D03*
X308403829Y-129746856D03*
%TD*%
D14*
%TO.C,D17*%
X322371228Y-114639101D03*
X319513344Y-116289101D03*
%TD*%
D10*
%TO.C,S16*%
X322179146Y-128606406D03*
X331705426Y-123106406D03*
D11*
X326942286Y-125856406D03*
D12*
X329372413Y-120065509D03*
X323992286Y-120746856D03*
%TD*%
D10*
%TO.C,S7*%
X153586225Y-140017949D03*
D11*
X148823085Y-137267949D03*
D10*
X144059945Y-134517949D03*
D12*
X155053212Y-136477052D03*
X151773085Y-132158399D03*
%TD*%
D16*
%TO.C,MCU1*%
X202380000Y-146030000D03*
D17*
X202380000Y-148570000D03*
X202380000Y-151110000D03*
X202380000Y-153650000D03*
X202380000Y-156190000D03*
X202380000Y-158730000D03*
X202380000Y-161270000D03*
X202380000Y-163810000D03*
X202380000Y-166350000D03*
X202380000Y-168890000D03*
X202380000Y-171430000D03*
X202380000Y-173970000D03*
X217620000Y-146030000D03*
X217620000Y-148570000D03*
X217620000Y-151110000D03*
X217620000Y-153650000D03*
X217620000Y-156190000D03*
X217620000Y-158730000D03*
X217620000Y-161270000D03*
X217620000Y-163810000D03*
X217620000Y-166350000D03*
X217620000Y-168890000D03*
X217620000Y-171430000D03*
X217620000Y-173970000D03*
%TD*%
D13*
%TO.C,D14*%
X155134713Y-183635889D03*
X152276829Y-181985889D03*
%TD*%
D10*
%TO.C,S26*%
X245763140Y-154250000D03*
D11*
X241000000Y-157000000D03*
D10*
X236236860Y-159750000D03*
D12*
X243430127Y-151209103D03*
X238050000Y-151890450D03*
%TD*%
D10*
%TO.C,S30*%
X252968911Y-184730762D03*
D11*
X248205771Y-187480762D03*
D10*
X243442631Y-190230762D03*
D12*
X250635898Y-181689865D03*
X245255771Y-182371212D03*
%TD*%
D14*
%TO.C,D26*%
X244928942Y-160505127D03*
X242071058Y-162155127D03*
%TD*%
D10*
%TO.C,S11*%
X183763140Y-159750000D03*
D11*
X179000000Y-157000000D03*
D10*
X174236860Y-154250000D03*
D12*
X185230127Y-156209103D03*
X181950000Y-151890450D03*
%TD*%
D14*
%TO.C,D30*%
X252134713Y-190985889D03*
X249276829Y-192635889D03*
%TD*%
D13*
%TO.C,D6*%
X136663570Y-125628847D03*
X133805686Y-123978847D03*
%TD*%
D11*
%TO.C,S17*%
X318442286Y-111133974D03*
D10*
X323205426Y-108383974D03*
X313679146Y-113883974D03*
D12*
X320872413Y-105343077D03*
X315492286Y-106024424D03*
%TD*%
D13*
%TO.C,D4*%
X116075113Y-125289101D03*
X113217229Y-123639101D03*
%TD*%
D10*
%TO.C,S10*%
X167148402Y-130527568D03*
D11*
X171911542Y-133277568D03*
D10*
X176674682Y-136027568D03*
D12*
X178141669Y-132486671D03*
X174861542Y-128168018D03*
%TD*%
D13*
%TO.C,D2*%
X100486655Y-116289101D03*
X97628771Y-114639101D03*
%TD*%
D11*
%TO.C,S19*%
X302853829Y-120133974D03*
D10*
X307616969Y-117383974D03*
X298090689Y-122883974D03*
D12*
X305283956Y-114343077D03*
X299903829Y-115024424D03*
%TD*%
D15*
%TO.C,REF06*%
X149000000Y-110000000D03*
%TD*%
D10*
%TO.C,S21*%
X277502231Y-123223720D03*
D11*
X282265371Y-120473720D03*
D10*
X287028511Y-117723720D03*
D12*
X284695498Y-114682823D03*
X279315371Y-115364170D03*
%TD*%
D11*
%TO.C,S9*%
X163411542Y-148000000D03*
D10*
X158648402Y-145250000D03*
X168174682Y-150750000D03*
D12*
X169641669Y-147209103D03*
X166361542Y-142890450D03*
%TD*%
D10*
%TO.C,S24*%
X251825317Y-150750000D03*
D11*
X256588457Y-148000000D03*
D10*
X261351597Y-145250000D03*
D12*
X259018584Y-142209103D03*
X253638457Y-142890450D03*
%TD*%
D13*
%TO.C,D3*%
X107575113Y-140011533D03*
X104717229Y-138361533D03*
%TD*%
D15*
%TO.C,REF05*%
X271000000Y-110000000D03*
%TD*%
D11*
%TO.C,S28*%
X279382685Y-169480762D03*
D10*
X274619545Y-172230762D03*
X284145825Y-166730762D03*
D12*
X281812812Y-163689865D03*
X276432685Y-164371212D03*
%TD*%
D13*
%TO.C,D15*%
X170723170Y-192635889D03*
X167865286Y-190985889D03*
%TD*%
%TO.C,D7*%
X147752027Y-142423076D03*
X144894143Y-140773076D03*
%TD*%
D10*
%TO.C,S13*%
X135854174Y-166730762D03*
X145380454Y-172230762D03*
D11*
X140617314Y-169480762D03*
D12*
X146847441Y-168689865D03*
X143567314Y-164371212D03*
%TD*%
D14*
%TO.C,D29*%
X267723170Y-181985889D03*
X264865286Y-183635889D03*
%TD*%
D11*
%TO.C,S20*%
X290765371Y-135196152D03*
D10*
X295528511Y-132446152D03*
X286002231Y-137946152D03*
D12*
X293195498Y-129405255D03*
X287815371Y-130086602D03*
%TD*%
D13*
%TO.C,D5*%
X128163570Y-140351279D03*
X125305686Y-138701279D03*
%TD*%
D14*
%TO.C,D22*%
X275105856Y-140773076D03*
X272247972Y-142423076D03*
%TD*%
%TO.C,D28*%
X283311627Y-172985889D03*
X280453743Y-174635889D03*
%TD*%
D13*
%TO.C,D9*%
X162340484Y-153155127D03*
X159482600Y-151505127D03*
%TD*%
D14*
%TO.C,D21*%
X286194313Y-123978847D03*
X283336429Y-125628847D03*
%TD*%
D10*
%TO.C,S1*%
X88294573Y-123106406D03*
X97820853Y-128606406D03*
D11*
X93057713Y-125856406D03*
D12*
X99287840Y-125065509D03*
X96007713Y-120746856D03*
%TD*%
D15*
%TO.C,REF00*%
X210000000Y-194000000D03*
%TD*%
D14*
%TO.C,D23*%
X266605856Y-126050644D03*
X263747972Y-127700644D03*
%TD*%
D10*
%TO.C,S22*%
X275940054Y-134517949D03*
X266413774Y-140017949D03*
D11*
X271176914Y-137267949D03*
D12*
X273607041Y-131477052D03*
X268226914Y-132158399D03*
%TD*%
D14*
%TO.C,D20*%
X294694313Y-138701279D03*
X291836429Y-140351279D03*
%TD*%
D13*
%TO.C,D8*%
X156252027Y-127700644D03*
X153394143Y-126050644D03*
%TD*%
%TO.C,D12*%
X186428942Y-147432695D03*
X183571058Y-145782695D03*
%TD*%
D14*
%TO.C,D27*%
X236428942Y-145782695D03*
X233571058Y-147432695D03*
%TD*%
D10*
%TO.C,S12*%
X182736860Y-139527568D03*
X192263140Y-145027568D03*
D11*
X187500000Y-142277568D03*
D12*
X193730127Y-141486671D03*
X190450000Y-137168018D03*
%TD*%
D14*
%TO.C,D19*%
X306782771Y-123639101D03*
X303924887Y-125289101D03*
%TD*%
D11*
%TO.C,S23*%
X262676914Y-122545517D03*
D10*
X257913774Y-125295517D03*
X267440054Y-119795517D03*
D12*
X265107041Y-116754620D03*
X259726914Y-117435967D03*
%TD*%
D15*
%TO.C,REF01*%
X295000000Y-158000000D03*
%TD*%
%TO.C,REF02*%
X125000000Y-158000000D03*
%TD*%
D13*
%TO.C,D13*%
X139546256Y-174635889D03*
X136688372Y-172985889D03*
%TD*%
D18*
%TO.C,B1*%
X213100000Y-148400000D03*
X206900000Y-148400000D03*
X213100000Y-152100000D03*
X206900000Y-152100000D03*
%TD*%
M02*
