%TF.GenerationSoftware,KiCad,Pcbnew,6.0.2+dfsg-1*%
%TF.CreationDate,2022-06-30T23:44:07+02:00*%
%TF.ProjectId,dragonwings_backplate,64726167-6f6e-4776-996e-67735f626163,rev?*%
%TF.SameCoordinates,Original*%
%TF.FileFunction,Profile,NP*%
%FSLAX46Y46*%
G04 Gerber Fmt 4.6, Leading zero omitted, Abs format (unit mm)*
G04 Created by KiCad (PCBNEW 6.0.2+dfsg-1) date 2022-06-30 23:44:07*
%MOMM*%
%LPD*%
G01*
G04 APERTURE LIST*
%TA.AperFunction,Profile*%
%ADD10C,0.120385*%
%TD*%
%TA.AperFunction,Profile*%
%ADD11C,0.100000*%
%TD*%
G04 APERTURE END LIST*
D10*
X296794307Y-50089055D02*
X297783745Y-49399243D01*
X140049474Y-118522240D02*
X140956717Y-118415219D01*
X122043998Y-129026911D02*
X122170000Y-129190000D01*
X9697344Y-37847220D02*
X8954750Y-38268649D01*
X260989404Y-83917258D02*
X260999404Y-83697258D01*
X165468137Y-66611609D02*
X166711631Y-66205608D01*
X156586474Y-126432702D02*
X156906425Y-126585443D01*
X262945949Y-75384131D02*
X262945949Y-75384131D01*
X153307773Y-66208350D02*
X154551267Y-66614351D01*
X198299427Y-38761426D02*
X198061119Y-39109441D01*
X135381702Y-119732062D02*
X136324887Y-119400876D01*
X58989852Y-83086834D02*
X59010000Y-83440000D01*
X129748083Y-47093546D02*
X129055605Y-46524016D01*
X119929600Y-37656948D02*
X119781378Y-37607307D01*
X21217513Y-48728890D02*
X22235659Y-49401985D01*
X75117844Y-93111021D02*
X75490317Y-93755281D01*
X49638349Y-68170150D02*
X50601172Y-68891654D01*
X264153412Y-73867170D02*
X264773317Y-73186188D01*
X150442298Y-121106490D02*
X150765422Y-121404175D01*
X210615413Y-117829061D02*
X211250174Y-117535630D01*
X171690850Y-119582973D02*
X171953359Y-119456331D01*
X79088130Y-22810423D02*
X78663017Y-22756696D01*
X125131791Y-42889728D02*
X124382869Y-42086276D01*
X59030000Y-83920000D02*
X59350000Y-83910000D01*
X287984976Y-60146139D02*
X288090998Y-59839315D01*
X260090609Y-22929746D02*
X253683739Y-22433339D01*
X120480696Y-37857992D02*
X120350404Y-37807894D01*
X252508789Y-22371844D02*
X251270272Y-22332492D01*
X226112458Y-27845268D02*
X218798698Y-30481676D01*
X288419690Y-58993941D02*
X288535155Y-58732331D01*
X81426080Y-23354812D02*
X81005809Y-23224626D01*
X271876194Y-24390215D02*
X266145793Y-23580244D01*
X288090998Y-59839315D02*
X288198319Y-59545978D01*
X77562985Y-98481213D02*
X77716966Y-99086910D01*
X199159984Y-127499460D02*
X199159984Y-127499460D01*
X93906946Y-27848010D02*
X88684197Y-25969786D01*
X68999482Y-86901277D02*
X69512662Y-87242419D01*
X176147930Y-59952779D02*
X174886676Y-61028452D01*
X201039467Y-125259576D02*
X201497405Y-124769771D01*
X287879545Y-60467904D02*
X287984976Y-60146139D01*
X230499277Y-105959388D02*
X230860605Y-105778882D01*
X119052398Y-37350839D02*
X118084657Y-36987326D01*
X14231744Y-35259117D02*
X13188519Y-35851111D01*
X102683983Y-115873315D02*
X103321592Y-115947982D01*
X149421732Y-64320992D02*
X148631860Y-63757907D01*
X32695533Y-62283420D02*
X32695533Y-62283420D01*
X126587561Y-44367531D02*
X125880413Y-43665124D01*
X58183941Y-78137712D02*
X58314166Y-78599215D01*
X113356502Y-120123729D02*
X113801098Y-120448858D01*
X289666993Y-56793169D02*
X289845103Y-56548161D01*
X297783745Y-49399243D02*
X298801891Y-48726148D01*
X74762302Y-92548668D02*
X74762302Y-92548668D01*
X121256132Y-38216439D02*
X121384569Y-38313829D01*
X174788557Y-118564320D02*
X175600528Y-118441618D01*
X208237436Y-34453294D02*
X204081921Y-36129953D01*
X172228200Y-119333982D02*
X172519184Y-119212983D01*
X13113126Y-44617652D02*
X14080406Y-44965280D01*
X172519184Y-119212983D02*
X172519184Y-119212983D01*
X117508266Y-123733317D02*
X117508266Y-123733317D01*
X23421284Y-31023415D02*
X23421284Y-31023415D01*
X37551895Y-63078683D02*
X38842469Y-63360982D01*
X32695533Y-62283420D02*
X32695533Y-62283420D01*
X192716946Y-124476837D02*
X192716946Y-124476837D01*
X289339439Y-57272712D02*
X289188580Y-57510158D01*
X296598120Y-31020673D02*
X296598120Y-31020673D01*
X251270272Y-22332492D02*
X249987188Y-22315066D01*
X58917582Y-81904036D02*
X58950399Y-82352019D01*
X285219413Y-62594879D02*
X287323871Y-62280678D01*
X80196864Y-102861931D02*
X80875505Y-103045994D01*
X241793249Y-102068675D02*
X241819700Y-101724160D01*
X247363331Y-22345130D02*
X246060561Y-22392187D01*
X97337914Y-114711270D02*
X97337914Y-114711270D01*
X145132728Y-61031194D02*
X143871474Y-59955521D01*
X243568348Y-22549269D02*
X242337691Y-22654776D01*
X121755118Y-128671288D02*
X121345934Y-128144951D01*
X58314166Y-78599215D02*
X58434945Y-79069163D01*
X262121126Y-77248879D02*
X262275003Y-76830084D01*
X310322060Y-37844478D02*
X310322060Y-37844478D01*
X241793249Y-102378675D02*
X241793249Y-102068675D01*
X129004645Y-123126781D02*
X129368498Y-122870370D01*
X218798698Y-30481676D02*
X212991693Y-32627443D01*
X5845020Y-42715726D02*
X7751358Y-43156602D01*
X21823380Y-31677464D02*
X20340261Y-32305883D01*
X154898637Y-125359429D02*
X154608600Y-125118984D01*
X202511138Y-123730575D02*
X202511138Y-123730575D01*
X30830824Y-57512900D02*
X30974015Y-57750735D01*
X160000000Y-68000000D02*
X160000000Y-68000000D01*
X261835463Y-78134970D02*
X261974352Y-77684806D01*
X197359675Y-128742458D02*
X197512865Y-128880681D01*
X274358993Y-65756977D02*
X275406552Y-65263727D01*
X194887613Y-42886986D02*
X194138991Y-43662382D01*
X120214720Y-37757509D02*
X120074250Y-37707105D01*
X177293498Y-118335159D02*
X178169752Y-118350957D01*
X200564787Y-37492735D02*
X200238026Y-37604565D01*
X111531592Y-118946931D02*
X111998873Y-119225624D01*
X157695443Y-67582266D02*
X156990315Y-67371544D01*
X59010000Y-83440000D02*
X59020000Y-83700000D01*
X168135771Y-65681357D02*
X167708468Y-65849906D01*
X105155199Y-116284826D02*
X105751229Y-116437392D01*
X168890913Y-65343744D02*
X168527069Y-65513911D01*
X192716946Y-124476837D02*
X193694331Y-125348251D01*
X3675000Y-42040000D02*
X3630000Y-42130000D01*
X119781378Y-37607307D02*
X119781378Y-37607307D01*
X246776627Y-90567708D02*
X247197847Y-90101112D01*
X197811786Y-39487855D02*
X197811786Y-39487855D01*
X111781968Y-34456036D02*
X107027711Y-32630185D01*
X110057002Y-118151513D02*
X110057002Y-118151513D01*
X125223795Y-126352135D02*
X126325073Y-125350993D01*
X92364139Y-107819798D02*
X92879511Y-108238767D01*
X199083594Y-38047443D02*
X198904158Y-38134880D01*
X314174384Y-42712984D02*
X314174384Y-42712984D01*
X224938102Y-110492884D02*
X225328918Y-110019319D01*
X167665342Y-122958763D02*
X167665342Y-122958763D01*
X32034428Y-60148881D02*
X32139859Y-60470646D01*
X254198753Y-85301171D02*
X255096447Y-84981310D01*
X58045052Y-77687548D02*
X58183941Y-78137712D01*
X188851715Y-48300114D02*
X186927221Y-50012018D01*
X230860605Y-105778882D02*
X231238517Y-105603261D01*
X84326425Y-24385730D02*
X84326425Y-24385730D01*
X275406552Y-65263727D02*
X276483907Y-64810405D01*
X239013595Y-23221884D02*
X238593324Y-23352070D01*
X32245407Y-60808808D02*
X32245407Y-60808808D01*
X76451056Y-22552011D02*
X76451056Y-22552011D01*
X115937483Y-36132695D02*
X111781968Y-34456036D01*
X197665707Y-39699252D02*
X197473384Y-39954186D01*
X261101822Y-81901294D02*
X261149545Y-81441486D01*
X18031066Y-46840300D02*
X19111193Y-47445008D01*
X153237379Y-123842124D02*
X153621997Y-124216193D01*
X9392791Y-43555637D02*
X10807866Y-43924426D01*
X55865992Y-73869912D02*
X56398174Y-74485788D01*
X120074250Y-37707105D02*
X119929600Y-37656948D01*
X166397407Y-124213451D02*
X166782025Y-123839382D01*
X223348588Y-113036017D02*
X223618349Y-112503425D01*
X64922957Y-84984052D02*
X65820651Y-85303913D01*
X121755118Y-128671288D02*
X121917282Y-128873833D01*
X243429607Y-95932084D02*
X243781159Y-95188909D01*
X160926466Y-67927786D02*
X160609404Y-67972742D01*
X253357870Y-85641489D02*
X253769572Y-85469255D01*
X48667144Y-67498112D02*
X49638349Y-68170150D01*
X229463581Y-106551621D02*
X230149411Y-106146920D01*
X169903249Y-64778675D02*
X169570450Y-64979950D01*
X209456710Y-118408659D02*
X209962402Y-118148771D01*
X186521904Y-120523969D02*
X186521904Y-120523969D01*
X249020592Y-88371098D02*
X249506161Y-87976776D01*
X73958843Y-22394929D02*
X72656073Y-22347872D01*
X261974352Y-77684806D02*
X262121126Y-77248879D01*
X140956717Y-118415219D02*
X141849652Y-118353699D01*
X307984275Y-44271824D02*
X309211538Y-43921684D01*
X211250174Y-117535630D02*
X211870055Y-117267679D01*
X242608027Y-97967963D02*
X242711963Y-97666662D01*
X316103326Y-41725737D02*
X315974174Y-41602554D01*
X199804684Y-37754767D02*
X199669000Y-37805152D01*
X239783840Y-23016671D02*
X239406705Y-23110952D01*
X74762302Y-92548668D02*
X75117844Y-93111021D01*
X120859420Y-127502202D02*
X120859420Y-127502202D01*
X4758953Y-42459241D02*
X4984380Y-42515117D01*
X211870055Y-117267679D02*
X212478425Y-117024405D01*
X18960078Y-32914260D02*
X17670983Y-33508183D01*
X106345289Y-116611433D02*
X106940749Y-116807752D01*
X14080406Y-44965280D02*
X14975514Y-45329047D01*
X118032100Y-124263586D02*
X118521999Y-124772513D01*
X147500220Y-119215725D02*
X147791204Y-119336724D01*
X315035024Y-42512375D02*
X314780012Y-42573340D01*
X157992042Y-67667551D02*
X157695443Y-67582266D01*
X77188315Y-97348821D02*
X77307441Y-97669404D01*
X261041926Y-82875543D02*
X261069005Y-82349277D01*
X11418104Y-36871738D02*
X9697344Y-37847220D01*
X119407892Y-125735220D02*
X119807842Y-126193440D01*
X59928795Y-22932488D02*
X53873611Y-23582986D01*
X67951928Y-86277897D02*
X68478932Y-86579497D01*
X238593324Y-23352070D02*
X238134704Y-23504116D01*
X273336946Y-66292062D02*
X274358993Y-65756977D01*
X259949404Y-83917258D02*
X259519411Y-83958828D01*
X139130296Y-118674538D02*
X140049474Y-118522240D01*
X55246087Y-73188930D02*
X55865992Y-73869912D01*
X15318665Y-34675023D02*
X14231744Y-35259117D01*
X242608027Y-97967963D02*
X242608027Y-97967963D01*
X163909564Y-67098501D02*
X163909564Y-67098501D01*
X150141161Y-120839578D02*
X150442298Y-121106490D01*
X60883299Y-84004649D02*
X61288454Y-84063448D01*
X294917647Y-51506675D02*
X295837599Y-50792546D01*
X83788431Y-103892217D02*
X85240990Y-104333722D01*
X305043890Y-45326305D02*
X305938998Y-44962538D01*
X224229804Y-111474543D02*
X224571778Y-110977899D01*
X242302438Y-99084168D02*
X242456419Y-98478471D01*
X106940749Y-116807752D02*
X107540979Y-117027147D01*
X306906278Y-44614910D02*
X307984275Y-44271824D01*
X158896734Y-67896020D02*
X159073534Y-67927786D01*
X288307647Y-59264671D02*
X288419690Y-58993941D01*
X13188519Y-35851111D02*
X13188519Y-35851111D01*
X240931274Y-22807681D02*
X240534937Y-22867640D01*
X127302458Y-124479579D02*
X127302458Y-124479579D01*
X147500220Y-119215725D02*
X147500220Y-119215725D01*
X183694517Y-119398134D02*
X184637702Y-119729320D01*
X159753892Y-127498247D02*
X159460160Y-127469887D01*
X261149545Y-81441486D02*
X261211396Y-80972748D01*
X123674817Y-41299702D02*
X123048810Y-40574942D01*
X70032216Y-22317808D02*
X68749132Y-22335234D01*
X199159984Y-127499460D02*
X199487775Y-127071969D01*
X16938326Y-46264467D02*
X18031066Y-46840300D01*
X315035024Y-42512375D02*
X315260451Y-42456499D01*
X234778414Y-104330980D02*
X236230973Y-103889475D01*
X56963107Y-75213509D02*
X57073455Y-75386873D01*
X205328806Y-121144171D02*
X205774286Y-120786669D01*
X146016643Y-118736375D02*
X146773892Y-118952522D01*
X3630000Y-42130000D02*
X3910000Y-42230000D01*
X313125112Y-39487369D02*
X312558163Y-39141258D01*
X311064654Y-38265907D02*
X310322060Y-37844478D01*
X196344587Y-41296960D02*
X195636535Y-42083534D01*
X4045230Y-41605296D02*
X3916078Y-41728479D01*
X153237379Y-123842124D02*
X152354062Y-122961505D01*
X30830824Y-57512900D02*
X30679965Y-57275454D01*
X161316739Y-67852272D02*
X161528827Y-67800788D01*
X111053544Y-118676032D02*
X111531592Y-118946931D01*
X304700739Y-34672281D02*
X303558276Y-34090499D01*
X156000000Y-126120000D02*
X156286024Y-126278820D01*
X99911646Y-115741379D02*
X99911646Y-115741379D01*
X258307224Y-84134260D02*
X258730950Y-84060706D01*
X92879511Y-108238767D02*
X93369692Y-108668300D01*
X195879147Y-127350494D02*
X196803310Y-128221783D01*
X101348935Y-115775603D02*
X102027553Y-115816123D01*
X157625136Y-126902681D02*
X157625136Y-126902681D01*
X149080228Y-120020826D02*
X149331546Y-120194064D01*
X82662252Y-103558759D02*
X83788431Y-103892217D01*
X299844721Y-48072809D02*
X300908211Y-47442266D01*
X187860083Y-121188699D02*
X188286360Y-121417053D01*
X122376636Y-128997596D02*
X122170000Y-129190000D01*
X149589598Y-120386307D02*
X149858199Y-120600498D01*
X226112458Y-27845268D02*
X226112458Y-27845268D01*
X235692979Y-24382988D02*
X235692979Y-24382988D01*
X192807341Y-44949271D02*
X192807341Y-44949271D01*
X263621230Y-74483046D02*
X264153412Y-73867170D01*
X180767093Y-55746534D02*
X179048798Y-57346029D01*
X70998812Y-88373840D02*
X71473345Y-88784252D01*
X163432930Y-126429960D02*
X163733380Y-126276078D01*
X156109840Y-67101243D02*
X156109840Y-67101243D01*
X78663017Y-22756696D02*
X77681713Y-22657518D01*
X17670983Y-33508183D02*
X16461128Y-34093241D01*
X316389404Y-42127258D02*
X316344404Y-42037258D01*
X120480696Y-37857992D02*
X120604989Y-37907538D01*
X313125112Y-39487369D02*
X313125112Y-39487369D01*
X192391423Y-124196402D02*
X192716946Y-124476837D01*
X143583105Y-118368047D02*
X144418876Y-118444360D01*
X169577106Y-121103748D02*
X169878243Y-120836836D01*
X174002761Y-118733633D02*
X174788557Y-118564320D01*
X189898117Y-122367893D02*
X190278762Y-122615624D01*
X305787660Y-35256375D02*
X304700739Y-34672281D01*
X111998873Y-119225624D02*
X112457427Y-119513638D01*
X77411377Y-97970705D02*
X77411377Y-97970705D01*
X84326425Y-24385730D02*
X82961739Y-23886947D01*
X53873611Y-23582986D02*
X48143210Y-24392957D01*
X120181762Y-126639197D02*
X120531629Y-127074711D01*
X172545823Y-62895436D02*
X171387544Y-63755165D01*
X199159984Y-127499460D02*
X199159984Y-127499460D01*
X115937483Y-36132695D02*
X115937483Y-36132695D01*
X171953359Y-119456331D02*
X172228200Y-119333982D01*
X160289527Y-127498247D02*
X160560092Y-127469887D01*
X197849404Y-129187258D02*
X197642768Y-128994854D01*
X266145793Y-23580244D02*
X260090609Y-22929746D01*
X258730950Y-84060706D02*
X259136105Y-84001907D01*
X231335207Y-25967044D02*
X226112458Y-27845268D01*
X200089804Y-37654206D02*
X199945154Y-37704363D01*
X164568480Y-125769622D02*
X164296079Y-125949705D01*
X161765168Y-67738944D02*
X161528827Y-67800788D01*
X263397872Y-74755995D02*
X263621230Y-74483046D01*
X96107363Y-111985734D02*
X96401055Y-112506167D01*
X203491524Y-122774194D02*
X203963224Y-122333634D01*
X201497405Y-124769771D02*
X201987304Y-124260844D01*
X31364655Y-58481128D02*
X31484249Y-58735073D01*
X289498674Y-57034201D02*
X289666993Y-56793169D01*
X82961739Y-23886947D02*
X81884700Y-23506858D01*
X135233353Y-51969359D02*
X133092183Y-50014760D01*
X198405998Y-38610889D02*
X198299427Y-38761426D01*
X129748083Y-47093546D02*
X129748083Y-47093546D01*
X312558163Y-39141258D02*
X311840683Y-38716135D01*
X245610347Y-92036232D02*
X245981960Y-91536086D01*
X133497500Y-120526711D02*
X134438449Y-120107414D01*
X158295444Y-127167377D02*
X158604488Y-127271365D01*
X311840683Y-38716135D02*
X311064654Y-38265907D01*
X189508763Y-122124304D02*
X189898117Y-122367893D01*
X199186252Y-38001159D02*
X199414415Y-37904796D01*
X97669944Y-115734548D02*
X99911646Y-115741379D01*
X314174384Y-42712984D02*
X314174384Y-42712984D01*
X200238026Y-37604565D02*
X200238026Y-37604565D01*
X160311026Y-67994395D02*
X160609404Y-67972742D01*
D11*
X154443581Y-88742000D02*
X154443581Y-95158000D01*
D10*
X217991851Y-115813381D02*
X218670469Y-115772861D01*
X245257102Y-92545926D02*
X245257102Y-92545926D01*
X247197847Y-90101112D02*
X247633771Y-89647335D01*
X190271321Y-47090804D02*
X190271321Y-47090804D01*
X72656073Y-22347872D02*
X71340863Y-22322093D01*
X287773997Y-60806066D02*
X287773997Y-60806066D01*
X95789600Y-111477285D02*
X96107363Y-111985734D01*
X97337914Y-114711270D02*
X97669944Y-115734548D01*
X57744401Y-76832826D02*
X57584199Y-76434058D01*
X197811786Y-39487855D02*
X197811786Y-39487855D01*
X76238245Y-95191651D02*
X76589797Y-95934826D01*
X152310936Y-65852648D02*
X151883633Y-65684099D01*
X125880413Y-43665124D02*
X125131791Y-42889728D01*
X315631616Y-41304830D02*
X315199574Y-40956536D01*
X189110492Y-121884722D02*
X189508763Y-122124304D01*
X250506742Y-87239677D02*
X251019922Y-86898535D01*
X57898278Y-77251621D02*
X58045052Y-77687548D01*
X261705238Y-78596473D02*
X261835463Y-78134970D01*
X198061119Y-39109441D02*
X197811786Y-39487855D01*
X131316310Y-121651758D02*
X131733044Y-121419795D01*
X123018801Y-128411922D02*
X123216094Y-128224525D01*
X25101757Y-51509417D02*
X25980931Y-52231145D01*
X156109840Y-67101243D02*
X154551267Y-66614351D01*
X219374648Y-115748213D02*
X220107758Y-115738637D01*
X71340863Y-22322093D02*
X70032216Y-22317808D01*
X121115246Y-38137622D02*
X121256132Y-38216439D01*
X44612852Y-65266469D02*
X45660411Y-65759719D01*
X110057002Y-118151513D02*
X110057002Y-118151513D01*
X32245407Y-60808808D02*
X32695533Y-62283420D01*
X120604989Y-37907538D02*
X120833152Y-38003901D01*
X157625136Y-126902681D02*
X157969910Y-127044483D01*
X170597672Y-64318250D02*
X169903249Y-64778675D01*
X108149349Y-117270421D02*
X108769230Y-117538372D01*
X261069005Y-82349277D02*
X261069005Y-82349277D01*
X241915597Y-101001120D02*
X242023093Y-100392621D01*
X169235855Y-65167031D02*
X168890913Y-65343744D01*
X191014759Y-123124039D02*
X191370528Y-123384989D01*
X303081078Y-46261725D02*
X304182407Y-45717806D01*
X315776340Y-42313291D02*
X316109404Y-42227258D01*
X121613406Y-38613631D02*
X121519728Y-38485176D01*
X197473384Y-39954186D02*
X196970594Y-40572200D01*
X198102122Y-128871091D02*
X198264286Y-128668546D01*
X277308718Y-25365047D02*
X271876194Y-24390215D01*
X215465574Y-116150195D02*
X216075653Y-116038180D01*
X74037444Y-91538828D02*
X74409057Y-92038974D01*
X159184097Y-127422620D02*
X159460160Y-127469887D01*
X60499993Y-83961570D02*
X60070000Y-83920000D01*
X154898637Y-125359429D02*
X155177720Y-125575957D01*
X200967006Y-37348097D02*
X200564787Y-37492735D01*
X96916786Y-113583689D02*
X97139105Y-114141133D01*
X121719977Y-38764168D02*
X121613406Y-38613631D01*
X127302458Y-124479579D02*
X127627981Y-124199144D01*
D11*
X154443581Y-95158000D02*
X160000000Y-98366000D01*
D10*
X114245118Y-120789411D02*
X114690598Y-121146913D01*
X261009404Y-83437258D02*
X261029552Y-83084092D01*
X248678541Y-22319351D02*
X247363331Y-22345130D01*
X76589797Y-95934826D02*
X76910471Y-96662038D01*
X242155018Y-99737928D02*
X242302438Y-99084168D01*
X315458004Y-42405100D02*
X315546864Y-42380889D01*
X291685859Y-54408792D02*
X292418555Y-53682501D01*
X75867768Y-94456980D02*
X76238245Y-95191651D01*
X31599714Y-58996683D02*
X31711757Y-59267413D01*
X164841684Y-125573215D02*
X165120767Y-125356687D01*
X204081921Y-36129953D02*
X204081921Y-36129953D01*
X79863216Y-22939177D02*
X79484467Y-22870382D01*
X5525701Y-42642748D02*
X5845020Y-42715726D01*
X244151636Y-94454238D02*
X244529087Y-93752539D01*
X206218306Y-120446116D02*
X206662902Y-120120987D01*
X159390596Y-67972742D02*
X159688973Y-67994395D01*
X244529087Y-93752539D02*
X244901560Y-93108279D01*
X282470268Y-26510123D02*
X277308718Y-25365047D01*
X246060561Y-22392187D02*
X244789233Y-22460305D01*
X180889108Y-118671796D02*
X181817847Y-118869150D01*
X122207618Y-39490597D02*
X122207618Y-39490597D01*
X269418232Y-68888912D02*
X270381055Y-68167408D01*
X262771458Y-75705443D02*
X262945949Y-75384131D01*
X16461128Y-34093241D02*
X15318665Y-34675023D01*
X66249832Y-85471997D02*
X66661534Y-85644231D01*
X218670469Y-115772861D02*
X219374648Y-115748213D01*
X146320317Y-62000677D02*
X145132728Y-61031194D01*
X178169752Y-118350957D02*
X179062687Y-118412477D01*
X168527069Y-65513911D02*
X168135771Y-65681357D01*
X155177720Y-125575957D02*
X155450924Y-125772364D01*
X95447626Y-110980641D02*
X95789600Y-111477285D01*
X57247946Y-75708185D02*
X57418454Y-76058212D01*
X298801891Y-48726148D02*
X299844721Y-48072809D01*
X67052478Y-85819652D02*
X67419387Y-85997296D01*
X132595350Y-120966564D02*
X133497500Y-120526711D01*
X148066045Y-119459073D02*
X148328554Y-119585715D01*
X112909291Y-119812497D02*
X113356502Y-120123729D01*
X83788431Y-103892217D02*
X83788431Y-103892217D01*
X30174301Y-56550903D02*
X30174301Y-56550903D01*
X30352411Y-56795911D02*
X30520730Y-57036943D01*
X5313928Y-40581900D02*
X4819830Y-40959278D01*
X96401055Y-112506167D02*
X96670816Y-113038759D01*
X23225097Y-50091797D02*
X24181805Y-50795288D01*
X265449467Y-72473938D02*
X266150383Y-71764257D01*
X58950399Y-82352019D02*
X58977478Y-82878285D01*
X157625136Y-126902681D02*
X157625136Y-126902681D01*
X129368498Y-122870370D02*
X129740642Y-122618366D01*
X65820651Y-85303913D02*
X66249832Y-85471997D01*
X262945949Y-75384131D02*
X262945949Y-75384131D01*
X29009369Y-55133267D02*
X29624295Y-55847403D01*
X241793249Y-102378675D02*
X240370076Y-102720168D01*
X27931339Y-29335293D02*
X23421284Y-31023415D01*
X15836997Y-45720548D02*
X16938326Y-46264467D01*
X57073455Y-75386873D02*
X57073455Y-75386873D01*
X199487775Y-127071969D02*
X199837642Y-126636455D01*
X316269404Y-41917258D02*
X316199822Y-41828222D01*
X123048810Y-40574942D02*
X122546020Y-39956928D01*
X314705476Y-40579158D02*
X314176749Y-40194180D01*
X199414415Y-37904796D02*
X199538708Y-37855250D01*
X124382869Y-42086276D02*
X123674817Y-41299702D01*
X306830885Y-35848369D02*
X305787660Y-35256375D01*
X200211562Y-126190698D02*
X200611512Y-125732478D01*
X243568348Y-22549269D02*
X243568348Y-22549269D01*
X194138991Y-43662382D02*
X193431843Y-44364789D01*
X102027553Y-115816123D02*
X102683983Y-115873315D01*
X127212063Y-44952013D02*
X126587561Y-44367531D01*
X20174683Y-48075551D02*
X21217513Y-48728890D01*
X71473345Y-88784252D02*
X71935924Y-89209937D01*
X93906946Y-27848010D02*
X93906946Y-27848010D01*
X316199822Y-41828222D02*
X316103326Y-41725737D01*
X9697344Y-37847220D02*
X9697344Y-37847220D01*
X212991693Y-32627443D02*
X208237436Y-34453294D01*
X168905056Y-121732835D02*
X169253982Y-121401433D01*
X112457427Y-119513638D02*
X112909291Y-119812497D01*
X220107758Y-115738637D02*
X220107758Y-115738637D01*
X237357152Y-103556017D02*
X238325115Y-103274735D01*
X42424064Y-64397845D02*
X43535497Y-64813147D01*
X155450924Y-125772364D02*
X155723325Y-125952447D01*
X151492335Y-65516653D02*
X151128491Y-65346486D01*
X131733044Y-121419795D02*
X132159321Y-121191441D01*
X289845103Y-56548161D02*
X289845103Y-56548161D01*
X57744401Y-76832826D02*
X57898278Y-77251621D01*
X241915597Y-101001120D02*
X241841464Y-101516296D01*
X198499676Y-38482434D02*
X198405998Y-38610889D01*
X160836155Y-127422620D02*
X160560092Y-127469887D01*
X129055605Y-46524016D02*
X128346626Y-45930406D01*
X191718423Y-123650611D02*
X192058652Y-123921038D01*
X314174384Y-42712984D02*
X314493703Y-42640006D01*
X242711963Y-97666662D02*
X242831089Y-97346079D01*
X122353697Y-39701994D02*
X122207618Y-39490597D01*
X118979937Y-125262318D02*
X119407892Y-125735220D01*
X261473904Y-79541918D02*
X261584459Y-79066421D01*
X209962402Y-118148771D02*
X210615413Y-117829061D01*
X226649712Y-108665558D02*
X227139893Y-108236025D01*
X163909564Y-67098501D02*
X163029089Y-67368802D01*
X251019922Y-86898535D02*
X251540472Y-86576755D01*
X118521999Y-124772513D02*
X118979937Y-125262318D01*
X164568480Y-125769622D02*
X164841684Y-125573215D01*
X30520730Y-57036943D02*
X30679965Y-57275454D01*
X100644756Y-115750955D02*
X101348935Y-115775603D01*
X156906425Y-126585443D02*
X157625136Y-126902681D01*
X20340261Y-32305883D02*
X18960078Y-32914260D01*
X47683275Y-66873632D02*
X48667144Y-67498112D01*
X316344404Y-42037258D02*
X316269404Y-41917258D01*
X209962402Y-118148771D02*
X209962402Y-118148771D01*
X148328554Y-119585715D02*
X148582546Y-119719594D01*
X23421284Y-31023415D02*
X21823380Y-31677464D01*
X149858199Y-120600498D02*
X150141161Y-120839578D01*
X313640818Y-39823089D02*
X313125112Y-39487369D01*
X161724808Y-127167377D02*
X161415764Y-127271365D01*
X192716946Y-124476837D02*
X192716946Y-124476837D01*
X160289527Y-127498247D02*
X159998543Y-127507700D01*
X80235564Y-23019413D02*
X79863216Y-22939177D01*
X74762302Y-92548668D02*
X74762302Y-92548668D01*
D11*
X159999831Y-85534293D02*
X165556250Y-88742293D01*
D10*
X199669000Y-37805152D02*
X199538708Y-37855250D01*
X137302988Y-53906757D02*
X135233353Y-51969359D01*
X216697812Y-115945240D02*
X217335421Y-115870573D01*
X156000000Y-126120000D02*
X155723325Y-125952447D01*
X61712180Y-84137002D02*
X62151201Y-84224348D01*
X114690598Y-121146913D02*
X115139577Y-121522891D01*
X120859420Y-127502202D02*
X121345934Y-128144951D01*
X261374356Y-80020069D02*
X261473904Y-79541918D01*
X251540472Y-86576755D02*
X252067476Y-86275155D01*
X227139893Y-108236025D02*
X227655265Y-107817056D01*
X243781159Y-95188909D02*
X244151636Y-94454238D01*
X77411377Y-97970705D02*
X77411377Y-97970705D01*
X309211538Y-43921684D02*
X310626613Y-43552895D01*
X159184097Y-127422620D02*
X158899789Y-127356446D01*
X315546864Y-42380889D02*
X315776340Y-42313291D01*
X222681490Y-114708528D02*
X222681490Y-114708528D01*
X217335421Y-115870573D02*
X217991851Y-115813381D01*
X263208249Y-74999979D02*
X263397872Y-74755995D01*
X8178721Y-38718877D02*
X7461241Y-39144000D01*
X27600849Y-53685243D02*
X28333545Y-54411534D01*
X179969930Y-118519498D02*
X180889108Y-118671796D01*
X277595340Y-64395103D02*
X278745134Y-64015914D01*
X260349404Y-83907258D02*
X259949404Y-83917258D01*
X289339439Y-57272712D02*
X289498674Y-57034201D01*
X287387749Y-27830830D02*
X282470268Y-26510123D01*
X6894292Y-39490111D02*
X6378586Y-39825831D01*
X182753775Y-119111336D02*
X183694517Y-119398134D01*
X188703094Y-121649016D02*
X189110492Y-121884722D01*
X268459508Y-69661791D02*
X269418232Y-68888912D01*
X122207618Y-39490597D02*
X121958285Y-39112183D01*
X246371026Y-91046306D02*
X246776627Y-90567708D01*
X248083480Y-89207195D02*
X248546059Y-88781510D01*
X31240223Y-58233393D02*
X31364655Y-58481128D01*
X270381055Y-68167408D02*
X271352260Y-67495370D01*
D11*
X165556081Y-88742000D02*
X165556081Y-95158000D01*
D10*
X245257102Y-92545926D02*
X245610347Y-92036232D01*
X184637702Y-119729320D02*
X185580955Y-120104672D01*
X285219413Y-62594879D02*
X285219413Y-62594879D01*
X222681490Y-114708528D02*
X222880299Y-114138391D01*
X223102618Y-113580947D02*
X223348588Y-113036017D01*
X9697344Y-37847220D02*
X9697344Y-37847220D01*
X83788431Y-103892217D02*
X83788431Y-103892217D01*
X77996311Y-100395363D02*
X78103807Y-101003862D01*
X204879827Y-121520149D02*
X205328806Y-121144171D01*
X103321592Y-115947982D02*
X103943751Y-116040922D01*
X236230973Y-103889475D02*
X236230973Y-103889475D01*
X50601172Y-68891654D02*
X51559896Y-69664533D01*
X199186252Y-38001159D02*
X199083594Y-38047443D01*
X26815303Y-52957434D02*
X27600849Y-53685243D01*
X204081921Y-36129953D02*
X203015102Y-36562409D01*
X128346626Y-45930406D02*
X127704371Y-45382983D01*
X139252311Y-55749276D02*
X137302988Y-53906757D01*
X52518803Y-70490693D02*
X52518803Y-70490693D01*
X315974174Y-41602554D02*
X315631616Y-41304830D01*
X147500220Y-119215725D02*
X147500220Y-119215725D01*
X158704984Y-67853990D02*
X158492896Y-67802506D01*
X192807341Y-44949271D02*
X192315033Y-45380241D01*
X58434945Y-79069163D02*
X58545500Y-79544660D01*
X306830885Y-35848369D02*
X306830885Y-35848369D01*
X261069005Y-82349277D02*
X261101822Y-81901294D01*
X58869859Y-81444228D02*
X58917582Y-81904036D01*
X60499993Y-83961570D02*
X60499993Y-83961570D01*
X5239392Y-42576082D02*
X4984380Y-42515117D01*
X154608600Y-125118984D02*
X154302531Y-124850827D01*
X148631860Y-63757907D02*
X148631860Y-63757907D01*
X233556067Y-104723555D02*
X234778414Y-104330980D01*
X130121287Y-122370635D02*
X130510641Y-122127046D01*
X197975406Y-129024169D02*
X198102122Y-128871091D01*
X166044048Y-124548420D02*
X166397407Y-124213451D01*
X261584459Y-79066421D02*
X261705238Y-78596473D01*
X97139105Y-114141133D02*
X97337914Y-114711270D01*
X51559896Y-69664533D02*
X52518803Y-70490693D01*
X231238517Y-105603261D02*
X231638133Y-105430387D01*
X235692979Y-24382988D02*
X235692979Y-24382988D01*
X207561977Y-119510896D02*
X208020531Y-119222882D01*
X169878243Y-120836836D02*
X170161205Y-120597756D01*
X58645048Y-80022811D02*
X58732811Y-80500720D01*
X42710686Y-25367789D02*
X37549136Y-26512865D01*
X121115246Y-38137622D02*
X120935810Y-38050185D01*
X159840947Y-67998750D02*
X159688973Y-67994395D01*
X315199574Y-40956536D02*
X314705476Y-40579158D01*
X99911646Y-115741379D02*
X100644756Y-115750955D01*
X129748083Y-47093546D02*
X129748083Y-47093546D01*
X241841464Y-101516296D02*
X241819700Y-101724160D01*
X248546059Y-88781510D02*
X249020592Y-88371098D01*
X266150383Y-71764257D02*
X266844587Y-71090982D01*
X58977478Y-82878285D02*
X58989852Y-83086834D01*
X167665342Y-122958763D02*
X167665342Y-122958763D01*
X103943751Y-116040922D02*
X104553830Y-116152937D01*
X117004302Y-36565151D02*
X115937483Y-36132695D01*
X57418454Y-76058212D02*
X57584199Y-76434058D01*
X137302988Y-53906757D02*
X137302988Y-53906757D01*
X204081921Y-36129953D02*
X204081921Y-36129953D01*
X288779181Y-58230651D02*
X288909159Y-57987672D01*
X252067476Y-86275155D02*
X252600017Y-85994554D01*
X171387544Y-63755165D02*
X171387544Y-63755165D01*
X316109404Y-42227258D02*
X316389404Y-42127258D01*
X77864386Y-99740670D02*
X77996311Y-100395363D01*
X226184583Y-109105833D02*
X226649712Y-108665558D01*
D11*
X154443750Y-88742293D02*
X160000169Y-85534293D01*
D10*
X173245512Y-118949780D02*
X174002761Y-118733633D01*
X120531629Y-127074711D02*
X120859420Y-127502202D01*
X70017554Y-87602105D02*
X70513243Y-87979518D01*
X110562694Y-118411401D02*
X111053544Y-118676032D01*
X158704984Y-67853990D02*
X158896734Y-67896020D01*
X252966926Y-85816910D02*
X253357870Y-85641489D01*
X66335665Y-22436081D02*
X59928795Y-22932488D01*
X127302458Y-124479579D02*
X127302458Y-124479579D01*
X48143210Y-24392957D02*
X42710686Y-25367789D01*
X287323871Y-62280678D02*
X287323871Y-62280678D01*
X60499993Y-83961570D02*
X60499993Y-83961570D01*
X130908912Y-121887464D02*
X131316310Y-121651758D01*
X6894292Y-39490111D02*
X6894292Y-39490111D01*
X171436858Y-119716852D02*
X171690850Y-119582973D01*
X31711757Y-59267413D02*
X31821085Y-59548720D01*
X171387544Y-63755165D02*
X171387544Y-63755165D01*
X5842655Y-40196922D02*
X5313928Y-40581900D01*
X25980931Y-52231145D02*
X26815303Y-52957434D01*
X142497213Y-58739450D02*
X140970606Y-57348771D01*
X151492888Y-122103638D02*
X152354062Y-122961505D01*
X208965860Y-118673290D02*
X209456710Y-118408659D01*
X140970606Y-57348771D02*
X139252311Y-55749276D01*
X77307441Y-97669404D02*
X77411377Y-97970705D01*
X31928406Y-59842057D02*
X32034428Y-60148881D01*
X122376636Y-128997596D02*
X122506539Y-128883423D01*
X310322060Y-37844478D02*
X308601300Y-36868996D01*
X302348421Y-33505441D02*
X301059326Y-32911518D01*
X304182407Y-45717806D02*
X305043890Y-45326305D01*
X276483907Y-64810405D02*
X277595340Y-64395103D01*
X76910471Y-96662038D02*
X77188315Y-97348821D01*
X145230847Y-118567062D02*
X146016643Y-118736375D01*
X122207618Y-39490597D02*
X122207618Y-39490597D01*
X31821085Y-59548720D02*
X31928406Y-59842057D01*
X53869021Y-71766999D02*
X54569937Y-72476680D01*
X66661534Y-85644231D02*
X67052478Y-85819652D01*
X165410804Y-125116242D02*
X165120767Y-125356687D01*
X169570450Y-64979950D02*
X169235855Y-65167031D01*
X80612699Y-23113694D02*
X80235564Y-23019413D01*
X244901560Y-93108279D02*
X245257102Y-92545926D01*
X239143899Y-103043252D02*
X239822540Y-102859189D01*
X70513243Y-87979518D02*
X70998812Y-88373840D01*
X5845020Y-42715726D02*
X5845020Y-42715726D01*
X6894292Y-39490111D02*
X6894292Y-39490111D01*
X209962402Y-118148771D02*
X209962402Y-118148771D01*
X167665342Y-122958763D02*
X166782025Y-123839382D01*
X235692979Y-24382988D02*
X231335207Y-25967044D01*
X170939176Y-120018084D02*
X171187571Y-119860907D01*
X31484249Y-58735073D02*
X31599714Y-58996683D01*
X123216094Y-128224525D02*
X123216094Y-128224525D01*
X113801098Y-120448858D02*
X114245118Y-120789411D01*
X118084657Y-36987326D02*
X117004302Y-36565151D01*
X198673470Y-128142209D02*
X198264286Y-128668546D01*
X5845020Y-42715726D02*
X5845020Y-42715726D01*
X314176749Y-40194180D02*
X313640818Y-39823089D01*
X238325115Y-103274735D02*
X239143899Y-103043252D01*
X261069005Y-82349277D02*
X261069005Y-82349277D01*
X159236359Y-67953630D02*
X159073534Y-67927786D01*
X308601300Y-36868996D02*
X306830885Y-35848369D01*
X121958285Y-39112183D02*
X121719977Y-38764168D01*
X58950399Y-82352019D02*
X58950399Y-82352019D01*
X203963224Y-122333634D02*
X204425312Y-121916128D01*
X133497500Y-120526711D02*
X133497500Y-120526711D01*
X208487812Y-118944189D02*
X208965860Y-118673290D01*
X161120463Y-127356446D02*
X160836155Y-127422620D01*
X4243064Y-42316033D02*
X4472540Y-42383631D01*
X231638133Y-105430387D02*
X232522963Y-105084318D01*
X197187489Y-128584015D02*
X197359675Y-128742458D01*
X242831089Y-97346079D02*
X243108933Y-96659296D01*
X40081832Y-63673671D02*
X41274270Y-64018656D01*
X260999404Y-83697258D02*
X261009404Y-83437258D01*
X78199704Y-101726902D02*
X78226155Y-102071417D01*
X199837642Y-126636455D02*
X200211562Y-126190698D01*
X222681490Y-114708528D02*
X222681490Y-114708528D01*
X162029681Y-67665833D02*
X161765168Y-67738944D01*
X137302988Y-53906757D02*
X137302988Y-53906757D01*
X255096447Y-84981310D02*
X256024733Y-84689620D01*
X261029552Y-83084092D02*
X261041926Y-82875543D01*
X198577081Y-38380891D02*
X198499676Y-38482434D01*
X127212063Y-44952013D02*
X127212063Y-44952013D01*
X150765422Y-121404175D02*
X151114348Y-121735577D01*
X243108933Y-96659296D02*
X243429607Y-95932084D01*
X281176935Y-63358240D02*
X282467509Y-63075941D01*
X105751229Y-116437392D02*
X106345289Y-116611433D01*
X6378586Y-39825831D02*
X5842655Y-40196922D01*
X119781378Y-37607307D02*
X119454617Y-37495477D01*
X288535155Y-58732331D02*
X288654749Y-58478386D01*
X150448954Y-64982692D02*
X150116155Y-64781417D01*
X278745134Y-64015914D02*
X279937572Y-63670929D01*
X151128491Y-65346486D02*
X150783549Y-65169773D01*
X303558276Y-34090499D02*
X302348421Y-33505441D01*
X131167689Y-48302856D02*
X130376762Y-47619133D01*
X88780887Y-105606003D02*
X89158799Y-105781624D01*
X152354062Y-122961505D02*
X152354062Y-122961505D01*
X5239392Y-42576082D02*
X5525701Y-42642748D01*
X295837599Y-50792546D02*
X296794307Y-50089055D01*
X94690486Y-110022061D02*
X95081302Y-110495626D01*
X76451056Y-22552011D02*
X76451056Y-22552011D01*
X122506539Y-128883423D02*
X122659729Y-128745200D01*
X264773317Y-73186188D02*
X265449467Y-72473938D01*
X299679143Y-32303141D02*
X298196024Y-31674722D01*
X52518803Y-70490693D02*
X52518803Y-70490693D01*
X121917282Y-128873833D02*
X122043998Y-129026911D01*
X163112979Y-126582701D02*
X163432930Y-126429960D01*
X95081302Y-110495626D02*
X95447626Y-110980641D01*
X97337914Y-114711270D02*
X97337914Y-114711270D01*
X239822540Y-102859189D02*
X240370076Y-102720168D01*
X45660411Y-65759719D02*
X46682458Y-66294804D01*
X94275039Y-109559770D02*
X94690486Y-110022061D01*
X292088065Y-29332551D02*
X287387749Y-27830830D01*
X223912041Y-111982992D02*
X224229804Y-111474543D01*
X117508266Y-123733317D02*
X117508266Y-123733317D01*
X3910000Y-42230000D02*
X4243064Y-42316033D01*
X73242777Y-90570450D02*
X73648378Y-91049048D01*
X220107758Y-115738637D02*
X220107758Y-115738637D01*
X120935810Y-38050185D02*
X120833152Y-38003901D01*
X118032100Y-124263586D02*
X117508266Y-123733317D01*
X173699087Y-61997935D02*
X172545823Y-62895436D01*
X119454617Y-37495477D02*
X119052398Y-37350839D01*
X3819582Y-41830964D02*
X3750000Y-41920000D01*
X287773997Y-60806066D02*
X287879545Y-60467904D01*
X214864205Y-116282084D02*
X215465574Y-116150195D01*
X101220706Y-30484418D02*
X93906946Y-27848010D01*
X126325073Y-125350993D02*
X127302458Y-124479579D01*
X214268175Y-116434650D02*
X214864205Y-116282084D01*
X152354062Y-122961505D02*
X152354062Y-122961505D01*
X122659729Y-128745200D02*
X122831915Y-128586757D01*
X185580955Y-120104672D02*
X186521904Y-120523969D01*
X148631860Y-63757907D02*
X147473581Y-62898178D01*
X77681713Y-22657518D02*
X76451056Y-22552011D01*
X93834821Y-109108575D02*
X94275039Y-109559770D01*
X153621997Y-124216193D02*
X153975356Y-124551162D01*
X296598120Y-31020673D02*
X296598120Y-31020673D01*
X54569937Y-72476680D02*
X55246087Y-73188930D01*
X4819830Y-40959278D02*
X4387788Y-41307572D01*
X288909159Y-57987672D02*
X289045389Y-57747993D01*
X204425312Y-121916128D02*
X204879827Y-121520149D01*
X41274270Y-64018656D02*
X42424064Y-64397845D01*
X110057002Y-118151513D02*
X110562694Y-118411401D01*
X107540979Y-117027147D02*
X108149349Y-117270421D01*
X87496441Y-105087060D02*
X88381271Y-105433129D01*
X167665342Y-122958763D02*
X168526516Y-122100896D01*
X252600017Y-85994554D02*
X252966926Y-85816910D01*
X3750000Y-41920000D02*
X3675000Y-42040000D01*
X144418876Y-118444360D02*
X145230847Y-118567062D01*
X203015102Y-36562409D02*
X201934747Y-36984584D01*
X127627981Y-124199144D02*
X127960752Y-123923780D01*
X58732811Y-80500720D02*
X58808008Y-80975490D01*
X124140257Y-127353236D02*
X125223795Y-126352135D01*
X288198319Y-59545978D02*
X288307647Y-59264671D01*
X156286024Y-126278820D02*
X156586474Y-126432702D01*
X147791204Y-119336724D02*
X148066045Y-119459073D01*
X168905056Y-121732835D02*
X168526516Y-122100896D01*
X93906946Y-27848010D02*
X93906946Y-27848010D01*
X170429806Y-120383565D02*
X170687858Y-120191322D01*
X194795609Y-126349393D02*
X195879147Y-127350494D01*
X153307773Y-66208350D02*
X152310936Y-65852648D01*
X115937483Y-36132695D02*
X115937483Y-36132695D01*
X242023093Y-100392621D02*
X242155018Y-99737928D01*
X288654749Y-58478386D02*
X288779181Y-58230651D01*
X186521904Y-120523969D02*
X187424054Y-120963822D01*
X195636535Y-42083534D02*
X194887613Y-42886986D01*
X257868203Y-84221606D02*
X258307224Y-84134260D01*
X296598120Y-31020673D02*
X292088065Y-29332551D01*
X57073455Y-75386873D02*
X57073455Y-75386873D01*
X271352260Y-67495370D02*
X272336129Y-66870890D01*
X287323871Y-62280678D02*
X287773997Y-60806066D01*
X249506161Y-87976776D02*
X250001850Y-87599363D01*
X298196024Y-31674722D02*
X296598120Y-31020673D01*
X259136105Y-84001907D02*
X259519411Y-83958828D01*
X187424054Y-120963822D02*
X187860083Y-121188699D01*
X260669404Y-83907258D02*
X260349404Y-83907258D01*
X71935924Y-89209937D02*
X72385633Y-89650077D01*
X165716873Y-124848085D02*
X166044048Y-124548420D01*
X69512662Y-87242419D02*
X70017554Y-87602105D01*
X108769230Y-117538372D02*
X109403991Y-117831803D01*
X244789233Y-22460305D02*
X243568348Y-22549269D01*
X31110245Y-57990414D02*
X31240223Y-58233393D01*
D11*
X160000000Y-98366000D02*
X165556419Y-95158000D01*
D10*
X121519728Y-38485176D02*
X121442323Y-38383633D01*
X89520127Y-105962130D02*
X89869993Y-106149662D01*
X200611512Y-125732478D02*
X201039467Y-125259576D01*
X222349460Y-115731806D02*
X222681490Y-114708528D01*
X151492888Y-122103638D02*
X151114348Y-121735577D01*
X196803310Y-128221783D02*
X197000603Y-128409180D01*
X179062687Y-118412477D02*
X179969930Y-118519498D01*
X138201557Y-118871892D02*
X139130296Y-118674538D01*
X128300981Y-123653353D02*
X128648876Y-123387731D01*
X162394268Y-126899939D02*
X162394268Y-126899939D01*
X56398174Y-74485788D02*
X56621532Y-74758737D01*
X191672778Y-45927664D02*
X190963799Y-46521274D01*
X177522191Y-58736708D02*
X176147930Y-59952779D01*
X260669404Y-83907258D02*
X260989404Y-83917258D01*
X240534937Y-22867640D02*
X240156188Y-22936435D01*
X206662902Y-120120987D02*
X207110113Y-119809755D01*
X239406705Y-23110952D02*
X239013595Y-23221884D01*
X53174817Y-71093724D02*
X53869021Y-71766999D01*
X68478932Y-86579497D02*
X68999482Y-86901277D01*
X91823435Y-107411216D02*
X92364139Y-107819798D01*
X301988338Y-46837558D02*
X303081078Y-46261725D01*
X213674115Y-116608691D02*
X214268175Y-116434650D01*
X115594092Y-121918870D02*
X116056180Y-122336376D01*
X4472540Y-42383631D02*
X4561400Y-42407842D01*
X4561400Y-42407842D02*
X4758953Y-42459241D01*
X197000603Y-128409180D02*
X197187489Y-128584015D01*
X186927221Y-50012018D02*
X184786051Y-51966617D01*
X201934747Y-36984584D02*
X200967006Y-37348097D01*
X186521904Y-120523969D02*
X186521904Y-120523969D01*
X84326425Y-24385730D02*
X84326425Y-24385730D01*
X190963799Y-46521274D02*
X190271321Y-47090804D01*
X79484467Y-22870382D02*
X79088130Y-22810423D01*
X228762144Y-107010102D02*
X229463581Y-106551621D01*
X202511138Y-123730575D02*
X203491524Y-122774194D01*
X291010035Y-55130525D02*
X291685859Y-54408792D01*
X37549136Y-26512865D02*
X32631655Y-27833572D01*
X287773997Y-60806066D02*
X287773997Y-60806066D01*
X242456419Y-98478471D02*
X242608027Y-97967963D01*
X107027711Y-32630185D02*
X101220706Y-30484418D01*
X24181805Y-50795288D02*
X25101757Y-51509417D01*
X63062012Y-84436557D02*
X63994671Y-84692362D01*
X130510641Y-122127046D02*
X130908912Y-121887464D01*
X36205831Y-62824865D02*
X37551895Y-63078683D01*
X212478425Y-117024405D02*
X213078655Y-116805010D01*
X148582546Y-119719594D02*
X148831833Y-119863649D01*
X127960752Y-123923780D02*
X128300981Y-123653353D01*
X300908211Y-47442266D02*
X301988338Y-46837558D01*
X262945949Y-75384131D02*
X263056297Y-75210767D01*
X120350404Y-37807894D02*
X120214720Y-37757509D01*
X133497500Y-120526711D02*
X133497500Y-120526711D01*
X163029089Y-67368802D02*
X162323961Y-67579524D01*
X236230973Y-103889475D02*
X236230973Y-103889475D01*
X93369692Y-108668300D02*
X93834821Y-109108575D01*
X119781378Y-37607307D02*
X119781378Y-37607307D01*
X86463337Y-104726297D02*
X87496441Y-105087060D01*
X67419387Y-85997296D02*
X67951928Y-86277897D01*
X182716416Y-53904015D02*
X180767093Y-55746534D01*
X196803310Y-128221783D02*
X196803310Y-128221783D01*
X79649328Y-102722910D02*
X80196864Y-102861931D01*
X287323871Y-62280678D02*
X287323871Y-62280678D01*
X59670000Y-83910000D02*
X59350000Y-83910000D01*
X205774286Y-120786669D02*
X206218306Y-120446116D01*
X216075653Y-116038180D02*
X216697812Y-115945240D01*
X23421284Y-31023415D02*
X23421284Y-31023415D01*
X227655265Y-107817056D02*
X228195969Y-107408474D01*
X256024733Y-84689620D02*
X256957392Y-84433815D01*
X306830885Y-35848369D02*
X306830885Y-35848369D01*
X312268046Y-43153860D02*
X314174384Y-42712984D01*
X148631860Y-63757907D02*
X148631860Y-63757907D01*
X289845103Y-56548161D02*
X290395109Y-55844661D01*
X72385633Y-89650077D02*
X72821557Y-90103854D01*
X172519184Y-119212983D02*
X173245512Y-118949780D01*
X104553830Y-116152937D02*
X105155199Y-116284826D01*
X38842469Y-63360982D02*
X40081832Y-63673671D01*
X122546020Y-39956928D02*
X122353697Y-39701994D01*
X30174301Y-56550903D02*
X30352411Y-56795911D01*
X132159321Y-121191441D02*
X132595350Y-120966564D01*
X13188519Y-35851111D02*
X13188519Y-35851111D01*
X123216094Y-128224525D02*
X124140257Y-127353236D01*
X305938998Y-44962538D02*
X306906278Y-44614910D01*
X163909564Y-67098501D02*
X163909564Y-67098501D01*
X172519184Y-119212983D02*
X172519184Y-119212983D01*
X34799991Y-62597621D02*
X34799991Y-62597621D01*
X293204101Y-52954692D02*
X294038473Y-52228403D01*
X109403991Y-117831803D02*
X110057002Y-118151513D01*
X121442323Y-38383633D02*
X121384569Y-38313829D01*
X122831915Y-128586757D02*
X123018801Y-128411922D01*
X58950399Y-82352019D02*
X58950399Y-82352019D01*
X76451056Y-22552011D02*
X75230171Y-22463047D01*
X163733380Y-126276078D02*
X164019404Y-126117258D01*
X129740642Y-122618366D02*
X130121287Y-122370635D01*
X149331546Y-120194064D02*
X149589598Y-120386307D01*
X283813573Y-62822123D02*
X285219413Y-62594879D01*
X74409057Y-92038974D02*
X74762302Y-92548668D01*
X63994671Y-84692362D02*
X64922957Y-84984052D01*
X200238026Y-37604565D02*
X200238026Y-37604565D01*
X32139859Y-60470646D02*
X32245407Y-60808808D01*
X161120463Y-127356446D02*
X161415764Y-127271365D01*
X14975514Y-45329047D02*
X15836997Y-45720548D01*
X182716416Y-53904015D02*
X182716416Y-53904015D01*
X160311026Y-67994395D02*
X160000000Y-68000000D01*
X153975356Y-124551162D02*
X154302531Y-124850827D01*
X190271321Y-47090804D02*
X189642642Y-47616391D01*
X115139577Y-121522891D02*
X115594092Y-121918870D01*
X176436299Y-118365305D02*
X177293498Y-118335159D01*
X78226155Y-102071417D02*
X78226155Y-102381417D01*
X116527880Y-122776936D02*
X117508266Y-123733317D01*
X128648876Y-123387731D02*
X129004645Y-123126781D01*
X81884700Y-23506858D02*
X81426080Y-23354812D01*
X294038473Y-52228403D02*
X294917647Y-51506675D01*
X202511138Y-123730575D02*
X202511138Y-123730575D01*
X8954750Y-38268649D02*
X8178721Y-38718877D01*
X10807866Y-43924426D02*
X12035129Y-44274566D01*
X127212063Y-44952013D02*
X127212063Y-44952013D01*
X241356387Y-22753954D02*
X240931274Y-22807681D01*
X143871474Y-59955521D02*
X142497213Y-58739450D01*
X120859420Y-127502202D02*
X120859420Y-127502202D01*
X133092183Y-50014760D02*
X131167689Y-48302856D01*
X58808008Y-80975490D02*
X58869859Y-81444228D01*
X266844587Y-71090982D02*
X267500601Y-70487951D01*
X289845103Y-56548161D02*
X289845103Y-56548161D01*
X279937572Y-63670929D02*
X281176935Y-63358240D01*
X232522963Y-105084318D02*
X233556067Y-104723555D01*
X245257102Y-92545926D02*
X245257102Y-92545926D01*
X90555823Y-106554363D02*
X91257260Y-107012844D01*
X81005809Y-23224626D02*
X80612699Y-23113694D01*
X200238026Y-37604565D02*
X200089804Y-37654206D01*
X78177940Y-101519038D02*
X78103807Y-101003862D01*
X170161205Y-120597756D02*
X170429806Y-120383565D01*
X253769572Y-85469255D02*
X254198753Y-85301171D01*
X165468137Y-66611609D02*
X163909564Y-67098501D01*
X159998543Y-127507700D02*
X159753892Y-127498247D01*
X7751358Y-43156602D02*
X9392791Y-43555637D01*
X197512865Y-128880681D02*
X197642768Y-128994854D01*
X247633771Y-89647335D02*
X248083480Y-89207195D01*
X88381271Y-105433129D02*
X88780887Y-105606003D01*
X190278762Y-122615624D02*
X190650906Y-122867628D01*
X243568348Y-22549269D02*
X243568348Y-22549269D01*
X59020000Y-83700000D02*
X59030000Y-83920000D01*
X245981960Y-91536086D02*
X246371026Y-91046306D01*
X285219413Y-62594879D02*
X285219413Y-62594879D01*
X147473581Y-62898178D02*
X146320317Y-62000677D01*
X30974015Y-57750735D02*
X31110245Y-57990414D01*
X81694289Y-103277477D02*
X82662252Y-103558759D01*
X315260451Y-42456499D02*
X315458004Y-42405100D01*
X68749132Y-22335234D02*
X67510615Y-22374586D01*
X213078655Y-116805010D02*
X213674115Y-116608691D01*
X196970594Y-40572200D02*
X196344587Y-41296960D01*
X29624295Y-55847403D02*
X30174301Y-56550903D01*
X192058652Y-123921038D02*
X192391423Y-124196402D01*
X267500601Y-70487951D02*
X268459508Y-69661791D01*
X13188519Y-35851111D02*
X11418104Y-36871738D01*
X43535497Y-64813147D02*
X44612852Y-65266469D01*
X116056180Y-122336376D02*
X116527880Y-122776936D01*
X32695533Y-62283420D02*
X34799991Y-62597621D01*
X60070000Y-83920000D02*
X59670000Y-83910000D01*
X75230171Y-22463047D02*
X73958843Y-22394929D01*
X190650906Y-122867628D02*
X191014759Y-123124039D01*
X167708468Y-65849906D02*
X166711631Y-66205608D01*
X4387788Y-41307572D02*
X4045230Y-41605296D01*
X262600950Y-76055470D02*
X262771458Y-75705443D01*
X56621532Y-74758737D02*
X56811155Y-75002721D01*
X91257260Y-107012844D02*
X91823435Y-107411216D01*
X161724808Y-127167377D02*
X162049494Y-127041741D01*
X136324887Y-119400876D02*
X137265629Y-119114078D01*
X46682458Y-66294804D02*
X47683275Y-66873632D01*
X220107758Y-115738637D02*
X222349460Y-115731806D01*
X267500601Y-70487951D02*
X267500601Y-70487951D01*
X62151201Y-84224348D02*
X63062012Y-84436557D01*
X263056297Y-75210767D02*
X263208249Y-74999979D01*
X253683739Y-22433339D02*
X252508789Y-22371844D01*
X148831833Y-119863649D02*
X149080228Y-120020826D01*
X192315033Y-45380241D02*
X191672778Y-45927664D01*
X162394268Y-126899939D02*
X162394268Y-126899939D01*
X32631655Y-27833572D02*
X27931339Y-29335293D01*
X225744365Y-109557028D02*
X226184583Y-109105833D01*
X192807341Y-44949271D02*
X192807341Y-44949271D01*
X188286360Y-121417053D02*
X188703094Y-121649016D01*
X30174301Y-56550903D02*
X30174301Y-56550903D01*
X193431843Y-44364789D02*
X192807341Y-44949271D01*
X261211396Y-80972748D02*
X261286593Y-80497978D01*
X259519411Y-83958828D02*
X259519411Y-83958828D01*
X52518803Y-70490693D02*
X53174817Y-71093724D01*
X85240990Y-104333722D02*
X86463337Y-104726297D01*
X225328918Y-110019319D02*
X225744365Y-109557028D01*
X32245407Y-60808808D02*
X32245407Y-60808808D01*
X12035129Y-44274566D02*
X13113126Y-44617652D01*
X249987188Y-22315066D02*
X248678541Y-22319351D01*
X89158799Y-105781624D02*
X89520127Y-105962130D01*
X262435205Y-76431316D02*
X262275003Y-76830084D01*
X189642642Y-47616391D02*
X188851715Y-48300114D01*
X207110113Y-119809755D02*
X207561977Y-119510896D01*
X159390596Y-67972742D02*
X159236359Y-67953630D01*
X73648378Y-91049048D02*
X74037444Y-91538828D01*
X141849652Y-118353699D02*
X142725906Y-118337901D01*
X228195969Y-107408474D02*
X228762144Y-107010102D01*
X174886676Y-61028452D02*
X173699087Y-61997935D01*
X240156188Y-22936435D02*
X239783840Y-23016671D01*
X22235659Y-49401985D02*
X23225097Y-50091797D01*
X89869993Y-106149662D02*
X90555823Y-106554363D01*
X134438449Y-120107414D02*
X135381702Y-119732062D01*
X77411377Y-97970705D02*
X77562985Y-98481213D01*
X67510615Y-22374586D02*
X66335665Y-22436081D01*
X236230973Y-103889475D02*
X237357152Y-103556017D01*
X193694331Y-125348251D02*
X194795609Y-126349393D01*
X3916078Y-41728479D02*
X3819582Y-41830964D01*
X267500601Y-70487951D02*
X267500601Y-70487951D01*
X242608027Y-97967963D02*
X242608027Y-97967963D01*
X282467509Y-63075941D02*
X283813573Y-62822123D01*
X169253982Y-121401433D02*
X169577106Y-121103748D01*
X75490317Y-93755281D02*
X75867768Y-94456980D01*
X230149411Y-106146920D02*
X230499277Y-105959388D01*
X272336129Y-66870890D02*
X273336946Y-66292062D01*
X28333545Y-54411534D02*
X29009369Y-55133267D01*
X259519411Y-83958828D02*
X259519411Y-83958828D01*
X77716966Y-99086910D02*
X77864386Y-99740670D01*
X165410804Y-125116242D02*
X165716873Y-124848085D01*
X157969910Y-127044483D02*
X158295444Y-127167377D01*
X150783549Y-65169773D02*
X150448954Y-64982692D01*
X170687858Y-120191322D02*
X170939176Y-120018084D01*
X171387544Y-63755165D02*
X170597672Y-64318250D01*
X60499993Y-83961570D02*
X60883299Y-84004649D01*
X34799991Y-62597621D02*
X36205831Y-62824865D01*
X56811155Y-75002721D02*
X56963107Y-75213509D01*
X142725906Y-118337901D02*
X143583105Y-118368047D01*
X289045389Y-57747993D02*
X289188580Y-57510158D01*
X198634835Y-38311087D02*
X198577081Y-38380891D01*
X238134704Y-23504116D02*
X237057665Y-23884205D01*
X290395109Y-55844661D02*
X291010035Y-55130525D01*
X223618349Y-112503425D02*
X223912041Y-111982992D01*
X150116155Y-64781417D02*
X149421732Y-64320992D01*
X262435205Y-76431316D02*
X262600950Y-76055470D01*
X197849404Y-129187258D02*
X197975406Y-129024169D01*
X79649328Y-102722910D02*
X78226155Y-102381417D01*
X80875505Y-103045994D02*
X81694289Y-103277477D01*
X250001850Y-87599363D02*
X250506742Y-87239677D01*
X88684197Y-25969786D02*
X84326425Y-24385730D01*
X256957392Y-84433815D02*
X257868203Y-84221606D01*
X19111193Y-47445008D02*
X20174683Y-48075551D01*
X198634835Y-38311087D02*
X198763272Y-38213697D01*
X72821557Y-90103854D02*
X73242777Y-90570450D01*
X158604488Y-127271365D02*
X158899789Y-127356446D01*
X179048798Y-57346029D02*
X177522191Y-58736708D01*
X198673470Y-128142209D02*
X199159984Y-127499460D01*
X222880299Y-114138391D02*
X223102618Y-113580947D01*
X151883633Y-65684099D02*
X151492335Y-65516653D01*
X292418555Y-53682501D02*
X293204101Y-52954692D01*
X127704371Y-45382983D02*
X127212063Y-44952013D01*
X197811786Y-39487855D02*
X197665707Y-39699252D01*
X34799991Y-62597621D02*
X34799991Y-62597621D01*
X171187571Y-119860907D02*
X171436858Y-119716852D01*
X159840947Y-67998750D02*
X160000000Y-68000000D01*
X224571778Y-110977899D02*
X224938102Y-110492884D01*
X156990315Y-67371544D02*
X156109840Y-67101243D01*
X190271321Y-47090804D02*
X190271321Y-47090804D01*
X175600528Y-118441618D02*
X176436299Y-118365305D01*
X226112458Y-27845268D02*
X226112458Y-27845268D01*
X191370528Y-123384989D02*
X191718423Y-123650611D01*
X162029681Y-67665833D02*
X162323961Y-67579524D01*
X130376762Y-47619133D02*
X129748083Y-47093546D01*
X61288454Y-84063448D02*
X61712180Y-84137002D01*
X57073455Y-75386873D02*
X57247946Y-75708185D01*
X242337691Y-22654776D02*
X241356387Y-22753954D01*
X7461241Y-39144000D02*
X6894292Y-39490111D01*
X202511138Y-123730575D02*
X201987304Y-124260844D01*
X58545500Y-79544660D02*
X58645048Y-80022811D01*
X164296079Y-125949705D02*
X164019404Y-126117258D01*
X162049494Y-127041741D02*
X162394268Y-126899939D01*
X310322060Y-37844478D02*
X310322060Y-37844478D01*
X182716416Y-53904015D02*
X182716416Y-53904015D01*
X158492896Y-67802506D02*
X157992042Y-67667551D01*
X137265629Y-119114078D02*
X138201557Y-118871892D01*
X314493703Y-42640006D02*
X314780012Y-42573340D01*
X96670816Y-113038759D02*
X96916786Y-113583689D01*
X78199704Y-101726902D02*
X78177940Y-101519038D01*
X313125112Y-39487369D02*
X313125112Y-39487369D01*
X162394268Y-126899939D02*
X163112979Y-126582701D01*
X310626613Y-43552895D02*
X312268046Y-43153860D01*
X198763272Y-38213697D02*
X198904158Y-38134880D01*
X156109840Y-67101243D02*
X156109840Y-67101243D01*
X184786051Y-51966617D02*
X182716416Y-53904015D01*
X146773892Y-118952522D02*
X147500220Y-119215725D01*
X208020531Y-119222882D02*
X208487812Y-118944189D01*
X99911646Y-115741379D02*
X99911646Y-115741379D01*
X261286593Y-80497978D02*
X261374356Y-80020069D01*
X199945154Y-37704363D02*
X199804684Y-37754767D01*
X237057665Y-23884205D02*
X235692979Y-24382988D01*
X119807842Y-126193440D02*
X120181762Y-126639197D01*
X181817847Y-118869150D02*
X182753775Y-119111336D01*
X301059326Y-32911518D02*
X299679143Y-32303141D01*
X160926466Y-67927786D02*
X161316739Y-67852272D01*
M02*
