%FSLAX45Y45*%
G04 Gerber Fmt 4.5, Leading zero omitted, Abs format (unit mm)*
G04 Created by KiCad (PCBNEW 6.0.2+dfsg-1) date 2022-06-30 23:45:21*
%MOMM*%
%LPD*%
G01*
G04 APERTURE LIST*
%TA.AperFunction,Profile*%
%ADD10C,0.120385*%
%TD*%
%TA.AperFunction,Profile*%
%ADD11C,0.100000*%
%TD*%
%ADD12C,0.200000*%
%ADD13C,0.220000*%
%ADD14C,0.500000*%
G04 APERTURE END LIST*
D10*
X29679431Y-5008906D02*
X29778374Y-4939924D01*
X14004947Y-11852224D02*
X14095672Y-11841522D01*
X12204400Y-12902691D02*
X12217000Y-12919000D01*
X969734Y-3784722D02*
X895475Y-3826865D01*
X26098940Y-8391726D02*
X26099940Y-8369726D01*
X16546814Y-6661161D02*
X16671163Y-6620561D01*
X15658647Y-12643270D02*
X15690642Y-12658544D01*
X26294595Y-7538413D02*
X26294595Y-7538413D01*
X15330777Y-6620835D02*
X15455127Y-6661435D01*
X19829943Y-3876143D02*
X19806112Y-3910944D01*
X13538170Y-11973206D02*
X13632489Y-11940088D01*
X5898985Y-8308683D02*
X5901000Y-8344000D01*
X12974808Y-4709355D02*
X12905560Y-4652402D01*
X11992960Y-3765695D02*
X11978138Y-3760731D01*
X2121751Y-4872889D02*
X2223566Y-4940199D01*
X7511784Y-9311102D02*
X7549032Y-9375528D01*
X4963835Y-6817015D02*
X5060117Y-6889165D01*
X26415341Y-7386717D02*
X26477332Y-7318619D01*
X15044230Y-12110649D02*
X15076542Y-12140417D01*
X21061541Y-11782906D02*
X21125017Y-11753563D01*
X17169085Y-11958297D02*
X17195336Y-11945633D01*
X7908813Y-2281042D02*
X7866302Y-2275670D01*
X12513179Y-4288973D02*
X12438287Y-4208628D01*
X5903000Y-8392000D02*
X5935000Y-8391000D01*
X28798498Y-6014614D02*
X28809100Y-5983931D01*
X26009061Y-2292975D02*
X25368374Y-2243334D01*
X12048070Y-3785799D02*
X12035040Y-3780789D01*
X25250879Y-2237184D02*
X25127027Y-2233249D01*
X22611246Y-2784527D02*
X21879870Y-3048168D01*
X28841969Y-5899394D02*
X28853515Y-5873233D01*
X8142608Y-2335481D02*
X8100581Y-2322463D01*
X27187619Y-2439022D02*
X26614579Y-2358024D01*
X28809100Y-5983931D02*
X28819832Y-5954598D01*
X7756298Y-9848121D02*
X7771697Y-9908691D01*
X19915998Y-12749946D02*
X19915998Y-12749946D01*
X9390695Y-2784801D02*
X8868420Y-2596979D01*
X6899948Y-8690128D02*
X6951266Y-8724242D01*
X17614793Y-5995278D02*
X17488668Y-6102845D01*
X20103947Y-12525958D02*
X20149741Y-12476977D01*
X28787954Y-6046790D02*
X28798498Y-6014614D01*
X23049928Y-10595939D02*
X23086060Y-10577888D01*
X11905240Y-3735084D02*
X11808466Y-3698733D01*
X1423174Y-3525912D02*
X1318852Y-3585111D01*
X10268398Y-11587331D02*
X10332159Y-11594798D01*
X14942173Y-6432099D02*
X14863186Y-6375791D01*
X3269553Y-6228342D02*
X3269553Y-6228342D01*
X12658756Y-4436753D02*
X12588041Y-4366512D01*
X5818394Y-7813771D02*
X5831417Y-7859921D01*
X11335650Y-12012373D02*
X11380110Y-12044886D01*
X28966699Y-5679317D02*
X28984510Y-5654816D01*
X29778374Y-4939924D02*
X29880189Y-4872615D01*
X7476230Y-9254867D02*
X7476230Y-9254867D01*
X12125613Y-3821644D02*
X12138457Y-3831383D01*
X17478856Y-11856432D02*
X17560053Y-11844162D01*
X20823744Y-3445329D02*
X20408192Y-3612995D01*
X17222820Y-11933398D02*
X17251918Y-11921298D01*
X1311313Y-4461765D02*
X1408041Y-4496528D01*
X17251918Y-11921298D02*
X17251918Y-11921298D01*
X11750827Y-12373332D02*
X11750827Y-12373332D01*
X2342128Y-3102341D02*
X2342128Y-3102341D01*
X3755189Y-6307868D02*
X3884247Y-6336098D01*
X3269553Y-6228342D02*
X3269553Y-6228342D01*
X19271695Y-12447684D02*
X19271695Y-12447684D01*
X28933944Y-5727271D02*
X28918858Y-5751016D01*
X29659812Y-3102067D02*
X29659812Y-3102067D01*
X25127027Y-2233249D02*
X24998719Y-2231507D01*
X5891758Y-8190404D02*
X5895040Y-8235202D01*
X28521941Y-6259488D02*
X28732387Y-6228068D01*
X8019686Y-10286193D02*
X8087550Y-10304599D01*
X24179325Y-10206868D02*
X24181970Y-10172416D01*
X24736333Y-2234513D02*
X24606056Y-2239219D01*
X9733791Y-11471127D02*
X9733791Y-11471127D01*
X14513273Y-6103119D02*
X14387147Y-5995552D01*
X24356835Y-2254927D02*
X24233769Y-2265478D01*
X12175512Y-12867129D02*
X12134593Y-12814495D01*
X5831417Y-7859921D02*
X5843494Y-7906916D01*
X26212113Y-7724888D02*
X26227500Y-7683008D01*
X31032206Y-3784448D02*
X31032206Y-3784448D01*
X24179325Y-10237868D02*
X24179325Y-10206868D01*
X12900464Y-12312678D02*
X12936850Y-12287037D01*
X21879870Y-3048168D02*
X21299169Y-3262744D01*
X584502Y-4271573D02*
X775136Y-4315660D01*
X2182338Y-3167746D02*
X2034026Y-3230588D01*
X15489864Y-12535943D02*
X15460860Y-12511898D01*
X20251114Y-12373057D02*
X20251114Y-12373057D01*
X3083082Y-5751290D02*
X3097401Y-5775073D01*
X16000000Y-6800000D02*
X16000000Y-6800000D01*
X26183546Y-7813497D02*
X26197435Y-7768481D01*
X19735968Y-12874246D02*
X19751287Y-12888068D01*
X27435899Y-6575698D02*
X27540655Y-6526373D01*
X19488761Y-4288699D02*
X19413899Y-4366238D01*
X12021472Y-3775751D02*
X12007425Y-3770710D01*
X17729350Y-11833516D02*
X17816975Y-11835096D01*
X20056479Y-3749273D02*
X20023803Y-3760456D01*
X11153159Y-11894693D02*
X11199887Y-11922562D01*
X15769544Y-6758227D02*
X15699031Y-6737154D01*
X5901000Y-8344000D02*
X5902000Y-8370000D01*
X16813577Y-6568136D02*
X16770847Y-6584991D01*
X10515520Y-11628483D02*
X10575123Y-11643739D01*
X16889091Y-6534374D02*
X16852707Y-6551391D01*
X19271695Y-12447684D02*
X19369433Y-12534825D01*
X367500Y-4204000D02*
X363000Y-4213000D01*
X11978138Y-3760731D02*
X11978138Y-3760731D01*
X24677663Y-9056771D02*
X24719785Y-9010111D01*
X19781179Y-3948785D02*
X19781179Y-3948785D01*
X11178197Y-3445604D02*
X10702771Y-3263018D01*
X11005700Y-11815151D02*
X11005700Y-11815151D01*
X12522379Y-12635213D02*
X12632507Y-12535099D01*
X9236414Y-10781980D02*
X9287951Y-10823877D01*
X19908359Y-3804744D02*
X19890416Y-3813488D01*
X31417438Y-4271298D02*
X31417438Y-4271298D01*
X22493810Y-11049288D02*
X22532892Y-11001932D01*
X16766534Y-12295876D02*
X16766534Y-12295876D01*
X3203443Y-6014888D02*
X3213986Y-6047065D01*
X25419875Y-8530117D02*
X25509645Y-8498131D01*
X5804505Y-7768755D02*
X5818394Y-7813771D01*
X18885172Y-4830011D02*
X18692722Y-5001202D01*
X23086060Y-10577888D02*
X23123852Y-10560326D01*
X8432643Y-2438573D02*
X8432643Y-2438573D01*
X27540655Y-6526373D02*
X27648391Y-6481040D01*
X23901359Y-2322188D02*
X23859332Y-2335207D01*
X3224541Y-6080881D02*
X3224541Y-6080881D01*
X7645106Y-2255201D02*
X7645106Y-2255201D01*
X11593748Y-3613269D02*
X11178197Y-3445604D01*
X19766571Y-3969925D02*
X19747338Y-3995419D01*
X26110182Y-8190129D02*
X26114954Y-8144149D01*
X1803107Y-4684030D02*
X1911119Y-4744501D01*
X15323738Y-12384212D02*
X15362200Y-12421619D01*
X939279Y-4355564D02*
X1080787Y-4392443D01*
X5586599Y-7386991D02*
X5639817Y-7448579D01*
X12007425Y-3770710D02*
X11992960Y-3765695D01*
X16639741Y-12421345D02*
X16678202Y-12383938D01*
X22334859Y-11303602D02*
X22361835Y-11250342D01*
X6492296Y-8498405D02*
X6582065Y-8530391D01*
X12175512Y-12867129D02*
X12191728Y-12887383D01*
X24342961Y-9593208D02*
X24378116Y-9518891D01*
X16092647Y-6792779D02*
X16060940Y-6797274D01*
X25335787Y-8564149D02*
X25376957Y-8546926D01*
X4866714Y-6749811D02*
X4963835Y-6817015D01*
X22946358Y-10655162D02*
X23014941Y-10614692D01*
X16990325Y-6477867D02*
X16957045Y-6497995D01*
X20945671Y-11840866D02*
X20996240Y-11814877D01*
X18652190Y-12052397D02*
X18652190Y-12052397D01*
X24902059Y-8837110D02*
X24950616Y-8797678D01*
X7395884Y-2239493D02*
X7265607Y-2234787D01*
X26197435Y-7768481D02*
X26212113Y-7724888D01*
X14095672Y-11841522D02*
X14184965Y-11835370D01*
X30798427Y-4427182D02*
X30921154Y-4392168D01*
X21125017Y-11753563D02*
X21187006Y-11726768D01*
X24260803Y-9796796D02*
X24271196Y-9766666D01*
X31610333Y-4172574D02*
X31597417Y-4160255D01*
X19980468Y-3775477D02*
X19966900Y-3780515D01*
X23978384Y-2301667D02*
X23940670Y-2311095D01*
X7476230Y-9254867D02*
X7511784Y-9311102D01*
X12085942Y-12750220D02*
X12085942Y-12750220D01*
X475895Y-4245924D02*
X498438Y-4251512D01*
X21187006Y-11726768D02*
X21247843Y-11702440D01*
X1896008Y-3291426D02*
X1767098Y-3350818D01*
X10634529Y-11661143D02*
X10694075Y-11680775D01*
X1408041Y-4496528D02*
X1497551Y-4532905D01*
X11803210Y-12426359D02*
X11852200Y-12477251D01*
X14750022Y-11921572D02*
X14779120Y-11933672D01*
X31503502Y-4251238D02*
X31478001Y-4257334D01*
X15799204Y-6766755D02*
X15769544Y-6758227D01*
X7718831Y-9734882D02*
X7730744Y-9766940D01*
X26104193Y-8287554D02*
X26106900Y-8234928D01*
X1141810Y-3687174D02*
X969734Y-3784722D01*
X11940789Y-12573522D02*
X11980784Y-12619344D01*
X5992879Y-2293249D02*
X5387361Y-2358299D01*
X6795193Y-8627790D02*
X6847893Y-8657950D01*
X23859332Y-2335207D02*
X23813470Y-2350412D01*
X27333695Y-6629206D02*
X27435899Y-6575698D01*
X25994940Y-8391726D02*
X25951941Y-8395883D01*
X13913030Y-11867454D02*
X14004947Y-11852224D01*
X5524609Y-7318893D02*
X5586599Y-7386991D01*
X1531866Y-3467502D02*
X1423174Y-3525912D01*
X24260803Y-9796796D02*
X24260803Y-9796796D01*
X16390956Y-6709850D02*
X16390956Y-6709850D01*
X15014116Y-12083958D02*
X15044230Y-12110649D01*
X6088330Y-8400465D02*
X6128845Y-8406345D01*
X29491765Y-5150668D02*
X29583760Y-5079255D01*
X8378843Y-10389222D02*
X8524099Y-10433372D01*
X30504389Y-4532631D02*
X30593900Y-4496254D01*
X22422980Y-11147454D02*
X22457178Y-11097790D01*
X24230244Y-9908417D02*
X24245642Y-9847847D01*
X10694075Y-11680775D02*
X10754098Y-11702715D01*
X30690628Y-4461491D02*
X30798427Y-4427182D01*
X15889673Y-6789602D02*
X15907353Y-6792779D01*
X28830765Y-5926467D02*
X28841969Y-5899394D01*
X1318852Y-3585111D02*
X1318852Y-3585111D01*
X24093127Y-2280768D02*
X24053494Y-2286764D01*
X12730246Y-12447958D02*
X12730246Y-12447958D01*
X14750022Y-11921572D02*
X14750022Y-11921572D01*
X18369452Y-11939813D02*
X18463770Y-11972932D01*
X15975389Y-12749825D02*
X15946016Y-12746989D01*
X26114954Y-8144149D02*
X26121140Y-8097275D01*
X12367482Y-4129970D02*
X12304881Y-4057494D01*
X7003222Y-2231781D02*
X6874913Y-2233523D01*
X19915998Y-12749946D02*
X19948778Y-12707197D01*
X1693833Y-4626447D02*
X1803107Y-4684030D01*
X31503502Y-4251238D02*
X31526045Y-4245650D01*
X23477841Y-10433098D02*
X23623097Y-10388948D01*
X5696311Y-7521351D02*
X5707345Y-7538687D01*
X20532881Y-12114417D02*
X20577429Y-12078667D01*
X14601664Y-11873637D02*
X14677389Y-11895252D01*
X363000Y-4213000D02*
X391000Y-4223000D01*
X31312511Y-3948737D02*
X31255816Y-3914126D01*
X31106465Y-3826591D02*
X31032206Y-3784448D01*
X19634459Y-4129696D02*
X19563654Y-4208353D01*
X404523Y-4160530D02*
X391608Y-4172848D01*
X15323738Y-12384212D02*
X15235406Y-12296150D01*
X3083082Y-5751290D02*
X3067996Y-5727545D01*
X16131674Y-6785227D02*
X16152883Y-6780079D01*
X11105354Y-11867603D02*
X11153159Y-11894693D01*
X30470074Y-3467228D02*
X30355828Y-3409050D01*
X15600000Y-12612000D02*
X15628602Y-12627882D01*
X9991165Y-11574138D02*
X9991165Y-11574138D01*
X25830722Y-8413426D02*
X25873095Y-8406071D01*
X9287951Y-10823877D02*
X9336969Y-10866830D01*
X19587915Y-12735049D02*
X19680331Y-12822178D01*
X10134894Y-11577560D02*
X10202755Y-11581612D01*
X15762514Y-12690268D02*
X15762514Y-12690268D01*
X14908023Y-12002083D02*
X14933155Y-12019406D01*
X8266225Y-10355876D02*
X8378843Y-10389222D01*
X29984472Y-4807281D02*
X30090821Y-4744227D01*
X18786008Y-12118870D02*
X18828636Y-12141705D01*
X12237664Y-12899760D02*
X12217000Y-12919000D01*
X14958960Y-12038631D02*
X14985820Y-12060050D01*
X22611246Y-2784527D02*
X22611246Y-2784527D01*
X23569298Y-2438299D02*
X23569298Y-2438299D01*
X19280734Y-4494927D02*
X19280734Y-4494927D01*
X26362123Y-7448305D02*
X26415341Y-7386717D01*
X18076709Y-5574653D02*
X17904880Y-5734603D01*
X7099881Y-8837384D02*
X7147334Y-8878425D01*
X16343293Y-12642996D02*
X16373338Y-12627608D01*
X15610984Y-6710124D02*
X15610984Y-6710124D01*
X7866302Y-2275670D02*
X7768171Y-2265752D01*
X1767098Y-3350818D02*
X1646113Y-3409324D01*
X31638940Y-4212726D02*
X31634440Y-4203726D01*
X12048070Y-3785799D02*
X12060499Y-3790754D01*
X31312511Y-3948737D02*
X31312511Y-3948737D01*
X19239142Y-12419640D02*
X19271695Y-12447684D01*
X14358310Y-11836805D02*
X14441888Y-11844436D01*
X16957711Y-12110375D02*
X16987824Y-12083684D01*
X17400276Y-11873363D02*
X17478856Y-11856432D01*
X18989812Y-12236789D02*
X19027876Y-12261562D01*
X30578766Y-3525637D02*
X30470074Y-3467228D01*
X11199887Y-11922562D02*
X11245743Y-11951364D01*
X7741138Y-9797071D02*
X7741138Y-9797071D01*
X8432643Y-2438573D02*
X8296174Y-2388695D01*
X5387361Y-2358299D02*
X4814321Y-2439296D01*
X12018176Y-12663920D02*
X12053163Y-12707471D01*
X17254582Y-6289544D02*
X17138754Y-6375516D01*
X19915998Y-12749946D02*
X19915998Y-12749946D01*
X11593748Y-3613269D02*
X11593748Y-3613269D01*
X17195336Y-11945633D02*
X17222820Y-11933398D01*
X16028953Y-12749825D02*
X16056009Y-12746989D01*
X19784940Y-12918726D02*
X19764277Y-12899485D01*
X26614579Y-2358024D02*
X26009061Y-2292975D01*
X25873095Y-8406071D02*
X25913610Y-8400191D01*
X23133521Y-2596704D02*
X22611246Y-2784527D01*
X20008980Y-3765421D02*
X19994515Y-3770436D01*
X16456848Y-12576962D02*
X16429608Y-12594970D01*
X16176517Y-6773894D02*
X16152883Y-6780079D01*
X26339787Y-7475599D02*
X26362123Y-7448305D01*
X9610736Y-11198573D02*
X9640106Y-11250617D01*
X20349152Y-12277419D02*
X20396322Y-12233363D01*
X20149741Y-12476977D02*
X20198730Y-12426084D01*
X3136465Y-5848113D02*
X3148425Y-5873507D01*
X28949867Y-5703420D02*
X28966699Y-5679317D01*
X8296174Y-2388695D02*
X8188470Y-2350686D01*
X13523335Y-5196936D02*
X13309218Y-5001476D01*
X19840600Y-3861089D02*
X19829943Y-3876143D01*
X12974808Y-4709355D02*
X12974808Y-4709355D01*
X31255816Y-3914126D02*
X31184068Y-3871613D01*
X24561035Y-9203623D02*
X24598196Y-9153609D01*
X13349750Y-12052671D02*
X13443845Y-12010741D01*
X15829544Y-12716738D02*
X15860449Y-12727136D01*
X31184068Y-3871613D02*
X31106465Y-3826591D01*
X18950876Y-12212430D02*
X18989812Y-12236789D01*
X19918625Y-3800116D02*
X19941442Y-3790480D01*
X9766994Y-11573455D02*
X9991165Y-11574138D01*
X31417438Y-4271298D02*
X31417438Y-4271298D01*
X20023803Y-3760456D02*
X20023803Y-3760456D01*
X16031103Y-6799439D02*
X16060940Y-6797274D01*
D11*
X15444358Y-8874200D02*
X15444358Y-9515800D01*
D10*
X21799185Y-11581338D02*
X21867047Y-11577286D01*
X24525710Y-9254593D02*
X24525710Y-9254593D01*
X24719785Y-9010111D02*
X24763377Y-8964734D01*
X19027132Y-4709080D02*
X19027132Y-4709080D01*
X7265607Y-2234787D02*
X7134086Y-2232209D01*
X28777400Y-6080607D02*
X28777400Y-6080607D01*
X9578960Y-11147729D02*
X9610736Y-11198573D01*
X9733791Y-11471127D02*
X9766994Y-11573455D01*
X5774440Y-7683283D02*
X5758420Y-7643406D01*
X19781179Y-3948785D02*
X19781179Y-3948785D01*
X7623824Y-9519165D02*
X7658980Y-9593483D01*
X15231094Y-6585265D02*
X15188363Y-6568410D01*
X12588041Y-4366512D02*
X12513179Y-4288973D01*
X31563162Y-4130483D02*
X31519957Y-4095654D01*
X18911049Y-12188472D02*
X18950876Y-12212430D01*
X25050674Y-8723968D02*
X25101992Y-8689854D01*
X5789828Y-7725162D02*
X5804505Y-7768755D01*
X26170524Y-7859647D02*
X26183546Y-7813497D01*
X19806112Y-3910944D02*
X19781179Y-3948785D01*
X13131631Y-12165176D02*
X13173304Y-12141979D01*
X12301880Y-12841192D02*
X12321609Y-12822452D01*
X2510176Y-5150942D02*
X2598093Y-5223115D01*
X15610984Y-6710124D02*
X15455127Y-6661435D01*
X21937465Y-11574821D02*
X22010776Y-11573864D01*
X7134086Y-2232209D02*
X7003222Y-2231781D01*
X12111525Y-3813762D02*
X12125613Y-3821644D01*
X4461285Y-6526647D02*
X4566041Y-6575972D01*
X11005700Y-11815151D02*
X11005700Y-11815151D01*
X3224541Y-6080881D02*
X3269553Y-6228342D01*
X12060499Y-3790754D02*
X12083315Y-3800390D01*
X15762514Y-12690268D02*
X15796991Y-12704448D01*
X17059767Y-6431825D02*
X16990325Y-6477867D01*
X10814935Y-11727042D02*
X10876923Y-11753837D01*
X26106900Y-8234928D02*
X26106900Y-8234928D01*
X24191560Y-10100112D02*
X24202309Y-10039262D01*
X16923586Y-6516703D02*
X16889091Y-6534374D01*
X19101476Y-12312404D02*
X19137053Y-12338499D01*
X30308108Y-4626173D02*
X30418241Y-4571781D01*
X31577634Y-4231329D02*
X31610940Y-4222726D01*
X12161341Y-3861363D02*
X12151973Y-3848518D01*
X19747338Y-3995419D02*
X19697059Y-4057220D01*
X19810212Y-12887109D02*
X19826429Y-12866855D01*
X27730872Y-2536505D02*
X27187619Y-2439022D01*
X21546557Y-11615019D02*
X21607565Y-11603818D01*
X7403744Y-9153883D02*
X7440906Y-9203897D01*
X15918410Y-12742262D02*
X15946016Y-12746989D01*
X6049999Y-8396157D02*
X6007000Y-8392000D01*
X15489864Y-12535943D02*
X15517772Y-12557596D01*
X20096701Y-3734810D02*
X20056479Y-3749273D01*
X9691679Y-11358369D02*
X9713911Y-11414113D01*
X12171998Y-3876417D02*
X12161341Y-3861363D01*
X12730246Y-12447958D02*
X12762798Y-12419914D01*
D11*
X15444358Y-9515800D02*
X16000000Y-9836600D01*
D10*
X11424512Y-12078941D02*
X11469060Y-12114691D01*
X26100940Y-8343726D02*
X26102955Y-8308409D01*
X24867854Y-2231935D02*
X24736333Y-2234513D01*
X7658980Y-9593483D02*
X7691047Y-9666204D01*
X24215502Y-9973793D02*
X24230244Y-9908417D01*
X31545800Y-4240510D02*
X31554686Y-4238089D01*
X29168586Y-5440879D02*
X29241855Y-5368250D01*
X7586777Y-9445698D02*
X7623824Y-9519165D01*
X3159971Y-5899668D02*
X3171176Y-5926741D01*
X16484168Y-12557321D02*
X16512077Y-12535669D01*
X20408192Y-3612995D02*
X20408192Y-3612995D01*
X7986322Y-2293918D02*
X7948447Y-2287038D01*
X552570Y-4264275D02*
X584502Y-4271573D01*
X24415164Y-9445424D02*
X24452909Y-9375254D01*
X20621831Y-12044612D02*
X20666290Y-12012099D01*
X15939060Y-6797274D02*
X15968897Y-6799439D01*
X24452909Y-9375254D02*
X24490156Y-9310828D01*
X28247027Y-2651012D02*
X27730872Y-2536505D01*
X24606056Y-2239219D02*
X24478923Y-2246031D01*
X18088911Y-11867180D02*
X18181785Y-11886915D01*
X12220762Y-3949060D02*
X12220762Y-3949060D01*
X26941823Y-6888891D02*
X27038105Y-6816741D01*
X26277146Y-7570544D02*
X26294595Y-7538413D01*
X1646113Y-3409324D02*
X1531866Y-3467502D01*
X6624983Y-8547200D02*
X6666153Y-8564423D01*
X21867047Y-11577286D02*
X21937465Y-11574821D01*
X14632032Y-6200068D02*
X14513273Y-6103119D01*
X17816975Y-11835096D02*
X17906269Y-11841248D01*
X16852707Y-6551391D02*
X16813577Y-6568136D01*
X15517772Y-12557596D02*
X15545092Y-12577236D01*
X9544763Y-11098064D02*
X9578960Y-11147729D01*
X5724795Y-7570818D02*
X5741845Y-7605821D01*
X29880189Y-4872615D02*
X29984472Y-4807281D01*
X6705248Y-8581965D02*
X6741939Y-8599730D01*
X13259535Y-12096656D02*
X13349750Y-12052671D01*
X14806604Y-11945907D02*
X14832855Y-11958571D01*
X11290929Y-11981250D02*
X11335650Y-12012373D01*
X8378843Y-10389222D02*
X8378843Y-10389222D01*
X3017430Y-5655090D02*
X3017430Y-5655090D01*
X3035241Y-5679591D02*
X3052073Y-5703694D01*
X531393Y-4058190D02*
X481983Y-4095928D01*
X9640106Y-11250617D02*
X9667082Y-11303876D01*
X2322510Y-5009180D02*
X2418181Y-5079529D01*
X26544947Y-7247394D02*
X26615038Y-7176426D01*
X5895040Y-8235202D02*
X5897748Y-8287828D01*
X15762514Y-12690268D02*
X15762514Y-12690268D01*
X12936850Y-12287037D02*
X12974064Y-12261837D01*
X6582065Y-8530391D02*
X6624983Y-8547200D01*
X26294595Y-7538413D02*
X26294595Y-7538413D01*
X2900937Y-5513327D02*
X2962429Y-5584740D01*
X24179325Y-10237868D02*
X24037008Y-10272017D01*
X2793134Y-2933529D02*
X2342128Y-3102341D01*
X1583700Y-4572055D02*
X1693833Y-4626447D01*
X5707345Y-7538687D02*
X5707345Y-7538687D01*
X19948778Y-12707197D02*
X19983764Y-12663645D01*
X31626940Y-4191726D02*
X31619982Y-4182822D01*
X12304881Y-4057494D02*
X12254602Y-3995693D01*
X31470548Y-4057916D02*
X31417675Y-4019418D01*
X19941442Y-3790480D02*
X19953871Y-3785525D01*
X12438287Y-4208628D02*
X12367482Y-4129970D01*
X30683088Y-3584837D02*
X30578766Y-3525637D01*
X20021156Y-12619070D02*
X20061151Y-12573248D01*
X24356835Y-2254927D02*
X24356835Y-2254927D01*
X19413899Y-4366238D02*
X19343184Y-4436479D01*
X10202755Y-11581612D02*
X10268398Y-11587331D01*
X12721206Y-4495201D02*
X12658756Y-4436753D01*
X2017468Y-4807555D02*
X2121751Y-4872889D01*
X7147334Y-8878425D02*
X7193592Y-8920994D01*
X9390695Y-2784801D02*
X9390695Y-2784801D01*
X31619982Y-4182822D02*
X31610333Y-4172574D01*
X969734Y-3784722D02*
X969734Y-3784722D01*
X21299169Y-3262744D02*
X20823744Y-3445329D01*
X16890506Y-12173283D02*
X16925398Y-12140143D01*
X11245743Y-11951364D02*
X11290929Y-11981250D01*
X22010776Y-11573864D02*
X22010776Y-11573864D01*
X23735715Y-10355602D02*
X23832511Y-10327474D01*
X4242406Y-6439784D02*
X4353550Y-6481315D01*
X15545092Y-12577236D02*
X15572332Y-12595245D01*
X15149233Y-6551665D02*
X15112849Y-6534649D01*
X13173304Y-12141979D02*
X13215932Y-12119144D01*
X28984510Y-5654816D02*
X28984510Y-5654816D01*
X5774440Y-7683283D02*
X5789828Y-7725162D01*
X24191560Y-10100112D02*
X24184146Y-10151630D01*
X19849968Y-3848243D02*
X19840600Y-3861089D01*
X16083615Y-12742262D02*
X16056009Y-12746989D01*
X12905560Y-4652402D02*
X12834663Y-4593041D01*
X19171842Y-12365061D02*
X19205865Y-12392104D01*
X31417438Y-4271298D02*
X31449370Y-4264001D01*
X24271196Y-9766666D02*
X24283109Y-9734608D01*
X12235370Y-3970199D02*
X12220762Y-3949060D01*
X11897994Y-12526232D02*
X11940789Y-12573522D01*
X26147390Y-7954192D02*
X26158446Y-7906642D01*
X20996240Y-11814877D02*
X21061541Y-11782906D01*
X22664971Y-10866556D02*
X22713989Y-10823603D01*
X16390956Y-6709850D02*
X16302909Y-6736880D01*
X25101992Y-8689854D02*
X25154047Y-8657676D01*
X11852200Y-12477251D02*
X11897994Y-12526232D01*
X16456848Y-12576962D02*
X16484168Y-12557321D01*
X3052073Y-5703694D02*
X3067996Y-5727545D01*
X10064476Y-11575095D02*
X10134894Y-11577560D01*
X15690642Y-12658544D02*
X15762514Y-12690268D01*
X2034026Y-3230588D02*
X1896008Y-3291426D01*
X4768328Y-6687363D02*
X4866714Y-6749811D01*
X31634440Y-4203726D02*
X31626940Y-4191726D01*
X20996240Y-11814877D02*
X20996240Y-11814877D01*
X14832855Y-11958571D02*
X14858255Y-11971959D01*
X2342128Y-3102341D02*
X2182338Y-3167746D01*
X14985820Y-12060050D02*
X15014116Y-12083958D01*
X31364082Y-3982309D02*
X31312511Y-3948737D01*
X16172481Y-12716738D02*
X16141576Y-12727136D01*
X19271695Y-12447684D02*
X19271695Y-12447684D01*
X16028953Y-12749825D02*
X15999854Y-12750770D01*
X8023556Y-2301941D02*
X7986322Y-2293918D01*
X7476230Y-9254867D02*
X7476230Y-9254867D01*
D11*
X15999983Y-8553429D02*
X16555625Y-8874229D01*
D10*
X19966900Y-3780515D02*
X19953871Y-3785525D01*
X13730299Y-5390676D02*
X13523335Y-5196936D01*
X21669781Y-11594524D02*
X21733542Y-11587057D01*
X15600000Y-12612000D02*
X15572332Y-12595245D01*
X6171218Y-8413700D02*
X6215120Y-8422435D01*
X11469060Y-12114691D02*
X11513958Y-12152289D01*
X12085942Y-12750220D02*
X12134593Y-12814495D01*
X26137436Y-8002007D02*
X26147390Y-7954192D01*
X25154047Y-8657676D02*
X25206748Y-8627516D01*
X22713989Y-10823603D02*
X22765526Y-10781706D01*
X24378116Y-9518891D02*
X24415164Y-9445424D01*
X7741138Y-9797071D02*
X7741138Y-9797071D01*
X30921154Y-4392168D02*
X31062661Y-4355290D01*
X15918410Y-12742262D02*
X15889979Y-12735645D01*
X31554686Y-4238089D02*
X31577634Y-4231329D01*
X22268149Y-11470853D02*
X22268149Y-11470853D01*
X21733542Y-11587057D02*
X21799185Y-11581338D01*
X26320825Y-7499998D02*
X26339787Y-7475599D01*
X817872Y-3871888D02*
X746124Y-3914400D01*
X2760085Y-5368524D02*
X2833354Y-5441153D01*
X17996993Y-11851950D02*
X18088911Y-11867180D01*
X27759534Y-6439510D02*
X27874513Y-6401591D01*
X26034940Y-8390726D02*
X25994940Y-8391726D01*
X28933944Y-5727271D02*
X28949867Y-5703420D01*
X28738775Y-2783083D02*
X28247027Y-2651012D01*
X689429Y-3949011D02*
X637859Y-3982583D01*
X18275378Y-11911134D02*
X18369452Y-11939813D01*
X18870309Y-12164902D02*
X18911049Y-12188472D01*
X26845951Y-6966179D02*
X26941823Y-6888891D01*
X12220762Y-3949060D02*
X12195828Y-3911218D01*
X24637103Y-9104631D02*
X24677663Y-9056771D01*
X24808348Y-8920720D02*
X24854606Y-8878151D01*
X3124022Y-5823339D02*
X3136465Y-5848113D01*
X27038105Y-6816741D02*
X27135226Y-6749537D01*
D11*
X16555608Y-8874200D02*
X16555608Y-9515800D01*
D10*
X24525710Y-9254593D02*
X24561035Y-9203623D01*
X18463770Y-11972932D02*
X18558096Y-12010467D01*
X28521941Y-6259488D02*
X28521941Y-6259488D01*
X22268149Y-11470853D02*
X22288030Y-11413839D01*
X22310262Y-11358095D02*
X22334859Y-11303602D01*
X969734Y-3784722D02*
X969734Y-3784722D01*
X8378843Y-10389222D02*
X8378843Y-10389222D01*
X7799631Y-10039536D02*
X7810381Y-10100386D01*
X20487983Y-12152015D02*
X20532881Y-12114417D01*
X10332159Y-11594798D02*
X10394375Y-11604092D01*
X23623097Y-10388948D02*
X23623097Y-10388948D01*
X5060117Y-6889165D02*
X5155990Y-6966453D01*
X19918625Y-3800116D02*
X19908359Y-3804744D01*
X2681530Y-5295743D02*
X2760085Y-5368524D01*
X20408192Y-3612995D02*
X20301510Y-3656241D01*
X12834663Y-4593041D02*
X12770437Y-4538298D01*
X13925231Y-5574928D02*
X13730299Y-5390676D01*
X5251880Y-7049069D02*
X5251880Y-7049069D01*
X31597417Y-4160255D02*
X31563162Y-4130483D01*
X14750022Y-11921572D02*
X14750022Y-11921572D01*
X15870498Y-6785399D02*
X15849290Y-6780251D01*
X19280734Y-4494927D02*
X19231503Y-4538024D01*
X5843494Y-7906916D02*
X5854550Y-7954466D01*
X30683088Y-3584837D02*
X30683088Y-3584837D01*
X26106900Y-8234928D02*
X26110182Y-8190129D01*
X5886986Y-8144423D02*
X5891758Y-8190404D01*
X6049999Y-8396157D02*
X6049999Y-8396157D01*
X523939Y-4257608D02*
X498438Y-4251512D01*
X15460860Y-12511898D02*
X15430253Y-12485083D01*
X14863186Y-6375791D02*
X14863186Y-6375791D01*
X23355607Y-10472356D02*
X23477841Y-10433098D01*
X13012129Y-12237063D02*
X13051064Y-12212705D01*
X19797541Y-12902417D02*
X19810212Y-12887109D01*
X16604405Y-12454842D02*
X16639741Y-12421345D01*
X26158446Y-7906642D02*
X26170524Y-7859647D01*
X9713911Y-11414113D02*
X9733791Y-11471127D01*
X5155990Y-6966453D02*
X5251880Y-7049069D01*
X23123852Y-10560326D02*
X23163813Y-10543039D01*
X23569298Y-2438299D02*
X23569298Y-2438299D01*
X20756198Y-11951090D02*
X20802053Y-11922288D01*
X16987824Y-12083684D02*
X17016121Y-12059776D01*
X5864505Y-8002281D02*
X5873281Y-8050072D01*
X4271069Y-2536779D02*
X3754914Y-2651287D01*
X12111525Y-3813762D02*
X12093581Y-3805018D01*
X15984095Y-6799875D02*
X15968897Y-6799439D01*
X31519957Y-4095654D02*
X31470548Y-4057916D01*
X9991165Y-11574138D02*
X10064476Y-11575095D01*
X12974808Y-4709355D02*
X12974808Y-4709355D01*
X24184146Y-10151630D02*
X24181970Y-10172416D01*
X24854606Y-8878151D02*
X24902059Y-8837110D01*
X26615038Y-7176426D02*
X26684459Y-7109098D01*
X5897748Y-8287828D02*
X5898985Y-8308683D01*
X16766534Y-12295876D02*
X16766534Y-12295876D01*
X10394375Y-11604092D02*
X10455383Y-11615294D01*
X11700430Y-3656515D02*
X11593748Y-3613269D01*
X5741845Y-7605821D02*
X5758420Y-7643406D01*
X13730299Y-5390676D02*
X13730299Y-5390676D01*
X20408192Y-3612995D02*
X20408192Y-3612995D01*
X28877918Y-5823065D02*
X28890916Y-5798767D01*
X25206748Y-8627516D02*
X25260002Y-8599455D01*
X17138754Y-6375516D02*
X17138754Y-6375516D01*
X31610940Y-4222726D02*
X31638940Y-4212726D01*
X7786439Y-9974067D02*
X7799631Y-10039536D01*
X22618458Y-10910583D02*
X22664971Y-10866556D01*
D11*
X15444375Y-8874229D02*
X16000017Y-8553429D01*
D10*
X17324551Y-11894978D02*
X17400276Y-11873363D01*
X12053163Y-12707471D02*
X12085942Y-12750220D01*
X7001755Y-8760211D02*
X7051324Y-8797952D01*
X11056269Y-11841140D02*
X11105354Y-11867603D01*
X15870498Y-6785399D02*
X15889673Y-6789602D01*
X25296693Y-8581691D02*
X25335787Y-8564149D01*
X6633566Y-2243608D02*
X5992879Y-2293249D01*
X12730246Y-12447958D02*
X12730246Y-12447958D01*
X4814321Y-2439296D02*
X4271069Y-2536779D01*
X28732387Y-6228068D02*
X28732387Y-6228068D01*
X6049999Y-8396157D02*
X6049999Y-8396157D01*
X13090891Y-12188746D02*
X13131631Y-12165176D01*
X689429Y-3949011D02*
X689429Y-3949011D01*
X17143686Y-11971685D02*
X17169085Y-11958297D01*
X3171176Y-5926741D02*
X3182108Y-5954872D01*
X17138754Y-6375516D02*
X17138754Y-6375516D01*
X584266Y-4019692D02*
X531393Y-4058190D01*
X2598093Y-5223115D02*
X2681530Y-5295743D01*
X14249721Y-5873945D02*
X14097061Y-5734877D01*
X15149289Y-12210364D02*
X15235406Y-12296150D01*
X20896586Y-11867329D02*
X20945671Y-11840866D01*
X14097061Y-5734877D02*
X13925231Y-5574928D01*
X7730744Y-9766940D02*
X7741138Y-9797071D01*
X3192841Y-5984206D02*
X3203443Y-6014888D01*
X12237664Y-12899760D02*
X12250654Y-12888342D01*
X31032206Y-3784448D02*
X30860130Y-3686900D01*
X30234842Y-3350544D02*
X30105933Y-3291152D01*
X30418241Y-4571781D02*
X30504389Y-4532631D01*
X27648391Y-6481040D02*
X27759534Y-6439510D01*
X7691047Y-9666204D02*
X7718831Y-9734882D01*
X14523085Y-11856706D02*
X14601664Y-11873637D01*
X12220762Y-3949060D02*
X12220762Y-3949060D01*
X3182108Y-5954872D02*
X3192841Y-5984206D01*
X5386902Y-7176700D02*
X5456994Y-7247668D01*
X6666153Y-8564423D02*
X6705248Y-8581965D01*
X16541080Y-12511624D02*
X16512077Y-12535669D01*
X16957045Y-6497995D02*
X16923586Y-6516703D01*
X8061270Y-2311369D02*
X8023556Y-2301941D01*
X24490156Y-9310828D02*
X24525710Y-9254593D01*
X23914390Y-10304325D02*
X23982254Y-10285919D01*
X7051324Y-8797952D02*
X7099881Y-8837384D01*
X584502Y-4271573D02*
X584502Y-4271573D01*
X689429Y-3949011D02*
X689429Y-3949011D01*
X20996240Y-11814877D02*
X20996240Y-11814877D01*
X16766534Y-12295876D02*
X16678202Y-12383938D01*
X23569298Y-2438299D02*
X23133521Y-2596704D01*
X17093918Y-12001808D02*
X17118757Y-11986091D01*
X3148425Y-5873507D02*
X3159971Y-5899668D01*
X12321609Y-12822452D02*
X12321609Y-12822452D01*
X11380110Y-12044886D02*
X11424512Y-12078941D01*
X11808466Y-3698733D02*
X11700430Y-3656515D01*
X19867347Y-12814221D02*
X19826429Y-12866855D01*
X584502Y-4271573D02*
X584502Y-4271573D01*
X31417675Y-4019418D02*
X31364082Y-3982309D01*
X23832511Y-10327474D02*
X23914390Y-10304325D01*
X26106900Y-8234928D02*
X26106900Y-8234928D01*
X15923636Y-6795363D02*
X15907353Y-6792779D01*
X30860130Y-3686900D02*
X30683088Y-3584837D01*
X12195828Y-3911218D02*
X12171998Y-3876417D01*
X5895040Y-8235202D02*
X5895040Y-8235202D01*
X20396322Y-12233363D02*
X20442531Y-12191613D01*
X13349750Y-12052671D02*
X13349750Y-12052671D01*
X20848781Y-11894419D02*
X20896586Y-11867329D01*
X16112046Y-12735645D02*
X16083615Y-12742262D01*
X424306Y-4231603D02*
X447254Y-4238363D01*
X23163813Y-10543039D02*
X23252296Y-10508432D01*
X19718749Y-12858401D02*
X19735968Y-12874246D01*
X24283109Y-9734608D02*
X24310893Y-9665930D01*
X4008183Y-6367367D02*
X4127427Y-6401866D01*
X26099940Y-8369726D02*
X26100940Y-8343726D01*
X7819970Y-10172690D02*
X7822615Y-10207142D01*
X19983764Y-12663645D02*
X20021156Y-12619070D01*
X22268149Y-11470853D02*
X22268149Y-11470853D01*
X16202968Y-6766583D02*
X16176517Y-6773894D01*
X13730299Y-5390676D02*
X13730299Y-5390676D01*
X25509645Y-8498131D02*
X25602473Y-8468962D01*
X26102955Y-8308409D02*
X26104193Y-8287554D01*
X19857708Y-3838089D02*
X19849968Y-3848243D01*
X12721206Y-4495201D02*
X12721206Y-4495201D01*
X15076542Y-12140417D02*
X15111435Y-12173558D01*
X24310893Y-9665930D02*
X24342961Y-9593208D01*
X28117693Y-6335824D02*
X28246751Y-6307594D01*
X10575123Y-11643739D02*
X10634529Y-11661143D01*
X637859Y-3982583D02*
X584266Y-4019692D01*
X11978138Y-3760731D02*
X11945462Y-3749548D01*
X28853515Y-5873233D02*
X28865475Y-5847839D01*
X15044895Y-6498269D02*
X15011615Y-6478142D01*
X27874513Y-6401591D02*
X27993757Y-6367093D01*
X15112849Y-6534649D02*
X15078355Y-6516977D01*
X30355828Y-3409050D02*
X30234842Y-3350544D01*
X13116769Y-4830286D02*
X13037676Y-4761913D01*
X8878089Y-10560600D02*
X8915880Y-10578162D01*
X15235406Y-12296150D02*
X15235406Y-12296150D01*
X523939Y-4257608D02*
X552570Y-4264275D01*
X29583760Y-5079255D02*
X29679431Y-5008906D01*
X9469049Y-11002206D02*
X9508130Y-11049563D01*
X7645106Y-2255201D02*
X7645106Y-2255201D01*
X12250654Y-12888342D02*
X12265973Y-12874520D01*
X26477332Y-7318619D02*
X26544947Y-7247394D01*
X29967914Y-3230314D02*
X29819602Y-3167472D01*
X5251880Y-7049069D02*
X5251880Y-7049069D01*
X12191728Y-12887383D02*
X12204400Y-12902691D01*
X16311298Y-12658270D02*
X16343293Y-12642996D01*
X9508130Y-11049563D02*
X9544763Y-11098064D01*
X9733791Y-11471127D02*
X9733791Y-11471127D01*
X23982254Y-10285919D02*
X24037008Y-10272017D01*
X4566041Y-6575972D02*
X4668246Y-6629480D01*
X9427504Y-10955977D02*
X9469049Y-11002206D01*
X29208806Y-2933255D02*
X28738775Y-2783083D01*
X22391204Y-11198299D02*
X22422980Y-11147454D01*
X11750827Y-12373332D02*
X11750827Y-12373332D01*
X391000Y-4223000D02*
X424306Y-4231603D01*
X7324278Y-9057045D02*
X7364838Y-9104905D01*
X22010776Y-11573864D02*
X22010776Y-11573864D01*
X12093581Y-3805018D02*
X12083315Y-3800390D01*
X11803210Y-12426359D02*
X11750827Y-12373332D01*
X17369909Y-6199793D02*
X17254582Y-6289544D01*
X11945462Y-3749548D02*
X11905240Y-3735084D01*
X381958Y-4183096D02*
X375000Y-4192000D01*
X28777400Y-6080607D02*
X28787954Y-6046790D01*
X21486421Y-11628208D02*
X21546557Y-11615019D01*
X10122071Y-3048442D02*
X9390695Y-2784801D01*
X12632507Y-12535099D02*
X12730246Y-12447958D01*
X21426818Y-11643465D02*
X21486421Y-11628208D01*
X15235406Y-12296150D02*
X15235406Y-12296150D01*
X12265973Y-12874520D02*
X12283191Y-12858676D01*
X18558096Y-12010467D02*
X18652190Y-12052397D01*
X14863186Y-6375791D02*
X14747358Y-6289818D01*
X7768171Y-2265752D02*
X7645106Y-2255201D01*
X9383482Y-10910858D02*
X9427504Y-10955977D01*
X15362200Y-12421619D02*
X15397536Y-12455116D01*
X29659812Y-3102067D02*
X29659812Y-3102067D01*
X5456994Y-7247668D02*
X5524609Y-7318893D01*
X481983Y-4095928D02*
X438779Y-4130757D01*
X28890916Y-5798767D02*
X28904539Y-5774799D01*
X20442531Y-12191613D02*
X20487983Y-12152015D01*
X4127427Y-6401866D02*
X4242406Y-6439784D01*
X11005700Y-11815151D02*
X11056269Y-11841140D01*
X10754098Y-11702715D02*
X10814935Y-11727042D01*
X8749644Y-10508706D02*
X8838127Y-10543313D01*
X16766534Y-12295876D02*
X16852652Y-12210090D01*
X25260002Y-8599455D02*
X25296693Y-8581691D01*
X375000Y-4192000D02*
X367500Y-4204000D01*
X14441888Y-11844436D02*
X14523085Y-11856706D01*
X20301510Y-3656241D02*
X20193475Y-3698458D01*
X12762798Y-12419914D02*
X12796075Y-12392378D01*
X5873281Y-8050072D02*
X5880801Y-8097549D01*
X12414026Y-12735324D02*
X12522379Y-12635213D01*
X28819832Y-5954598D02*
X28830765Y-5926467D01*
X15628602Y-12627882D02*
X15658647Y-12643270D01*
X14779120Y-11933672D02*
X14806604Y-11945907D01*
X16890506Y-12173283D02*
X16852652Y-12210090D01*
X9390695Y-2784801D02*
X9390695Y-2784801D01*
X17042981Y-12038356D02*
X17068786Y-12019132D01*
X19479561Y-12634939D02*
X19587915Y-12735049D01*
X15330777Y-6620835D02*
X15231094Y-6585265D01*
X11593748Y-3613269D02*
X11593748Y-3613269D01*
X24202309Y-10039262D02*
X24215502Y-9973793D01*
X28865475Y-5847839D02*
X28877918Y-5823065D01*
X18652190Y-12052397D02*
X18742405Y-12096382D01*
X19563654Y-4208353D02*
X19488761Y-4288699D01*
X25786820Y-8422161D02*
X25830722Y-8413426D01*
X29659812Y-3102067D02*
X29208806Y-2933255D01*
X5707345Y-7538687D02*
X5707345Y-7538687D01*
X27135226Y-6749537D02*
X27233613Y-6687089D01*
X28732387Y-6228068D02*
X28777400Y-6080607D01*
X24950616Y-8797678D02*
X25000185Y-8759936D01*
X29819602Y-3167472D02*
X29659812Y-3102067D01*
X25913610Y-8400191D02*
X25951941Y-8395883D01*
X18742405Y-12096382D02*
X18786008Y-12118870D01*
X26066940Y-8390726D02*
X26034940Y-8390726D01*
X7193592Y-8920994D02*
X7238563Y-8965008D01*
X16571687Y-12484808D02*
X16604405Y-12454842D01*
X6951266Y-8724242D02*
X7001755Y-8760211D01*
X10876923Y-11753837D02*
X10940399Y-11783180D01*
X24478923Y-2246031D02*
X24356835Y-2254927D01*
X3111024Y-5799041D02*
X3124022Y-5823339D01*
D11*
X16000000Y-9836600D02*
X16555642Y-9515800D01*
D10*
X12151973Y-3848518D02*
X12144232Y-3838363D01*
X8952013Y-10596213D02*
X8986999Y-10614966D01*
X20061151Y-12573248D02*
X20103947Y-12525958D01*
X22234946Y-11573181D02*
X22268149Y-11470853D01*
X15149289Y-12210364D02*
X15111435Y-12173558D01*
X19680331Y-12822178D02*
X19700060Y-12840918D01*
X17906269Y-11841248D02*
X17996993Y-11851950D01*
X13820156Y-11887189D02*
X13913030Y-11867454D01*
X12830098Y-12365335D02*
X12864888Y-12338773D01*
X16239427Y-12689994D02*
X16239427Y-12689994D01*
X5639817Y-7448579D02*
X5662153Y-7475874D01*
X19167278Y-4592766D02*
X19096380Y-4652127D01*
X17752219Y-5873671D02*
X17614793Y-5995278D01*
X26066940Y-8390726D02*
X26098940Y-8391726D01*
X24053494Y-2286764D02*
X24015619Y-2293644D01*
X20666290Y-12012099D02*
X20711011Y-11980975D01*
X23940670Y-2311095D02*
X23901359Y-2322188D01*
X5317482Y-7109372D02*
X5386902Y-7176700D01*
X6847893Y-8657950D02*
X6899948Y-8690128D01*
X9182344Y-10741122D02*
X9236414Y-10781980D01*
X30198834Y-4683756D02*
X30308108Y-4626173D01*
X21367412Y-11660869D02*
X21426818Y-11643465D01*
X11559409Y-12191887D02*
X11605618Y-12233638D01*
X447254Y-4238363D02*
X456140Y-4240784D01*
X456140Y-4240784D02*
X475895Y-4245924D01*
X19700060Y-12840918D02*
X19718749Y-12858401D01*
X18692722Y-5001202D02*
X18478605Y-5196662D01*
X20193475Y-3698458D02*
X20096701Y-3734810D01*
X18652190Y-12052397D02*
X18652190Y-12052397D01*
X8432643Y-2438573D02*
X8432643Y-2438573D01*
X19096380Y-4652127D02*
X19027132Y-4709080D01*
X7948447Y-2287038D02*
X7908813Y-2281042D01*
X22876214Y-10701010D02*
X22946358Y-10655162D01*
X20251114Y-12373057D02*
X20349152Y-12277419D01*
X29101003Y-5513053D02*
X29168586Y-5440879D01*
X3754914Y-2651287D02*
X3263165Y-2783357D01*
X28777400Y-6080607D02*
X28777400Y-6080607D01*
X24245642Y-9847847D02*
X24260803Y-9796796D01*
X10702771Y-3263018D02*
X10122071Y-3048442D01*
X2418181Y-5079529D02*
X2510176Y-5150942D01*
X6306201Y-8443656D02*
X6399467Y-8469236D01*
X13051064Y-12212705D02*
X13090891Y-12188746D01*
X3620583Y-6282486D02*
X3755189Y-6307868D01*
X21247843Y-11702440D02*
X21307866Y-11680501D01*
X14858255Y-11971959D02*
X14883183Y-11986365D01*
X12796075Y-12392378D02*
X12830098Y-12365335D01*
X30090821Y-4744227D02*
X30198834Y-4683756D01*
X26294595Y-7538413D02*
X26305630Y-7521077D01*
X12035040Y-3780789D02*
X12021472Y-3775751D01*
X13349750Y-12052671D02*
X13349750Y-12052671D01*
X16302909Y-6736880D02*
X16232396Y-6757952D01*
X23623097Y-10388948D02*
X23623097Y-10388948D01*
X9336969Y-10866830D02*
X9383482Y-10910858D01*
X11978138Y-3760731D02*
X11978138Y-3760731D01*
X8646334Y-10472630D02*
X8749644Y-10508706D01*
X6741939Y-8599730D02*
X6795193Y-8627790D01*
X18271642Y-5390402D02*
X18076709Y-5574653D01*
X19680331Y-12822178D02*
X19680331Y-12822178D01*
X7964933Y-10272291D02*
X8019686Y-10286193D01*
X28732387Y-6228068D02*
X28732387Y-6228068D01*
X5967000Y-8391000D02*
X5935000Y-8391000D01*
X20577429Y-12078667D02*
X20621831Y-12044612D01*
X21607565Y-11603818D02*
X21669781Y-11594524D01*
X2342128Y-3102341D02*
X2342128Y-3102341D01*
X22765526Y-10781706D02*
X22819597Y-10740847D01*
X25602473Y-8468962D02*
X25695739Y-8443382D01*
X30683088Y-3584837D02*
X30683088Y-3584837D01*
X31226805Y-4315386D02*
X31417438Y-4271298D01*
X14863186Y-6375791D02*
X14863186Y-6375791D01*
X28984510Y-5654816D02*
X29039511Y-5584466D01*
X7238563Y-8965008D02*
X7282156Y-9010385D01*
X17251918Y-11921298D02*
X17324551Y-11894978D01*
X10455383Y-11615294D02*
X10515520Y-11628483D01*
X3884247Y-6336098D02*
X4008183Y-6367367D01*
X12254602Y-3995693D02*
X12235370Y-3970199D01*
X3017430Y-5655090D02*
X3035241Y-5679591D01*
X13215932Y-12119144D02*
X13259535Y-12096656D01*
X1318852Y-3585111D02*
X1318852Y-3585111D01*
X12321609Y-12822452D02*
X12414026Y-12735324D01*
X30593900Y-4496254D02*
X30690628Y-4461491D01*
X16390956Y-6709850D02*
X16390956Y-6709850D01*
X17251918Y-11921298D02*
X17251918Y-11921298D01*
X3479999Y-6259762D02*
X3479999Y-6259762D01*
X29320410Y-5295469D02*
X29403847Y-5222840D01*
X10940399Y-11783180D02*
X11005700Y-11815151D01*
X12144232Y-3838363D02*
X12138457Y-3831383D01*
X12283191Y-12858676D02*
X12301880Y-12841192D01*
X5895040Y-8235202D02*
X5895040Y-8235202D01*
X7645106Y-2255201D02*
X7523017Y-2246305D01*
X16373338Y-12627608D02*
X16401940Y-12611726D01*
X12974064Y-12261837D02*
X13012129Y-12237063D01*
X14933155Y-12019406D02*
X14958960Y-12038631D01*
X28381357Y-6282212D02*
X28521941Y-6259488D01*
X7440906Y-9203897D02*
X7476230Y-9254867D01*
X6399467Y-8469236D02*
X6492296Y-8498405D01*
X20023803Y-3760456D02*
X20023803Y-3760456D01*
X3213986Y-6047065D02*
X3224541Y-6080881D01*
X16112046Y-12735645D02*
X16141576Y-12727136D01*
X1497551Y-4532905D02*
X1583700Y-4572055D01*
X18271642Y-5390402D02*
X18271642Y-5390402D01*
X16031103Y-6799439D02*
X16000000Y-6800000D01*
X15397536Y-12455116D02*
X15430253Y-12485083D01*
X19027132Y-4709080D02*
X18964264Y-4761639D01*
X11513958Y-12152289D02*
X11559409Y-12191887D01*
X17643630Y-11836530D02*
X17729350Y-11833516D01*
X7822615Y-10207142D02*
X7822615Y-10238142D01*
X11652788Y-12277694D02*
X11750827Y-12373332D01*
X12864888Y-12338773D02*
X12900464Y-12312678D01*
X8188470Y-2350686D02*
X8142608Y-2335481D01*
X29403847Y-5222840D02*
X29491765Y-5150668D01*
X20251114Y-12373057D02*
X20251114Y-12373057D01*
X895475Y-3826865D02*
X817872Y-3871888D01*
X1080787Y-4392443D02*
X1203513Y-4427457D01*
X12721206Y-4495201D02*
X12721206Y-4495201D01*
X24135639Y-2275395D02*
X24093127Y-2280768D01*
X14387147Y-5995552D02*
X14249721Y-5873945D01*
X12085942Y-12750220D02*
X12085942Y-12750220D01*
X13309218Y-5001476D02*
X13116769Y-4830286D01*
X5880801Y-8097549D02*
X5886986Y-8144423D01*
X26684459Y-7109098D02*
X26750060Y-7048795D01*
X28984510Y-5654816D02*
X28984510Y-5654816D01*
X27993757Y-6367093D02*
X28117693Y-6335824D01*
X23252296Y-10508432D02*
X23355607Y-10472356D01*
X24525710Y-9254593D02*
X24525710Y-9254593D01*
X9055582Y-10655436D02*
X9125726Y-10701284D01*
X8100581Y-2322463D02*
X8061270Y-2311369D01*
X20023803Y-3760456D02*
X20008980Y-3765421D01*
X7817794Y-10151904D02*
X7810381Y-10100386D01*
X17016121Y-12059776D02*
X17042981Y-12038356D01*
X25376957Y-8546926D02*
X25419875Y-8530117D01*
X16546814Y-6661161D02*
X16390956Y-6709850D01*
X15999854Y-12750770D02*
X15975389Y-12749825D01*
X775136Y-4315660D02*
X939279Y-4355564D01*
X19751287Y-12888068D02*
X19764277Y-12899485D01*
X24763377Y-8964734D02*
X24808348Y-8920720D01*
X8838127Y-10543313D02*
X8878089Y-10560600D01*
X19027876Y-12261562D02*
X19065091Y-12286763D01*
X24356835Y-2254927D02*
X24356835Y-2254927D01*
X5902000Y-8370000D02*
X5903000Y-8392000D01*
X24598196Y-9153609D02*
X24637103Y-9104631D01*
X28521941Y-6259488D02*
X28521941Y-6259488D01*
X14747358Y-6289818D02*
X14632032Y-6200068D01*
X3097401Y-5775073D02*
X3111024Y-5799041D01*
X8169429Y-10327748D02*
X8266225Y-10355876D01*
X31526045Y-4245650D02*
X31545800Y-4240510D01*
X6874913Y-2233523D02*
X6751061Y-2237459D01*
X21307866Y-11680501D02*
X21367412Y-11660869D01*
X19697059Y-4057220D02*
X19634459Y-4129696D01*
X2962429Y-5584740D02*
X3017430Y-5655090D01*
X19205865Y-12392104D02*
X19239142Y-12419640D01*
X26750060Y-7048795D02*
X26845951Y-6966179D01*
X1318852Y-3585111D02*
X1141810Y-3687174D01*
X4353550Y-6481315D02*
X4461285Y-6526647D01*
X11605618Y-12233638D02*
X11652788Y-12277694D01*
X3269553Y-6228342D02*
X3479999Y-6259762D01*
X6007000Y-8392000D02*
X5967000Y-8391000D01*
X7523017Y-2246305D02*
X7395884Y-2239493D01*
X19065091Y-12286763D02*
X19101476Y-12312404D01*
X16770847Y-6584991D02*
X16671163Y-6620561D01*
X438779Y-4130757D02*
X404523Y-4160530D01*
X26260095Y-7605547D02*
X26277146Y-7570544D01*
X5662153Y-7475874D02*
X5681115Y-7500272D01*
X9125726Y-10701284D02*
X9182344Y-10741122D01*
X16172481Y-12716738D02*
X16204949Y-12704174D01*
X13632489Y-11940088D02*
X13726563Y-11911408D01*
X4668246Y-6629480D02*
X4768328Y-6687363D01*
X22010776Y-11573864D02*
X22234946Y-11573181D01*
X26750060Y-7048795D02*
X26750060Y-7048795D01*
X6215120Y-8422435D02*
X6306201Y-8443656D01*
X26305630Y-7521077D02*
X26320825Y-7499998D01*
X25368374Y-2243334D02*
X25250879Y-2237184D01*
X14883183Y-11986365D02*
X14908023Y-12002083D01*
X19231503Y-4538024D02*
X19167278Y-4592766D01*
X16239427Y-12689994D02*
X16239427Y-12689994D01*
X3263165Y-2783357D02*
X2793134Y-2933529D01*
X22574436Y-10955703D02*
X22618458Y-10910583D01*
X19280734Y-4494927D02*
X19280734Y-4494927D01*
X18828636Y-12141705D02*
X18870309Y-12164902D01*
X3017430Y-5655090D02*
X3017430Y-5655090D01*
X19343184Y-4436479D02*
X19280734Y-4494927D01*
X26121140Y-8097275D02*
X26128659Y-8049798D01*
X25951941Y-8395883D02*
X25951941Y-8395883D01*
X5251880Y-7049069D02*
X5317482Y-7109372D01*
X8524099Y-10433372D02*
X8646334Y-10472630D01*
X22532892Y-11001932D02*
X22574436Y-10955703D01*
X3224541Y-6080881D02*
X3224541Y-6080881D01*
X1203513Y-4427457D02*
X1311313Y-4461765D01*
X24998719Y-2231507D02*
X24867854Y-2231935D01*
X8915880Y-10578162D02*
X8952013Y-10596213D01*
X26243520Y-7643132D02*
X26227500Y-7683008D01*
X18964264Y-4761639D02*
X18885172Y-4830011D01*
X20711011Y-11980975D02*
X20756198Y-11951090D01*
X15939060Y-6797274D02*
X15923636Y-6795363D01*
X7364838Y-9104905D02*
X7403744Y-9153883D01*
X14184965Y-11835370D02*
X14272591Y-11833790D01*
X22819597Y-10740847D02*
X22876214Y-10701010D01*
X17488668Y-6102845D02*
X17369909Y-6199793D01*
X24015619Y-2293644D02*
X23978384Y-2301667D01*
X2223566Y-4940199D02*
X2322510Y-5009180D01*
X8986999Y-10614966D02*
X9055582Y-10655436D01*
X13443845Y-12010741D02*
X13538170Y-11973206D01*
X7741138Y-9797071D02*
X7756298Y-9848121D01*
X6751061Y-2237459D02*
X6633566Y-2243608D01*
X23623097Y-10388948D02*
X23735715Y-10355602D01*
X19369433Y-12534825D02*
X19479561Y-12634939D01*
X391608Y-4172848D02*
X381958Y-4183096D01*
X26750060Y-7048795D02*
X26750060Y-7048795D01*
X24260803Y-9796796D02*
X24260803Y-9796796D01*
X28246751Y-6307594D02*
X28381357Y-6282212D01*
X16925398Y-12140143D02*
X16957711Y-12110375D01*
X7549032Y-9375528D02*
X7586777Y-9445698D01*
X23014941Y-10614692D02*
X23049928Y-10595939D01*
X27233613Y-6687089D02*
X27333695Y-6629206D01*
X2833354Y-5441153D02*
X2900937Y-5513327D01*
X25951941Y-8395883D02*
X25951941Y-8395883D01*
X7771697Y-9908691D02*
X7786439Y-9974067D01*
X16541080Y-12511624D02*
X16571687Y-12484808D01*
X15796991Y-12704448D02*
X15829544Y-12716738D01*
X15078355Y-6516977D02*
X15044895Y-6498269D01*
X17068786Y-12019132D02*
X17093918Y-12001808D01*
X17138754Y-6375516D02*
X17059767Y-6431825D01*
X6049999Y-8396157D02*
X6088330Y-8400465D01*
X3479999Y-6259762D02*
X3620583Y-6282486D01*
X5681115Y-7500272D02*
X5696311Y-7521351D01*
X14272591Y-11833790D02*
X14358310Y-11836805D01*
X28904539Y-5774799D02*
X28918858Y-5751016D01*
X19863484Y-3831109D02*
X19857708Y-3838089D01*
X23813470Y-2350412D02*
X23705766Y-2388421D01*
X29039511Y-5584466D02*
X29101003Y-5513053D01*
X22361835Y-11250342D02*
X22391204Y-11198299D01*
X15011615Y-6478142D02*
X14942173Y-6432099D01*
X26243520Y-7643132D02*
X26260095Y-7605547D01*
X19784940Y-12918726D02*
X19797541Y-12902417D01*
X7964933Y-10272291D02*
X7822615Y-10238142D01*
X8087550Y-10304599D02*
X8169429Y-10327748D01*
X25000185Y-8759936D02*
X25050674Y-8723968D01*
X8868420Y-2596979D02*
X8432643Y-2438573D01*
X25695739Y-8443382D02*
X25786820Y-8422161D01*
X1911119Y-4744501D02*
X2017468Y-4807555D01*
X19863484Y-3831109D02*
X19876327Y-3821370D01*
X7282156Y-9010385D02*
X7324278Y-9057045D01*
X15860449Y-12727136D02*
X15889979Y-12735645D01*
X17904880Y-5734603D02*
X17752219Y-5873671D01*
X19867347Y-12814221D02*
X19915998Y-12749946D01*
X22288030Y-11413839D02*
X22310262Y-11358095D01*
X15188363Y-6568410D02*
X15149233Y-6551665D01*
X29241855Y-5368250D02*
X29320410Y-5295469D01*
X12770437Y-4538298D02*
X12721206Y-4495201D01*
X19781179Y-3948785D02*
X19766571Y-3969925D01*
X3479999Y-6259762D02*
X3479999Y-6259762D01*
X17118757Y-11986091D02*
X17143686Y-11971685D01*
X15984095Y-6799875D02*
X16000000Y-6800000D01*
X22457178Y-11097790D02*
X22493810Y-11049288D01*
X15699031Y-6737154D02*
X15610984Y-6710124D01*
X19027132Y-4709080D02*
X19027132Y-4709080D01*
X17560053Y-11844162D02*
X17643630Y-11836530D01*
X22611246Y-2784527D02*
X22611246Y-2784527D01*
X19137053Y-12338499D02*
X19171842Y-12365061D01*
X16202968Y-6766583D02*
X16232396Y-6757952D01*
X13037676Y-4761913D02*
X12974808Y-4709355D01*
X6128845Y-8406345D02*
X6171218Y-8413700D01*
X5707345Y-7538687D02*
X5724795Y-7570818D01*
X24233769Y-2265478D02*
X24135639Y-2275395D01*
X746124Y-3914400D02*
X689429Y-3949011D01*
X20251114Y-12373057D02*
X20198730Y-12426084D01*
X5854550Y-7954466D02*
X5864505Y-8002281D01*
X16429608Y-12594970D02*
X16401940Y-12611726D01*
X16204949Y-12704174D02*
X16239427Y-12689994D01*
X31032206Y-3784448D02*
X31032206Y-3784448D01*
X18271642Y-5390402D02*
X18271642Y-5390402D01*
X15849290Y-6780251D02*
X15799204Y-6766755D01*
X13726563Y-11911408D02*
X13820156Y-11887189D01*
X31449370Y-4264001D02*
X31478001Y-4257334D01*
X9667082Y-11303876D02*
X9691679Y-11358369D01*
X7819970Y-10172690D02*
X7817794Y-10151904D01*
X31312511Y-3948737D02*
X31312511Y-3948737D01*
X16239427Y-12689994D02*
X16311298Y-12658270D01*
X31062661Y-4355290D02*
X31226805Y-4315386D01*
X19876327Y-3821370D02*
X19890416Y-3813488D01*
X15610984Y-6710124D02*
X15610984Y-6710124D01*
X18478605Y-5196662D02*
X18271642Y-5390402D01*
X14677389Y-11895252D02*
X14750022Y-11921572D01*
X20802053Y-11922288D02*
X20848781Y-11894419D01*
X9991165Y-11574138D02*
X9991165Y-11574138D01*
X26128659Y-8049798D02*
X26137436Y-8002007D01*
X19994515Y-3770436D02*
X19980468Y-3775477D01*
X23705766Y-2388421D02*
X23569298Y-2438299D01*
X11980784Y-12619344D02*
X12018176Y-12663920D01*
X18181785Y-11886915D02*
X18275378Y-11911134D01*
X30105933Y-3291152D02*
X29967914Y-3230314D01*
X16092647Y-6792779D02*
X16131674Y-6785227D01*
D12*
D13*
X2390000Y-3790000D02*
X2610000Y-4010000D01*
X2610000Y-3790000D02*
X2390000Y-4010000D01*
X7390000Y-8290000D02*
X7610000Y-8510000D01*
X7610000Y-8290000D02*
X7390000Y-8510000D01*
X9790000Y-3490000D02*
X10010000Y-3710000D01*
X10010000Y-3490000D02*
X9790000Y-3710000D01*
X15890000Y-11890000D02*
X16110000Y-12110000D01*
X16110000Y-11890000D02*
X15890000Y-12110000D01*
X21990000Y-3490000D02*
X22210000Y-3710000D01*
X22210000Y-3490000D02*
X21990000Y-3710000D01*
X24390000Y-8290000D02*
X24610000Y-8510000D01*
X24610000Y-8290000D02*
X24390000Y-8510000D01*
X29390000Y-3790000D02*
X29610000Y-4010000D01*
X29610000Y-3790000D02*
X29390000Y-4010000D01*
D14*
X6750000Y-7500000D02*
G75*
G03*
X6750000Y-7500000I-250000J0D01*
G01*
X7750000Y-3000000D02*
G75*
G03*
X7750000Y-3000000I-250000J0D01*
G01*
X24750000Y-3000000D02*
G75*
G03*
X24750000Y-3000000I-250000J0D01*
G01*
X25750000Y-7500000D02*
G75*
G03*
X25750000Y-7500000I-250000J0D01*
G01*
D12*
X614600Y-13235495D02*
X614600Y-13035495D01*
X662219Y-13035495D01*
X690790Y-13045019D01*
X709838Y-13064067D01*
X719362Y-13083114D01*
X728885Y-13121210D01*
X728885Y-13149781D01*
X719362Y-13187876D01*
X709838Y-13206924D01*
X690790Y-13225971D01*
X662219Y-13235495D01*
X614600Y-13235495D01*
X814600Y-13235495D02*
X814600Y-13102162D01*
X814600Y-13140257D02*
X824124Y-13121210D01*
X833647Y-13111686D01*
X852695Y-13102162D01*
X871743Y-13102162D01*
X938409Y-13235495D02*
X938409Y-13102162D01*
X938409Y-13035495D02*
X928885Y-13045019D01*
X938409Y-13054543D01*
X947933Y-13045019D01*
X938409Y-13035495D01*
X938409Y-13054543D01*
X1062219Y-13235495D02*
X1043171Y-13225971D01*
X1033647Y-13206924D01*
X1033647Y-13035495D01*
X1166981Y-13235495D02*
X1147933Y-13225971D01*
X1138409Y-13206924D01*
X1138409Y-13035495D01*
X1395552Y-13235495D02*
X1395552Y-13035495D01*
X1462219Y-13178352D01*
X1528885Y-13035495D01*
X1528885Y-13235495D01*
X1709838Y-13235495D02*
X1709838Y-13130733D01*
X1700314Y-13111686D01*
X1681266Y-13102162D01*
X1643171Y-13102162D01*
X1624124Y-13111686D01*
X1709838Y-13225971D02*
X1690790Y-13235495D01*
X1643171Y-13235495D01*
X1624124Y-13225971D01*
X1614600Y-13206924D01*
X1614600Y-13187876D01*
X1624124Y-13168829D01*
X1643171Y-13159305D01*
X1690790Y-13159305D01*
X1709838Y-13149781D01*
X1805076Y-13102162D02*
X1805076Y-13302162D01*
X1805076Y-13111686D02*
X1824124Y-13102162D01*
X1862219Y-13102162D01*
X1881266Y-13111686D01*
X1890790Y-13121210D01*
X1900314Y-13140257D01*
X1900314Y-13197400D01*
X1890790Y-13216448D01*
X1881266Y-13225971D01*
X1862219Y-13235495D01*
X1824124Y-13235495D01*
X1805076Y-13225971D01*
X1986028Y-13216448D02*
X1995552Y-13225971D01*
X1986028Y-13235495D01*
X1976505Y-13225971D01*
X1986028Y-13216448D01*
X1986028Y-13235495D01*
X1986028Y-13111686D02*
X1995552Y-13121210D01*
X1986028Y-13130733D01*
X1976505Y-13121210D01*
X1986028Y-13111686D01*
X1986028Y-13130733D01*
X156981Y-13465019D02*
X356981Y-13665019D01*
X356981Y-13465019D02*
X156981Y-13665019D01*
X605076Y-13474543D02*
X614600Y-13465019D01*
X633647Y-13455495D01*
X681267Y-13455495D01*
X700314Y-13465019D01*
X709838Y-13474543D01*
X719362Y-13493591D01*
X719362Y-13512638D01*
X709838Y-13541210D01*
X595552Y-13655495D01*
X719362Y-13655495D01*
X805076Y-13636448D02*
X814600Y-13645971D01*
X805076Y-13655495D01*
X795552Y-13645971D01*
X805076Y-13636448D01*
X805076Y-13655495D01*
X890790Y-13474543D02*
X900314Y-13465019D01*
X919362Y-13455495D01*
X966981Y-13455495D01*
X986028Y-13465019D01*
X995552Y-13474543D01*
X1005076Y-13493591D01*
X1005076Y-13512638D01*
X995552Y-13541210D01*
X881266Y-13655495D01*
X1005076Y-13655495D01*
X1128886Y-13455495D02*
X1147933Y-13455495D01*
X1166981Y-13465019D01*
X1176505Y-13474543D01*
X1186028Y-13493591D01*
X1195552Y-13531686D01*
X1195552Y-13579305D01*
X1186028Y-13617400D01*
X1176505Y-13636448D01*
X1166981Y-13645971D01*
X1147933Y-13655495D01*
X1128886Y-13655495D01*
X1109838Y-13645971D01*
X1100314Y-13636448D01*
X1090790Y-13617400D01*
X1081267Y-13579305D01*
X1081267Y-13531686D01*
X1090790Y-13493591D01*
X1100314Y-13474543D01*
X1109838Y-13465019D01*
X1128886Y-13455495D01*
X1319362Y-13455495D02*
X1338409Y-13455495D01*
X1357457Y-13465019D01*
X1366981Y-13474543D01*
X1376505Y-13493591D01*
X1386028Y-13531686D01*
X1386028Y-13579305D01*
X1376505Y-13617400D01*
X1366981Y-13636448D01*
X1357457Y-13645971D01*
X1338409Y-13655495D01*
X1319362Y-13655495D01*
X1300314Y-13645971D01*
X1290790Y-13636448D01*
X1281267Y-13617400D01*
X1271743Y-13579305D01*
X1271743Y-13531686D01*
X1281267Y-13493591D01*
X1290790Y-13474543D01*
X1300314Y-13465019D01*
X1319362Y-13455495D01*
X1471743Y-13655495D02*
X1471743Y-13522162D01*
X1471743Y-13541210D02*
X1481266Y-13531686D01*
X1500314Y-13522162D01*
X1528885Y-13522162D01*
X1547933Y-13531686D01*
X1557457Y-13550733D01*
X1557457Y-13655495D01*
X1557457Y-13550733D02*
X1566981Y-13531686D01*
X1586028Y-13522162D01*
X1614600Y-13522162D01*
X1633647Y-13531686D01*
X1643171Y-13550733D01*
X1643171Y-13655495D01*
X1738409Y-13655495D02*
X1738409Y-13522162D01*
X1738409Y-13541210D02*
X1747933Y-13531686D01*
X1766981Y-13522162D01*
X1795552Y-13522162D01*
X1814600Y-13531686D01*
X1824124Y-13550733D01*
X1824124Y-13655495D01*
X1824124Y-13550733D02*
X1833647Y-13531686D01*
X1852695Y-13522162D01*
X1881266Y-13522162D01*
X1900314Y-13531686D01*
X1909838Y-13550733D01*
X1909838Y-13655495D01*
X2300314Y-13445971D02*
X2128886Y-13703114D01*
X2557457Y-13455495D02*
X2576505Y-13455495D01*
X2595552Y-13465019D01*
X2605076Y-13474543D01*
X2614600Y-13493591D01*
X2624124Y-13531686D01*
X2624124Y-13579305D01*
X2614600Y-13617400D01*
X2605076Y-13636448D01*
X2595552Y-13645971D01*
X2576505Y-13655495D01*
X2557457Y-13655495D01*
X2538409Y-13645971D01*
X2528886Y-13636448D01*
X2519362Y-13617400D01*
X2509838Y-13579305D01*
X2509838Y-13531686D01*
X2519362Y-13493591D01*
X2528886Y-13474543D01*
X2538409Y-13465019D01*
X2557457Y-13455495D01*
X2709838Y-13636448D02*
X2719362Y-13645971D01*
X2709838Y-13655495D01*
X2700314Y-13645971D01*
X2709838Y-13636448D01*
X2709838Y-13655495D01*
X2843171Y-13455495D02*
X2862219Y-13455495D01*
X2881266Y-13465019D01*
X2890790Y-13474543D01*
X2900314Y-13493591D01*
X2909838Y-13531686D01*
X2909838Y-13579305D01*
X2900314Y-13617400D01*
X2890790Y-13636448D01*
X2881266Y-13645971D01*
X2862219Y-13655495D01*
X2843171Y-13655495D01*
X2824124Y-13645971D01*
X2814600Y-13636448D01*
X2805076Y-13617400D01*
X2795552Y-13579305D01*
X2795552Y-13531686D01*
X2805076Y-13493591D01*
X2814600Y-13474543D01*
X2824124Y-13465019D01*
X2843171Y-13455495D01*
X3024124Y-13541210D02*
X3005076Y-13531686D01*
X2995552Y-13522162D01*
X2986028Y-13503114D01*
X2986028Y-13493591D01*
X2995552Y-13474543D01*
X3005076Y-13465019D01*
X3024124Y-13455495D01*
X3062219Y-13455495D01*
X3081266Y-13465019D01*
X3090790Y-13474543D01*
X3100314Y-13493591D01*
X3100314Y-13503114D01*
X3090790Y-13522162D01*
X3081266Y-13531686D01*
X3062219Y-13541210D01*
X3024124Y-13541210D01*
X3005076Y-13550733D01*
X2995552Y-13560257D01*
X2986028Y-13579305D01*
X2986028Y-13617400D01*
X2995552Y-13636448D01*
X3005076Y-13645971D01*
X3024124Y-13655495D01*
X3062219Y-13655495D01*
X3081266Y-13645971D01*
X3090790Y-13636448D01*
X3100314Y-13617400D01*
X3100314Y-13579305D01*
X3090790Y-13560257D01*
X3081266Y-13550733D01*
X3062219Y-13541210D01*
X3271743Y-13455495D02*
X3233647Y-13455495D01*
X3214600Y-13465019D01*
X3205076Y-13474543D01*
X3186028Y-13503114D01*
X3176505Y-13541210D01*
X3176505Y-13617400D01*
X3186028Y-13636448D01*
X3195552Y-13645971D01*
X3214600Y-13655495D01*
X3252695Y-13655495D01*
X3271743Y-13645971D01*
X3281266Y-13636448D01*
X3290790Y-13617400D01*
X3290790Y-13569781D01*
X3281266Y-13550733D01*
X3271743Y-13541210D01*
X3252695Y-13531686D01*
X3214600Y-13531686D01*
X3195552Y-13541210D01*
X3186028Y-13550733D01*
X3176505Y-13569781D01*
X3462219Y-13455495D02*
X3424124Y-13455495D01*
X3405076Y-13465019D01*
X3395552Y-13474543D01*
X3376505Y-13503114D01*
X3366981Y-13541210D01*
X3366981Y-13617400D01*
X3376505Y-13636448D01*
X3386028Y-13645971D01*
X3405076Y-13655495D01*
X3443171Y-13655495D01*
X3462219Y-13645971D01*
X3471743Y-13636448D01*
X3481266Y-13617400D01*
X3481266Y-13569781D01*
X3471743Y-13550733D01*
X3462219Y-13541210D01*
X3443171Y-13531686D01*
X3405076Y-13531686D01*
X3386028Y-13541210D01*
X3376505Y-13550733D01*
X3366981Y-13569781D01*
X3557457Y-13455495D02*
X3557457Y-13493591D01*
X3633647Y-13455495D02*
X3633647Y-13493591D01*
X3928885Y-13731686D02*
X3919362Y-13722162D01*
X3900314Y-13693591D01*
X3890790Y-13674543D01*
X3881266Y-13645971D01*
X3871743Y-13598352D01*
X3871743Y-13560257D01*
X3881266Y-13512638D01*
X3890790Y-13484067D01*
X3900314Y-13465019D01*
X3919362Y-13436448D01*
X3928885Y-13426924D01*
X3986028Y-13455495D02*
X4119362Y-13455495D01*
X4033647Y-13655495D01*
X4347933Y-13655495D02*
X4347933Y-13455495D01*
X4433647Y-13655495D02*
X4433647Y-13550733D01*
X4424124Y-13531686D01*
X4405076Y-13522162D01*
X4376505Y-13522162D01*
X4357457Y-13531686D01*
X4347933Y-13541210D01*
X4557457Y-13655495D02*
X4538409Y-13645971D01*
X4528886Y-13636448D01*
X4519362Y-13617400D01*
X4519362Y-13560257D01*
X4528886Y-13541210D01*
X4538409Y-13531686D01*
X4557457Y-13522162D01*
X4586028Y-13522162D01*
X4605076Y-13531686D01*
X4614600Y-13541210D01*
X4624124Y-13560257D01*
X4624124Y-13617400D01*
X4614600Y-13636448D01*
X4605076Y-13645971D01*
X4586028Y-13655495D01*
X4557457Y-13655495D01*
X4738409Y-13655495D02*
X4719362Y-13645971D01*
X4709838Y-13626924D01*
X4709838Y-13455495D01*
X4890790Y-13645971D02*
X4871743Y-13655495D01*
X4833647Y-13655495D01*
X4814600Y-13645971D01*
X4805076Y-13626924D01*
X4805076Y-13550733D01*
X4814600Y-13531686D01*
X4833647Y-13522162D01*
X4871743Y-13522162D01*
X4890790Y-13531686D01*
X4900314Y-13550733D01*
X4900314Y-13569781D01*
X4805076Y-13588829D01*
X4976505Y-13645971D02*
X4995552Y-13655495D01*
X5033647Y-13655495D01*
X5052695Y-13645971D01*
X5062219Y-13626924D01*
X5062219Y-13617400D01*
X5052695Y-13598352D01*
X5033647Y-13588829D01*
X5005076Y-13588829D01*
X4986028Y-13579305D01*
X4976505Y-13560257D01*
X4976505Y-13550733D01*
X4986028Y-13531686D01*
X5005076Y-13522162D01*
X5033647Y-13522162D01*
X5052695Y-13531686D01*
X5128886Y-13731686D02*
X5138409Y-13722162D01*
X5157457Y-13693591D01*
X5166981Y-13674543D01*
X5176505Y-13645971D01*
X5186028Y-13598352D01*
X5186028Y-13560257D01*
X5176505Y-13512638D01*
X5166981Y-13484067D01*
X5157457Y-13465019D01*
X5138409Y-13436448D01*
X5128886Y-13426924D01*
X5490790Y-13731686D02*
X5481267Y-13722162D01*
X5462219Y-13693591D01*
X5452695Y-13674543D01*
X5443171Y-13645971D01*
X5433647Y-13598352D01*
X5433647Y-13560257D01*
X5443171Y-13512638D01*
X5452695Y-13484067D01*
X5462219Y-13465019D01*
X5481267Y-13436448D01*
X5490790Y-13426924D01*
X5566981Y-13522162D02*
X5566981Y-13655495D01*
X5566981Y-13541210D02*
X5576505Y-13531686D01*
X5595552Y-13522162D01*
X5624124Y-13522162D01*
X5643171Y-13531686D01*
X5652695Y-13550733D01*
X5652695Y-13655495D01*
X5776505Y-13655495D02*
X5757457Y-13645971D01*
X5747933Y-13636448D01*
X5738409Y-13617400D01*
X5738409Y-13560257D01*
X5747933Y-13541210D01*
X5757457Y-13531686D01*
X5776505Y-13522162D01*
X5805076Y-13522162D01*
X5824124Y-13531686D01*
X5833647Y-13541210D01*
X5843171Y-13560257D01*
X5843171Y-13617400D01*
X5833647Y-13636448D01*
X5824124Y-13645971D01*
X5805076Y-13655495D01*
X5776505Y-13655495D01*
X5900314Y-13522162D02*
X5976505Y-13522162D01*
X5928885Y-13455495D02*
X5928885Y-13626924D01*
X5938409Y-13645971D01*
X5957457Y-13655495D01*
X5976505Y-13655495D01*
X6195552Y-13522162D02*
X6195552Y-13722162D01*
X6195552Y-13531686D02*
X6214600Y-13522162D01*
X6252695Y-13522162D01*
X6271743Y-13531686D01*
X6281266Y-13541210D01*
X6290790Y-13560257D01*
X6290790Y-13617400D01*
X6281266Y-13636448D01*
X6271743Y-13645971D01*
X6252695Y-13655495D01*
X6214600Y-13655495D01*
X6195552Y-13645971D01*
X6405076Y-13655495D02*
X6386028Y-13645971D01*
X6376505Y-13626924D01*
X6376505Y-13455495D01*
X6566981Y-13655495D02*
X6566981Y-13550733D01*
X6557457Y-13531686D01*
X6538409Y-13522162D01*
X6500314Y-13522162D01*
X6481266Y-13531686D01*
X6566981Y-13645971D02*
X6547933Y-13655495D01*
X6500314Y-13655495D01*
X6481266Y-13645971D01*
X6471743Y-13626924D01*
X6471743Y-13607876D01*
X6481266Y-13588829D01*
X6500314Y-13579305D01*
X6547933Y-13579305D01*
X6566981Y-13569781D01*
X6633647Y-13522162D02*
X6709838Y-13522162D01*
X6662219Y-13455495D02*
X6662219Y-13626924D01*
X6671743Y-13645971D01*
X6690790Y-13655495D01*
X6709838Y-13655495D01*
X6852695Y-13645971D02*
X6833647Y-13655495D01*
X6795552Y-13655495D01*
X6776505Y-13645971D01*
X6766981Y-13626924D01*
X6766981Y-13550733D01*
X6776505Y-13531686D01*
X6795552Y-13522162D01*
X6833647Y-13522162D01*
X6852695Y-13531686D01*
X6862219Y-13550733D01*
X6862219Y-13569781D01*
X6766981Y-13588829D01*
X7033647Y-13655495D02*
X7033647Y-13455495D01*
X7033647Y-13645971D02*
X7014600Y-13655495D01*
X6976505Y-13655495D01*
X6957457Y-13645971D01*
X6947933Y-13636448D01*
X6938409Y-13617400D01*
X6938409Y-13560257D01*
X6947933Y-13541210D01*
X6957457Y-13531686D01*
X6976505Y-13522162D01*
X7014600Y-13522162D01*
X7033647Y-13531686D01*
X7109838Y-13731686D02*
X7119362Y-13722162D01*
X7138409Y-13693591D01*
X7147933Y-13674543D01*
X7157457Y-13645971D01*
X7166981Y-13598352D01*
X7166981Y-13560257D01*
X7157457Y-13512638D01*
X7147933Y-13484067D01*
X7138409Y-13465019D01*
X7119362Y-13436448D01*
X7109838Y-13426924D01*
X356981Y-13885019D02*
G75*
G03*
X356981Y-13885019I-100000J0D01*
G01*
X709838Y-13775495D02*
X614600Y-13775495D01*
X605076Y-13870733D01*
X614600Y-13861210D01*
X633647Y-13851686D01*
X681267Y-13851686D01*
X700314Y-13861210D01*
X709838Y-13870733D01*
X719362Y-13889781D01*
X719362Y-13937400D01*
X709838Y-13956448D01*
X700314Y-13965971D01*
X681267Y-13975495D01*
X633647Y-13975495D01*
X614600Y-13965971D01*
X605076Y-13956448D01*
X805076Y-13956448D02*
X814600Y-13965971D01*
X805076Y-13975495D01*
X795552Y-13965971D01*
X805076Y-13956448D01*
X805076Y-13975495D01*
X938409Y-13775495D02*
X957457Y-13775495D01*
X976505Y-13785019D01*
X986028Y-13794543D01*
X995552Y-13813591D01*
X1005076Y-13851686D01*
X1005076Y-13899305D01*
X995552Y-13937400D01*
X986028Y-13956448D01*
X976505Y-13965971D01*
X957457Y-13975495D01*
X938409Y-13975495D01*
X919362Y-13965971D01*
X909838Y-13956448D01*
X900314Y-13937400D01*
X890790Y-13899305D01*
X890790Y-13851686D01*
X900314Y-13813591D01*
X909838Y-13794543D01*
X919362Y-13785019D01*
X938409Y-13775495D01*
X1128886Y-13775495D02*
X1147933Y-13775495D01*
X1166981Y-13785019D01*
X1176505Y-13794543D01*
X1186028Y-13813591D01*
X1195552Y-13851686D01*
X1195552Y-13899305D01*
X1186028Y-13937400D01*
X1176505Y-13956448D01*
X1166981Y-13965971D01*
X1147933Y-13975495D01*
X1128886Y-13975495D01*
X1109838Y-13965971D01*
X1100314Y-13956448D01*
X1090790Y-13937400D01*
X1081267Y-13899305D01*
X1081267Y-13851686D01*
X1090790Y-13813591D01*
X1100314Y-13794543D01*
X1109838Y-13785019D01*
X1128886Y-13775495D01*
X1319362Y-13775495D02*
X1338409Y-13775495D01*
X1357457Y-13785019D01*
X1366981Y-13794543D01*
X1376505Y-13813591D01*
X1386028Y-13851686D01*
X1386028Y-13899305D01*
X1376505Y-13937400D01*
X1366981Y-13956448D01*
X1357457Y-13965971D01*
X1338409Y-13975495D01*
X1319362Y-13975495D01*
X1300314Y-13965971D01*
X1290790Y-13956448D01*
X1281267Y-13937400D01*
X1271743Y-13899305D01*
X1271743Y-13851686D01*
X1281267Y-13813591D01*
X1290790Y-13794543D01*
X1300314Y-13785019D01*
X1319362Y-13775495D01*
X1471743Y-13975495D02*
X1471743Y-13842162D01*
X1471743Y-13861210D02*
X1481266Y-13851686D01*
X1500314Y-13842162D01*
X1528885Y-13842162D01*
X1547933Y-13851686D01*
X1557457Y-13870733D01*
X1557457Y-13975495D01*
X1557457Y-13870733D02*
X1566981Y-13851686D01*
X1586028Y-13842162D01*
X1614600Y-13842162D01*
X1633647Y-13851686D01*
X1643171Y-13870733D01*
X1643171Y-13975495D01*
X1738409Y-13975495D02*
X1738409Y-13842162D01*
X1738409Y-13861210D02*
X1747933Y-13851686D01*
X1766981Y-13842162D01*
X1795552Y-13842162D01*
X1814600Y-13851686D01*
X1824124Y-13870733D01*
X1824124Y-13975495D01*
X1824124Y-13870733D02*
X1833647Y-13851686D01*
X1852695Y-13842162D01*
X1881266Y-13842162D01*
X1900314Y-13851686D01*
X1909838Y-13870733D01*
X1909838Y-13975495D01*
X2300314Y-13765971D02*
X2128886Y-14023114D01*
X2557457Y-13775495D02*
X2576505Y-13775495D01*
X2595552Y-13785019D01*
X2605076Y-13794543D01*
X2614600Y-13813591D01*
X2624124Y-13851686D01*
X2624124Y-13899305D01*
X2614600Y-13937400D01*
X2605076Y-13956448D01*
X2595552Y-13965971D01*
X2576505Y-13975495D01*
X2557457Y-13975495D01*
X2538409Y-13965971D01*
X2528886Y-13956448D01*
X2519362Y-13937400D01*
X2509838Y-13899305D01*
X2509838Y-13851686D01*
X2519362Y-13813591D01*
X2528886Y-13794543D01*
X2538409Y-13785019D01*
X2557457Y-13775495D01*
X2709838Y-13956448D02*
X2719362Y-13965971D01*
X2709838Y-13975495D01*
X2700314Y-13965971D01*
X2709838Y-13956448D01*
X2709838Y-13975495D01*
X2909838Y-13975495D02*
X2795552Y-13975495D01*
X2852695Y-13975495D02*
X2852695Y-13775495D01*
X2833647Y-13804067D01*
X2814600Y-13823114D01*
X2795552Y-13832638D01*
X3005076Y-13975495D02*
X3043171Y-13975495D01*
X3062219Y-13965971D01*
X3071743Y-13956448D01*
X3090790Y-13927876D01*
X3100314Y-13889781D01*
X3100314Y-13813591D01*
X3090790Y-13794543D01*
X3081266Y-13785019D01*
X3062219Y-13775495D01*
X3024124Y-13775495D01*
X3005076Y-13785019D01*
X2995552Y-13794543D01*
X2986028Y-13813591D01*
X2986028Y-13861210D01*
X2995552Y-13880257D01*
X3005076Y-13889781D01*
X3024124Y-13899305D01*
X3062219Y-13899305D01*
X3081266Y-13889781D01*
X3090790Y-13880257D01*
X3100314Y-13861210D01*
X3271743Y-13775495D02*
X3233647Y-13775495D01*
X3214600Y-13785019D01*
X3205076Y-13794543D01*
X3186028Y-13823114D01*
X3176505Y-13861210D01*
X3176505Y-13937400D01*
X3186028Y-13956448D01*
X3195552Y-13965971D01*
X3214600Y-13975495D01*
X3252695Y-13975495D01*
X3271743Y-13965971D01*
X3281266Y-13956448D01*
X3290790Y-13937400D01*
X3290790Y-13889781D01*
X3281266Y-13870733D01*
X3271743Y-13861210D01*
X3252695Y-13851686D01*
X3214600Y-13851686D01*
X3195552Y-13861210D01*
X3186028Y-13870733D01*
X3176505Y-13889781D01*
X3386028Y-13975495D02*
X3424124Y-13975495D01*
X3443171Y-13965971D01*
X3452695Y-13956448D01*
X3471743Y-13927876D01*
X3481266Y-13889781D01*
X3481266Y-13813591D01*
X3471743Y-13794543D01*
X3462219Y-13785019D01*
X3443171Y-13775495D01*
X3405076Y-13775495D01*
X3386028Y-13785019D01*
X3376505Y-13794543D01*
X3366981Y-13813591D01*
X3366981Y-13861210D01*
X3376505Y-13880257D01*
X3386028Y-13889781D01*
X3405076Y-13899305D01*
X3443171Y-13899305D01*
X3462219Y-13889781D01*
X3471743Y-13880257D01*
X3481266Y-13861210D01*
X3557457Y-13775495D02*
X3557457Y-13813591D01*
X3633647Y-13775495D02*
X3633647Y-13813591D01*
X3928885Y-14051686D02*
X3919362Y-14042162D01*
X3900314Y-14013591D01*
X3890790Y-13994543D01*
X3881266Y-13965971D01*
X3871743Y-13918352D01*
X3871743Y-13880257D01*
X3881266Y-13832638D01*
X3890790Y-13804067D01*
X3900314Y-13785019D01*
X3919362Y-13756448D01*
X3928885Y-13746924D01*
X4090790Y-13842162D02*
X4090790Y-13975495D01*
X4043171Y-13765971D02*
X3995552Y-13908829D01*
X4119362Y-13908829D01*
X4347933Y-13975495D02*
X4347933Y-13775495D01*
X4433647Y-13975495D02*
X4433647Y-13870733D01*
X4424124Y-13851686D01*
X4405076Y-13842162D01*
X4376505Y-13842162D01*
X4357457Y-13851686D01*
X4347933Y-13861210D01*
X4557457Y-13975495D02*
X4538409Y-13965971D01*
X4528886Y-13956448D01*
X4519362Y-13937400D01*
X4519362Y-13880257D01*
X4528886Y-13861210D01*
X4538409Y-13851686D01*
X4557457Y-13842162D01*
X4586028Y-13842162D01*
X4605076Y-13851686D01*
X4614600Y-13861210D01*
X4624124Y-13880257D01*
X4624124Y-13937400D01*
X4614600Y-13956448D01*
X4605076Y-13965971D01*
X4586028Y-13975495D01*
X4557457Y-13975495D01*
X4738409Y-13975495D02*
X4719362Y-13965971D01*
X4709838Y-13946924D01*
X4709838Y-13775495D01*
X4890790Y-13965971D02*
X4871743Y-13975495D01*
X4833647Y-13975495D01*
X4814600Y-13965971D01*
X4805076Y-13946924D01*
X4805076Y-13870733D01*
X4814600Y-13851686D01*
X4833647Y-13842162D01*
X4871743Y-13842162D01*
X4890790Y-13851686D01*
X4900314Y-13870733D01*
X4900314Y-13889781D01*
X4805076Y-13908829D01*
X4976505Y-13965971D02*
X4995552Y-13975495D01*
X5033647Y-13975495D01*
X5052695Y-13965971D01*
X5062219Y-13946924D01*
X5062219Y-13937400D01*
X5052695Y-13918352D01*
X5033647Y-13908829D01*
X5005076Y-13908829D01*
X4986028Y-13899305D01*
X4976505Y-13880257D01*
X4976505Y-13870733D01*
X4986028Y-13851686D01*
X5005076Y-13842162D01*
X5033647Y-13842162D01*
X5052695Y-13851686D01*
X5128886Y-14051686D02*
X5138409Y-14042162D01*
X5157457Y-14013591D01*
X5166981Y-13994543D01*
X5176505Y-13965971D01*
X5186028Y-13918352D01*
X5186028Y-13880257D01*
X5176505Y-13832638D01*
X5166981Y-13804067D01*
X5157457Y-13785019D01*
X5138409Y-13756448D01*
X5128886Y-13746924D01*
X5490790Y-14051686D02*
X5481267Y-14042162D01*
X5462219Y-14013591D01*
X5452695Y-13994543D01*
X5443171Y-13965971D01*
X5433647Y-13918352D01*
X5433647Y-13880257D01*
X5443171Y-13832638D01*
X5452695Y-13804067D01*
X5462219Y-13785019D01*
X5481267Y-13756448D01*
X5490790Y-13746924D01*
X5566981Y-13842162D02*
X5566981Y-13975495D01*
X5566981Y-13861210D02*
X5576505Y-13851686D01*
X5595552Y-13842162D01*
X5624124Y-13842162D01*
X5643171Y-13851686D01*
X5652695Y-13870733D01*
X5652695Y-13975495D01*
X5776505Y-13975495D02*
X5757457Y-13965971D01*
X5747933Y-13956448D01*
X5738409Y-13937400D01*
X5738409Y-13880257D01*
X5747933Y-13861210D01*
X5757457Y-13851686D01*
X5776505Y-13842162D01*
X5805076Y-13842162D01*
X5824124Y-13851686D01*
X5833647Y-13861210D01*
X5843171Y-13880257D01*
X5843171Y-13937400D01*
X5833647Y-13956448D01*
X5824124Y-13965971D01*
X5805076Y-13975495D01*
X5776505Y-13975495D01*
X5900314Y-13842162D02*
X5976505Y-13842162D01*
X5928885Y-13775495D02*
X5928885Y-13946924D01*
X5938409Y-13965971D01*
X5957457Y-13975495D01*
X5976505Y-13975495D01*
X6195552Y-13842162D02*
X6195552Y-14042162D01*
X6195552Y-13851686D02*
X6214600Y-13842162D01*
X6252695Y-13842162D01*
X6271743Y-13851686D01*
X6281266Y-13861210D01*
X6290790Y-13880257D01*
X6290790Y-13937400D01*
X6281266Y-13956448D01*
X6271743Y-13965971D01*
X6252695Y-13975495D01*
X6214600Y-13975495D01*
X6195552Y-13965971D01*
X6405076Y-13975495D02*
X6386028Y-13965971D01*
X6376505Y-13946924D01*
X6376505Y-13775495D01*
X6566981Y-13975495D02*
X6566981Y-13870733D01*
X6557457Y-13851686D01*
X6538409Y-13842162D01*
X6500314Y-13842162D01*
X6481266Y-13851686D01*
X6566981Y-13965971D02*
X6547933Y-13975495D01*
X6500314Y-13975495D01*
X6481266Y-13965971D01*
X6471743Y-13946924D01*
X6471743Y-13927876D01*
X6481266Y-13908829D01*
X6500314Y-13899305D01*
X6547933Y-13899305D01*
X6566981Y-13889781D01*
X6633647Y-13842162D02*
X6709838Y-13842162D01*
X6662219Y-13775495D02*
X6662219Y-13946924D01*
X6671743Y-13965971D01*
X6690790Y-13975495D01*
X6709838Y-13975495D01*
X6852695Y-13965971D02*
X6833647Y-13975495D01*
X6795552Y-13975495D01*
X6776505Y-13965971D01*
X6766981Y-13946924D01*
X6766981Y-13870733D01*
X6776505Y-13851686D01*
X6795552Y-13842162D01*
X6833647Y-13842162D01*
X6852695Y-13851686D01*
X6862219Y-13870733D01*
X6862219Y-13889781D01*
X6766981Y-13908829D01*
X7033647Y-13975495D02*
X7033647Y-13775495D01*
X7033647Y-13965971D02*
X7014600Y-13975495D01*
X6976505Y-13975495D01*
X6957457Y-13965971D01*
X6947933Y-13956448D01*
X6938409Y-13937400D01*
X6938409Y-13880257D01*
X6947933Y-13861210D01*
X6957457Y-13851686D01*
X6976505Y-13842162D01*
X7014600Y-13842162D01*
X7033647Y-13851686D01*
X7109838Y-14051686D02*
X7119362Y-14042162D01*
X7138409Y-14013591D01*
X7147933Y-13994543D01*
X7157457Y-13965971D01*
X7166981Y-13918352D01*
X7166981Y-13880257D01*
X7157457Y-13832638D01*
X7147933Y-13804067D01*
X7138409Y-13785019D01*
X7119362Y-13756448D01*
X7109838Y-13746924D01*
M02*
