%TF.GenerationSoftware,KiCad,Pcbnew,6.0.2+dfsg-1*%
%TF.CreationDate,2022-06-30T23:44:07+02:00*%
%TF.ProjectId,dragonwings_backplate,64726167-6f6e-4776-996e-67735f626163,rev?*%
%TF.SameCoordinates,Original*%
%TF.FileFunction,Legend,Bot*%
%TF.FilePolarity,Positive*%
%FSLAX46Y46*%
G04 Gerber Fmt 4.6, Leading zero omitted, Abs format (unit mm)*
G04 Created by KiCad (PCBNEW 6.0.2+dfsg-1) date 2022-06-30 23:44:07*
%MOMM*%
%LPD*%
G01*
G04 APERTURE LIST*
%ADD10C,0.200000*%
%ADD11C,5.000000*%
%ADD12C,2.200000*%
G04 APERTURE END LIST*
D10*
X169238095Y-103904761D02*
X169238095Y-105333333D01*
X169333333Y-105619047D01*
X169523809Y-105809523D01*
X169809523Y-105904761D01*
X170000000Y-105904761D01*
X167333333Y-105904761D02*
X168285714Y-105904761D01*
X168285714Y-103904761D01*
X165523809Y-105714285D02*
X165619047Y-105809523D01*
X165904761Y-105904761D01*
X166095238Y-105904761D01*
X166380952Y-105809523D01*
X166571428Y-105619047D01*
X166666666Y-105428571D01*
X166761904Y-105047619D01*
X166761904Y-104761904D01*
X166666666Y-104380952D01*
X166571428Y-104190476D01*
X166380952Y-104000000D01*
X166095238Y-103904761D01*
X165904761Y-103904761D01*
X165619047Y-104000000D01*
X165523809Y-104095238D01*
X164095238Y-103904761D02*
X164095238Y-105333333D01*
X164190476Y-105619047D01*
X164380952Y-105809523D01*
X164666666Y-105904761D01*
X164857142Y-105904761D01*
X162190476Y-105904761D02*
X163142857Y-105904761D01*
X163142857Y-103904761D01*
X160380952Y-105714285D02*
X160476190Y-105809523D01*
X160761904Y-105904761D01*
X160952380Y-105904761D01*
X161238095Y-105809523D01*
X161428571Y-105619047D01*
X161523809Y-105428571D01*
X161619047Y-105047619D01*
X161619047Y-104761904D01*
X161523809Y-104380952D01*
X161428571Y-104190476D01*
X161238095Y-104000000D01*
X160952380Y-103904761D01*
X160761904Y-103904761D01*
X160476190Y-104000000D01*
X160380952Y-104095238D01*
X158952380Y-103904761D02*
X158952380Y-105333333D01*
X159047619Y-105619047D01*
X159238095Y-105809523D01*
X159523809Y-105904761D01*
X159714285Y-105904761D01*
X157047619Y-105904761D02*
X158000000Y-105904761D01*
X158000000Y-103904761D01*
X155238095Y-105714285D02*
X155333333Y-105809523D01*
X155619047Y-105904761D01*
X155809523Y-105904761D01*
X156095238Y-105809523D01*
X156285714Y-105619047D01*
X156380952Y-105428571D01*
X156476190Y-105047619D01*
X156476190Y-104761904D01*
X156380952Y-104380952D01*
X156285714Y-104190476D01*
X156095238Y-104000000D01*
X155809523Y-103904761D01*
X155619047Y-103904761D01*
X155333333Y-104000000D01*
X155238095Y-104095238D01*
X153809523Y-103904761D02*
X153809523Y-105333333D01*
X153904761Y-105619047D01*
X154095238Y-105809523D01*
X154380952Y-105904761D01*
X154571428Y-105904761D01*
X151904761Y-105904761D02*
X152857142Y-105904761D01*
X152857142Y-103904761D01*
X150095238Y-105714285D02*
X150190476Y-105809523D01*
X150476190Y-105904761D01*
X150666666Y-105904761D01*
X150952380Y-105809523D01*
X151142857Y-105619047D01*
X151238095Y-105428571D01*
X151333333Y-105047619D01*
X151333333Y-104761904D01*
X151238095Y-104380952D01*
X151142857Y-104190476D01*
X150952380Y-104000000D01*
X150666666Y-103904761D01*
X150476190Y-103904761D01*
X150190476Y-104000000D01*
X150095238Y-104095238D01*
%LPC*%
D11*
%TO.C,REF04*%
X65000000Y-75000000D03*
%TD*%
%TO.C,REF05*%
X75000000Y-30000000D03*
%TD*%
%TO.C,REF01*%
X255000000Y-75000000D03*
%TD*%
%TO.C,REF00*%
X245000000Y-30000000D03*
%TD*%
D12*
%TO.C,REF04*%
X25000000Y-39000000D03*
%TD*%
%TO.C,REF05*%
X221000000Y-36000000D03*
%TD*%
%TO.C,REF03*%
X295000000Y-39000000D03*
%TD*%
%TO.C,REF01*%
X245000000Y-84000000D03*
%TD*%
%TO.C,REF06*%
X99000000Y-36000000D03*
%TD*%
%TO.C,REF02*%
X75000000Y-84000000D03*
%TD*%
%TO.C,REF00*%
X160000000Y-120000000D03*
%TD*%
M02*
